<svg width="15" height="21" viewBox="0 0 15 21" fill="none" xmlns="http://www.w3.org/2000/svg">
<rect x="9.88245" y="3.81821" width="1.90909" height="2.47059" transform="rotate(90 9.88245 3.81821)" fill="white"/>
<rect x="12.353" y="3.81821" width="1.90909" height="2.47059" transform="rotate(90 12.353 3.81821)" fill="white"/>
<rect x="14.8236" y="3.81821" width="1.90909" height="2.47059" transform="rotate(90 14.8236 3.81821)" fill="white"/>
<rect x="12.353" y="1.90909" width="1.90909" height="2.47059" transform="rotate(90 12.353 1.90909)" fill="white"/>
<rect x="14.8236" y="1.90909" width="1.90909" height="2.47059" transform="rotate(90 14.8236 1.90909)" fill="white"/>
<rect x="14.8236" width="1.90909" height="2.47059" transform="rotate(90 14.8236 0)" fill="white"/>
<rect x="9.88245" y="11.4546" width="1.90909" height="2.47059" transform="rotate(90 9.88245 11.4546)" fill="white"/>
<rect x="12.353" y="11.4546" width="1.90909" height="2.47059" transform="rotate(90 12.353 11.4546)" fill="white"/>
<rect x="14.8236" y="11.4546" width="1.90909" height="2.47059" transform="rotate(90 14.8236 11.4546)" fill="white"/>
<rect x="7.41174" y="5.72725" width="1.90909" height="2.47059" transform="rotate(90 7.41174 5.72725)" fill="white"/>
<rect x="9.88245" y="5.72725" width="1.90909" height="2.47059" transform="rotate(90 9.88245 5.72725)" fill="white"/>
<rect x="12.353" y="5.72725" width="1.90909" height="2.47059" transform="rotate(90 12.353 5.72725)" fill="white"/>
<rect x="14.8236" y="5.72725" width="1.90909" height="2.47059" transform="rotate(90 14.8236 5.72725)" fill="white"/>
<rect x="9.88245" y="13.3636" width="1.90909" height="2.47059" transform="rotate(90 9.88245 13.3636)" fill="white"/>
<rect x="12.353" y="13.3636" width="1.90909" height="2.47059" transform="rotate(90 12.353 13.3636)" fill="white"/>
<rect x="14.8236" y="13.3636" width="1.90909" height="2.47059" transform="rotate(90 14.8236 13.3636)" fill="white"/>
<rect x="7.41174" y="7.63635" width="1.90909" height="2.47059" transform="rotate(90 7.41174 7.63635)" fill="white"/>
<rect x="9.88245" y="7.63635" width="1.90909" height="2.47059" transform="rotate(90 9.88245 7.63635)" fill="white"/>
<rect x="12.353" y="7.63635" width="1.90909" height="2.47059" transform="rotate(90 12.353 7.63635)" fill="white"/>
<rect x="14.8236" y="7.63635" width="1.90909" height="2.47059" transform="rotate(90 14.8236 7.63635)" fill="white"/>
<rect x="9.88245" y="15.2727" width="1.90909" height="2.47059" transform="rotate(90 9.88245 15.2727)" fill="white"/>
<rect x="12.353" y="15.2727" width="1.90909" height="2.47059" transform="rotate(90 12.353 15.2727)" fill="white"/>
<rect x="14.8236" y="15.2727" width="1.90909" height="2.47059" transform="rotate(90 14.8236 15.2727)" fill="white"/>
<rect x="12.353" y="17.1818" width="1.90909" height="2.47059" transform="rotate(90 12.353 17.1818)" fill="white"/>
<rect x="14.8236" y="17.1818" width="1.90909" height="2.47059" transform="rotate(90 14.8236 17.1818)" fill="white"/>
<rect x="14.8236" y="19.0909" width="1.90909" height="2.47059" transform="rotate(90 14.8236 19.0909)" fill="white"/>
<rect x="7.41174" y="9.54544" width="1.90909" height="2.47059" transform="rotate(90 7.41174 9.54544)" fill="white"/>
<rect x="7.41174" y="13.3636" width="1.90909" height="2.47059" transform="rotate(90 7.41174 13.3636)" fill="white"/>
<rect x="9.88245" y="9.54544" width="1.90909" height="2.47059" transform="rotate(90 9.88245 9.54544)" fill="white"/>
<rect x="12.353" y="9.54544" width="1.90909" height="2.47059" transform="rotate(90 12.353 9.54544)" fill="white"/>
<rect x="14.8236" y="9.54544" width="1.90909" height="2.47059" transform="rotate(90 14.8236 9.54544)" fill="white"/>
<rect x="7.41174" y="11.4546" width="1.90909" height="2.47059" transform="rotate(90 7.41174 11.4546)" fill="white"/>
<rect x="4.94128" y="11.4546" width="1.90909" height="2.47059" transform="rotate(90 4.94128 11.4546)" fill="white"/>
<rect x="4.94128" y="9.54544" width="1.90909" height="2.47059" transform="rotate(90 4.94128 9.54544)" fill="white"/>
<rect x="4.94128" y="7.63635" width="1.90909" height="2.47059" transform="rotate(90 4.94128 7.63635)" fill="white"/>
<rect x="2.47058" y="9.54544" width="1.90909" height="2.47059" transform="rotate(90 2.47058 9.54544)" fill="white"/>
</svg>
