<svg width="20" height="17" viewBox="0 0 20 17" fill="none" xmlns="http://www.w3.org/2000/svg">
<path fill-rule="evenodd" clip-rule="evenodd" d="M18.4412 0C19.2696 0 19.9412 0.671573 19.9412 1.5V14.6765C19.9412 15.5049 19.2696 16.1765 18.4412 16.1765H8.36804C7.98102 16.1765 7.60897 16.0269 7.32966 15.759L0.46162 9.17072C0.166721 8.88783 0 8.49688 0 8.08824C0 7.67959 0.166721 7.28864 0.46162 7.00575L7.32966 0.417518C7.60897 0.149596 7.98102 0 8.36804 0H18.4412ZM2.58342 7.04896L8.36804 1.5H16.9412H18.4412V3V13.1765V14.6765H16.9412H8.36804L2.58342 9.12751L1.5 8.08824L2.58342 7.04896ZM16.148 4.73438C16.4409 5.02727 16.4409 5.50214 16.148 5.79504L13.8547 8.08834L16.148 10.3816C16.4409 10.6745 16.4409 11.1494 16.148 11.4423C15.8551 11.7352 15.3802 11.7352 15.0873 11.4423L12.794 9.149L10.5009 11.4421C10.208 11.735 9.73315 11.735 9.44026 11.4421C9.14737 11.1492 9.14737 10.6743 9.44026 10.3814L11.7334 8.08834L9.44026 5.79524C9.14737 5.50234 9.14737 5.02747 9.44026 4.73458C9.73315 4.44168 10.208 4.44168 10.5009 4.73458L12.794 7.02768L15.0873 4.73438C15.3802 4.44148 15.8551 4.44148 16.148 4.73438Z" fill="black"/>
</svg>
