<svg width="32" height="32" viewBox="0 0 32 32" fill="none" xmlns="http://www.w3.org/2000/svg">
<g clip-path="url(#clip0_2_58208)">
<path d="M21.3091 15.04V13.12H23.2727V9.27998H25.2363V3.51998H27.2V1.59998H5.59998V3.51998H7.56361V9.27998H9.52725V13.12H11.4909V15.04H13.4545V16.96H11.4909V18.88H9.52725V22.72H7.56361V28.48H5.59998V30.4H27.2V28.48H25.2363V22.72H23.2727V18.88H21.3091V16.96H19.3454V15.04H21.3091Z" fill="black"/>
<path d="M19.3454 15.04V13.12H21.3091V9.27996H23.2727V3.51996H9.52725V9.27996H11.4909V13.12H13.4545V15.04H15.4182V16.96H13.4545V18.88H11.4909V22.72H9.52725V28.48H23.2727V22.72H21.3091V18.88H19.3454V16.96H17.3818V15.04H19.3454Z" fill="white"/>
<path d="M19.3454 9.27997H17.3818V11.2H19.3454V9.27997Z" fill="#FF9600"/>
<path d="M13.4545 9.27997V11.2H15.4182V13.12H17.3818V9.27997H13.4545Z" fill="#E66C00"/>
<path d="M15.4181 26.56H11.4909V28.48H15.4181V26.56Z" fill="#A82F00"/>
<path d="M17.3818 26.56V22.72H15.4182V24.64H13.4545V26.56H15.4182V28.48H19.3454V26.56H17.3818Z" fill="#E66C00"/>
<path d="M17.3818 18.8799H15.4182V20.7999H17.3818V18.8799Z" fill="#E66C00"/>
<path d="M19.3454 24.64H17.3818V26.56H19.3454V24.64Z" fill="#FF9600"/>
<path d="M21.3091 26.56H19.3454V28.48H21.3091V26.56Z" fill="#FF9600"/>
</g>
<defs>
<clipPath id="clip0_2_58208">
<rect width="21.6" height="28.8" fill="white" transform="translate(5.59998 1.59998)"/>
</clipPath>
</defs>
</svg>
