<svg width="14" height="12" viewBox="0 0 14 12" fill="none" xmlns="http://www.w3.org/2000/svg">
<path d="M1.57109 9.02485L1.57019 9.0264C1.33799 9.4306 1.22552 9.96992 1.50636 10.4558C1.78742 10.9421 2.31137 11.1137 2.77848 11.1137H11.285C11.7506 11.1137 12.2757 10.9436 12.5571 10.4563C12.8383 9.96911 12.7234 9.42923 12.491 9.02567L12.4906 9.02497L8.23733 1.65878L8.23716 1.65849C8.00396 1.25504 7.59372 0.886475 7.03175 0.886475C6.46978 0.886475 6.05953 1.25504 5.82634 1.65849L5.82624 1.65866L1.57109 9.02485Z" fill="#FFE600" stroke="#333333" stroke-width="1.5"/>
<path d="M7.54839 4.69751H6.51701V7.32574H7.54839V4.69751ZM6.51701 8.31955V9.23445H7.54839V8.31955H6.51701Z" fill="#333333"/>
</svg>
