<svg width="20" height="20" viewBox="0 0 20 20" fill="none" xmlns="http://www.w3.org/2000/svg">
<g clip-path="url(#clip0_2_58032)">
<path d="M10.6667 9.33334H9.33334V10.6667H10.6667V9.33334Z" fill="white"/>
<path d="M12 9.33334H10.6667V10.6667H12V9.33334Z" fill="#FFE600"/>
<path d="M9.33333 9.33334H8V10.6667H9.33333V9.33334Z" fill="#FFE600"/>
<path d="M10.6667 10.6667H9.33334V12H10.6667V10.6667Z" fill="#FFE600"/>
<path d="M10.6667 8H9.33334V9.33333H10.6667V8Z" fill="#FFE600"/>
<path d="M13.3333 9.33331H12V10.6666H13.3333V9.33331Z" fill="#E8C407"/>
<path d="M7.99999 9.33331H6.66666V10.6666H7.99999V9.33331Z" fill="#E8C407"/>
<path d="M12 10.6667H10.6667V12H12V10.6667Z" fill="#E8C407"/>
<path d="M9.33333 10.6667H8V12H9.33333V10.6667Z" fill="#E8C407"/>
<path d="M10.6666 12H9.33331V13.3333H10.6666V12Z" fill="#E8C407"/>
<path d="M12 8H10.6667V9.33333H12V8Z" fill="#E8C407"/>
<path d="M9.33333 8H8V9.33333H9.33333V8Z" fill="#E8C407"/>
<path d="M10.6666 6.66666H9.33331V7.99999H10.6666V6.66666Z" fill="#E8C407"/>
<path d="M14.6667 9.33334H13.3333V10.6667H14.6667V9.33334Z" fill="#AF9F0B"/>
<path d="M13.3333 10.6667H12V12H13.3333V10.6667Z" fill="#AF9F0B"/>
<path d="M12 12H10.6667V13.3333H12V12Z" fill="#AF9F0B"/>
<path d="M10.6667 13.3333H9.33334V14.6667H10.6667V13.3333Z" fill="#AF9F0B"/>
<path d="M9.33333 12H8V13.3333H9.33333V12Z" fill="#AF9F0B"/>
<path d="M8.00002 10.6667H6.66669V12H8.00002V10.6667Z" fill="#AF9F0B"/>
<path d="M13.3333 8H12V9.33333H13.3333V8Z" fill="#AF9F0B"/>
<path d="M12 6.66669H10.6667V8.00002H12V6.66669Z" fill="#AF9F0B"/>
<path d="M10.6667 5.33334H9.33334V6.66668H10.6667V5.33334Z" fill="#AF9F0B"/>
<path d="M9.33333 6.66669H8V8.00002H9.33333V6.66669Z" fill="#AF9F0B"/>
<path d="M8.00002 8H6.66669V9.33333H8.00002V8Z" fill="#AF9F0B"/>
<path d="M6.66668 9.33334H5.33334V10.6667H6.66668V9.33334Z" fill="#AF9F0B"/>
<path d="M16 9.33334H14.6667V10.6667H16V9.33334Z" fill="#333333"/>
<path d="M14.6667 10.6667H13.3333V12H14.6667V10.6667Z" fill="#333333"/>
<path d="M13.3333 12H12V13.3333H13.3333V12Z" fill="#333333"/>
<path d="M10.6667 14.6667H9.33334V16H10.6667V14.6667Z" fill="#333333"/>
<path d="M9.33333 13.3333H8V14.6667H9.33333V13.3333Z" fill="#333333"/>
<path d="M12 13.3333H10.6667V14.6667H12V13.3333Z" fill="#333333"/>
<path d="M7.99999 12H6.66666V13.3333H7.99999V12Z" fill="#333333"/>
<path d="M14.6667 8H13.3333V9.33333H14.6667V8Z" fill="#333333"/>
<path d="M13.3333 6.66666H12V7.99999H13.3333V6.66666Z" fill="#333333"/>
<path d="M10.6667 4H9.33334V5.33333H10.6667V4Z" fill="#333333"/>
<path d="M12 5.33334H10.6667V6.66668H12V5.33334Z" fill="#333333"/>
<path d="M9.33333 5.33334H8V6.66668H9.33333V5.33334Z" fill="#333333"/>
<path d="M7.99999 6.66666H6.66666V7.99999H7.99999V6.66666Z" fill="#333333"/>
<path d="M6.66668 10.6667H5.33334V12H6.66668V10.6667Z" fill="#333333"/>
<path d="M6.66668 8H5.33334V9.33333H6.66668V8Z" fill="#333333"/>
<path d="M5.33333 9.33334H4V10.6667H5.33333V9.33334Z" fill="#333333"/>
<path d="M5.33333 4H4V5.33333H5.33333V4Z" fill="#333333"/>
<path d="M3.99999 2.66666H2.66666V3.99999H3.99999V2.66666Z" fill="#333333"/>
<path d="M16 4H14.6667V5.33333H16V4Z" fill="#333333"/>
<path d="M17.3333 2.66666H16V3.99999H17.3333V2.66666Z" fill="#333333"/>
<path d="M5.33333 14.6667H4V16H5.33333V14.6667Z" fill="#333333"/>
<path d="M3.99999 16H2.66666V17.3333H3.99999V16Z" fill="#333333"/>
<path d="M16 14.6667H14.6667V16H16V14.6667Z" fill="#333333"/>
<path d="M17.3333 16H16V17.3333H17.3333V16Z" fill="#333333"/>
<path d="M10.6667 0H9.33334V2.66667H10.6667V0Z" fill="#333333"/>
<path d="M10.6667 17.3333H9.33334V20H10.6667V17.3333Z" fill="#333333"/>
<path d="M2.66667 9.33334H0V10.6667H2.66667V9.33334Z" fill="#333333"/>
<path d="M20 9.33334H17.3333V10.6667H20V9.33334Z" fill="#333333"/>
</g>
<defs>
<clipPath id="clip0_2_58032">
<rect width="20" height="20" fill="white"/>
</clipPath>
</defs>
</svg>
