<svg width="12" height="12" viewBox="0 0 12 12" fill="none" xmlns="http://www.w3.org/2000/svg">
<g clip-path="url(#clip0_122_1393)">
<path d="M7.3845 2.76929H6.46143V4.61544H7.3845V2.76929Z" fill="white"/>
<path d="M8.3076 4.61548H7.38452V5.53856H8.3076V4.61548Z" fill="white"/>
<path d="M6.46165 0.923096H5.53857V2.76925H6.46165V0.923096Z" fill="#FEFE38"/>
<path d="M8.30784 6.46167H7.38477V7.38475H8.30784V6.46167Z" fill="#FEFE38"/>
<path d="M9.23094 8.30762H8.30786V10.1538H9.23094V8.30762Z" fill="#FEFE38"/>
<path d="M8.30786 4.61548V6.46163H9.23094V5.53856H10.154V4.61548H8.30786Z" fill="#FEFE38"/>
<path d="M8.30775 6.4616V5.53852H7.38467V4.61544H6.46159V2.76929H5.53852V4.61544H2.76929V5.53852H3.69236V6.4616H4.61544V8.30775H3.69236V10.1539H4.61544V9.23083H5.53852V8.30775H7.38467V9.23083H8.30775V7.38467H7.38467V6.4616H8.30775Z" fill="#FFE823"/>
<path d="M9.23069 10.1538H8.30762V11.0769H9.23069V10.1538Z" fill="#F5CB11"/>
<path d="M5.53856 2.76929H4.61548V4.61544H5.53856V2.76929Z" fill="#F5CB11"/>
<path d="M2.76927 4.61548H1.84619V5.53856H2.76927V4.61548Z" fill="#F5CB11"/>
<path d="M3.69236 5.53857H2.76929V6.46165H3.69236V5.53857Z" fill="#F5CB11"/>
<path d="M4.61546 6.46167H3.69238V8.30782H4.61546V6.46167Z" fill="#F5CB11"/>
<path d="M7.38475 8.30786H6.46167V9.23094H7.38475V8.30786Z" fill="#F5CB11"/>
<path d="M8.30784 9.23071H7.38477V10.1538H8.30784V9.23071Z" fill="#F5CB11"/>
<path d="M3.69236 8.30786H2.76929V11.0771H3.69236V8.30786Z" fill="#F5CB11"/>
<path d="M6.46165 0H5.53857V0.923077H6.46165V0Z" fill="black"/>
<path d="M5.53856 0.923096H4.61548V2.76925H5.53856V0.923096Z" fill="black"/>
<path d="M3.69231 2.76929V3.69236H0V4.61544H0.923077V5.53852H1.84615V4.61544H4.61538V2.76929H3.69231Z" fill="black"/>
<path d="M2.76927 5.53857H1.84619V6.46165H2.76927V5.53857Z" fill="black"/>
<path d="M3.69236 6.46143H2.76929V8.30758H3.69236V6.46143Z" fill="black"/>
<path d="M2.76927 8.30762H1.84619V11.0768H2.76927V8.30762Z" fill="black"/>
<path d="M3.69236 11.0769H2.76929V12H3.69236V11.0769Z" fill="black"/>
<path d="M4.61546 10.1538H3.69238V11.0769H4.61546V10.1538Z" fill="black"/>
<path d="M5.53856 9.23071H4.61548V10.1538H5.53856V9.23071Z" fill="black"/>
<path d="M7.3845 0.923096H6.46143V2.76925H7.3845V0.923096Z" fill="black"/>
<path d="M8.3076 3.69236V2.76929H7.38452V4.61544H10.1538V5.53852H11.0768V4.61544H11.9999V3.69236H8.3076Z" fill="black"/>
<path d="M10.1538 5.53857H9.23071V6.46165H10.1538V5.53857Z" fill="black"/>
<path d="M9.23069 6.46143H8.30762V8.30758H9.23069V6.46143Z" fill="black"/>
<path d="M10.1538 8.30762H9.23071V11.0768H10.1538V8.30762Z" fill="black"/>
<path d="M9.23069 11.0769H8.30762V12H9.23069V11.0769Z" fill="black"/>
<path d="M8.3076 10.1538H7.38452V11.0769H8.3076V10.1538Z" fill="black"/>
<path d="M7.3845 9.23071H6.46143V10.1538H7.3845V9.23071Z" fill="black"/>
<path d="M6.46165 8.30762H5.53857V9.23069H6.46165V8.30762Z" fill="black"/>
</g>
<defs>
<clipPath id="clip0_122_1393">
<rect width="12" height="12" fill="white"/>
</clipPath>
</defs>
</svg>
