<svg width="20" height="20" viewBox="0 0 20 20" fill="none" xmlns="http://www.w3.org/2000/svg">
<path d="M19 1V7H13" stroke="black" stroke-width="2" stroke-linecap="square"/>
<rect x="16" y="4" width="2" height="2" fill="black"/>
<rect x="15" y="3" width="2" height="2" fill="black"/>
<rect x="14" y="2" width="2" height="2" fill="black"/>
<rect x="13" y="1" width="2" height="2" fill="black"/>
<rect x="12" width="2" height="2" fill="black"/>
<rect x="11" width="2" height="2" fill="black"/>
<rect x="9" width="2" height="2" fill="black"/>
<rect x="7" width="2" height="2" fill="black"/>
<rect x="5" width="2" height="2" fill="black"/>
<rect x="4" y="1" width="2" height="2" fill="black"/>
<rect x="3" y="2" width="2" height="2" fill="black"/>
<rect x="2" y="3" width="2" height="2" fill="black"/>
<rect x="1" y="4" width="2" height="2" fill="black"/>
<rect x="1" y="6" width="2" height="2" fill="black"/>
<rect y="7" width="2" height="2" fill="black"/>
<rect y="9" width="2" height="2" fill="black"/>
<rect y="11" width="2" height="2" fill="black"/>
<rect x="1" y="12" width="2" height="2" fill="black"/>
<rect x="1" y="14" width="2" height="2" fill="black"/>
<rect x="2" y="15" width="2" height="2" fill="black"/>
<rect x="3" y="16" width="2" height="2" fill="black"/>
<rect x="4" y="17" width="2" height="2" fill="black"/>
<rect x="5" y="18" width="2" height="2" fill="black"/>
<rect x="7" y="18" width="2" height="2" fill="black"/>
<rect x="9" y="18" width="2" height="2" fill="black"/>
<rect x="11" y="18" width="2" height="2" fill="black"/>
<rect x="12" y="18" width="2" height="2" fill="black"/>
<rect x="13" y="17" width="2" height="2" fill="black"/>
<rect x="14" y="16" width="2" height="2" fill="black"/>
<rect x="15" y="15" width="2" height="2" fill="black"/>
<rect x="16" y="14" width="2" height="2" fill="black"/>
<rect x="16" y="12" width="2" height="2" fill="black"/>
</svg>
