<svg width="21" height="28" viewBox="0 0 21 28" fill="none" xmlns="http://www.w3.org/2000/svg">
<g clip-path="url(#clip0_0_181231)">
<path d="M7.53229 0.515678H5.26782V18.5686H7.53229V0.515678Z" fill="#299BBA"/>
<path d="M12.6719 0.515678H8.24023V16.5059H12.6719V0.515678Z" fill="white"/>
<path d="M15.639 0.515678H13.3745V18.5686H15.639V0.515678Z" fill="#299BBA"/>
<path d="M16.4347 1.03136V0L4.56513 0V1.03136L16.4347 1.03136Z" fill="#231815"/>
<path d="M15.4457 18.5686H16.4347L16.4347 1.03136H15.4457L15.4457 18.5686Z" fill="#231815"/>
<path d="M4.56518 18.5686H5.5542L5.5542 1.03136H4.56518L4.56518 18.5686Z" fill="#231815"/>
<path d="M7.53222 17.9487H8.52124L8.52124 0.411415H7.53222L7.53222 17.9487Z" fill="#231815"/>
<path d="M12.4773 17.9684H13.4663L13.4663 0.431145H12.4773L12.4773 17.9684Z" fill="#231815"/>
<path d="M13.4676 19.6014H16.4347V18.5701H13.4676V19.6014Z" fill="#231815"/>
<path d="M4.56517 19.6014H7.53223V18.5701H4.56517V19.6014Z" fill="#231815"/>
<path d="M12.4773 18.5686H13.4663V17.5373H12.4773V18.5686Z" fill="#231815"/>
<path d="M11.4896 17.5373H12.4786V16.5059H11.4896V17.5373Z" fill="#231815"/>
<path d="M10.4993 16.5045H11.4883V15.4732H10.4993V16.5045Z" fill="#231815"/>
<path d="M8.52124 17.5373H7.53223V18.5686H8.52124V17.5373Z" fill="#231815"/>
<path d="M9.51026 16.5059H8.52124V17.5373H9.51026V16.5059Z" fill="#231815"/>
<path d="M10.4993 15.4746H9.51025V16.5059H10.4993V15.4746Z" fill="#231815"/>
</g>
<path d="M21 20.338H19.4974V21.8713H21V20.338Z" fill="#231F20"/>
<path d="M21 18.8046H19.4974V20.338H21V18.8046Z" fill="#231F20"/>
<path d="M21 17.2698H19.4974V18.8031H21V17.2698Z" fill="#231F20"/>
<path d="M21 15.7364H19.4974V17.2698H21V15.7364Z" fill="#231F20"/>
<path d="M21 14.2031H19.4974V15.7364H21V14.2031Z" fill="#231F20"/>
<path d="M21 12.6682H19.4974V14.2015H21V12.6682Z" fill="#231F20"/>
<path d="M19.4974 21.8713H18.0009V23.3985H19.4974V21.8713Z" fill="#231F20"/>
<path d="M19.4974 20.338H18.0009V21.8713H19.4974V20.338Z" fill="#9F9F9F"/>
<path d="M19.4974 18.8046H18.0009V20.338H19.4974V18.8046Z" fill="#9F9F9F"/>
<path d="M19.4974 17.2698H18.0009V18.8031H19.4974V17.2698Z" fill="white"/>
<path d="M19.4974 15.7364H18.0009V17.2698H19.4974V15.7364Z" fill="#9F9F9F"/>
<path d="M19.4974 14.2031H18.0009V15.7364H19.4974V14.2031Z" fill="#9F9F9F"/>
<path d="M19.4974 12.6682H18.0009V14.2015H19.4974V12.6682Z" fill="#9F9F9F"/>
<path d="M19.4974 11.1349H18.0009V12.6682H19.4974V11.1349Z" fill="#231F20"/>
<path d="M18.0008 23.4H16.4982V24.9333H18.0008V23.4Z" fill="#231F20"/>
<path d="M18.0008 21.8713H16.4982V23.3985H18.0008V21.8713Z" fill="white"/>
<path d="M18.0008 20.338H16.4982V21.8713H18.0008V20.338Z" fill="white"/>
<path d="M18.0008 18.8046H16.4982V20.338H18.0008V18.8046Z" fill="#DADADA"/>
<path d="M18.0008 17.2698H16.4982V18.8031H18.0008V17.2698Z" fill="#DADADA"/>
<path d="M18.0008 15.7364H16.4982V17.2698H18.0008V15.7364Z" fill="white"/>
<path d="M18.0008 14.2031H16.4982V15.7364H18.0008V14.2031Z" fill="#DADADA"/>
<path d="M18.0008 12.6682H16.4982V14.2015H18.0008V12.6682Z" fill="#DADADA"/>
<path d="M18.0008 11.1349H16.4982V12.6682H18.0008V11.1349Z" fill="#9F9F9F"/>
<path d="M18.0008 9.60155H16.4982V11.1349H18.0008V9.60155Z" fill="#231F20"/>
<path d="M16.4968 24.9333H15.0002V26.4667H16.4968V24.9333Z" fill="#231F20"/>
<path d="M16.4968 23.4H15.0002V24.9333H16.4968V23.4Z" fill="#9F9F9F"/>
<path d="M16.4968 21.8713H15.0002V23.3985H16.4968V21.8713Z" fill="white"/>
<path d="M16.4968 20.338H15.0002V21.8713H16.4968V20.338Z" fill="white"/>
<path d="M16.4968 18.8046H15.0002V20.338H16.4968V18.8046Z" fill="white"/>
<path d="M16.4968 17.2698H15.0002V18.8031H16.4968V17.2698Z" fill="#DADADA"/>
<path d="M16.4968 15.7364H15.0002V17.2698H16.4968V15.7364Z" fill="#DADADA"/>
<path d="M16.4968 14.2031H15.0002V15.7364H16.4968V14.2031Z" fill="white"/>
<path d="M16.4968 12.6682H15.0002V14.2015H16.4968V12.6682Z" fill="#DADADA"/>
<path d="M16.4968 11.1349H15.0002V12.6682H16.4968V11.1349Z" fill="#DADADA"/>
<path d="M16.4968 9.60155H15.0002V11.1349H16.4968V9.60155Z" fill="#9F9F9F"/>
<path d="M16.4968 8.06668H15.0002V9.60001H16.4968V8.06668Z" fill="#231F20"/>
<path d="M15.0004 26.4667H13.4978V28H15.0004V26.4667Z" fill="#231F20"/>
<path d="M15.0004 24.9333H13.4978V26.4667H15.0004V24.9333Z" fill="#9F9F9F"/>
<path d="M15.0004 23.4H13.4978V24.9333H15.0004V23.4Z" fill="#DADADA"/>
<path d="M15.0004 21.8713H13.4978V23.3985H15.0004V21.8713Z" fill="#DADADA"/>
<path d="M15.0004 20.338H13.4978V21.8713H15.0004V20.338Z" fill="white"/>
<path d="M15.0004 18.8046H13.4978V20.338H15.0004V18.8046Z" fill="white"/>
<path d="M15.0004 17.2698H13.4978V18.8031H15.0004V17.2698Z" fill="white"/>
<path d="M15.0004 15.7364H13.4978V17.2698H15.0004V15.7364Z" fill="#DADADA"/>
<path d="M15.0004 14.2031H13.4978V15.7364H15.0004V14.2031Z" fill="#DADADA"/>
<path d="M15.0004 12.6682H13.4978V14.2015H15.0004V12.6682Z" fill="white"/>
<path d="M15.0004 11.1349H13.4978V12.6682H15.0004V11.1349Z" fill="#DADADA"/>
<path d="M15.0004 9.60155H13.4978V11.1349H15.0004V9.60155Z" fill="#DADADA"/>
<path d="M15.0004 8.06668H13.4978V9.60001H15.0004V8.06668Z" fill="#9F9F9F"/>
<path d="M15.0004 6.53334H13.4978V8.06667H15.0004V6.53334Z" fill="#231F20"/>
<path d="M13.4975 26.4667H12.001V28H13.4975V26.4667Z" fill="#231F20"/>
<path d="M13.4975 24.9333H12.001V26.4667H13.4975V24.9333Z" fill="white"/>
<path d="M13.4975 23.4H12.001V24.9333H13.4975V23.4Z" fill="#DADADA"/>
<path d="M13.4975 21.8713H12.001V23.3985H13.4975V21.8713Z" fill="#DADADA"/>
<path d="M13.4975 20.338H12.001V21.8713H13.4975V20.338Z" fill="#DADADA"/>
<path d="M13.4975 18.8046H12.001V20.338H13.4975V18.8046Z" fill="white"/>
<path d="M13.4975 17.2698H12.001V18.8031H13.4975V17.2698Z" fill="white"/>
<path d="M13.4975 15.7364H12.001V17.2698H13.4975V15.7364Z" fill="white"/>
<path d="M13.4975 14.2031H12.001V15.7364H13.4975V14.2031Z" fill="#DADADA"/>
<path d="M13.4975 12.6682H12.001V14.2015H13.4975V12.6682Z" fill="#DADADA"/>
<path d="M13.4975 11.1349H12.001V12.6682H13.4975V11.1349Z" fill="white"/>
<path d="M13.4975 9.60155H12.001V11.1349H13.4975V9.60155Z" fill="#DADADA"/>
<path d="M13.4975 8.06668H12.001V9.60001H13.4975V8.06668Z" fill="#9F9F9F"/>
<path d="M13.4975 6.53334H12.001V8.06667H13.4975V6.53334Z" fill="#231F20"/>
<path d="M11.9996 26.4667H10.5031V28H11.9996V26.4667Z" fill="#231F20"/>
<path d="M11.9996 24.9333H10.5031V26.4667H11.9996V24.9333Z" fill="#9F9F9F"/>
<path d="M11.9996 23.4H10.5031V24.9333H11.9996V23.4Z" fill="white"/>
<path d="M11.9996 21.8713H10.5031V23.3985H11.9996V21.8713Z" fill="#DADADA"/>
<path d="M11.9996 20.338H10.5031V21.8713H11.9996V20.338Z" fill="#DADADA"/>
<path d="M11.9996 18.8046H10.5031V20.338H11.9996V18.8046Z" fill="#DADADA"/>
<path d="M11.9996 17.2698H10.5031V18.8031H11.9996V17.2698Z" fill="white"/>
<path d="M11.9996 15.7364H10.5031V17.2698H11.9996V15.7364Z" fill="white"/>
<path d="M11.9996 14.2031H10.5031V15.7364H11.9996V14.2031Z" fill="white"/>
<path d="M11.9996 12.6682H10.5031V14.2015H11.9996V12.6682Z" fill="#DADADA"/>
<path d="M11.9996 11.1349H10.5031V12.6682H11.9996V11.1349Z" fill="#DADADA"/>
<path d="M11.9996 9.60155H10.5031V11.1349H11.9996V9.60155Z" fill="white"/>
<path d="M11.9996 8.06668H10.5031V9.60001H11.9996V8.06668Z" fill="#9F9F9F"/>
<path d="M11.9996 6.53334H10.5031V8.06667H11.9996V6.53334Z" fill="#231F20"/>
<path d="M10.503 26.4667H9.00037V28H10.503V26.4667Z" fill="#231F20"/>
<path d="M10.503 24.9333H9.00037V26.4667H10.503V24.9333Z" fill="#9F9F9F"/>
<path d="M10.503 23.4H9.00037V24.9333H10.503V23.4Z" fill="#DADADA"/>
<path d="M10.503 21.8713H9.00037V23.3985H10.503V21.8713Z" fill="white"/>
<path d="M10.503 20.338H9.00037V21.8713H10.503V20.338Z" fill="#DADADA"/>
<path d="M10.503 18.8046H9.00037V20.338H10.503V18.8046Z" fill="#DADADA"/>
<path d="M10.503 17.2698H9.00037V18.8031H10.503V17.2698Z" fill="#DADADA"/>
<path d="M10.503 15.7364H9.00037V17.2698H10.503V15.7364Z" fill="white"/>
<path d="M10.503 14.2031H9.00037V15.7364H10.503V14.2031Z" fill="white"/>
<path d="M10.503 12.6682H9.00037V14.2015H10.503V12.6682Z" fill="white"/>
<path d="M10.503 11.1349H9.00037V12.6682H10.503V11.1349Z" fill="#DADADA"/>
<path d="M10.503 9.60155H9.00037V11.1349H10.503V9.60155Z" fill="#DADADA"/>
<path d="M10.503 8.06668H9.00037V9.60001H10.503V8.06668Z" fill="white"/>
<path d="M10.503 6.53334H9.00037V8.06667H10.503V6.53334Z" fill="#231F20"/>
<path d="M9.00045 26.4667H7.50391V28H9.00045V26.4667Z" fill="#231F20"/>
<path d="M9.00045 24.9333H7.50391V26.4667H9.00045V24.9333Z" fill="#9F9F9F"/>
<path d="M9.00045 23.4H7.50391V24.9333H9.00045V23.4Z" fill="#DADADA"/>
<path d="M9.00045 21.8713H7.50391V23.3985H9.00045V21.8713Z" fill="#DADADA"/>
<path d="M9.00045 20.338H7.50391V21.8713H9.00045V20.338Z" fill="white"/>
<path d="M9.00045 18.8046H7.50391V20.338H9.00045V18.8046Z" fill="#DADADA"/>
<path d="M9.00045 17.2698H7.50391V18.8031H9.00045V17.2698Z" fill="#DADADA"/>
<path d="M9.00045 15.7364H7.50391V17.2698H9.00045V15.7364Z" fill="#DADADA"/>
<path d="M9.00045 14.2031H7.50391V15.7364H9.00045V14.2031Z" fill="white"/>
<path d="M9.00045 12.6682H7.50391V14.2015H9.00045V12.6682Z" fill="white"/>
<path d="M9.00045 11.1349H7.50391V12.6682H9.00045V11.1349Z" fill="white"/>
<path d="M9.00045 9.60155H7.50391V11.1349H9.00045V9.60155Z" fill="#DADADA"/>
<path d="M9.00045 8.06668H7.50391V9.60001H9.00045V8.06668Z" fill="#9F9F9F"/>
<path d="M9.00045 6.53334H7.50391V8.06667H9.00045V6.53334Z" fill="#231F20"/>
<path d="M7.50234 26.4667H5.99976V28H7.50234V26.4667Z" fill="#231F20"/>
<path d="M7.50234 24.9333H5.99976V26.4667H7.50234V24.9333Z" fill="#9F9F9F"/>
<path d="M7.50234 23.4H5.99976V24.9333H7.50234V23.4Z" fill="#DADADA"/>
<path d="M7.50234 21.8713H5.99976V23.3985H7.50234V21.8713Z" fill="#DADADA"/>
<path d="M7.50234 20.338H5.99976V21.8713H7.50234V20.338Z" fill="#DADADA"/>
<path d="M7.50234 18.8046H5.99976V20.338H7.50234V18.8046Z" fill="white"/>
<path d="M7.50234 17.2698H5.99976V18.8031H7.50234V17.2698Z" fill="#DADADA"/>
<path d="M7.50234 15.7364H5.99976V17.2698H7.50234V15.7364Z" fill="#DADADA"/>
<path d="M7.50234 14.2031H5.99976V15.7364H7.50234V14.2031Z" fill="#DADADA"/>
<path d="M7.50234 12.6682H5.99976V14.2015H7.50234V12.6682Z" fill="white"/>
<path d="M7.50234 11.1349H5.99976V12.6682H7.50234V11.1349Z" fill="white"/>
<path d="M7.50234 9.60155H5.99976V11.1349H7.50234V9.60155Z" fill="white"/>
<path d="M7.50234 8.06668H5.99976V9.60001H7.50234V8.06668Z" fill="#9F9F9F"/>
<path d="M7.50234 6.53334H5.99976V8.06667H7.50234V6.53334Z" fill="#231F20"/>
<path d="M5.9996 24.9333H4.50305V26.4667H5.9996V24.9333Z" fill="#231F20"/>
<path d="M5.9996 23.4H4.50305V24.9333H5.9996V23.4Z" fill="#9F9F9F"/>
<path d="M5.9996 21.8713H4.50305V23.3985H5.9996V21.8713Z" fill="#DADADA"/>
<path d="M5.9996 20.338H4.50305V21.8713H5.9996V20.338Z" fill="#DADADA"/>
<path d="M5.9996 18.8046H4.50305V20.338H5.9996V18.8046Z" fill="#DADADA"/>
<path d="M5.9996 17.2698H4.50305V18.8031H5.9996V17.2698Z" fill="white"/>
<path d="M5.9996 15.7364H4.50305V17.2698H5.9996V15.7364Z" fill="#DADADA"/>
<path d="M5.9996 14.2031H4.50305V15.7364H5.9996V14.2031Z" fill="#DADADA"/>
<path d="M5.9996 12.6682H4.50305V14.2015H5.9996V12.6682Z" fill="#DADADA"/>
<path d="M5.9996 11.1349H4.50305V12.6682H5.9996V11.1349Z" fill="white"/>
<path d="M5.9996 9.60155H4.50305V11.1349H5.9996V9.60155Z" fill="white"/>
<path d="M5.9996 8.06668H4.50305V9.60001H5.9996V8.06668Z" fill="#231F20"/>
<path d="M4.50308 23.4H3.00049V24.9333H4.50308V23.4Z" fill="#231F20"/>
<path d="M4.50308 21.8713H3.00049V23.3985H4.50308V21.8713Z" fill="#9F9F9F"/>
<path d="M4.50308 20.338H3.00049V21.8713H4.50308V20.338Z" fill="#DADADA"/>
<path d="M4.50308 18.8046H3.00049V20.338H4.50308V18.8046Z" fill="#DADADA"/>
<path d="M4.50308 17.2698H3.00049V18.8031H4.50308V17.2698Z" fill="#DADADA"/>
<path d="M4.50308 15.7364H3.00049V17.2698H4.50308V15.7364Z" fill="white"/>
<path d="M4.50308 14.2031H3.00049V15.7364H4.50308V14.2031Z" fill="#DADADA"/>
<path d="M4.50308 12.6682H3.00049V14.2015H4.50308V12.6682Z" fill="#DADADA"/>
<path d="M4.50308 11.1349H3.00049V12.6682H4.50308V11.1349Z" fill="#9F9F9F"/>
<path d="M4.50308 9.60155H3.00049V11.1349H4.50308V9.60155Z" fill="#231F20"/>
<path d="M2.99911 21.8713H1.50256V23.3985H2.99911V21.8713Z" fill="#231F20"/>
<path d="M2.99911 20.338H1.50256V21.8713H2.99911V20.338Z" fill="#9F9F9F"/>
<path d="M2.99911 18.8046H1.50256V20.338H2.99911V18.8046Z" fill="#9F9F9F"/>
<path d="M2.99911 17.2698H1.50256V18.8031H2.99911V17.2698Z" fill="#9F9F9F"/>
<path d="M2.99911 15.7364H1.50256V17.2698H2.99911V15.7364Z" fill="#9F9F9F"/>
<path d="M2.99911 14.2031H1.50256V15.7364H2.99911V14.2031Z" fill="white"/>
<path d="M2.99911 12.6682H1.50256V14.2015H2.99911V12.6682Z" fill="#9F9F9F"/>
<path d="M2.99911 11.1349H1.50256V12.6682H2.99911V11.1349Z" fill="#231F20"/>
<path d="M1.50259 20.338H0V21.8713H1.50259V20.338Z" fill="#231F20"/>
<path d="M1.50259 18.8046H0V20.338H1.50259V18.8046Z" fill="#231F20"/>
<path d="M1.50259 17.2698H0V18.8031H1.50259V17.2698Z" fill="#231F20"/>
<path d="M1.50259 15.7364H0V17.2698H1.50259V15.7364Z" fill="#231F20"/>
<path d="M1.50259 14.2031H0V15.7364H1.50259V14.2031Z" fill="#231F20"/>
<path d="M1.50259 12.6682H0V14.2015H1.50259V12.6682Z" fill="#231F20"/>
<path d="M11.25 17.1583V18.0333H10.375V18.9083H9.5V19.7833H8.625V21.5333H13.875V20.6583H10.375V19.7833H11.25V18.9083H12.125V18.0333H13V17.1583H13.875V14.5333H13V13.6583H9.5V14.5333H8.625V16.2833H10.375V14.5333H12.125V17.1583H11.25Z" fill="#747474"/>
<path d="M10.4999 17.1583V18.0333H9.62488V18.9083H8.74988V19.7833H7.87488V21.5333H13.1249V20.6583H9.62488V19.7833H10.4999V18.9083H11.3749V18.0333H12.2499V17.1583H13.1249V14.5333H12.2499V13.6583H8.74988V14.5333H7.87488V16.2833H9.62488V14.5333H11.3749V17.1583H10.4999Z" fill="black"/>
<defs>
<clipPath id="clip0_0_181231">
<rect width="11.8696" height="19.6" fill="white" transform="translate(4.56519)"/>
</clipPath>
</defs>
</svg>
