<svg width="21" height="28" viewBox="0 0 21 28" fill="none" xmlns="http://www.w3.org/2000/svg">
<g clip-path="url(#clip0_0_181391)">
<path d="M7.53229 0.515678H5.26782V18.5686H7.53229V0.515678Z" fill="#6FB87A"/>
<path d="M12.6719 0.515678H8.24023V16.5059H12.6719V0.515678Z" fill="white"/>
<path d="M15.639 0.515678H13.3745V18.5686H15.639V0.515678Z" fill="#6FB87A"/>
<path d="M16.4347 1.03136V0L4.56513 0V1.03136L16.4347 1.03136Z" fill="#231815"/>
<path d="M15.4457 18.5686H16.4347L16.4347 1.03136H15.4457L15.4457 18.5686Z" fill="#231815"/>
<path d="M4.56518 18.5686H5.5542L5.5542 1.03136H4.56518L4.56518 18.5686Z" fill="#231815"/>
<path d="M7.53222 17.9487H8.52124L8.52124 0.411415H7.53222L7.53222 17.9487Z" fill="#231815"/>
<path d="M12.4773 17.9684H13.4663L13.4663 0.431145H12.4773L12.4773 17.9684Z" fill="#231815"/>
<path d="M13.4676 19.6014H16.4347V18.5701H13.4676V19.6014Z" fill="#231815"/>
<path d="M4.56517 19.6014H7.53223V18.5701H4.56517V19.6014Z" fill="#231815"/>
<path d="M12.4773 18.5686H13.4663V17.5373H12.4773V18.5686Z" fill="#231815"/>
<path d="M11.4896 17.5373H12.4786V16.5059H11.4896V17.5373Z" fill="#231815"/>
<path d="M10.4993 16.5045H11.4883V15.4732H10.4993V16.5045Z" fill="#231815"/>
<path d="M8.52124 17.5373H7.53223V18.5686H8.52124V17.5373Z" fill="#231815"/>
<path d="M9.51026 16.5059H8.52124V17.5373H9.51026V16.5059Z" fill="#231815"/>
<path d="M10.4993 15.4746H9.51025V16.5059H10.4993V15.4746Z" fill="#231815"/>
</g>
<path d="M20.9999 20.338H19.4973V21.8713H20.9999V20.338Z" fill="#231F20"/>
<path d="M20.9999 18.8046H19.4973V20.338H20.9999V18.8046Z" fill="#231F20"/>
<path d="M20.9999 17.2698H19.4973V18.8031H20.9999V17.2698Z" fill="#231F20"/>
<path d="M20.9999 15.7364H19.4973V17.2698H20.9999V15.7364Z" fill="#231F20"/>
<path d="M20.9999 14.2031H19.4973V15.7364H20.9999V14.2031Z" fill="#231F20"/>
<path d="M20.9999 12.6682H19.4973V14.2015H20.9999V12.6682Z" fill="#231F20"/>
<path d="M19.4974 21.8713H18.0009V23.3985H19.4974V21.8713Z" fill="#231F20"/>
<path d="M19.4974 20.338H18.0009V21.8713H19.4974V20.338Z" fill="#673416"/>
<path d="M19.4974 18.8046H18.0009V20.338H19.4974V18.8046Z" fill="#673416"/>
<path d="M19.4974 17.2698H18.0009V18.8031H19.4974V17.2698Z" fill="#DBAE95"/>
<path d="M19.4974 15.7364H18.0009V17.2698H19.4974V15.7364Z" fill="#673416"/>
<path d="M19.4974 14.2031H18.0009V15.7364H19.4974V14.2031Z" fill="#673416"/>
<path d="M19.4974 12.6682H18.0009V14.2015H19.4974V12.6682Z" fill="#673416"/>
<path d="M19.4974 11.1349H18.0009V12.6682H19.4974V11.1349Z" fill="#231F20"/>
<path d="M18.0008 23.4H16.4982V24.9333H18.0008V23.4Z" fill="#231F20"/>
<path d="M18.0008 21.8713H16.4982V23.3985H18.0008V21.8713Z" fill="#DBAE95"/>
<path d="M18.0008 20.338H16.4982V21.8713H18.0008V20.338Z" fill="#DBAE95"/>
<path d="M18.0008 18.8046H16.4982V20.338H18.0008V18.8046Z" fill="#A16441"/>
<path d="M18.0008 17.2698H16.4982V18.8031H18.0008V17.2698Z" fill="#A16441"/>
<path d="M18.0008 15.7364H16.4982V17.2698H18.0008V15.7364Z" fill="#DBAE95"/>
<path d="M18.0008 14.2031H16.4982V15.7364H18.0008V14.2031Z" fill="#A16441"/>
<path d="M18.0008 12.6682H16.4982V14.2015H18.0008V12.6682Z" fill="#A16441"/>
<path d="M18.0008 11.1349H16.4982V12.6682H18.0008V11.1349Z" fill="#673416"/>
<path d="M18.0008 9.60155H16.4982V11.1349H18.0008V9.60155Z" fill="#231F20"/>
<path d="M16.4968 24.9333H15.0002V26.4667H16.4968V24.9333Z" fill="#231F20"/>
<path d="M16.4968 23.4H15.0002V24.9333H16.4968V23.4Z" fill="#673416"/>
<path d="M16.4968 21.8713H15.0002V23.3985H16.4968V21.8713Z" fill="#DBAE95"/>
<path d="M16.4968 20.338H15.0002V21.8713H16.4968V20.338Z" fill="#DBAE95"/>
<path d="M16.4968 18.8046H15.0002V20.338H16.4968V18.8046Z" fill="#DBAE95"/>
<path d="M16.4968 17.2698H15.0002V18.8031H16.4968V17.2698Z" fill="#A16441"/>
<path d="M16.4968 15.7364H15.0002V17.2698H16.4968V15.7364Z" fill="#A16441"/>
<path d="M16.4968 14.2031H15.0002V15.7364H16.4968V14.2031Z" fill="#DBAE95"/>
<path d="M16.4968 12.6682H15.0002V14.2015H16.4968V12.6682Z" fill="#A16441"/>
<path d="M16.4968 11.1349H15.0002V12.6682H16.4968V11.1349Z" fill="#A16441"/>
<path d="M16.4968 9.60155H15.0002V11.1349H16.4968V9.60155Z" fill="#673416"/>
<path d="M16.4968 8.06669H15.0002V9.60002H16.4968V8.06669Z" fill="#231F20"/>
<path d="M15.0006 26.4667H13.498V28H15.0006V26.4667Z" fill="#231F20"/>
<path d="M15.0006 24.9333H13.498V26.4667H15.0006V24.9333Z" fill="#673416"/>
<path d="M15.0006 23.4H13.498V24.9333H15.0006V23.4Z" fill="#A16441"/>
<path d="M15.0006 21.8713H13.498V23.3985H15.0006V21.8713Z" fill="#A16441"/>
<path d="M15.0006 20.338H13.498V21.8713H15.0006V20.338Z" fill="#DBAE95"/>
<path d="M15.0006 18.8046H13.498V20.338H15.0006V18.8046Z" fill="#DBAE95"/>
<path d="M15.0006 17.2698H13.498V18.8031H15.0006V17.2698Z" fill="#DBAE95"/>
<path d="M15.0006 15.7364H13.498V17.2698H15.0006V15.7364Z" fill="#A16441"/>
<path d="M15.0006 14.2031H13.498V15.7364H15.0006V14.2031Z" fill="#A16441"/>
<path d="M15.0006 12.6682H13.498V14.2015H15.0006V12.6682Z" fill="#DBAE95"/>
<path d="M15.0006 11.1349H13.498V12.6682H15.0006V11.1349Z" fill="#A16441"/>
<path d="M15.0006 9.60155H13.498V11.1349H15.0006V9.60155Z" fill="#A16441"/>
<path d="M15.0006 8.06669H13.498V9.60002H15.0006V8.06669Z" fill="#673416"/>
<path d="M15.0006 6.53334H13.498V8.06667H15.0006V6.53334Z" fill="#231F20"/>
<path d="M13.4975 26.4667H12.001V28H13.4975V26.4667Z" fill="#231F20"/>
<path d="M13.4975 24.9333H12.001V26.4667H13.4975V24.9333Z" fill="#DBAE95"/>
<path d="M13.4975 23.4H12.001V24.9333H13.4975V23.4Z" fill="#A16441"/>
<path d="M13.4975 21.8713H12.001V23.3985H13.4975V21.8713Z" fill="#A16441"/>
<path d="M13.4975 20.338H12.001V21.8713H13.4975V20.338Z" fill="#A16441"/>
<path d="M13.4975 18.8046H12.001V20.338H13.4975V18.8046Z" fill="#DBAE95"/>
<path d="M13.4975 17.2698H12.001V18.8031H13.4975V17.2698Z" fill="#DBAE95"/>
<path d="M13.4975 15.7364H12.001V17.2698H13.4975V15.7364Z" fill="#DBAE95"/>
<path d="M13.4975 14.2031H12.001V15.7364H13.4975V14.2031Z" fill="#A16441"/>
<path d="M13.4975 12.6682H12.001V14.2015H13.4975V12.6682Z" fill="#A16441"/>
<path d="M13.4975 11.1349H12.001V12.6682H13.4975V11.1349Z" fill="#DBAE95"/>
<path d="M13.4975 9.60155H12.001V11.1349H13.4975V9.60155Z" fill="#A16441"/>
<path d="M13.4975 8.06669H12.001V9.60002H13.4975V8.06669Z" fill="#673416"/>
<path d="M13.4975 6.53334H12.001V8.06667H13.4975V6.53334Z" fill="#231F20"/>
<path d="M11.9997 26.4667H10.5032V28H11.9997V26.4667Z" fill="#231F20"/>
<path d="M11.9997 24.9333H10.5032V26.4667H11.9997V24.9333Z" fill="#673416"/>
<path d="M11.9997 23.4H10.5032V24.9333H11.9997V23.4Z" fill="#DBAE95"/>
<path d="M11.9997 21.8713H10.5032V23.3985H11.9997V21.8713Z" fill="#A16441"/>
<path d="M11.9997 20.338H10.5032V21.8713H11.9997V20.338Z" fill="#A16441"/>
<path d="M11.9997 18.8046H10.5032V20.338H11.9997V18.8046Z" fill="#A16441"/>
<path d="M11.9997 17.2698H10.5032V18.8031H11.9997V17.2698Z" fill="#DBAE95"/>
<path d="M11.9997 15.7364H10.5032V17.2698H11.9997V15.7364Z" fill="#DBAE95"/>
<path d="M11.9997 14.2031H10.5032V15.7364H11.9997V14.2031Z" fill="#DBAE95"/>
<path d="M11.9997 12.6682H10.5032V14.2015H11.9997V12.6682Z" fill="#A16441"/>
<path d="M11.9997 11.1349H10.5032V12.6682H11.9997V11.1349Z" fill="#A16441"/>
<path d="M11.9997 9.60155H10.5032V11.1349H11.9997V9.60155Z" fill="#DBAE95"/>
<path d="M11.9997 8.06669H10.5032V9.60002H11.9997V8.06669Z" fill="#673416"/>
<path d="M11.9997 6.53334H10.5032V8.06667H11.9997V6.53334Z" fill="#231F20"/>
<path d="M10.503 26.4667H9.00037V28H10.503V26.4667Z" fill="#231F20"/>
<path d="M10.503 24.9333H9.00037V26.4667H10.503V24.9333Z" fill="#673416"/>
<path d="M10.503 23.4H9.00037V24.9333H10.503V23.4Z" fill="#A16441"/>
<path d="M10.503 21.8713H9.00037V23.3985H10.503V21.8713Z" fill="#DBAE95"/>
<path d="M10.503 20.338H9.00037V21.8713H10.503V20.338Z" fill="#A16441"/>
<path d="M10.503 18.8046H9.00037V20.338H10.503V18.8046Z" fill="#A16441"/>
<path d="M10.503 17.2698H9.00037V18.8031H10.503V17.2698Z" fill="#A16441"/>
<path d="M10.503 15.7364H9.00037V17.2698H10.503V15.7364Z" fill="#DBAE95"/>
<path d="M10.503 14.2031H9.00037V15.7364H10.503V14.2031Z" fill="#DBAE95"/>
<path d="M10.503 12.6682H9.00037V14.2015H10.503V12.6682Z" fill="#DBAE95"/>
<path d="M10.503 11.1349H9.00037V12.6682H10.503V11.1349Z" fill="#A16441"/>
<path d="M10.503 9.60155H9.00037V11.1349H10.503V9.60155Z" fill="#A16441"/>
<path d="M10.503 8.06669H9.00037V9.60002H10.503V8.06669Z" fill="#DBAE95"/>
<path d="M10.503 6.53334H9.00037V8.06667H10.503V6.53334Z" fill="#231F20"/>
<path d="M9.00058 26.4667H7.50403V28H9.00058V26.4667Z" fill="#231F20"/>
<path d="M9.00058 24.9333H7.50403V26.4667H9.00058V24.9333Z" fill="#673416"/>
<path d="M9.00058 23.4H7.50403V24.9333H9.00058V23.4Z" fill="#A16441"/>
<path d="M9.00058 21.8713H7.50403V23.3985H9.00058V21.8713Z" fill="#A16441"/>
<path d="M9.00058 20.338H7.50403V21.8713H9.00058V20.338Z" fill="#DBAE95"/>
<path d="M9.00058 18.8046H7.50403V20.338H9.00058V18.8046Z" fill="#A16441"/>
<path d="M9.00058 17.2698H7.50403V18.8031H9.00058V17.2698Z" fill="#A16441"/>
<path d="M9.00058 15.7364H7.50403V17.2698H9.00058V15.7364Z" fill="#A16441"/>
<path d="M9.00058 14.2031H7.50403V15.7364H9.00058V14.2031Z" fill="#DBAE95"/>
<path d="M9.00058 12.6682H7.50403V14.2015H9.00058V12.6682Z" fill="#DBAE95"/>
<path d="M9.00058 11.1349H7.50403V12.6682H9.00058V11.1349Z" fill="#DBAE95"/>
<path d="M9.00058 9.60155H7.50403V11.1349H9.00058V9.60155Z" fill="#A16441"/>
<path d="M9.00058 8.06669H7.50403V9.60002H9.00058V8.06669Z" fill="#673416"/>
<path d="M9.00058 6.53334H7.50403V8.06667H9.00058V6.53334Z" fill="#231F20"/>
<path d="M7.50234 26.4667H5.99976V28H7.50234V26.4667Z" fill="#231F20"/>
<path d="M7.50234 24.9333H5.99976V26.4667H7.50234V24.9333Z" fill="#673416"/>
<path d="M7.50234 23.4H5.99976V24.9333H7.50234V23.4Z" fill="#A16441"/>
<path d="M7.50234 21.8713H5.99976V23.3985H7.50234V21.8713Z" fill="#A16441"/>
<path d="M7.50234 20.338H5.99976V21.8713H7.50234V20.338Z" fill="#A16441"/>
<path d="M7.50234 18.8046H5.99976V20.338H7.50234V18.8046Z" fill="#DBAE95"/>
<path d="M7.50234 17.2698H5.99976V18.8031H7.50234V17.2698Z" fill="#A16441"/>
<path d="M7.50234 15.7364H5.99976V17.2698H7.50234V15.7364Z" fill="#A16441"/>
<path d="M7.50234 14.2031H5.99976V15.7364H7.50234V14.2031Z" fill="#A16441"/>
<path d="M7.50234 12.6682H5.99976V14.2015H7.50234V12.6682Z" fill="#DBAE95"/>
<path d="M7.50234 11.1349H5.99976V12.6682H7.50234V11.1349Z" fill="#DBAE95"/>
<path d="M7.50234 9.60155H5.99976V11.1349H7.50234V9.60155Z" fill="#DBAE95"/>
<path d="M7.50234 8.06669H5.99976V9.60002H7.50234V8.06669Z" fill="#673416"/>
<path d="M7.50234 6.53334H5.99976V8.06667H7.50234V6.53334Z" fill="#231F20"/>
<path d="M5.99948 24.9333H4.50293V26.4667H5.99948V24.9333Z" fill="#231F20"/>
<path d="M5.99948 23.4H4.50293V24.9333H5.99948V23.4Z" fill="#673416"/>
<path d="M5.99948 21.8713H4.50293V23.3985H5.99948V21.8713Z" fill="#A16441"/>
<path d="M5.99948 20.338H4.50293V21.8713H5.99948V20.338Z" fill="#A16441"/>
<path d="M5.99948 18.8046H4.50293V20.338H5.99948V18.8046Z" fill="#A16441"/>
<path d="M5.99948 17.2698H4.50293V18.8031H5.99948V17.2698Z" fill="#DBAE95"/>
<path d="M5.99948 15.7364H4.50293V17.2698H5.99948V15.7364Z" fill="#A16441"/>
<path d="M5.99948 14.2031H4.50293V15.7364H5.99948V14.2031Z" fill="#A16441"/>
<path d="M5.99948 12.6682H4.50293V14.2015H5.99948V12.6682Z" fill="#A16441"/>
<path d="M5.99948 11.1349H4.50293V12.6682H5.99948V11.1349Z" fill="#DBAE95"/>
<path d="M5.99948 9.60155H4.50293V11.1349H5.99948V9.60155Z" fill="#DBAE95"/>
<path d="M5.99948 8.06669H4.50293V9.60002H5.99948V8.06669Z" fill="#231F20"/>
<path d="M4.50308 23.4H3.00049V24.9333H4.50308V23.4Z" fill="#231F20"/>
<path d="M4.50308 21.8713H3.00049V23.3985H4.50308V21.8713Z" fill="#673416"/>
<path d="M4.50308 20.338H3.00049V21.8713H4.50308V20.338Z" fill="#A16441"/>
<path d="M4.50308 18.8046H3.00049V20.338H4.50308V18.8046Z" fill="#A16441"/>
<path d="M4.50308 17.2698H3.00049V18.8031H4.50308V17.2698Z" fill="#A16441"/>
<path d="M4.50308 15.7364H3.00049V17.2698H4.50308V15.7364Z" fill="#DBAE95"/>
<path d="M4.50308 14.2031H3.00049V15.7364H4.50308V14.2031Z" fill="#A16441"/>
<path d="M4.50308 12.6682H3.00049V14.2015H4.50308V12.6682Z" fill="#A16441"/>
<path d="M4.50308 11.1349H3.00049V12.6682H4.50308V11.1349Z" fill="#673416"/>
<path d="M4.50308 9.60155H3.00049V11.1349H4.50308V9.60155Z" fill="#231F20"/>
<path d="M2.99923 21.8713H1.50269V23.3985H2.99923V21.8713Z" fill="#231F20"/>
<path d="M2.99923 20.338H1.50269V21.8713H2.99923V20.338Z" fill="#673416"/>
<path d="M2.99923 18.8046H1.50269V20.338H2.99923V18.8046Z" fill="#673416"/>
<path d="M2.99923 17.2698H1.50269V18.8031H2.99923V17.2698Z" fill="#673416"/>
<path d="M2.99923 15.7364H1.50269V17.2698H2.99923V15.7364Z" fill="#673416"/>
<path d="M2.99923 14.2031H1.50269V15.7364H2.99923V14.2031Z" fill="#DBAE95"/>
<path d="M2.99923 12.6682H1.50269V14.2015H2.99923V12.6682Z" fill="#673416"/>
<path d="M2.99923 11.1349H1.50269V12.6682H2.99923V11.1349Z" fill="#231F20"/>
<path d="M1.50259 20.338H0V21.8713H1.50259V20.338Z" fill="#231F20"/>
<path d="M1.50259 18.8046H0V20.338H1.50259V18.8046Z" fill="#231F20"/>
<path d="M1.50259 17.2698H0V18.8031H1.50259V17.2698Z" fill="#231F20"/>
<path d="M1.50259 15.7364H0V17.2698H1.50259V15.7364Z" fill="#231F20"/>
<path d="M1.50259 14.2031H0V15.7364H1.50259V14.2031Z" fill="#231F20"/>
<path d="M1.50259 12.6682H0V14.2015H1.50259V12.6682Z" fill="#231F20"/>
<path d="M10.3751 20.6583V18.9083H8.62512V20.6583H9.50012V21.5333H13.0001V20.6583H13.8751V18.0333H13.0001V17.1583H13.8751V14.5333H13.0001V13.6583H9.50012V14.5333H8.62512V16.2833H10.3751V14.5333H12.1251V17.1583H10.3751V18.0333H12.1251V20.6583H10.3751Z" fill="#602C0F"/>
<path d="M9.62475 20.6583V18.9083H7.87475V20.6583H8.74975V21.5333H12.2498V20.6583H13.1248V18.0333H12.2498V17.1583H13.1248V14.5333H12.2498V13.6583H8.74975V14.5333H7.87475V16.2833H9.62475V14.5333H11.3748V17.1583H9.62475V18.0333H11.3748V20.6583H9.62475Z" fill="#2C1000"/>
<defs>
<clipPath id="clip0_0_181391">
<rect width="11.8696" height="19.6" fill="white" transform="translate(4.56519)"/>
</clipPath>
</defs>
</svg>
