<svg width="31" height="41" viewBox="0 0 31 41" fill="none" xmlns="http://www.w3.org/2000/svg">
<g clip-path="url(#clip0_0_181071)">
<path d="M11.1401 0.744827H7.81335V26.8199H11.1401V0.744827Z" fill="#D42200"/>
<path d="M18.6907 0.744827H12.1802V23.8406H18.6907V0.744827Z" fill="white"/>
<path d="M23.0496 0.744827H19.7229V26.8199H23.0496V0.744827Z" fill="#D42200"/>
<path d="M24.2188 1.48965V0L6.78127 0V1.48965L24.2188 1.48965Z" fill="#231815"/>
<path d="M22.7658 26.8199H24.2188L24.2187 1.48965H22.7658L22.7658 26.8199Z" fill="#231815"/>
<path d="M6.78129 26.8199H8.23425L8.23425 1.48965H6.78129L6.78129 26.8199Z" fill="#231815"/>
<path d="M11.1402 25.9245H12.5931L12.5931 0.594234H11.1402L11.1402 25.9245Z" fill="#231815"/>
<path d="M18.405 25.9529H19.8579L19.8579 0.622723H18.405L18.405 25.9529Z" fill="#231815"/>
<path d="M19.8599 28.3116H24.2188V26.8219H19.8599V28.3116Z" fill="#231815"/>
<path d="M6.78126 28.3116H11.1401V26.8219H6.78126V28.3116Z" fill="#231815"/>
<path d="M18.405 26.8199H19.8579V25.3302H18.405V26.8199Z" fill="#231815"/>
<path d="M16.9539 25.3302H18.4069V23.8406H16.9539V25.3302Z" fill="#231815"/>
<path d="M15.4989 23.8385H16.9519V22.3489H15.4989V23.8385Z" fill="#231815"/>
<path d="M12.5931 25.3302H11.1401V26.8199H12.5931V25.3302Z" fill="#231815"/>
<path d="M14.0461 23.8406H12.5931V25.3302H14.0461V23.8406Z" fill="#231815"/>
<path d="M15.499 22.3509H14.046V23.8406H15.499V22.3509Z" fill="#231815"/>
</g>
<path d="M31 29.8503H28.7819V32.0816H31V29.8503Z" fill="#231F20"/>
<path d="M31 27.619H28.7819V29.8503H31V27.619Z" fill="#231F20"/>
<path d="M31 25.3855H28.7819V27.6167H31V25.3855Z" fill="#231F20"/>
<path d="M31 23.1542H28.7819V25.3855H31V23.1542Z" fill="#231F20"/>
<path d="M31 20.9229H28.7819V23.1542H31V20.9229Z" fill="#231F20"/>
<path d="M31 18.6893H28.7819V20.9206H31V18.6893Z" fill="#231F20"/>
<path d="M28.7818 32.0816H26.5726V34.3039H28.7818V32.0816Z" fill="#231F20"/>
<path d="M28.7818 29.8503H26.5726V32.0816H28.7818V29.8503Z" fill="#FBB040"/>
<path d="M28.7818 27.619H26.5726V29.8503H28.7818V27.619Z" fill="#FBB040"/>
<path d="M28.7818 25.3855H26.5726V27.6167H28.7818V25.3855Z" fill="white"/>
<path d="M28.7818 23.1542H26.5726V25.3855H28.7818V23.1542Z" fill="#FBB040"/>
<path d="M28.7818 20.9229H26.5726V23.1542H28.7818V20.9229Z" fill="#FBB040"/>
<path d="M28.7818 18.6893H26.5726V20.9206H28.7818V18.6893Z" fill="#FBB040"/>
<path d="M28.7818 16.458H26.5726V18.6893H28.7818V16.458Z" fill="#231F20"/>
<path d="M26.5727 34.3061H24.3546V36.5374H26.5727V34.3061Z" fill="#231F20"/>
<path d="M26.5727 32.0816H24.3546V34.3039H26.5727V32.0816Z" fill="white"/>
<path d="M26.5727 29.8503H24.3546V32.0816H26.5727V29.8503Z" fill="white"/>
<path d="M26.5727 27.619H24.3546V29.8503H26.5727V27.619Z" fill="#F9ED32"/>
<path d="M26.5727 25.3855H24.3546V27.6167H26.5727V25.3855Z" fill="#F9ED32"/>
<path d="M26.5727 23.1542H24.3546V25.3855H26.5727V23.1542Z" fill="white"/>
<path d="M26.5727 20.9229H24.3546V23.1542H26.5727V20.9229Z" fill="#F9ED32"/>
<path d="M26.5727 18.6893H24.3546V20.9206H26.5727V18.6893Z" fill="#F9ED32"/>
<path d="M26.5727 16.458H24.3546V18.6893H26.5727V16.458Z" fill="#FBB040"/>
<path d="M26.5727 14.2267H24.3546V16.458H26.5727V14.2267Z" fill="#231F20"/>
<path d="M24.3524 36.5374H22.1432V38.7687H24.3524V36.5374Z" fill="#231F20"/>
<path d="M24.3524 34.3061H22.1432V36.5374H24.3524V34.3061Z" fill="#FBB040"/>
<path d="M24.3524 32.0816H22.1432V34.3039H24.3524V32.0816Z" fill="white"/>
<path d="M24.3524 29.8503H22.1432V32.0816H24.3524V29.8503Z" fill="white"/>
<path d="M24.3524 27.619H22.1432V29.8503H24.3524V27.619Z" fill="white"/>
<path d="M24.3524 25.3855H22.1432V27.6167H24.3524V25.3855Z" fill="#F9ED32"/>
<path d="M24.3524 23.1542H22.1432V25.3855H24.3524V23.1542Z" fill="#F9ED32"/>
<path d="M24.3524 20.9229H22.1432V23.1542H24.3524V20.9229Z" fill="white"/>
<path d="M24.3524 18.6893H22.1432V20.9206H24.3524V18.6893Z" fill="#F9ED32"/>
<path d="M24.3524 16.458H22.1432V18.6893H24.3524V16.458Z" fill="#F9ED32"/>
<path d="M24.3524 14.2267H22.1432V16.458H24.3524V14.2267Z" fill="#FBB040"/>
<path d="M24.3524 11.9932H22.1432V14.2245H24.3524V11.9932Z" fill="#231F20"/>
<path d="M22.1432 38.7687H19.925V41H22.1432V38.7687Z" fill="#231F20"/>
<path d="M22.1432 36.5374H19.925V38.7687H22.1432V36.5374Z" fill="#FBB040"/>
<path d="M22.1432 34.3061H19.925V36.5374H22.1432V34.3061Z" fill="#F9ED32"/>
<path d="M22.1432 32.0816H19.925V34.3039H22.1432V32.0816Z" fill="#F9ED32"/>
<path d="M22.1432 29.8503H19.925V32.0816H22.1432V29.8503Z" fill="white"/>
<path d="M22.1432 27.619H19.925V29.8503H22.1432V27.619Z" fill="white"/>
<path d="M22.1432 25.3855H19.925V27.6167H22.1432V25.3855Z" fill="white"/>
<path d="M22.1432 23.1542H19.925V25.3855H22.1432V23.1542Z" fill="#F9ED32"/>
<path d="M22.1432 20.9229H19.925V23.1542H22.1432V20.9229Z" fill="#F9ED32"/>
<path d="M22.1432 18.6893H19.925V20.9206H22.1432V18.6893Z" fill="white"/>
<path d="M22.1432 16.458H19.925V18.6893H22.1432V16.458Z" fill="#F9ED32"/>
<path d="M22.1432 14.2267H19.925V16.458H22.1432V14.2267Z" fill="#F9ED32"/>
<path d="M22.1432 11.9932H19.925V14.2245H22.1432V11.9932Z" fill="#FBB040"/>
<path d="M22.1432 9.7619H19.925V11.9932H22.1432V9.7619Z" fill="#231F20"/>
<path d="M19.925 38.7687H17.7158V41H19.925V38.7687Z" fill="#231F20"/>
<path d="M19.925 36.5374H17.7158V38.7687H19.925V36.5374Z" fill="white"/>
<path d="M19.925 34.3061H17.7158V36.5374H19.925V34.3061Z" fill="#F9ED32"/>
<path d="M19.925 32.0816H17.7158V34.3039H19.925V32.0816Z" fill="#F9ED32"/>
<path d="M19.925 29.8503H17.7158V32.0816H19.925V29.8503Z" fill="#F9ED32"/>
<path d="M19.925 27.619H17.7158V29.8503H19.925V27.619Z" fill="white"/>
<path d="M19.925 25.3855H17.7158V27.6167H19.925V25.3855Z" fill="white"/>
<path d="M19.925 23.1542H17.7158V25.3855H19.925V23.1542Z" fill="white"/>
<path d="M19.925 20.9229H17.7158V23.1542H19.925V20.9229Z" fill="#F9ED32"/>
<path d="M19.925 18.6893H17.7158V20.9206H19.925V18.6893Z" fill="#F9ED32"/>
<path d="M19.925 16.458H17.7158V18.6893H19.925V16.458Z" fill="white"/>
<path d="M19.925 14.2267H17.7158V16.458H19.925V14.2267Z" fill="#F9ED32"/>
<path d="M19.925 11.9932H17.7158V14.2245H19.925V11.9932Z" fill="#FBB040"/>
<path d="M19.925 9.7619H17.7158V11.9932H19.925V9.7619Z" fill="#231F20"/>
<path d="M17.7137 38.7687H15.5045V41H17.7137V38.7687Z" fill="#231F20"/>
<path d="M17.7137 36.5374H15.5045V38.7687H17.7137V36.5374Z" fill="#FBB040"/>
<path d="M17.7137 34.3061H15.5045V36.5374H17.7137V34.3061Z" fill="white"/>
<path d="M17.7137 32.0816H15.5045V34.3039H17.7137V32.0816Z" fill="#F9ED32"/>
<path d="M17.7137 29.8503H15.5045V32.0816H17.7137V29.8503Z" fill="#F9ED32"/>
<path d="M17.7137 27.619H15.5045V29.8503H17.7137V27.619Z" fill="#F9ED32"/>
<path d="M17.7137 25.3855H15.5045V27.6167H17.7137V25.3855Z" fill="white"/>
<path d="M17.7137 23.1542H15.5045V25.3855H17.7137V23.1542Z" fill="white"/>
<path d="M17.7137 20.9229H15.5045V23.1542H17.7137V20.9229Z" fill="white"/>
<path d="M17.7137 18.6893H15.5045V20.9206H17.7137V18.6893Z" fill="#F9ED32"/>
<path d="M17.7137 16.458H15.5045V18.6893H17.7137V16.458Z" fill="#F9ED32"/>
<path d="M17.7137 14.2267H15.5045V16.458H17.7137V14.2267Z" fill="white"/>
<path d="M17.7137 11.9932H15.5045V14.2245H17.7137V11.9932Z" fill="#FBB040"/>
<path d="M17.7137 9.7619H15.5045V11.9932H17.7137V9.7619Z" fill="#231F20"/>
<path d="M15.5045 38.7687H13.2864V41H15.5045V38.7687Z" fill="#231F20"/>
<path d="M15.5045 36.5374H13.2864V38.7687H15.5045V36.5374Z" fill="#FBB040"/>
<path d="M15.5045 34.3061H13.2864V36.5374H15.5045V34.3061Z" fill="#F9ED32"/>
<path d="M15.5045 32.0816H13.2864V34.3039H15.5045V32.0816Z" fill="white"/>
<path d="M15.5045 29.8503H13.2864V32.0816H15.5045V29.8503Z" fill="#F9ED32"/>
<path d="M15.5045 27.619H13.2864V29.8503H15.5045V27.619Z" fill="#F9ED32"/>
<path d="M15.5045 25.3855H13.2864V27.6167H15.5045V25.3855Z" fill="#F9ED32"/>
<path d="M15.5045 23.1542H13.2864V25.3855H15.5045V23.1542Z" fill="white"/>
<path d="M15.5045 20.9229H13.2864V23.1542H15.5045V20.9229Z" fill="white"/>
<path d="M15.5045 18.6893H13.2864V20.9206H15.5045V18.6893Z" fill="white"/>
<path d="M15.5045 16.458H13.2864V18.6893H15.5045V16.458Z" fill="#F9ED32"/>
<path d="M15.5045 14.2267H13.2864V16.458H15.5045V14.2267Z" fill="#F9ED32"/>
<path d="M15.5045 11.9932H13.2864V14.2245H15.5045V11.9932Z" fill="white"/>
<path d="M15.5045 9.7619H13.2864V11.9932H15.5045V9.7619Z" fill="#231F20"/>
<path d="M13.2863 38.7687H11.0771V41H13.2863V38.7687Z" fill="#231F20"/>
<path d="M13.2863 36.5374H11.0771V38.7687H13.2863V36.5374Z" fill="#FBB040"/>
<path d="M13.2863 34.3061H11.0771V36.5374H13.2863V34.3061Z" fill="#F9ED32"/>
<path d="M13.2863 32.0816H11.0771V34.3039H13.2863V32.0816Z" fill="#F9ED32"/>
<path d="M13.2863 29.8503H11.0771V32.0816H13.2863V29.8503Z" fill="white"/>
<path d="M13.2863 27.619H11.0771V29.8503H13.2863V27.619Z" fill="#F9ED32"/>
<path d="M13.2863 25.3855H11.0771V27.6167H13.2863V25.3855Z" fill="#F9ED32"/>
<path d="M13.2863 23.1542H11.0771V25.3855H13.2863V23.1542Z" fill="#F9ED32"/>
<path d="M13.2863 20.9229H11.0771V23.1542H13.2863V20.9229Z" fill="white"/>
<path d="M13.2863 18.6893H11.0771V20.9206H13.2863V18.6893Z" fill="white"/>
<path d="M13.2863 16.458H11.0771V18.6893H13.2863V16.458Z" fill="white"/>
<path d="M13.2863 14.2267H11.0771V16.458H13.2863V14.2267Z" fill="#F9ED32"/>
<path d="M13.2863 11.9932H11.0771V14.2245H13.2863V11.9932Z" fill="#FBB040"/>
<path d="M13.2863 9.7619H11.0771V11.9932H13.2863V9.7619Z" fill="#231F20"/>
<path d="M11.0748 38.7687H8.85669V41H11.0748V38.7687Z" fill="#231F20"/>
<path d="M11.0748 36.5374H8.85669V38.7687H11.0748V36.5374Z" fill="#FBB040"/>
<path d="M11.0748 34.3061H8.85669V36.5374H11.0748V34.3061Z" fill="#F9ED32"/>
<path d="M11.0748 32.0816H8.85669V34.3039H11.0748V32.0816Z" fill="#F9ED32"/>
<path d="M11.0748 29.8503H8.85669V32.0816H11.0748V29.8503Z" fill="#F9ED32"/>
<path d="M11.0748 27.619H8.85669V29.8503H11.0748V27.619Z" fill="white"/>
<path d="M11.0748 25.3855H8.85669V27.6167H11.0748V25.3855Z" fill="#F9ED32"/>
<path d="M11.0748 23.1542H8.85669V25.3855H11.0748V23.1542Z" fill="#F9ED32"/>
<path d="M11.0748 20.9229H8.85669V23.1542H11.0748V20.9229Z" fill="#F9ED32"/>
<path d="M11.0748 18.6893H8.85669V20.9206H11.0748V18.6893Z" fill="white"/>
<path d="M11.0748 16.458H8.85669V18.6893H11.0748V16.458Z" fill="white"/>
<path d="M11.0748 14.2267H8.85669V16.458H11.0748V14.2267Z" fill="white"/>
<path d="M11.0748 11.9932H8.85669V14.2245H11.0748V11.9932Z" fill="#FBB040"/>
<path d="M11.0748 9.7619H8.85669V11.9932H11.0748V9.7619Z" fill="#231F20"/>
<path d="M8.85677 36.5374H6.64758V38.7687H8.85677V36.5374Z" fill="#231F20"/>
<path d="M8.85677 34.3061H6.64758V36.5374H8.85677V34.3061Z" fill="#FBB040"/>
<path d="M8.85677 32.0816H6.64758V34.3039H8.85677V32.0816Z" fill="#F9ED32"/>
<path d="M8.85677 29.8503H6.64758V32.0816H8.85677V29.8503Z" fill="#F9ED32"/>
<path d="M8.85677 27.619H6.64758V29.8503H8.85677V27.619Z" fill="#F9ED32"/>
<path d="M8.85677 25.3855H6.64758V27.6167H8.85677V25.3855Z" fill="white"/>
<path d="M8.85677 23.1542H6.64758V25.3855H8.85677V23.1542Z" fill="#F9ED32"/>
<path d="M8.85677 20.9229H6.64758V23.1542H8.85677V20.9229Z" fill="#F9ED32"/>
<path d="M8.85677 18.6893H6.64758V20.9206H8.85677V18.6893Z" fill="#F9ED32"/>
<path d="M8.85677 16.458H6.64758V18.6893H8.85677V16.458Z" fill="white"/>
<path d="M8.85677 14.2267H6.64758V16.458H8.85677V14.2267Z" fill="white"/>
<path d="M8.85677 11.9932H6.64758V14.2245H8.85677V11.9932Z" fill="#231F20"/>
<path d="M6.64767 34.3061H4.42957V36.5374H6.64767V34.3061Z" fill="#231F20"/>
<path d="M6.64767 32.0816H4.42957V34.3039H6.64767V32.0816Z" fill="#FBB040"/>
<path d="M6.64767 29.8503H4.42957V32.0816H6.64767V29.8503Z" fill="#F9ED32"/>
<path d="M6.64767 27.619H4.42957V29.8503H6.64767V27.619Z" fill="#F9ED32"/>
<path d="M6.64767 25.3855H4.42957V27.6167H6.64767V25.3855Z" fill="#F9ED32"/>
<path d="M6.64767 23.1542H4.42957V25.3855H6.64767V23.1542Z" fill="white"/>
<path d="M6.64767 20.9229H4.42957V23.1542H6.64767V20.9229Z" fill="#F9ED32"/>
<path d="M6.64767 18.6893H4.42957V20.9206H6.64767V18.6893Z" fill="#F9ED32"/>
<path d="M6.64767 16.458H4.42957V18.6893H6.64767V16.458Z" fill="#FBB040"/>
<path d="M6.64767 14.2267H4.42957V16.458H6.64767V14.2267Z" fill="#231F20"/>
<path d="M4.42733 32.0816H2.21814V34.3039H4.42733V32.0816Z" fill="#231F20"/>
<path d="M4.42733 29.8503H2.21814V32.0816H4.42733V29.8503Z" fill="#FBB040"/>
<path d="M4.42733 27.619H2.21814V29.8503H4.42733V27.619Z" fill="#FBB040"/>
<path d="M4.42733 25.3855H2.21814V27.6167H4.42733V25.3855Z" fill="#FBB040"/>
<path d="M4.42733 23.1542H2.21814V25.3855H4.42733V23.1542Z" fill="#FBB040"/>
<path d="M4.42733 20.9229H2.21814V23.1542H4.42733V20.9229Z" fill="white"/>
<path d="M4.42733 18.6893H2.21814V20.9206H4.42733V18.6893Z" fill="#FBB040"/>
<path d="M4.42733 16.458H2.21814V18.6893H4.42733V16.458Z" fill="#231F20"/>
<path d="M2.21811 29.8503H0V32.0816H2.21811V29.8503Z" fill="#231F20"/>
<path d="M2.21811 27.619H0V29.8503H2.21811V27.619Z" fill="#231F20"/>
<path d="M2.21811 25.3855H0V27.6167H2.21811V25.3855Z" fill="#231F20"/>
<path d="M2.21811 23.1542H0V25.3855H2.21811V23.1542Z" fill="#231F20"/>
<path d="M2.21811 20.9229H0V23.1542H2.21811V20.9229Z" fill="#231F20"/>
<path d="M2.21811 18.6893H0V20.9206H2.21811V18.6893Z" fill="#231F20"/>
<path d="M15.5 18.9018V20.2143H14.1875V21.5268H11.5625V22.8393H15.5V30.7143H18.125V18.9018H15.5Z" fill="#BA8F77"/>
<path d="M14.5312 18.9018V20.2143H13.2187V21.5268H10.5937V22.8393H14.5312V30.7143H17.1562V18.9018H14.5312Z" fill="#592406"/>
<defs>
<clipPath id="clip0_0_181071">
<rect width="17.4375" height="28.3095" fill="white" transform="translate(6.78125)"/>
</clipPath>
</defs>
</svg>
