<svg width="36" height="36" viewBox="0 0 36 36" fill="none" xmlns="http://www.w3.org/2000/svg">
<g filter="url(#filter0_i_3_695)">
<rect x="3" y="3" width="30" height="30" rx="4" fill="#B30009"/>
</g>
<rect x="1.5" y="1.5" width="33" height="33" rx="5.5" stroke="#0C203F" stroke-width="3"/>
<rect x="11.7778" y="12.5556" width="2.33333" height="2.33333" fill="white" fill-opacity="0.3"/>
<rect x="14.1111" y="14.8889" width="2.33333" height="2.33333" fill="white" fill-opacity="0.3"/>
<rect x="14.8889" y="21.8889" width="2.33333" height="2.33333" transform="rotate(-90 14.8889 21.8889)" fill="white" fill-opacity="0.3"/>
<rect x="12.5556" y="24.2222" width="2.33333" height="2.33333" transform="rotate(-90 12.5556 24.2222)" fill="white" fill-opacity="0.3"/>
<rect x="23.4444" y="11.7778" width="2.33333" height="2.33333" transform="rotate(90 23.4444 11.7778)" fill="white" fill-opacity="0.3"/>
<rect x="21.1111" y="14.1111" width="2.33333" height="2.33333" transform="rotate(90 21.1111 14.1111)" fill="white" fill-opacity="0.3"/>
<rect x="21.8889" y="21.1111" width="2.33333" height="2.33333" transform="rotate(-180 21.8889 21.1111)" fill="white" fill-opacity="0.3"/>
<rect x="24.2222" y="23.4445" width="2.33333" height="2.33333" transform="rotate(-180 24.2222 23.4445)" fill="white" fill-opacity="0.3"/>
<rect x="12.5556" y="11.7778" width="2.33333" height="2.33333" fill="white" fill-opacity="0.3"/>
<rect x="14.8889" y="14.1111" width="2.33333" height="2.33333" fill="white" fill-opacity="0.3"/>
<rect x="14.1111" y="21.1111" width="2.33333" height="2.33333" transform="rotate(-90 14.1111 21.1111)" fill="white" fill-opacity="0.3"/>
<rect x="11.7778" y="23.4445" width="2.33333" height="2.33333" transform="rotate(-90 11.7778 23.4445)" fill="white" fill-opacity="0.3"/>
<rect x="24.2222" y="12.5556" width="2.33333" height="2.33333" transform="rotate(90 24.2222 12.5556)" fill="white" fill-opacity="0.3"/>
<rect x="21.8889" y="14.8889" width="2.33333" height="2.33333" transform="rotate(90 21.8889 14.8889)" fill="white" fill-opacity="0.3"/>
<rect x="21.1111" y="21.8889" width="2.33333" height="2.33333" transform="rotate(-180 21.1111 21.8889)" fill="white" fill-opacity="0.3"/>
<rect x="23.4444" y="24.2222" width="2.33333" height="2.33333" transform="rotate(-180 23.4444 24.2222)" fill="white" fill-opacity="0.3"/>
<rect x="11" y="11" width="2.33333" height="2.33333" fill="white" fill-opacity="0.9"/>
<rect x="13.3333" y="13.3334" width="2.33333" height="2.33333" fill="white" fill-opacity="0.9"/>
<rect x="15.6667" y="15.6666" width="2.33333" height="2.33333" fill="white" fill-opacity="0.9"/>
<rect x="18" y="18" width="2.33333" height="2.33333" fill="white" fill-opacity="0.9"/>
<rect x="20.3333" y="20.3334" width="2.33333" height="2.33333" fill="white" fill-opacity="0.9"/>
<rect x="22.6667" y="22.6666" width="2.33333" height="2.33333" fill="white" fill-opacity="0.9"/>
<rect x="25" y="11" width="2.33333" height="2.33333" transform="rotate(90 25 11)" fill="white" fill-opacity="0.9"/>
<rect x="22.6667" y="13.3334" width="2.33333" height="2.33333" transform="rotate(90 22.6667 13.3334)" fill="white" fill-opacity="0.9"/>
<rect x="20.3333" y="15.6666" width="2.33333" height="2.33333" transform="rotate(90 20.3333 15.6666)" fill="white" fill-opacity="0.9"/>
<rect x="18" y="18" width="2.33333" height="2.33333" transform="rotate(90 18 18)" fill="white" fill-opacity="0.9"/>
<rect x="15.6667" y="20.3334" width="2.33333" height="2.33333" transform="rotate(90 15.6667 20.3334)" fill="white" fill-opacity="0.9"/>
<rect x="13.3333" y="22.6666" width="2.33333" height="2.33333" transform="rotate(90 13.3333 22.6666)" fill="white" fill-opacity="0.9"/>
<defs>
<filter id="filter0_i_3_695" x="0" y="0" width="40" height="40" filterUnits="userSpaceOnUse" color-interpolation-filters="sRGB">
<feFlood flood-opacity="0" result="BackgroundImageFix"/>
<feBlend mode="normal" in="SourceGraphic" in2="BackgroundImageFix" result="shape"/>
<feColorMatrix in="SourceAlpha" type="matrix" values="0 0 0 0 0 0 0 0 0 0 0 0 0 0 0 0 0 0 127 0" result="hardAlpha"/>
<feOffset dx="5" dy="4"/>
<feGaussianBlur stdDeviation="2"/>
<feComposite in2="hardAlpha" operator="arithmetic" k2="-1" k3="1"/>
<feColorMatrix type="matrix" values="0 0 0 0 0.933333 0 0 0 0 0.545098 0 0 0 0 0.564706 0 0 0 0.7 0"/>
<feBlend mode="normal" in2="shape" result="effect1_innerShadow_3_695"/>
</filter>
</defs>
</svg>
