<svg width="24" height="24" viewBox="0 0 24 24" fill="none" xmlns="http://www.w3.org/2000/svg">
<rect x="6" y="9" width="2" height="2" fill="#BBBBBB"/>
<rect x="5" y="10" width="2" height="2" fill="#BBBBBB"/>
<rect x="7" y="8" width="2" height="2" fill="#BBBBBB"/>
<rect x="8" y="7" width="2" height="2" fill="#BBBBBB"/>
<rect x="9" y="6" width="2" height="2" fill="#BBBBBB"/>
<rect x="10" y="5" width="2" height="2" fill="#BBBBBB"/>
<rect x="11" y="4" width="2" height="2" fill="#BBBBBB"/>
<rect x="12" y="3" width="2" height="2" fill="#BBBBBB"/>
<rect x="13" y="4" width="2" height="2" fill="#BBBBBB"/>
<rect x="14" y="5" width="2" height="2" fill="#BBBBBB"/>
<rect x="15" y="6" width="2" height="2" fill="#BBBBBB"/>
<rect x="16" y="7" width="2" height="2" fill="#BBBBBB"/>
<rect x="17" y="8" width="2" height="2" fill="#BBBBBB"/>
<rect x="18" y="9" width="2" height="2" fill="#BBBBBB"/>
<rect x="19" y="10" width="2" height="2" fill="#BBBBBB"/>
<rect x="4" y="11" width="2" height="11" fill="#BBBBBB"/>
<rect x="10" y="21" width="2" height="6" transform="rotate(90 10 21)" fill="#BBBBBB"/>
<rect x="22" y="21" width="2" height="6" transform="rotate(90 22 21)" fill="#BBBBBB"/>
<rect x="11" y="23" width="2" height="9" transform="rotate(-180 11 23)" fill="#BBBBBB"/>
<rect x="17" y="14" width="2" height="8" transform="rotate(90 17 14)" fill="#BBBBBB"/>
<rect x="17" y="23" width="2" height="9" transform="rotate(-180 17 23)" fill="#BBBBBB"/>
<rect x="20" y="11" width="2" height="11" fill="#BBBBBB"/>
<rect x="4" y="9" width="2" height="2" fill="#D1D1D1"/>
<rect x="3" y="10" width="2" height="2" fill="#D1D1D1"/>
<rect x="5" y="8" width="2" height="2" fill="#D1D1D1"/>
<rect x="6" y="7" width="2" height="2" fill="#D1D1D1"/>
<rect x="7" y="6" width="2" height="2" fill="#D1D1D1"/>
<rect x="8" y="5" width="2" height="2" fill="#D1D1D1"/>
<rect x="9" y="4" width="2" height="2" fill="#D1D1D1"/>
<rect x="10" y="3" width="2" height="2" fill="#D1D1D1"/>
<rect x="11" y="4" width="2" height="2" fill="#D1D1D1"/>
<rect x="12" y="5" width="2" height="2" fill="#D1D1D1"/>
<rect x="13" y="6" width="2" height="2" fill="#D1D1D1"/>
<rect x="14" y="7" width="2" height="2" fill="#D1D1D1"/>
<rect x="15" y="8" width="2" height="2" fill="#D1D1D1"/>
<rect x="16" y="9" width="2" height="2" fill="#D1D1D1"/>
<rect x="17" y="10" width="2" height="2" fill="#D1D1D1"/>
<rect x="2" y="11" width="2" height="11" fill="#D1D1D1"/>
<rect x="8" y="21" width="2" height="6" transform="rotate(90 8 21)" fill="#D1D1D1"/>
<rect x="20" y="21" width="2" height="6" transform="rotate(90 20 21)" fill="#D1D1D1"/>
<rect x="9" y="23" width="2" height="9" transform="rotate(-180 9 23)" fill="#D1D1D1"/>
<rect x="15" y="14" width="2" height="8" transform="rotate(90 15 14)" fill="#D1D1D1"/>
<rect x="15" y="23" width="2" height="9" transform="rotate(-180 15 23)" fill="#D1D1D1"/>
<rect x="18" y="11" width="2" height="11" fill="#D1D1D1"/>
<rect x="4" y="8" width="2" height="2" fill="#BBBBBB"/>
<rect x="3" y="9" width="2" height="2" fill="#BBBBBB"/>
<rect x="5" y="7" width="2" height="2" fill="#BBBBBB"/>
<rect x="6" y="6" width="2" height="2" fill="#BBBBBB"/>
<rect x="7" y="5" width="2" height="2" fill="#BBBBBB"/>
<rect x="8" y="4" width="2" height="2" fill="#BBBBBB"/>
<rect x="9" y="3" width="2" height="2" fill="#BBBBBB"/>
<rect x="10" y="2" width="2" height="2" fill="#BBBBBB"/>
<rect x="11" y="3" width="2" height="2" fill="#BBBBBB"/>
<rect x="12" y="4" width="2" height="2" fill="#BBBBBB"/>
<rect x="13" y="5" width="2" height="2" fill="#BBBBBB"/>
<rect x="14" y="6" width="2" height="2" fill="#BBBBBB"/>
<rect x="15" y="7" width="2" height="2" fill="#BBBBBB"/>
<rect x="16" y="8" width="2" height="2" fill="#BBBBBB"/>
<rect x="17" y="9" width="2" height="2" fill="#BBBBBB"/>
<rect x="2" y="10" width="2" height="11" fill="#BBBBBB"/>
<rect x="8" y="20" width="2" height="6" transform="rotate(90 8 20)" fill="#BBBBBB"/>
<rect x="20" y="20" width="2" height="6" transform="rotate(90 20 20)" fill="#BBBBBB"/>
<rect x="9" y="22" width="2" height="9" transform="rotate(-180 9 22)" fill="#BBBBBB"/>
<rect x="15" y="13" width="2" height="8" transform="rotate(90 15 13)" fill="#BBBBBB"/>
<rect x="15" y="22" width="2" height="9" transform="rotate(-180 15 22)" fill="#BBBBBB"/>
<rect x="18" y="10" width="2" height="11" fill="#BBBBBB"/>
<rect x="5" y="8" width="2" height="2" fill="#9C9C9C"/>
<rect x="4" y="9" width="2" height="2" fill="#9C9C9C"/>
<rect x="6" y="7" width="2" height="2" fill="#9C9C9C"/>
<rect x="7" y="6" width="2" height="2" fill="#9C9C9C"/>
<rect x="8" y="5" width="2" height="2" fill="#9C9C9C"/>
<rect x="9" y="4" width="2" height="2" fill="#9C9C9C"/>
<rect x="10" y="3" width="2" height="2" fill="#9C9C9C"/>
<rect x="11" y="2" width="2" height="2" fill="#9C9C9C"/>
<rect x="12" y="3" width="2" height="2" fill="#9C9C9C"/>
<rect x="13" y="4" width="2" height="2" fill="#9C9C9C"/>
<rect x="14" y="5" width="2" height="2" fill="#9C9C9C"/>
<rect x="15" y="6" width="2" height="2" fill="#9C9C9C"/>
<rect x="16" y="7" width="2" height="2" fill="#9C9C9C"/>
<rect x="17" y="8" width="2" height="2" fill="#9C9C9C"/>
<rect x="18" y="9" width="2" height="2" fill="#9C9C9C"/>
<rect x="3" y="10" width="2" height="11" fill="#9C9C9C"/>
<rect x="9" y="20" width="2" height="6" transform="rotate(90 9 20)" fill="#9C9C9C"/>
<rect x="21" y="20" width="2" height="6" transform="rotate(90 21 20)" fill="#9C9C9C"/>
<rect x="10" y="22" width="2" height="9" transform="rotate(-180 10 22)" fill="#9C9C9C"/>
<rect x="16" y="13" width="2" height="8" transform="rotate(90 16 13)" fill="#9C9C9C"/>
<rect x="16" y="22" width="2" height="9" transform="rotate(-180 16 22)" fill="#9C9C9C"/>
<rect x="19" y="10" width="2" height="11" fill="#9C9C9C"/>
</svg>
