<svg width="28" height="25" viewBox="0 0 28 25" fill="none" xmlns="http://www.w3.org/2000/svg">
<path d="M24.818 5.37776V2.96665H22.414V0.555542H17.6059V2.96665H15.2018V5.37776H12.7978V2.96665H10.3938V0.555542H5.58567V2.96665H3.18163V5.37776H0.777588V12.6111H3.18163V15.0222H5.58567V17.4333H7.98971V19.8444H10.3938V22.2555H12.7978V24.6667H15.2018V22.2555H17.6059V19.8444H20.0099V17.4333H22.414V15.0222H24.818V12.6111H27.222V5.37776H24.818Z" fill="black"/>
<path d="M17.6064 5.37779V7.7889H10.3943V5.37779H5.58618V12.6111H7.99022V15.0222H10.3943V17.4333H12.7983V19.8445H15.2023V17.4333H17.6064V15.0222H20.0104V12.6111H22.4145V5.37779H17.6064Z" fill="#FF0000"/>
<path d="M15.2021 19.8444H12.7981V22.2555H15.2021V19.8444Z" fill="#800000"/>
<path d="M12.7978 17.4333H10.3938V19.8445H12.7978V17.4333Z" fill="#800000"/>
<path d="M10.3935 15.0222H7.9895V17.4333H10.3935V15.0222Z" fill="#800000"/>
<path d="M7.98998 12.6111H5.58594V15.0222H7.98998V12.6111Z" fill="#800000"/>
<path d="M5.58568 7.78889H3.18164V12.6111H5.58568V7.78889Z" fill="#800000"/>
<path d="M17.6057 17.4333H15.2017V19.8445H17.6057V17.4333Z" fill="#800000"/>
<path d="M20.01 15.0222H17.606V17.4333H20.01V15.0222Z" fill="#800000"/>
<path d="M22.4145 12.6111H20.0105V15.0222H22.4145V12.6111Z" fill="#800000"/>
<path d="M10.394 2.96666H5.58594V5.37777H10.394V2.96666Z" fill="#FF6767"/>
<path d="M12.7978 5.37779H10.3938V7.7889H12.7978V5.37779Z" fill="#FF6767"/>
<path d="M5.58568 5.37779H3.18164V7.7889H5.58568V5.37779Z" fill="#FF6767"/>
<path d="M22.414 2.96666H17.606V5.37777H22.414V2.96666Z" fill="#FF6767"/>
<path d="M17.6057 5.37779H15.2017V7.7889H17.6057V5.37779Z" fill="#FF6767"/>
<path d="M24.8179 5.37779H22.4138V12.6111H24.8179V5.37779Z" fill="#FF6767"/>
<path d="M22.4145 5.37779H20.0105V7.7889H22.4145V5.37779Z" fill="white"/>
</svg>
