<svg width="12" height="16" viewBox="0 0 12 16" fill="none" xmlns="http://www.w3.org/2000/svg">
<rect width="1.45455" height="1.88235" transform="matrix(-4.37114e-08 -1 -1 4.37114e-08 8.23529 13.0909)" fill="white"/>
<rect width="1.45455" height="1.88235" transform="matrix(-4.37114e-08 -1 -1 4.37114e-08 10.1177 13.0909)" fill="white"/>
<rect width="1.45455" height="1.88235" transform="matrix(-4.37114e-08 -1 -1 4.37114e-08 12 13.0909)" fill="white"/>
<rect width="1.45455" height="1.88235" transform="matrix(-4.37114e-08 -1 -1 4.37114e-08 10.1177 14.5455)" fill="white"/>
<rect width="1.45455" height="1.88235" transform="matrix(-4.37114e-08 -1 -1 4.37114e-08 12 14.5455)" fill="white"/>
<rect width="1.45455" height="1.88235" transform="matrix(-4.37114e-08 -1 -1 4.37114e-08 12 16)" fill="white"/>
<rect width="1.45455" height="1.88235" transform="matrix(-4.37114e-08 -1 -1 4.37114e-08 8.23529 7.27272)" fill="white"/>
<rect width="1.45455" height="1.88235" transform="matrix(-4.37114e-08 -1 -1 4.37114e-08 10.1177 7.27272)" fill="white"/>
<rect width="1.45455" height="1.88235" transform="matrix(-4.37114e-08 -1 -1 4.37114e-08 12 7.27269)" fill="white"/>
<rect width="1.45455" height="1.88235" transform="matrix(-4.37114e-08 -1 -1 4.37114e-08 6.35297 11.6364)" fill="white"/>
<rect width="1.45455" height="1.88235" transform="matrix(-4.37114e-08 -1 -1 4.37114e-08 8.23529 11.6364)" fill="white"/>
<rect width="1.45455" height="1.88235" transform="matrix(-4.37114e-08 -1 -1 4.37114e-08 10.1177 11.6364)" fill="white"/>
<rect width="1.45455" height="1.88235" transform="matrix(-4.37114e-08 -1 -1 4.37114e-08 12 11.6364)" fill="white"/>
<rect width="1.45455" height="1.88235" transform="matrix(-4.37114e-08 -1 -1 4.37114e-08 8.23529 5.81816)" fill="white"/>
<rect width="1.45455" height="1.88235" transform="matrix(-4.37114e-08 -1 -1 4.37114e-08 10.1177 5.81816)" fill="white"/>
<rect width="1.45455" height="1.88235" transform="matrix(-4.37114e-08 -1 -1 4.37114e-08 12 5.81816)" fill="white"/>
<rect width="1.45455" height="1.88235" transform="matrix(-4.37114e-08 -1 -1 4.37114e-08 6.35297 10.1819)" fill="white"/>
<rect width="1.45455" height="1.88235" transform="matrix(-4.37114e-08 -1 -1 4.37114e-08 8.23529 10.1819)" fill="white"/>
<rect width="1.45455" height="1.88235" transform="matrix(-4.37114e-08 -1 -1 4.37114e-08 10.1177 10.1819)" fill="white"/>
<rect width="1.45455" height="1.88235" transform="matrix(-4.37114e-08 -1 -1 4.37114e-08 12 10.1819)" fill="white"/>
<rect width="1.45455" height="1.88235" transform="matrix(-4.37114e-08 -1 -1 4.37114e-08 8.23529 4.36362)" fill="white"/>
<rect width="1.45455" height="1.88235" transform="matrix(-4.37114e-08 -1 -1 4.37114e-08 10.1177 4.36362)" fill="white"/>
<rect width="1.45455" height="1.88235" transform="matrix(-4.37114e-08 -1 -1 4.37114e-08 12 4.36362)" fill="white"/>
<rect width="1.45455" height="1.88235" transform="matrix(-4.37114e-08 -1 -1 4.37114e-08 10.1177 2.90906)" fill="white"/>
<rect width="1.45455" height="1.88235" transform="matrix(-4.37114e-08 -1 -1 4.37114e-08 12 2.90906)" fill="white"/>
<rect width="1.45455" height="1.88235" transform="matrix(-4.37114e-08 -1 -1 4.37114e-08 12 1.45453)" fill="white"/>
<rect width="1.45455" height="1.88235" transform="matrix(-4.37114e-08 -1 -1 4.37114e-08 6.35297 8.72728)" fill="white"/>
<rect width="1.45455" height="1.88235" transform="matrix(-4.37114e-08 -1 -1 4.37114e-08 6.35297 5.81816)" fill="white"/>
<rect width="1.45455" height="1.88235" transform="matrix(-4.37114e-08 -1 -1 4.37114e-08 8.23529 8.72731)" fill="white"/>
<rect width="1.45455" height="1.88235" transform="matrix(-4.37114e-08 -1 -1 4.37114e-08 10.1177 8.72731)" fill="white"/>
<rect width="1.45455" height="1.88235" transform="matrix(-4.37114e-08 -1 -1 4.37114e-08 12 8.72731)" fill="white"/>
<rect width="1.45455" height="1.88235" transform="matrix(-4.37114e-08 -1 -1 4.37114e-08 6.35297 7.27272)" fill="white"/>
<rect width="1.45455" height="1.88235" transform="matrix(-4.37114e-08 -1 -1 4.37114e-08 4.47058 7.27272)" fill="white"/>
<rect width="1.45455" height="1.88235" transform="matrix(-4.37114e-08 -1 -1 4.37114e-08 4.47058 8.72728)" fill="white"/>
<rect width="1.45455" height="1.88235" transform="matrix(-4.37114e-08 -1 -1 4.37114e-08 4.47058 10.1819)" fill="white"/>
<rect width="1.45455" height="1.88235" transform="matrix(-4.37114e-08 -1 -1 4.37114e-08 2.5882 8.72728)" fill="white"/>
</svg>
