<svg width="115" height="25" viewBox="0 0 115 25" fill="none" xmlns="http://www.w3.org/2000/svg">
<path d="M1 10.8411C1 11.5269 1.41285 12.1163 2.00354 12.3743L3.28416 17.1777L3.31405 17.1697C3.3451 17.2974 3.38617 17.4164 3.42627 17.4871C3.59811 17.737 3.83289 17.8308 3.86575 17.8439C3.86698 17.8444 3.86793 17.8448 3.86858 17.845C3.97896 17.8907 4.07569 17.9061 4.08946 17.9082C4.09006 17.9083 4.0905 17.9084 4.09078 17.9084C4.14224 17.917 4.18666 17.9203 4.20004 17.9212L4.20077 17.9213C4.239 17.9241 4.28137 17.9257 4.31713 17.9268C4.39394 17.9292 4.50097 17.9311 4.62902 17.9326C4.88747 17.9357 5.2559 17.9376 5.69526 17.9386C6.57508 17.9407 7.75096 17.9393 8.92664 17.9365C10.1027 17.9338 11.28 17.9297 12.1631 17.9262L13.2306 17.9219L13.5298 17.9205L13.6087 17.9202L13.629 17.9201L13.6341 17.9201L13.6354 17.9201L13.6357 17.9201C13.6358 17.9201 13.6358 17.9201 13.6312 16.9201L13.6358 17.9201L14.4048 17.9165L14.5988 17.1723L15.8622 12.3261C16.3985 12.0476 16.7648 11.4871 16.7648 10.8411C16.7648 9.91761 16.016 9.16884 15.0925 9.16884H14.0925V9.50133C13.7697 9.74256 13.5369 10.0976 13.4537 10.5071L11.9385 11.2408L10.5649 8.58283C10.653 8.37997 10.7023 8.15568 10.7023 7.91908C10.7023 6.99556 9.95352 6.24678 9.02999 6.24678C8.10646 6.24678 7.35769 6.99556 7.35769 7.91908C7.35769 8.17467 7.41508 8.4165 7.51743 8.63265L6.00467 11.2005L4.29571 10.4381C4.11534 9.70926 3.45689 9.16884 2.6723 9.16884C1.74878 9.16884 1 9.91761 1 10.8411Z" fill="#FFD200" stroke="#20526B" stroke-width="2"/>
<path d="M8.95522 18.7432C10.2903 18.7432 11.5245 18.6453 12.4476 18.4773C12.901 18.3948 13.3294 18.2867 13.668 18.141C13.8334 18.0699 14.0347 17.9659 14.2103 17.8097C14.382 17.657 14.641 17.3497 14.641 16.8905C14.641 16.4314 14.382 16.1241 14.2103 15.9714C14.0347 15.8152 13.8334 15.7112 13.668 15.6401C13.3294 15.4944 12.901 15.3863 12.4476 15.3038C11.5245 15.1358 10.2903 15.0379 8.95522 15.0379C7.62017 15.0379 6.38596 15.1358 5.46283 15.3038C5.00946 15.3863 4.58106 15.4944 4.24246 15.6401C4.07701 15.7112 3.87577 15.8152 3.70011 15.9714C3.52847 16.1241 3.26943 16.4314 3.26943 16.8905C3.26943 17.3497 3.52847 17.657 3.70011 17.8097C3.87577 17.9659 4.07701 18.0699 4.24246 18.141C4.58106 18.2867 5.00946 18.3948 5.46283 18.4773C6.38596 18.6453 7.62017 18.7432 8.95522 18.7432Z" fill="#E09D1B" stroke="#20526B" stroke-width="2"/>
<path d="M48.8413 9.98048C48.8413 10.9033 49.1219 11.7011 49.7254 12.3155H49.592H48.5453L48.5931 13.3611C48.6459 14.518 49.1715 15.4889 50.0218 16.1518C50.8552 16.8016 51.9471 17.1179 53.116 17.1179C54.1784 17.1179 55.2124 16.8427 56.009 16.2642C56.8288 15.6689 57.3749 14.7599 57.3749 13.633C57.3749 13.2827 57.333 12.9309 57.2338 12.5903L57.4969 12.8536L57.3444 10.2295C57.2172 8.04089 55.3242 6.65304 53.1081 6.65304C52.0662 6.65304 51.038 6.8832 50.2372 7.41688C49.4013 7.97398 48.8413 8.85295 48.8413 9.98048Z" fill="#FFD200" stroke="#20526B" stroke-width="2"/>
<path d="M60.0471 7.32277L59.7542 6.8472H59.1957H57.7604H57.7577H56.7577V7.8472V15.9185V16.9185H57.7577H59.5604H60.5604V15.9185V15.0831L60.5752 15.1076L60.8669 15.5907H61.4313H62.5202H63.0846L63.3763 15.1076L63.3911 15.0831V15.9185V16.9185H64.3911H66.1937H67.1937V15.9185V7.8472V6.8472H66.1937H64.7584H64.1999L63.907 7.32277L61.977 10.4562L60.0471 7.32277Z" fill="#FFD200" stroke="#20526B" stroke-width="2"/>
<path d="M70.7518 7.8472V6.8472H69.7518H67.9491H66.9491V7.8472V15.9185V16.9185H67.9491H69.7518H70.7518V15.9185V7.8472Z" fill="#FFD200" stroke="#20526B" stroke-width="2"/>
<path d="M74.3072 7.8472V6.8472H73.3072H71.5046H70.5046V7.8472V15.9185V16.9185H71.5046H77.3376H78.3376V15.9185V14.3231V13.3231H77.3376H74.3072V7.8472Z" fill="#FFD200" stroke="#20526B" stroke-width="2"/>
<path d="M78.5761 6.8472H77.5761V7.8472V15.9132V16.9132H78.5761H84.6663H85.6663V15.9132V14.3493V13.3493H85.2307V12.6175V11.0537V10.4111H85.5771V9.41107V7.8472V6.8472H84.5771H78.5761Z" fill="#FFD200" stroke="#20526B" stroke-width="2"/>
<path d="M88.3556 6.84721H87.3556V7.84721V15.9185V16.9185H88.3556H91.4833C93.0259 16.9185 94.3708 16.4415 95.3377 15.5242C96.3087 14.6031 96.8102 13.3207 96.8102 11.8881C96.8102 10.4557 96.3089 9.1715 95.339 8.24801C94.3727 7.32789 93.0276 6.84721 91.4833 6.84721H88.3556ZM93.0102 11.8881C93.0102 12.4578 92.8412 12.7823 92.6485 12.9677C92.4504 13.1584 92.1011 13.3231 91.5148 13.3231H91.1582V10.4426H91.5148C92.098 10.4426 92.4471 10.6081 92.6463 10.801C92.8409 10.9896 93.0102 11.3181 93.0102 11.8881Z" fill="#FFD200" stroke="#20526B" stroke-width="2"/>
<path d="M98.0694 16.9185H98.7718L99.0101 16.2578L99.3359 15.3546H101.064L101.39 16.2578L101.628 16.9185H102.331H104.341H105.801L105.273 15.5569L102.143 7.48562L101.895 6.84721H101.21H99.3394H98.6547L98.4071 7.48562L95.2767 15.5569L94.7487 16.9185H96.2091H98.0694Z" fill="#FFD200" stroke="#20526B" stroke-width="2"/>
<path d="M106.983 9.45157L105.935 7.39339L105.657 6.84721H105.044H102.984H101.299L102.106 8.32609L105.004 13.6388V15.9185V16.9185H106.004H107.807H108.807V15.9185V13.6388L111.705 8.32609L112.512 6.84721H110.827H108.917H108.302L108.025 7.39534L106.983 9.45157Z" fill="#FFD200" stroke="#20526B" stroke-width="2"/>
<path d="M37.6098 14.5556L37.7325 14.2682L37.6697 13.9621L37.2289 11.8131L35.2602 11.8667C35.208 12.217 35.1495 12.5018 35.0897 12.7322V8.51106C35.0897 7.51534 34.2799 6.70551 33.2842 6.70551C32.2885 6.70551 31.4786 7.51533 31.4786 8.51106V13.5569C31.4786 14.351 31.6256 15.2215 32.0907 15.9245C32.5953 16.6871 33.4094 17.1494 34.465 17.1494C35.3993 17.1494 36.1094 16.6822 36.5971 16.1652C37.077 15.6566 37.4025 15.0413 37.6098 14.5556Z" fill="#FFD200" stroke="#20526B" stroke-width="2"/>
<path d="M48.2227 10.2422C48.2976 9.72785 48.159 9.24508 47.8473 8.8804C47.5545 8.53789 47.157 8.35407 46.7815 8.30042L45.6401 8.13736V8.54053C45.6176 8.5545 45.5954 8.56908 45.5735 8.58428C45.1906 8.849 44.9402 9.25844 44.8591 9.73727L44.845 9.82023V9.83071C44.6206 11.1893 43.9517 12.3899 42.7989 13.4309V10.8044H42.7989L42.7989 10.7988C42.7962 10.3266 42.625 9.9017 42.3384 9.58344C42.6548 9.28113 42.8621 8.85547 42.8226 8.30553C42.791 7.86713 42.6034 7.43364 42.2235 7.1231C41.8578 6.82426 41.4121 6.71863 40.996 6.71863C40.1589 6.71863 38.7996 7.09669 37.612 7.98957C36.3801 8.91576 35.3005 10.4223 35.1696 12.6561L35.1696 12.6567C35.083 14.1483 35.505 15.288 36.2339 16.0592C36.6612 16.5114 37.1678 16.808 37.6746 16.9722C36.528 18.0841 35.9367 19.2359 35.9367 20.5445C35.9367 21.6541 36.343 22.5489 37.0299 23.1554C37.6953 23.743 38.5436 23.99 39.3324 23.99C41.4438 23.99 42.8015 22.2166 42.8015 20.3451V17.4771C45.8898 15.4619 47.7842 13.2628 48.2227 10.2422ZM38.5913 12.7474C38.6334 11.9654 38.8748 11.4387 39.1827 11.0728C39.1691 11.811 39.0972 12.5092 38.9358 13.0156C38.846 13.2977 38.7516 13.4439 38.6909 13.5071C38.6841 13.5143 38.6784 13.5199 38.6735 13.5243C38.6684 13.5112 38.663 13.4959 38.6574 13.4782C38.6248 13.3751 38.6031 13.2424 38.5932 13.0971C38.5836 12.9556 38.5868 12.8288 38.5912 12.7481L38.5913 12.7474Z" fill="#FFD200" stroke="#20526B" stroke-width="2"/>
<path d="M27.01 8.30013C26.8719 8.31328 26.7357 8.33842 26.6039 8.37652V6.0498C26.6039 5.39927 26.2582 4.82809 25.7409 4.51025C25.8297 4.49763 25.9215 4.48782 26.0164 4.48103L26.0171 4.48098C27.1994 4.39554 27.7182 4.7652 27.9805 5.09819C28.2916 5.49303 28.4086 6.05253 28.4086 6.52998C28.4086 7.36433 28.1088 7.75084 27.8505 7.95744C27.5459 8.20109 27.177 8.28433 27.0106 8.30007L27.01 8.30013ZM26.6039 12.0193V11.7716C26.7662 11.8172 26.935 11.8411 27.1048 11.8411C27.5867 11.8411 27.7836 11.9862 27.8724 12.0855C27.9792 12.2052 28.0728 12.4227 28.0728 12.7671C28.0728 13.1214 27.9656 13.2893 27.8846 13.3687C27.7988 13.4527 27.6362 13.5409 27.3462 13.5409C27.0764 13.5409 26.9632 13.4603 26.8769 13.3401C26.7515 13.1657 26.6039 12.7775 26.6039 12.0193ZM30.6192 10.0252C30.619 10.0249 30.6187 10.0247 30.6184 10.0244C30.6797 9.97072 30.7406 9.91445 30.8008 9.85551C31.5265 9.14527 32.1404 8.06092 32.1404 6.52736V4.11217L31.8014 4.45142C31.4675 3.50781 30.8978 2.74058 30.1489 2.16888C28.941 1.24666 27.3734 0.91248 25.8364 1.0192L25.8359 1.01923C22.8296 1.22947 19.6105 3.39723 19.6105 7.49297C19.6105 8.31928 19.8022 9.12383 20.026 9.75613C20.1391 10.0759 20.2656 10.3663 20.3913 10.6088C20.5074 10.8328 20.653 11.0752 20.8194 11.256C21.3528 11.8353 22.242 12.0549 22.9928 11.6778V12.7671C22.9928 14.2121 23.5082 15.3457 24.3793 16.1051C25.2272 16.8444 26.3165 17.1467 27.3436 17.1467C28.3788 17.1467 29.4726 16.8302 30.3234 16.0913C31.197 15.3327 31.7285 14.2019 31.7285 12.7645C31.7285 11.5538 31.2195 10.6374 30.6192 10.0252Z" fill="#FFD200" stroke="#20526B" stroke-width="2"/>
<path d="M33.2842 7.05504C34.5495 7.05504 35.5752 6.02933 35.5752 4.76406C35.5752 3.49878 34.5495 2.47308 33.2842 2.47308C32.0189 2.47308 30.9932 3.49878 30.9932 4.76406C30.9932 6.02933 32.0189 7.05504 33.2842 7.05504Z" fill="#FFD200" stroke="#20526B" stroke-width="2"/>
</svg>
