<svg width="46" height="34" viewBox="0 0 46 34" fill="none" xmlns="http://www.w3.org/2000/svg">
<rect x="12.9189" y="33.1487" width="4.13514" height="4.13514" transform="rotate(-90 12.9189 33.1487)" fill="black"/>
<rect x="17.054" y="33.1487" width="4.13514" height="4.13514" transform="rotate(-90 17.054 33.1487)" fill="black"/>
<rect x="21.1892" y="33.1487" width="4.13514" height="4.13514" transform="rotate(-90 21.1892 33.1487)" fill="black"/>
<rect x="25.3242" y="33.1487" width="4.13514" height="4.13514" transform="rotate(-90 25.3242 33.1487)" fill="black"/>
<rect x="29.4595" y="33.1487" width="4.13514" height="4.13514" transform="rotate(-90 29.4595 33.1487)" fill="black"/>
<rect x="33.5945" y="33.1487" width="4.13514" height="4.13514" transform="rotate(-90 33.5945 33.1487)" fill="black"/>
<rect x="37.7297" y="33.1487" width="4.13514" height="4.13514" transform="rotate(-90 37.7297 33.1487)" fill="black"/>
<rect x="41.8647" y="29.0135" width="4.13514" height="4.13514" transform="rotate(-90 41.8647 29.0135)" fill="black"/>
<rect x="41.8647" y="24.8784" width="4.13514" height="4.13514" transform="rotate(-90 41.8647 24.8784)" fill="black"/>
<rect x="41.8647" y="20.7432" width="4.13514" height="4.13514" transform="rotate(-90 41.8647 20.7432)" fill="black"/>
<rect x="41.8647" y="16.6081" width="4.13514" height="4.13514" transform="rotate(-90 41.8647 16.6081)" fill="black"/>
<rect x="41.8647" y="12.473" width="4.13514" height="4.13514" transform="rotate(-90 41.8647 12.473)" fill="black"/>
<rect x="41.8647" y="8.33784" width="4.13514" height="4.13514" transform="rotate(-90 41.8647 8.33784)" fill="black"/>
<rect x="37.7297" y="4.2027" width="4.13514" height="4.13514" transform="rotate(-90 37.7297 4.2027)" fill="black"/>
<rect x="33.5945" y="4.2027" width="4.13514" height="4.13514" transform="rotate(-90 33.5945 4.2027)" fill="black"/>
<rect x="29.4595" y="4.2027" width="4.13514" height="4.13514" transform="rotate(-90 29.4595 4.2027)" fill="black"/>
<rect x="25.3242" y="4.2027" width="4.13514" height="4.13514" transform="rotate(-90 25.3242 4.2027)" fill="black"/>
<rect x="21.1892" y="4.2027" width="4.13514" height="4.13514" transform="rotate(-90 21.1892 4.2027)" fill="black"/>
<rect x="17.054" y="4.2027" width="4.13514" height="4.13514" transform="rotate(-90 17.054 4.2027)" fill="black"/>
<rect x="12.9189" y="4.2027" width="4.13514" height="4.13514" transform="rotate(-90 12.9189 4.2027)" fill="black"/>
<rect x="8.78369" y="8.33784" width="4.13514" height="4.13514" transform="rotate(-90 8.78369 8.33784)" fill="black"/>
<rect x="4.64868" y="12.473" width="4.13514" height="4.13514" transform="rotate(-90 4.64868 12.473)" fill="black"/>
<rect x="0.513428" y="16.6081" width="4.13514" height="4.13514" transform="rotate(-90 0.513428 16.6081)" fill="black"/>
<rect x="0.513428" y="20.7432" width="4.13514" height="4.13514" transform="rotate(-90 0.513428 20.7432)" fill="black"/>
<rect x="4.64868" y="24.8784" width="4.13514" height="4.13514" transform="rotate(-90 4.64868 24.8784)" fill="black"/>
<rect x="8.78369" y="29.0135" width="4.13514" height="4.13514" transform="rotate(-90 8.78369 29.0135)" fill="black"/>
<rect x="19.1216" y="24.8784" width="4.13514" height="4.13514" transform="rotate(-90 19.1216 24.8784)" fill="black"/>
<rect x="23.2566" y="20.7432" width="4.13514" height="4.13514" transform="rotate(-90 23.2566 20.7432)" fill="black"/>
<rect width="4.13514" height="4.13513" transform="matrix(4.37114e-08 1 1 -4.37114e-08 27.3918 12.473)" fill="black"/>
<rect width="4.13514" height="4.13513" transform="matrix(4.37114e-08 1 1 -4.37114e-08 31.5269 8.33784)" fill="black"/>
<rect x="19.1216" y="8.33784" width="4.13514" height="4.13514" fill="black"/>
<rect x="23.2566" y="12.473" width="4.13514" height="4.13514" fill="black"/>
<rect width="4.13514" height="4.13513" transform="matrix(-1 0 0 1 31.5269 16.6081)" fill="black"/>
<rect width="4.13514" height="4.13513" transform="matrix(-1 0 0 1 35.6621 20.7432)" fill="black"/>
</svg>
