<svg width="38" height="34" viewBox="0 0 38 34" fill="none" xmlns="http://www.w3.org/2000/svg">
<rect x="37.2163" width="4.13514" height="4.13514" transform="rotate(90 37.2163 0)" fill="black"/>
<rect x="37.2163" y="4.13513" width="4.13514" height="4.13514" transform="rotate(90 37.2163 4.13513)" fill="black"/>
<rect x="37.2163" y="8.27027" width="4.13514" height="4.13514" transform="rotate(90 37.2163 8.27027)" fill="black"/>
<rect x="37.2163" y="12.4054" width="4.13514" height="4.13514" transform="rotate(90 37.2163 12.4054)" fill="black"/>
<rect x="33.0811" y="16.5405" width="4.13514" height="4.13514" transform="rotate(90 33.0811 16.5405)" fill="black"/>
<rect x="28.946" y="20.6757" width="4.13514" height="4.13514" transform="rotate(90 28.946 20.6757)" fill="black"/>
<rect x="24.8108" y="20.6757" width="4.13514" height="4.13514" transform="rotate(90 24.8108 20.6757)" fill="black"/>
<rect x="20.6758" y="20.6757" width="4.13514" height="4.13514" transform="rotate(90 20.6758 20.6757)" fill="black"/>
<rect x="16.5405" y="20.6757" width="4.13514" height="4.13514" transform="rotate(90 16.5405 20.6757)" fill="black"/>
<rect x="12.4055" y="20.6757" width="4.13514" height="4.13514" transform="rotate(90 12.4055 20.6757)" fill="black"/>
<rect x="8.27026" y="20.6757" width="4.13514" height="4.13514" transform="rotate(90 8.27026 20.6757)" fill="black"/>
<rect x="4.13525" y="20.6757" width="4.13514" height="4.13514" transform="rotate(90 4.13525 20.6757)" fill="black"/>
<rect x="8.27026" y="16.5405" width="4.13514" height="4.13514" transform="rotate(90 8.27026 16.5405)" fill="black"/>
<rect x="8.27026" y="24.8108" width="4.13514" height="4.13514" transform="rotate(90 8.27026 24.8108)" fill="black"/>
<rect x="12.4055" y="28.9459" width="4.13514" height="4.13514" transform="rotate(90 12.4055 28.9459)" fill="black"/>
<rect x="12.4055" y="12.4054" width="4.13514" height="4.13514" transform="rotate(90 12.4055 12.4054)" fill="black"/>
</svg>
