<svg width="42" height="38" viewBox="0 0 42 38" fill="none" xmlns="http://www.w3.org/2000/svg">
<rect x="16.5405" width="4.13514" height="4.13514" fill="black"/>
<rect x="12.4055" y="4.13514" width="4.13514" height="4.13514" fill="black"/>
<rect x="8.27026" y="8.27027" width="4.13514" height="4.13514" fill="black"/>
<rect x="4.13525" y="12.4054" width="4.13514" height="4.13514" fill="black"/>
<rect y="16.5405" width="4.13514" height="4.13514" fill="black"/>
<rect y="20.6757" width="4.13514" height="4.13514" fill="black"/>
<rect x="4.13525" y="20.6757" width="4.13514" height="4.13514" fill="black"/>
<rect x="8.27026" y="20.6757" width="4.13514" height="4.13514" fill="black"/>
<rect x="8.27026" y="24.8108" width="4.13514" height="4.13514" fill="black"/>
<rect x="8.27026" y="28.9459" width="4.13514" height="4.13514" fill="black"/>
<rect x="8.27026" y="33.0811" width="4.13514" height="4.13514" fill="black"/>
<rect x="12.4055" y="33.0811" width="4.13514" height="4.13514" fill="black"/>
<rect x="16.5405" y="33.0811" width="4.13514" height="4.13514" fill="black"/>
<rect x="20.6758" y="33.0811" width="4.13514" height="4.13514" fill="black"/>
<rect x="24.8108" y="33.0811" width="4.13514" height="4.13514" fill="black"/>
<rect x="28.946" y="33.0811" width="4.13514" height="4.13514" fill="black"/>
<rect x="28.946" y="28.9459" width="4.13514" height="4.13514" fill="black"/>
<rect x="28.946" y="24.8108" width="4.13514" height="4.13514" fill="black"/>
<rect x="28.946" y="20.6757" width="4.13514" height="4.13514" fill="black"/>
<rect x="33.0811" y="20.6757" width="4.13514" height="4.13514" fill="black"/>
<rect x="37.2163" y="20.6757" width="4.13514" height="4.13514" fill="black"/>
<rect x="37.2163" y="16.5405" width="4.13514" height="4.13514" fill="black"/>
<rect x="33.0811" y="12.4054" width="4.13514" height="4.13514" fill="black"/>
<rect x="28.946" y="8.27027" width="4.13514" height="4.13514" fill="black"/>
<rect x="24.8108" y="4.13514" width="4.13514" height="4.13514" fill="black"/>
<rect x="20.6758" width="4.13514" height="4.13514" fill="black"/>
</svg>
