<svg width="85" height="86" viewBox="0 0 85 86" fill="none" xmlns="http://www.w3.org/2000/svg">
<path d="M42.2971 5.21582H35.8758V8.42142H29.4595V11.6321H26.2539V14.8377H23.0432V18.0484H19.8224V30.8809H16.627V34.0916H13.4163V37.3022H10.2107V40.5078H13.4163L19.8224 34.0916L26.9143 27.1165L32.6549 21.259L39.0915 14.8377H42.2971" fill="#3D3A37"/>
<path d="M42.2971 5.21582H48.7185V8.42142H55.1398V11.6321H58.3454V14.8377H61.5561V18.0484H64.7769V30.8809H67.9724V34.0916H71.183V37.3022H74.3886V40.5078H71.183L64.7769 34.0916L57.6799 27.1165L55.1347 18.0484L45.5078 14.8377H42.2971" fill="#3D3A37"/>
<path d="M29.4545 18.0483V27.6753H26.2489V30.8809H23.0229V34.0915H26.2489V40.5078H29.4545V43.7185H32.6651V46.9241H51.9343V43.7185H55.1399V40.5078H58.3505V34.0915H61.5612V30.8809H58.3505V27.6753H55.1399V14.8376H32.655V18.0483H29.4545Z" fill="#EDCFB9"/>
<path d="M29.4493 40.5078H26.2386V43.7185H29.4493V40.5078Z" fill="#C2A490"/>
<path d="M26.2386 27.6752H23.028V30.8858H26.2386V27.6752Z" fill="#C2A490"/>
<path d="M32.66 18.0483H29.4493V21.259H32.66V18.0483Z" fill="#C2A490"/>
<path d="M45.5078 11.6321H42.2971V14.8428H45.5078V11.6321Z" fill="#3D3A37"/>
<path d="M42.3022 11.6321H39.0916V14.8428H42.3022V11.6321Z" fill="#3D3A37"/>
<path d="M23.0331 30.8809H19.8224V34.0915H23.0331V30.8809Z" fill="#C2A490"/>
<path d="M32.66 43.7185H29.4493V46.9292H32.66V43.7185Z" fill="#C2A490"/>
<path d="M45.5027 53.3454H39.0916V56.5561H45.5027V53.3454Z" fill="#C2A490"/>
<path d="M39.0915 50.1348H35.8809V56.551H39.0915V50.1348Z" fill="#C2A490"/>
<path d="M45.5027 50.1348H39.0916V53.3454H45.5027V50.1348Z" fill="#EDCFB9"/>
<path d="M48.7185 50.1348H45.5078V56.551H48.7185V50.1348Z" fill="#C2A490"/>
<path d="M55.1449 43.7185H58.3556V40.5078H55.1449V43.7185Z" fill="#C2A490"/>
<path d="M51.9291 46.9241H55.1398V43.7134H51.9291V46.9241Z" fill="#C2A490"/>
<path d="M51.924 46.9241H32.6549V50.1347H51.924V46.9241Z" fill="#C2A490"/>
<path d="M29.4493 21.2589H26.2386V27.6752H29.4493V21.2589Z" fill="#C2A490"/>
<path d="M26.2386 34.0916H23.028V40.5078H26.2386V34.0916Z" fill="#C2A490"/>
<path d="M58.3505 30.8809H61.5612V27.6702H58.3505V30.8809Z" fill="#C2A490"/>
<path d="M61.556 34.0916H64.7667V30.8809H61.556V34.0916Z" fill="#C2A490"/>
<path d="M55.1449 27.6752H58.3556V18.0482H55.1449V27.6752Z" fill="#C2A490"/>
<path d="M58.3505 40.5078H61.5612V34.0915H58.3505V40.5078Z" fill="#C2A490"/>
<path d="M39.0915 14.8376H32.6549V18.0483H39.0915V14.8376Z" fill="#3D3A37"/>
<path d="M55.1348 14.8376H45.5078V18.0483H55.1348V14.8376Z" fill="#3D3A37"/>
<path d="M42.2971 2.00513H35.8809V5.2158H42.2971V2.00513Z" fill="#302E2B"/>
<path d="M35.8757 5.21582H29.4595V8.4265H35.8757V5.21582Z" fill="#302E2B"/>
<path d="M29.4595 8.42139H23.0432V11.6321H29.4595V8.42139Z" fill="#302E2B"/>
<path d="M23.0331 14.8376H19.8224V18.0483H23.0331V14.8376Z" fill="#302E2B"/>
<path d="M26.2539 11.6321H23.0432V14.8428H26.2539V11.6321Z" fill="#302E2B"/>
<path d="M16.6269 30.8809H13.4163V34.0915H16.6269V30.8809Z" fill="#302E2B"/>
<path d="M13.4214 34.0916H10.2107V37.3022H13.4214V34.0916Z" fill="#302E2B"/>
<path d="M13.4214 40.5078H10.2107V43.7185H13.4214V40.5078Z" fill="#302E2B"/>
<path d="M16.6269 37.3021H13.4163V40.5128H16.6269V37.3021Z" fill="#302E2B"/>
<path d="M19.8275 34.0916H16.6168V37.3022H19.8275V34.0916Z" fill="#302E2B"/>
<path d="M10.2107 37.3021H7V40.5128H10.2107V37.3021Z" fill="#302E2B"/>
<path d="M19.8376 18.0483H16.627V30.8809H19.8376V18.0483Z" fill="#302E2B"/>
<path d="M42.3022 5.21069L48.7185 5.21069V2.00002L42.3022 2.00002V5.21069Z" fill="#302E2B"/>
<path d="M48.7235 8.42139H55.1398V5.21071L48.7235 5.21071V8.42139Z" fill="#302E2B"/>
<path d="M55.1348 11.6321H61.551V8.42141H55.1348V11.6321Z" fill="#302E2B"/>
<path d="M61.5408 18.0483H64.7515V14.8377H61.5408V18.0483Z" fill="#302E2B"/>
<path d="M58.3454 14.8376H61.556V11.627H58.3454V14.8376Z" fill="#302E2B"/>
<path d="M67.9723 34.0916H71.183V30.8809H67.9723V34.0916Z" fill="#302E2B"/>
<path d="M71.178 37.2971H74.3887V34.0864H71.178V37.2971Z" fill="#302E2B"/>
<path d="M71.178 43.7185H74.3887V40.5078H71.178V43.7185Z" fill="#302E2B"/>
<path d="M67.9723 40.5078H71.183V37.2971H67.9723V40.5078Z" fill="#302E2B"/>
<path d="M64.7719 37.2971H67.9825V34.0864H64.7719V37.2971Z" fill="#302E2B"/>
<path d="M74.3886 40.5078H77.5992V37.2971H74.3886V40.5078Z" fill="#302E2B"/>
<path d="M64.7617 30.8809H67.9724V18.0483H64.7617V30.8809Z" fill="#302E2B"/>
<path d="M45.5078 14.8376H42.2971V18.0483H45.5078V14.8376Z" fill="#3D3A37"/>
<path d="M42.3022 14.8376H39.0916V18.0483H42.3022V14.8376Z" fill="#3D3A37"/>
<path d="M58.3505 13.4863H26.2386V23.8651H58.3505V13.4863Z" fill="#3D3A37"/>
<path d="M15.5397 30.2407H17.4651V28.3153H15.5397V30.2407Z" fill="#299BBA"/>
<path d="M13.6347 32.1611H15.5601V26.3951H13.6347V32.1611Z" fill="#299BBA"/>
<path d="M11.7144 34.0864H13.6398L13.6398 24.4646H11.7144L11.7144 34.0864Z" fill="#299BBA"/>
<path d="M19.3905 28.3204H17.4651V30.2458H19.3905V28.3204Z" fill="#299BBA"/>
<path d="M21.3159 26.395H19.3905V32.161H21.3159V26.395Z" fill="#299BBA"/>
<path d="M23.2362 24.4697H21.3108V34.0916H23.2362V24.4697Z" fill="#299BBA"/>
<path d="M65.102 30.2407H67.0273V28.3153H65.102V30.2407Z" fill="#299BBA"/>
<path d="M63.1969 32.1611H65.1223V26.3951H63.1969V32.1611Z" fill="#299BBA"/>
<path d="M61.2766 34.0864H63.202V24.4646H61.2766V34.0864Z" fill="#299BBA"/>
<path d="M68.9527 28.3204H67.0273V30.2458H68.9527V28.3204Z" fill="#299BBA"/>
<path d="M70.8781 26.395H68.9528V32.161H70.8781V26.395Z" fill="#299BBA"/>
<path d="M72.7984 24.4697H70.873V34.0916H72.7984V24.4697Z" fill="#299BBA"/>
<path d="M37.3999 27.6752H34.1892V30.8858H37.3999V27.6752Z" fill="#383532"/>
<path d="M50.2425 27.6752H47.0319V30.8858H50.2425V27.6752Z" fill="#383532"/>
<path d="M43.7298 27.6752H40.6156V34.0914H43.7298V27.6752Z" fill="#C2A490"/>
<path d="M50.1612 35.9508H46.9861V39.4917H50.1612V35.9508Z" fill="#C30045"/>
<path d="M46.981 35.9508H43.8059V39.4917H46.981V35.9508Z" fill="#C30045"/>
<path d="M43.806 35.9508H40.6309V39.4917H43.806V35.9508Z" fill="#C30045"/>
<path d="M40.6308 35.9508H37.4557V39.4917H40.6308V35.9508Z" fill="#C30045"/>
<path d="M37.4506 35.9508H34.2755V39.4917H37.4506V35.9508Z" fill="#C30045"/>
<path d="M46.9049 39.4917H43.7297V43.0326H46.9049V39.4917Z" fill="#C30045"/>
<path d="M43.7247 39.4917H40.5496V43.0326H43.7247V39.4917Z" fill="#C30045"/>
<path d="M40.5495 39.4917H37.3744V43.0326H40.5495V39.4917Z" fill="#C30045"/>
<path d="M56.7756 35.6918V32.4811H50.3543V35.6918H56.7756Z" fill="#FF92A0"/>
<path d="M34.2806 35.6918V32.4811H27.8593V35.6918H34.2806Z" fill="#FF92A0"/>
<path d="M16.6421 56.424H23.0076V53.2133H16.6421V56.424Z" fill="#CFC8C3"/>
<path d="M67.952 53.2184H61.5662V56.4291H67.952V53.2184Z" fill="#CFC8C3"/>
<path d="M61.5103 53.2184H55.1245V56.4291H61.5103V53.2184Z" fill="#6FB87A"/>
<path d="M29.4594 56.424H32.67V53.2133H29.4594V56.424Z" fill="white"/>
<path d="M48.7082 56.424H55.1448V53.2133H48.7082V56.424Z" fill="#C2A490"/>
<path d="M55.1449 53.2184H51.9342V56.4291H55.1449V53.2184Z" fill="white"/>
<path d="M39.0813 53.2184H35.8706V56.4291H39.0813V53.2184Z" fill="#EDCFB9"/>
<path d="M48.7082 53.2184H45.4976V56.4291H48.7082V53.2184Z" fill="#EDCFB9"/>
<path d="M45.4874 50.0077H39.0762V56.4189H45.4874V50.0077Z" fill="#EDCFB9"/>
<path d="M67.957 58.5475V56.4291H42.3021V75.683H67.957V59.6398V58.5475Z" fill="#6FB87A"/>
<path d="M71.1677 59.6398H67.957V75.683H71.1677V59.6398Z" fill="white"/>
<path d="M67.957 67.8645V65.7461H42.3021V85H67.957V68.9568V67.8645Z" fill="#6FB87A"/>
<path d="M71.1677 68.9568H67.957V85H71.1677V68.9568Z" fill="white"/>
<path d="M10.2157 75.6779H13.4264L13.4264 66.0459H10.2157L10.2157 75.6779Z" fill="#CFC8C3"/>
<path d="M10.2157 84.9949H13.4264L13.4264 75.3629H10.2157L10.2157 84.9949Z" fill="#CFC8C3"/>
<path d="M42.292 56.4291H16.6371V59.6398H13.4264V75.683H42.292" fill="#6FB87A"/>
<path d="M42.292 65.7461H16.6371V68.9568H13.4264V85H42.292" fill="#6FB87A"/>
<path d="M32.6599 53.2235H29.4492V59.6347H32.6599V53.2235Z" fill="white"/>
<path d="M26.2386 53.2235H23.028V59.6347H26.2386V53.2235Z" fill="white"/>
<path d="M23.0331 59.6398H19.8224V62.8504H23.0331V59.6398Z" fill="white"/>
<path d="M35.8757 59.6398H32.665V62.8504H35.8757V59.6398Z" fill="white"/>
<path d="M51.9037 59.6398H35.891V62.8504H51.9037V59.6398Z" fill="white"/>
<path d="M16.6269 56.4291H13.4163V59.6398H16.6269V56.4291Z" fill="#CFC8C3"/>
<path d="M13.4264 59.6398H10.2157V66.051H13.4264V59.6398Z" fill="#CFC8C3"/>
<path d="M19.8375 62.8403H16.6268V75.683H19.8375V62.8403Z" fill="white"/>
<path d="M19.8375 72.1573H16.6268V85H19.8375V72.1573Z" fill="white"/>
<path d="M23.0279 56.4291H16.6167V59.6398H23.0279V56.4291Z" fill="white"/>
<path d="M29.4696 56.4291H26.2589V59.6398H29.4696V56.4291Z" fill="#6FB87A"/>
<path d="M29.4696 53.2184H26.2589V56.4291H29.4696V53.2184Z" fill="#6FB87A"/>
<path d="M19.8172 59.6398H13.406V62.8504H19.8172V59.6398Z" fill="white"/>
<path d="M74.3784 66.051H71.1677V75.683H74.3784V66.051Z" fill="#CFC8C3"/>
<path d="M74.3784 75.368H71.1677V85H74.3784V75.368Z" fill="#CFC8C3"/>
<path d="M51.9392 59.6296H55.1245V53.2184H51.9392V59.6296Z" fill="white"/>
<path d="M58.3504 59.6296H61.561V53.2184H58.3504V59.6296Z" fill="white"/>
<path d="M61.5611 62.8453H64.7717V59.6347H61.5611V62.8453Z" fill="white"/>
<path d="M67.9622 59.6398H71.1729V56.4291H67.9622V59.6398Z" fill="#CFC8C3"/>
<path d="M71.1626 66.0458H74.3733V59.6347H71.1626V66.0458Z" fill="#CFC8C3"/>
<path d="M64.7565 75.6829H67.9672V62.8402H64.7565V75.6829Z" fill="white"/>
<path d="M64.7565 85H67.9672V72.1573H64.7565V85Z" fill="white"/>
<path d="M67.9622 75.6829H71.1729V62.8402H67.9622V75.6829Z" stroke="#7A7672" stroke-width="0.02" stroke-miterlimit="10"/>
<path d="M67.9622 85H71.1729V72.1573H67.9622V85Z" stroke="#7A7672" stroke-width="0.02" stroke-miterlimit="10"/>
<path d="M61.5662 59.6398H67.9774V56.4291H61.5662V59.6398Z" fill="white"/>
<path d="M55.1194 59.6398H58.3301V56.4291H55.1194V59.6398Z" fill="#6FB87A"/>
<path d="M64.7718 62.8453H71.183V59.6347H64.7718V62.8453Z" fill="white"/>
<path d="M51.9341 56.4291H32.6752V59.6398H51.9341V56.4291Z" fill="#EDCFB9"/>
<path d="M13.4162 75.6829H16.6268V62.8504H13.4162L13.4162 75.6829Z" fill="white"/>
<path d="M13.4162 85H16.6268V72.1675H13.4162L13.4162 85Z" fill="white"/>
<path d="M32.6498 59.6296H35.8605V53.2184H32.6498V59.6296Z" fill="#C2A490"/>
<path d="M48.7031 59.6296H51.9138V53.2184H48.7031V59.6296Z" fill="#C2A490"/>
<path d="M42.7493 73.1784C40.8341 73.1784 39.2795 71.6137 39.2795 69.6934C39.2795 67.7731 40.8392 66.2084 42.7493 66.2084C43.5571 66.2084 44.3394 66.4878 44.9541 67.0009C45.1116 67.133 45.2132 67.3413 45.2132 67.5242C45.2132 67.7071 45.1472 67.8646 45.0201 67.9865C44.8982 68.1084 44.7357 68.1795 44.5578 68.1795C44.4105 68.1795 44.2581 68.1237 44.1413 68.0271C43.7552 67.7122 43.2218 67.5191 42.7493 67.5191C41.5555 67.5191 40.5801 68.4945 40.5801 69.6985C40.5801 70.9025 41.5504 71.8779 42.7493 71.8779C43.8568 71.8779 44.5426 71.0803 44.5426 70.3539H42.7899V69.0787H45.2284C45.5688 69.0787 45.8482 69.3327 45.8787 69.6731C45.8889 69.795 45.8939 69.8865 45.8939 69.9678C45.8939 70.8212 45.6653 71.6239 45.0659 72.2284C44.4562 72.8431 43.7298 73.1835 42.7544 73.1835" fill="white"/>
<path d="M43.4198 69.7087C43.4198 70.0592 43.1353 70.3437 42.7848 70.3437C42.4343 70.3437 42.1498 70.0592 42.1498 69.7087C42.1498 69.3582 42.4343 69.0737 42.7848 69.0737C43.1353 69.0737 43.4198 69.3582 43.4198 69.7087Z" fill="#00C01E"/>
</svg>
