<svg width="100" height="106" viewBox="0 0 100 106" fill="none" xmlns="http://www.w3.org/2000/svg">
<mask id="path-1-outside-1_0_184451" maskUnits="userSpaceOnUse" x="65.1888" y="22.8901" width="16" height="20" fill="black">
<rect fill="white" x="65.1888" y="22.8901" width="16" height="20"/>
<path d="M76.8003 26.8901H69.1888V34.4005H72.8102V38.1587H76.8003V27.1577"/>
</mask>
<path d="M69.1888 26.8901V22.8901H65.1888V26.8901H69.1888ZM69.1888 34.4005H65.1888V38.4005H69.1888V34.4005ZM72.8102 34.4005H76.8102V30.4005H72.8102V34.4005ZM72.8102 38.1587H68.8102V42.1587H72.8102V38.1587ZM76.8003 38.1587V42.1587H80.8003V38.1587H76.8003ZM76.8003 22.8901H69.1888V30.8901H76.8003V22.8901ZM65.1888 26.8901V34.4005H73.1888V26.8901H65.1888ZM69.1888 38.4005H72.8102V30.4005H69.1888V38.4005ZM68.8102 34.4005V38.1587H76.8102V34.4005H68.8102ZM72.8102 42.1587H76.8003V34.1587H72.8102V42.1587ZM80.8003 38.1587V27.1577H72.8003V38.1587H80.8003Z" fill="white" mask="url(#path-1-outside-1_0_184451)"/>
<mask id="path-3-outside-2_0_184451" maskUnits="userSpaceOnUse" x="23.9023" y="22.8901" width="16" height="20" fill="black">
<rect fill="white" x="23.9023" y="22.8901" width="16" height="20"/>
<path d="M35.5138 26.8901H27.9023V34.4005H31.5237V38.1587H35.5138V27.1577"/>
</mask>
<path d="M27.9023 26.8901V22.8901H23.9023V26.8901H27.9023ZM27.9023 34.4005H23.9023V38.4005H27.9023V34.4005ZM31.5237 34.4005H35.5237V30.4005H31.5237V34.4005ZM31.5237 38.1587H27.5237V42.1587H31.5237V38.1587ZM35.5138 38.1587V42.1587H39.5138V38.1587H35.5138ZM35.5138 22.8901H27.9023V30.8901H35.5138V22.8901ZM23.9023 26.8901V34.4005H31.9023V26.8901H23.9023ZM27.9023 38.4005H31.5237V30.4005H27.9023V38.4005ZM27.5237 34.4005V38.1587H35.5237V34.4005H27.5237ZM31.5237 42.1587H35.5138V34.1587H31.5237V42.1587ZM39.5138 38.1587V27.1577H31.5138V38.1587H39.5138Z" fill="white" mask="url(#path-3-outside-2_0_184451)"/>
<path d="M35.4723 17.3797H33.4723V19.3797V32.4005H31.7201H29.7201V34.4005V36.1587H27.9441H25.9441V38.1587V41.9109V43.9109H27.9441H29.7201V49.4213V51.4213H31.7201H33.4723V53.1795V55.1795H35.4723H37.2305V56.9376V58.9376H39.2305H61.7855H63.7855V56.9376V55.1795H65.5377H67.5377V53.1795V51.4213H69.2959H71.2959V49.4213V43.9109H73.0541H75.0541V41.9109V38.1587V36.1587H73.0541H71.2959V34.4005V32.4005H69.2959H67.5377V19.3797V17.3797H65.5377H35.4723Z" stroke="white" stroke-width="4"/>
<path d="M37.4663 49.4212V47.4212H35.4663H31.7081H29.7081V49.4212V53.1794V55.1794H31.7081H35.4663H37.4663V53.1794V49.4212Z" stroke="white" stroke-width="4"/>
<path d="M33.7083 34.4005V32.4005H31.7083H27.9501H25.9501V34.4005V38.1586V40.1586H27.9501H31.7083H33.7083V38.1586V34.4005Z" stroke="white" stroke-width="4"/>
<path d="M14.7052 71.9584V73.9584H16.7052H20.4634H22.4634V71.9584V68.2003V66.2003H20.4634H16.7052H14.7052V68.2003V71.9584Z" stroke="white" stroke-width="4"/>
<path d="M10.953 90.7373V92.7373H12.953H16.7112H18.7112V90.7373L18.7112 71.9583V69.9583H16.7112H12.953H10.953V71.9583L10.953 90.7373Z" stroke="white" stroke-width="4"/>
<path d="M10.953 102V104H12.953H16.7112H18.7112V102L18.7112 83.221V81.221H16.7112H12.953H10.953V83.221L10.953 102Z" stroke="white" stroke-width="4"/>
<path d="M18.4634 68.2002V70.2002H20.4634H42.9946H44.9946V68.2002V64.442V62.442H42.9946H20.4634H18.4634V64.442V68.2002Z" stroke="white" stroke-width="4"/>
<path d="M86.3165 68.2002V66.2002H84.3165H80.5583H78.5583V68.2002V71.9584V73.9584H80.5583H84.3165H86.3165V71.9584V68.2002Z" stroke="white" stroke-width="4"/>
<path d="M90.0807 71.9584V69.9584H88.0807H84.3226H82.3226V71.9584V90.7374V92.7374H84.3226H88.0807H90.0807V90.7374V71.9584Z" stroke="white" stroke-width="4"/>
<path d="M90.0807 83.221V81.221H88.0807H84.3226H82.3226V83.221V102V104H84.3226H88.0807H90.0807V102V83.221Z" stroke="white" stroke-width="4"/>
<path d="M82.5526 64.4481V62.4481H80.5526H58.0095H56.0095V64.4481V68.2062V70.2062H58.0095H80.5526H82.5526V68.2062V64.4481Z" stroke="white" stroke-width="4"/>
<path d="M29.9559 38.1587V36.1587H27.9559H24.1978H22.1978V38.1587V41.9169V43.9169H24.1978H27.9559H29.9559V41.9169V38.1587Z" stroke="white" stroke-width="4"/>
<path d="M41.2246 53.1795V51.1795H39.2246H35.4664H33.4664V53.1795V56.9377V58.9377H35.4664H39.2246H41.2246V56.9377V53.1795Z" stroke="white" stroke-width="4"/>
<path d="M56.2573 64.4481V62.4481H54.2573H46.7528H44.7528V64.4481V68.2062V70.2062H46.7528H54.2573H56.2573V68.2062V64.4481Z" stroke="white" stroke-width="4"/>
<path d="M48.7528 60.6898V58.6898H46.7528H42.9946H40.9946V60.6898V68.2002V70.2002H42.9946H46.7528H48.7528V68.2002V60.6898Z" stroke="white" stroke-width="4"/>
<path d="M56.2573 60.6898V58.6898H54.2573H46.7528H44.7528V60.6898V64.448V66.448H46.7528H54.2573H56.2573V64.448V60.6898Z" stroke="white" stroke-width="4"/>
<path d="M60.0215 60.6898V58.6898H58.0215H54.2633H52.2633V60.6898V68.2002V70.2002H54.2633H58.0215H60.0215V68.2002V60.6898Z" stroke="white" stroke-width="4"/>
<path d="M63.5377 53.1795V55.1795H65.5377H69.2959H71.2959V53.1795V49.4213V47.4213H69.2959H65.5377H63.5377V49.4213V53.1795Z" stroke="white" stroke-width="4"/>
<path d="M59.7795 56.9376V58.9376H61.7795H65.5377H67.5377V56.9376V53.1794V51.1794H65.5377H61.7795H59.7795V53.1794V56.9376Z" stroke="white" stroke-width="4"/>
<path d="M63.7736 56.9376V54.9376H61.7736H39.2186H37.2186V56.9376V60.6958V62.6958H39.2186H61.7736H63.7736V60.6958V56.9376Z" stroke="white" stroke-width="4"/>
<path d="M37.4663 23.132V21.132H35.4663H31.7081H29.7081V23.132V34.4005V36.4005H31.7081H35.4663H37.4663V34.4005V23.132Z" stroke="white" stroke-width="4"/>
<path d="M33.7083 41.9109V39.9109H31.7083H27.9501H25.9501V41.9109V49.4213V51.4213H27.9501H31.7083H33.7083V49.4213V41.9109Z" stroke="white" stroke-width="4"/>
<path d="M67.2898 38.1587V40.1587H69.2898H73.048H75.048V38.1587V34.4005V32.4005H73.048H69.2898H67.2898V34.4005V38.1587Z" stroke="white" stroke-width="4"/>
<path d="M71.048 41.9109V43.9109H73.048H76.8062H78.8062V41.9109V38.1527V36.1527H76.8062H73.048H71.048V38.1527V41.9109Z" stroke="white" stroke-width="4"/>
<path d="M63.5377 34.4005V36.4005H65.5377H69.2959H71.2959V34.4005V23.1319V21.1319H69.2959H65.5377H63.5377V23.1319V34.4005Z" stroke="white" stroke-width="4"/>
<path d="M67.2898 49.4272V51.4272H69.2898H73.048H75.048V49.4272V41.9168V39.9168H73.048H69.2898H67.2898V41.9168V49.4272Z" stroke="white" stroke-width="4"/>
<path d="M78.7884 23.132V21.132H76.7884H12.9412H10.9412V23.132V26.8901V28.8901H12.9412H76.7884H78.7884V26.8901V23.132Z" stroke="white" stroke-width="4"/>
<path d="M59.7736 11.8633V13.8633H61.7736H65.5317H67.5317V11.8633V8.1051V6.1051H65.5317L61.7736 6.1051H59.7736V8.1051V11.8633Z" stroke="white" stroke-width="4"/>
<path d="M33.4605 11.8633V13.8633H35.4605H39.2186H41.2186V11.8633V8.1051V6.1051H39.2186L35.4605 6.1051H33.4605V8.1051V11.8633Z" stroke="white" stroke-width="4"/>
<path d="M25.95 23.132V25.132H27.95H31.7081H33.7081V23.132V15.6216V13.6216H31.7081H27.95H25.95V15.6216V23.132Z" stroke="white" stroke-width="4"/>
<path d="M63.5378 15.6215V17.6215H65.5378H69.6409H71.6409V15.6215V11.8634V9.86335H69.6409H65.5378H63.5378V11.8634V15.6215Z" stroke="white" stroke-width="4"/>
<path d="M29.7023 15.6215V17.6215H31.7023H35.4604H37.4604V15.6215V11.8634V9.86335H35.4604H31.7023H29.7023V11.8634V15.6215Z" stroke="white" stroke-width="4"/>
<path d="M71.0599 23.1319V25.1319H73.0599H76.8181H78.8181V23.1319V19.3737V17.3737H76.8181H73.0599H71.0599V19.3737V23.1319Z" stroke="white" stroke-width="4"/>
<path d="M37.2186 8.11121V10.1112H39.2186L61.7736 10.1112H63.7736V8.11121V4.35304V2.35304H61.7736L39.2186 2.35304H37.2186V4.35304V8.11121Z" stroke="white" stroke-width="4"/>
<path d="M67.2898 19.3797V21.3797H69.2898H73.048H75.048V19.3797V15.6215V13.6215H73.048H69.2898H67.2898V15.6215V19.3797Z" stroke="white" stroke-width="4"/>
<path d="M71.0599 38.1527V40.1527H73.0599H76.8181H78.8181V38.1527V26.8841V24.8841H76.8181H73.0599H71.0599V26.8841V38.1527Z" stroke="white" stroke-width="4"/>
<path d="M22.1919 38.1527V40.1527H24.1919H27.9501H29.9501V38.1527V26.8841V24.8841H27.9501H24.1919H22.1919V26.8841V38.1527Z" stroke="white" stroke-width="4"/>
<mask id="path-42-outside-3_0_184451" maskUnits="userSpaceOnUse" x="12.7112" y="64.2002" width="38" height="31" fill="black">
<rect fill="white" x="12.7112" y="64.2002" width="38" height="31"/>
<path d="M50.4991 68.2002H20.4694V71.9584H16.7112V90.7373H50.4991"/>
</mask>
<path d="M20.4694 68.2002V64.2002H16.4694V68.2002H20.4694ZM20.4694 71.9584V75.9584H24.4694V71.9584H20.4694ZM16.7112 71.9584V67.9584H12.7112V71.9584H16.7112ZM16.7112 90.7373H12.7112V94.7373H16.7112V90.7373ZM50.4991 64.2002H20.4694V72.2002H50.4991V64.2002ZM16.4694 68.2002V71.9584H24.4694V68.2002H16.4694ZM20.4694 67.9584H16.7112V75.9584H20.4694V67.9584ZM12.7112 71.9584V90.7373H20.7112V71.9584H12.7112ZM16.7112 94.7373H50.4991V86.7373H16.7112V94.7373Z" fill="white" mask="url(#path-42-outside-3_0_184451)"/>
<mask id="path-44-outside-4_0_184451" maskUnits="userSpaceOnUse" x="12.7112" y="75.4629" width="38" height="31" fill="black">
<rect fill="white" x="12.7112" y="75.4629" width="38" height="31"/>
<path d="M50.4991 79.4629H20.4694V83.2211H16.7112V102H50.4991"/>
</mask>
<path d="M20.4694 79.4629V75.4629H16.4694V79.4629H20.4694ZM20.4694 83.2211V87.2211H24.4694V83.2211H20.4694ZM16.7112 83.2211V79.2211H12.7112V83.2211H16.7112ZM16.7112 102H12.7112V106H16.7112V102ZM50.4991 75.4629H20.4694V83.4629H50.4991V75.4629ZM16.4694 79.4629V83.2211H24.4694V79.4629H16.4694ZM20.4694 79.2211H16.7112V87.2211H20.4694V79.2211ZM12.7112 83.2211V102H20.7112V83.2211H12.7112ZM16.7112 106H50.4991V98H16.7112V106Z" fill="white" mask="url(#path-44-outside-4_0_184451)"/>
<mask id="path-46-outside-5_0_184451" maskUnits="userSpaceOnUse" x="50.499" y="64.2002" width="38" height="31" fill="black">
<rect fill="white" x="50.499" y="64.2002" width="38" height="31"/>
<path d="M50.499 68.2002H80.5704V71.9584H84.3285V90.7373H50.499"/>
</mask>
<path d="M80.5704 68.2002H84.5704V64.2002H80.5704V68.2002ZM80.5704 71.9584H76.5704V75.9584H80.5704V71.9584ZM84.3285 71.9584H88.3285V67.9584H84.3285V71.9584ZM84.3285 90.7373V94.7373H88.3285V90.7373H84.3285ZM50.499 72.2002H80.5704V64.2002H50.499V72.2002ZM76.5704 68.2002V71.9584H84.5704V68.2002H76.5704ZM80.5704 75.9584H84.3285V67.9584H80.5704V75.9584ZM80.3285 71.9584V90.7373H88.3285V71.9584H80.3285ZM84.3285 86.7373H50.499V94.7373H84.3285V86.7373Z" fill="white" mask="url(#path-46-outside-5_0_184451)"/>
<mask id="path-48-outside-6_0_184451" maskUnits="userSpaceOnUse" x="50.499" y="75.4629" width="38" height="31" fill="black">
<rect fill="white" x="50.499" y="75.4629" width="38" height="31"/>
<path d="M50.499 79.4629H80.5704V83.2211H84.3285V102H50.499"/>
</mask>
<path d="M80.5704 79.4629H84.5704V75.4629H80.5704V79.4629ZM80.5704 83.2211H76.5704V87.2211H80.5704V83.2211ZM84.3285 83.2211H88.3285V79.2211H84.3285V83.2211ZM84.3285 102V106H88.3285V102H84.3285ZM50.499 83.4629H80.5704V75.4629H50.499V83.4629ZM76.5704 79.4629V83.2211H84.5704V79.4629H76.5704ZM80.5704 87.2211H84.3285V79.2211H80.5704V87.2211ZM80.3285 83.2211V102H88.3285V83.2211H80.3285ZM84.3285 98H50.499V106H84.3285V98Z" fill="white" mask="url(#path-48-outside-6_0_184451)"/>
<path d="M39.2185 6.11121H37.2185V8.11121V9.86344H35.4663H33.4663V11.8634V13.6216H31.7081H29.7081V15.6216V23.132V25.132H31.7081H73.0599H75.0599V23.132V19.3798V17.3798H73.0599H71.2898V15.6216V13.6216H69.2898H67.5317V11.8634V9.86344H65.5317H63.7794V8.11121V6.11121H61.7794H39.2185Z" stroke="white" stroke-width="4"/>
<path d="M25.9559 83.2269V85.2269H27.9559H73.0599H75.0599V83.2269V79.4688V77.4688H73.0599H27.9559H25.9559V79.4688V83.2269Z" stroke="white" stroke-width="4"/>
<path d="M25.9559 90.7374V92.7374H27.9559H73.0599H75.0599V90.7374V86.9792V84.9792H73.0599H27.9559H25.9559V86.9792V90.7374Z" stroke="white" stroke-width="4"/>
<mask id="path-53-outside-7_0_184451" maskUnits="userSpaceOnUse" x="41.5219" y="7.12592" width="18" height="18" fill="black">
<rect fill="white" x="41.5219" y="7.12592" width="18" height="18"/>
<path d="M50.3801 20.8781C47.7042 20.8781 45.5219 18.6898 45.5219 16.002C45.5219 13.3142 47.6983 11.1259 50.3801 11.1259C51.5099 11.1259 52.6041 11.5184 53.4604 12.232C53.6804 12.4163 53.8231 12.7077 53.8231 12.9693C53.8231 13.231 53.728 13.445 53.5555 13.6175C53.3831 13.7899 53.1571 13.8851 52.9133 13.8851C52.7052 13.8851 52.497 13.8078 52.3305 13.671C51.7894 13.231 51.0461 12.9574 50.3801 12.9574C48.7092 12.9574 47.3474 14.3251 47.3474 16.002C47.3474 17.6789 48.7092 19.0466 50.3801 19.0466C51.9321 19.0466 52.8836 17.9346 52.8836 16.9178H50.4336V15.1338H53.8469C54.3226 15.1338 54.7151 15.4906 54.7567 15.9663C54.7686 16.1328 54.7746 16.2637 54.7746 16.3826C54.7746 17.5719 54.4534 18.6958 53.615 19.5461C52.7646 20.4084 51.7478 20.8841 50.3861 20.8841"/>
</mask>
<path d="M53.4604 12.232L56.0293 9.16587L56.0211 9.15908L53.4604 12.232ZM52.3305 13.671L54.8695 10.5801L54.8619 10.5738L54.8542 10.5676L52.3305 13.671ZM52.8836 16.9178H56.8836V12.9178H52.8836V16.9178ZM50.4336 16.9178H46.4336V20.9178H50.4336V16.9178ZM50.4336 15.1338V11.1338H46.4336V15.1338H50.4336ZM54.7567 15.9663L58.7465 15.6814L58.7443 15.6495L58.7415 15.6177L54.7567 15.9663ZM53.615 19.5461L56.463 22.3548L56.4633 22.3546L53.615 19.5461ZM50.3801 16.8781C49.9261 16.8781 49.5219 16.4934 49.5219 16.002H41.5219C41.5219 20.8862 45.4823 24.8781 50.3801 24.8781V16.8781ZM49.5219 16.002C49.5219 15.5074 49.9233 15.1259 50.3801 15.1259V7.12592C45.4732 7.12592 41.5219 11.121 41.5219 16.002H49.5219ZM50.3801 15.1259C50.5897 15.1259 50.774 15.2002 50.8996 15.3048L56.0211 9.15908C54.4342 7.8366 52.4302 7.12592 50.3801 7.12592V15.1259ZM50.8915 15.298C50.5456 15.0082 50.3 14.673 50.1342 14.3355C49.9718 14.005 49.8231 13.5428 49.8231 12.9693H57.8231C57.8231 11.4092 57.0643 10.0331 56.0293 9.16588L50.8915 15.298ZM49.8231 12.9693C49.8231 12.6036 49.8921 12.1914 50.0669 11.776C50.2407 11.3627 50.4822 11.034 50.7271 10.7891L56.384 16.4459C57.2842 15.5457 57.8231 14.3231 57.8231 12.9693H49.8231ZM50.7271 10.7891C51.2923 10.2239 52.0787 9.88508 52.9133 9.88508V17.8851C54.2355 17.8851 55.4739 17.356 56.384 16.4459L50.7271 10.7891ZM52.9133 9.88508C53.6823 9.88508 54.3609 10.1623 54.8695 10.5801L49.7916 16.7619C50.6332 17.4532 51.7281 17.8851 52.9133 17.8851V9.88508ZM54.8542 10.5676C53.6439 9.58339 52.0206 8.95743 50.3801 8.95743V16.9574C50.1835 16.9574 50.0699 16.9211 50.0259 16.905C49.9787 16.8877 49.9056 16.8547 49.8069 16.7744L54.8542 10.5676ZM50.3801 8.95743C46.4847 8.95743 43.3474 12.1313 43.3474 16.002H51.3474C51.3474 16.5189 50.9336 16.9574 50.3801 16.9574V8.95743ZM43.3474 16.002C43.3474 19.8728 46.4847 23.0466 50.3801 23.0466V15.0466C50.9336 15.0466 51.3474 15.4851 51.3474 16.002H43.3474ZM50.3801 23.0466C53.8964 23.0466 56.8836 20.381 56.8836 16.9178H48.8836C48.8836 15.4883 49.9679 15.0466 50.3801 15.0466V23.0466ZM52.8836 12.9178H50.4336V20.9178H52.8836V12.9178ZM54.4336 16.9178V15.1338H46.4336V16.9178H54.4336ZM50.4336 19.1338H53.8469V11.1338H50.4336V19.1338ZM53.8469 19.1338C52.2607 19.1338 50.9121 17.9174 50.7719 16.315L58.7415 15.6177C58.518 13.0639 56.3846 11.1338 53.8469 11.1338V19.1338ZM50.7669 16.2513C50.7753 16.3694 50.7746 16.3961 50.7746 16.3826H58.7746C58.7746 16.1313 58.7619 15.8962 58.7465 15.6814L50.7669 16.2513ZM50.7746 16.3826C50.7746 16.6251 50.741 16.749 50.7283 16.7857C50.7228 16.8017 50.7224 16.7982 50.7317 16.7828C50.7416 16.7665 50.7546 16.75 50.7667 16.7377L56.4633 22.3546C58.253 20.5394 58.7746 18.2741 58.7746 16.3826H50.7746ZM50.767 16.7374C50.7054 16.7998 50.6644 16.8315 50.6445 16.8454C50.6344 16.8525 50.6281 16.8562 50.6253 16.8578C50.6225 16.8594 50.6213 16.8599 50.621 16.86C50.6207 16.8601 50.6188 16.8609 50.6145 16.8622C50.6101 16.8636 50.6009 16.8662 50.5856 16.8691C50.5559 16.8749 50.4927 16.8841 50.3861 16.8841V24.8841C52.8615 24.8841 54.8918 23.948 56.463 22.3548L50.767 16.7374Z" fill="white" mask="url(#path-53-outside-7_0_184451)"/>
<path d="M49.3197 16.0259C49.3197 15.4236 49.808 14.9179 50.4337 14.9179C51.0592 14.9179 51.5476 15.4235 51.5476 16.0259C51.5476 16.6283 51.0592 17.1339 50.4337 17.1339C49.808 17.1339 49.3197 16.6282 49.3197 16.0259ZM50.4337 18.9179C52.0346 18.9179 53.3197 17.6153 53.3197 16.0259C53.3197 14.4365 52.0346 13.1339 50.4337 13.1339C48.8329 13.1339 47.5476 14.4364 47.5476 16.0259C47.5476 17.6154 48.8329 18.9179 50.4337 18.9179ZM51.3197 16.0259C51.3197 16.5194 50.9213 16.9179 50.4337 16.9179C49.9461 16.9179 49.5476 16.5194 49.5476 16.0259C49.5476 15.5323 49.9461 15.1339 50.4337 15.1339C50.9213 15.1339 51.3197 15.5323 51.3197 16.0259Z" stroke="white" stroke-width="4"/>
<path d="M46.8558 34.9654V32.9654H44.8558H41.0977H39.0977V34.9654V38.7236V40.7236H41.0977H44.8558H46.8558V38.7236V34.9654Z" stroke="white" stroke-width="4"/>
<path d="M61.8885 34.9654V32.9654H59.8885H56.1304H54.1304V34.9654V38.7236V40.7236H56.1304H59.8885H61.8885V38.7236V34.9654Z" stroke="white" stroke-width="4"/>
<path d="M54.3306 35.0308V33.0308H52.3306H48.6854H46.6854V35.0308V42.5412V44.5412H48.6854H52.3306H54.3306V42.5412V35.0308Z" stroke="white" stroke-width="4"/>
<path d="M61.7994 44.337V42.337H59.7994H56.0829H54.0829V44.337V48.4817V50.4817H56.0829H59.7994H61.7994V48.4817V44.337Z" stroke="white" stroke-width="4"/>
<path d="M58.0829 44.337V42.337H56.0829H52.3663H50.3663V44.337V48.4817V50.4817H52.3663H56.0829H58.0829V48.4817V44.337Z" stroke="white" stroke-width="4"/>
<path d="M54.3663 44.337V42.337H52.3663H48.6498H46.6498V44.337V48.4817V50.4817H48.6498H52.3663H54.3663V48.4817V44.337Z" stroke="white" stroke-width="4"/>
<path d="M50.6438 44.337V42.337H48.6438H44.9272H42.9272V44.337V48.4817V50.4817H44.9272H48.6438H50.6438V48.4817V44.337Z" stroke="white" stroke-width="4"/>
<path d="M46.9272 44.337V42.337H44.9272H41.2107H39.2107V44.337V48.4817V50.4817H41.2107H44.9272H46.9272V48.4817V44.337Z" stroke="white" stroke-width="4"/>
<path d="M57.9935 48.4758V46.4758H55.9935H52.277H50.277V48.4758V52.6204V54.6204H52.277H55.9935H57.9935V52.6204V48.4758Z" stroke="white" stroke-width="4"/>
<path d="M54.2711 48.4758V46.4758H52.2711H48.5546H46.5546V48.4758V52.6204V54.6204H48.5546H52.2711H54.2711V52.6204V48.4758Z" stroke="white" stroke-width="4"/>
<path d="M50.5546 48.4758V46.4758H48.5546H44.838H42.838V48.4758V52.6204V54.6204H44.838H48.5546H50.5546V52.6204V48.4758Z" stroke="white" stroke-width="4"/>
<path d="M67.4346 45.677H69.4346V43.677V39.9188V37.9188H67.4346H59.9182H57.9182V39.9188V43.677V45.677H59.9182H67.4346Z" stroke="white" stroke-width="4"/>
<path d="M41.1036 45.677H43.1036V43.677V39.9188V37.9188H41.1036H33.5873H31.5873V39.9188V43.677V45.677H33.5873H41.1036Z" stroke="white" stroke-width="4"/>
<path d="M76.8003 26.8901H69.1888V34.4005H72.8102V38.1587H76.8003V27.1577" fill="#59544F"/>
<path d="M35.5138 26.8901H27.9023V34.4005H31.5237V38.1587H35.5138V27.1577" fill="#59544F"/>
<path d="M35.4723 19.3797V34.4005H31.7201V38.1587H27.9441V41.9109H31.7201V49.4213H35.4723V53.1795H39.2305V56.9376H61.7855V53.1795H65.5377V49.4213H69.2959V41.9109H73.0541V38.1587H69.2959V34.4005H65.5377V19.3797H35.4723Z" fill="#EDCFB9"/>
<path d="M35.4663 49.4212H31.7081V53.1794H35.4663V49.4212Z" fill="#C2A490"/>
<path d="M31.7083 34.4005H27.9501V38.1586H31.7083V34.4005Z" fill="#C2A490"/>
<path d="M16.7052 71.9584H20.4634V68.2003H16.7052V71.9584Z" fill="#22829C"/>
<path d="M12.953 90.7373H16.7112L16.7112 71.9583H12.953L12.953 90.7373Z" fill="#22829C"/>
<path d="M12.953 102H16.7112L16.7112 83.221H12.953L12.953 102Z" fill="#22829C"/>
<path d="M20.4634 68.2002H42.9946V64.442H20.4634V68.2002Z" fill="#22829C"/>
<path d="M84.3165 68.2002H80.5583V71.9584H84.3165V68.2002Z" fill="#22829C"/>
<path d="M88.0807 71.9584H84.3226V90.7374H88.0807V71.9584Z" fill="#22829C"/>
<path d="M88.0807 83.221H84.3226V102H88.0807V83.221Z" fill="#22829C"/>
<path d="M80.5526 64.4481H58.0095V68.2062H80.5526V64.4481Z" fill="#22829C"/>
<path d="M27.9559 38.1587H24.1978V41.9169H27.9559V38.1587Z" fill="#C2A490"/>
<path d="M39.2246 53.1795H35.4664V56.9377H39.2246V53.1795Z" fill="#C2A490"/>
<path d="M54.2573 64.4481H46.7528V68.2062H54.2573V64.4481Z" fill="#C2A490"/>
<path d="M46.7528 60.6898H42.9946V68.2002H46.7528V60.6898Z" fill="#C2A490"/>
<path d="M54.2573 60.6898H46.7528V64.448H54.2573V60.6898Z" fill="#EDCFB9"/>
<path d="M58.0215 60.6898H54.2633V68.2002H58.0215V60.6898Z" fill="#C2A490"/>
<path d="M65.5377 53.1795H69.2959V49.4213H65.5377V53.1795Z" fill="#C2A490"/>
<path d="M61.7795 56.9376H65.5377V53.1794H61.7795V56.9376Z" fill="#C2A490"/>
<path d="M61.7736 56.9376H39.2186V60.6958H61.7736V56.9376Z" fill="#C2A490"/>
<path d="M35.4663 23.132H31.7081V34.4005H35.4663V23.132Z" fill="#C2A490"/>
<path d="M31.7083 41.9109H27.9501V49.4213H31.7083V41.9109Z" fill="#C2A490"/>
<path d="M69.2898 38.1587H73.048V34.4005H69.2898V38.1587Z" fill="#C2A490"/>
<path d="M73.048 41.9109H76.8062V38.1527H73.048V41.9109Z" fill="#C2A490"/>
<path d="M65.5377 34.4005H69.2959V23.1319H65.5377V34.4005Z" fill="#C2A490"/>
<path d="M69.2898 49.4272H73.048V41.9168H69.2898V49.4272Z" fill="#C2A490"/>
<path d="M76.7884 23.132H12.9412V26.8901H76.7884V23.132Z" fill="#5C9965"/>
<path d="M61.7736 11.8633H65.5317V8.1051H61.7736V11.8633Z" fill="#5C9965"/>
<path d="M35.4605 11.8633H39.2186V8.1051H35.4605V11.8633Z" fill="#5C9965"/>
<path d="M27.95 23.132H31.7081V15.6216H27.95V23.132Z" fill="#5C9965"/>
<path d="M65.5378 15.6215H69.6409V11.8634H65.5378V15.6215Z" fill="#5C9965"/>
<path d="M31.7023 15.6215H35.4604V11.8634H31.7023V15.6215Z" fill="#5C9965"/>
<path d="M73.0599 23.1319H76.8181V19.3737H73.0599V23.1319Z" fill="#5C9965"/>
<path d="M39.2186 8.11121L61.7736 8.11121V4.35304L39.2186 4.35304V8.11121Z" fill="#5C9965"/>
<path d="M69.2898 19.3797H73.048V15.6215H69.2898V19.3797Z" fill="#5C9965"/>
<path d="M73.0599 38.1527H76.8181V26.8841H73.0599V38.1527Z" fill="#383532"/>
<path d="M24.1919 38.1527H27.9501V26.8841H24.1919V38.1527Z" fill="#383532"/>
<path d="M50.4991 68.2002H20.4694V71.9584H16.7112V90.7373H50.4991" fill="#299BBA"/>
<path d="M50.4991 79.4629H20.4694V83.2211H16.7112V102H50.4991" fill="#299BBA"/>
<path d="M50.499 68.2002H80.5704V71.9584H84.3285V90.7373H50.499" fill="#299BBA"/>
<path d="M50.499 79.4629H80.5704V83.2211H84.3285V102H50.499" fill="#299BBA"/>
<path d="M39.2185 8.11121V11.8634H35.4663V15.6216H31.7081V23.132H73.0599V19.3798H69.2898V15.6216H65.5317V11.8634H61.7794V8.11121H39.2185Z" fill="#6FB87A"/>
<path d="M27.9559 83.2269H73.0599V79.4688H27.9559V83.2269Z" fill="#6FB87A"/>
<path d="M27.9559 90.7374H73.0599V86.9792H27.9559V90.7374Z" fill="#6FB87A"/>
<path d="M50.3801 20.8781C47.7042 20.8781 45.5219 18.6898 45.5219 16.002C45.5219 13.3142 47.6983 11.1259 50.3801 11.1259C51.5099 11.1259 52.6041 11.5184 53.4604 12.232C53.6804 12.4163 53.8231 12.7077 53.8231 12.9693C53.8231 13.231 53.728 13.445 53.5555 13.6175C53.3831 13.7899 53.1571 13.8851 52.9133 13.8851C52.7052 13.8851 52.497 13.8078 52.3305 13.671C51.7894 13.231 51.0461 12.9574 50.3801 12.9574C48.7092 12.9574 47.3474 14.3251 47.3474 16.002C47.3474 17.6789 48.7092 19.0466 50.3801 19.0466C51.9321 19.0466 52.8836 17.9346 52.8836 16.9178H50.4336V15.1338H53.8469C54.3226 15.1338 54.7151 15.4906 54.7567 15.9663C54.7686 16.1328 54.7746 16.2637 54.7746 16.3826C54.7746 17.5719 54.4534 18.6958 53.615 19.5461C52.7646 20.4084 51.7478 20.8841 50.3861 20.8841" fill="white"/>
<path d="M51.3197 16.0259C51.3197 16.5194 50.9213 16.9179 50.4337 16.9179C49.9461 16.9179 49.5476 16.5194 49.5476 16.0259C49.5476 15.5323 49.9461 15.1339 50.4337 15.1339C50.9213 15.1339 51.3197 15.5323 51.3197 16.0259Z" fill="#00C01E"/>
<path d="M44.8558 34.9654H41.0977V38.7236H44.8558V34.9654Z" fill="#383532"/>
<path d="M59.8885 34.9654H56.1304V38.7236H59.8885V34.9654Z" fill="#383532"/>
<path d="M52.3306 35.0308H48.6854V42.5412H52.3306V35.0308Z" fill="#C2A490"/>
<path d="M59.7994 44.337H56.0829V48.4817H59.7994V44.337Z" fill="#C30045"/>
<path d="M56.0829 44.337H52.3663V48.4817H56.0829V44.337Z" fill="#C30045"/>
<path d="M52.3663 44.337H48.6498V48.4817H52.3663V44.337Z" fill="#C30045"/>
<path d="M48.6438 44.337H44.9272V48.4817H48.6438V44.337Z" fill="#C30045"/>
<path d="M44.9272 44.337H41.2107V48.4817H44.9272V44.337Z" fill="#C30045"/>
<path d="M55.9935 48.4758H52.277V52.6204H55.9935V48.4758Z" fill="#C30045"/>
<path d="M52.2711 48.4758H48.5546V52.6204H52.2711V48.4758Z" fill="#C30045"/>
<path d="M48.5546 48.4758H44.838V52.6204H48.5546V48.4758Z" fill="#C30045"/>
<path d="M67.4346 43.677V39.9188H59.9182V43.677H67.4346Z" fill="#FF92A0"/>
<path d="M41.1036 43.677V39.9188H33.5873V43.677H41.1036Z" fill="#FF92A0"/>
</svg>
