<svg width="100" height="106" viewBox="0 0 100 106" fill="none" xmlns="http://www.w3.org/2000/svg">
<mask id="path-1-outside-1_0_184587" maskUnits="userSpaceOnUse" x="17.8609" y="4.12378" width="69" height="53" fill="black">
<rect fill="white" x="17.8609" y="4.12378" width="69" height="53"/>
<path d="M82.152 56.9175V34.4955H78.3871V30.7307H74.6283V19.4243H70.8575V15.6594L70.8694 11.8886H63.3338H59.563V8.12378H36.9322V11.8886H33.1435V15.6594H29.3965V19.4243H25.6257V30.7247H21.8609V57.1084"/>
</mask>
<path d="M82.152 34.4955H86.152V30.4955H82.152V34.4955ZM78.3871 34.4955H74.3871V38.4955H78.3871V34.4955ZM78.3871 30.7307H82.3871V26.7307H78.3871V30.7307ZM74.6283 30.7307H70.6283V34.7307H74.6283V30.7307ZM74.6283 19.4243H78.6283V15.4243H74.6283V19.4243ZM70.8575 19.4243H66.8575V23.4243H70.8575V19.4243ZM70.8575 15.6594L66.8575 15.6467V15.6594H70.8575ZM70.8694 11.8886L74.8694 11.9013L74.8821 7.88861H70.8694V11.8886ZM59.563 11.8886H55.563V15.8886H59.563V11.8886ZM59.563 8.12378H63.563V4.12378H59.563V8.12378ZM36.9322 8.12378V4.12378H32.9322V8.12378H36.9322ZM36.9322 11.8886V15.8886H40.9322V11.8886H36.9322ZM33.1435 11.8886V7.88861H29.1435V11.8886H33.1435ZM33.1435 15.6594V19.6594H37.1435V15.6594H33.1435ZM29.3965 15.6594V11.6594H25.3965V15.6594H29.3965ZM29.3965 19.4243V23.4243H33.3965V19.4243H29.3965ZM25.6257 19.4243V15.4243H21.6257V19.4243H25.6257ZM25.6257 30.7247V34.7247H29.6257V30.7247H25.6257ZM21.8609 30.7247V26.7247H17.8609V30.7247H21.8609ZM86.152 56.9175V34.4955H78.152V56.9175H86.152ZM82.152 30.4955H78.3871V38.4955H82.152V30.4955ZM82.3871 34.4955V30.7307H74.3871V34.4955H82.3871ZM78.3871 26.7307H74.6283V34.7307H78.3871V26.7307ZM78.6283 30.7307V19.4243H70.6283V30.7307H78.6283ZM74.6283 15.4243H70.8575V23.4243H74.6283V15.4243ZM74.8575 19.4243V15.6594H66.8575V19.4243H74.8575ZM74.8574 15.6721L74.8694 11.9013L66.8694 11.8759L66.8575 15.6467L74.8574 15.6721ZM70.8694 7.88861H63.3338V15.8886H70.8694V7.88861ZM63.3338 7.88861H59.563V15.8886H63.3338V7.88861ZM63.563 11.8886V8.12378H55.563V11.8886H63.563ZM59.563 4.12378H36.9322V12.1238H59.563V4.12378ZM32.9322 8.12378V11.8886H40.9322V8.12378H32.9322ZM36.9322 7.88861H33.1435V15.8886H36.9322V7.88861ZM29.1435 11.8886V15.6594H37.1435V11.8886H29.1435ZM33.1435 11.6594H29.3965V19.6594H33.1435V11.6594ZM25.3965 15.6594V19.4243H33.3965V15.6594H25.3965ZM29.3965 15.4243H25.6257V23.4243H29.3965V15.4243ZM21.6257 19.4243V30.7247H29.6257V19.4243H21.6257ZM25.6257 26.7247H21.8609V34.7247H25.6257V26.7247ZM17.8609 30.7247V57.1084H25.8609V30.7247H17.8609Z" fill="white" mask="url(#path-1-outside-1_0_184587)"/>
<path d="M42.4681 19.4243V21.1951H36.9325H34.9325V23.1951V32.4955H33.1676H31.1676V34.4955V36.2663H29.3789H27.3789V38.2663V42.0371V44.0371H29.3789H31.1676V49.5728V51.5728H33.1676H34.9325V53.3376V55.3376H36.9325H38.7033V57.1084V59.1084H40.7033H63.334H65.334V57.1084V55.3376H67.0989H69.0989V53.3376V51.5728H70.8697H72.8697V49.5728V44.0371H74.6345H76.6345V42.0371V38.2663V36.2663H74.6345H72.8697V34.4955V32.4955H70.8697H69.0989V23.1951V21.1951H67.0989H65.3221V19.4243V17.4243H63.3221H44.4681H42.4681V19.4243Z" stroke="white" stroke-width="4"/>
<path d="M38.9263 49.5727V47.5727H36.9263H33.1555H31.1555V49.5727V53.3435V55.3435H33.1555H36.9263H38.9263V53.3435V49.5727Z" stroke="white" stroke-width="4"/>
<path d="M35.1556 34.4955V32.4955H33.1556H29.3848H27.3848V34.4955V38.2663V40.2663H29.3848H33.1556H35.1556V38.2663V34.4955Z" stroke="white" stroke-width="4"/>
<path d="M69.1048 23.195V21.195H67.1048H63.334H61.334V23.195V26.9658V28.9658H63.334H67.1048H69.1048V26.9658V23.195Z" stroke="white" stroke-width="4"/>
<path d="M42.6971 23.195V21.195H40.6971H36.9263H34.9263V23.195V26.9658V28.9658H36.9263H40.6971H42.6971V26.9658V23.195Z" stroke="white" stroke-width="4"/>
<path d="M54.0215 23.195V21.195H52.0215H48.2507H46.2507V23.195V26.9658V28.9658H48.2507H52.0215H54.0215V26.9658V23.195Z" stroke="white" stroke-width="4"/>
<path d="M65.3339 23.195V21.195H63.3339H59.5631H57.5631V23.195V26.9658V28.9658H59.5631H63.3339H65.3339V26.9658V23.195Z" stroke="white" stroke-width="4"/>
<path d="M50.2508 26.9539V24.9539H48.2508H40.7271H38.7271V26.9539V30.7247V32.7247H40.7271H48.2508H50.2508V30.7247V26.9539Z" stroke="white" stroke-width="4"/>
<path d="M61.5452 26.9539V24.9539H59.5452H52.0215H50.0215V26.9539V30.7247V32.7247H52.0215H59.5452H61.5452V30.7247V26.9539Z" stroke="white" stroke-width="4"/>
<path d="M31.3908 38.2662V36.2662H29.3908H25.62H23.62V38.2662V42.037V44.037H25.62H29.3908H31.3908V42.037V38.2662Z" stroke="white" stroke-width="4"/>
<path d="M42.6971 53.3375V51.3375H40.6971H36.9263H34.9263V53.3375V57.1083V59.1083H36.9263H40.6971H42.6971V57.1083V53.3375Z" stroke="white" stroke-width="4"/>
<path d="M65.0988 53.3375V55.3375H67.0988H70.8696H72.8696V53.3375V49.5667V47.5667H70.8696H67.0988H65.0988V49.5667V53.3375Z" stroke="white" stroke-width="4"/>
<path d="M61.3279 57.1083V59.1083H63.3279H67.0988H69.0988V57.1083V53.3375V51.3375H67.0988H63.3279H61.3279V53.3375V57.1083Z" stroke="white" stroke-width="4"/>
<path d="M65.322 57.1083V55.1083H63.322H40.6912H38.6912V57.1083V60.8791V62.8791H40.6912H63.322H65.322V60.8791V57.1083Z" stroke="white" stroke-width="4"/>
<path d="M38.9263 26.9598V24.9598H36.9263H33.1555H31.1555V26.9598V34.4955V36.4955H33.1555H36.9263H38.9263V34.4955V26.9598Z" stroke="white" stroke-width="4"/>
<path d="M35.1556 42.037V40.037H33.1556H29.3848H27.3848V42.037V49.5727V51.5727H29.3848H33.1556H35.1556V49.5727V42.037Z" stroke="white" stroke-width="4"/>
<path d="M68.8635 38.2662V40.2662H70.8635H74.6343H76.6343V38.2662V34.4954V32.4954H74.6343H70.8635H68.8635V34.4954V38.2662Z" stroke="white" stroke-width="4"/>
<path d="M72.6404 42.0312V44.0312H74.6404H78.4112H80.4112V42.0312V38.2604V36.2604H78.4112H74.6404H72.6404V38.2604V42.0312Z" stroke="white" stroke-width="4"/>
<path d="M65.0988 34.5015V36.5015H67.0988H70.8696H72.8696V34.5015V26.9658V24.9658H70.8696H67.0988H65.0988V26.9658V34.5015Z" stroke="white" stroke-width="4"/>
<path d="M68.8635 49.5668V51.5668H70.8635H74.6343H76.6343V49.5668V42.0311V40.0311H74.6343H70.8635H68.8635V42.0311V49.5668Z" stroke="white" stroke-width="4"/>
<path d="M48.4548 34.4955V32.4955H46.4548H42.684H40.684V34.4955V38.2663V40.2663H42.684H46.4548H48.4548V38.2663V34.4955Z" stroke="white" stroke-width="4"/>
<path d="M76.6405 15.6594V13.6594H74.6405H70.8697H68.8697V15.6594V19.4302V21.4302H70.8697H74.6405H76.6405V19.4302V15.6594Z" stroke="white" stroke-width="4"/>
<path d="M76.6405 11.8885V9.88855H74.6405H70.8697H68.8697V11.8885V15.6594V17.6594H70.8697H74.6405H76.6405V15.6594V11.8885Z" stroke="white" stroke-width="4"/>
<path d="M80.4051 19.4243V17.4243H78.4051H74.6343H72.6343V19.4243V30.7307V32.7307H74.6343H78.4051H80.4051V30.7307V19.4243Z" stroke="white" stroke-width="4"/>
<path d="M72.8576 8.12378V6.12378H70.8576H59.5571H57.5571V8.12378V11.8946V13.8946H59.5571H70.8576H72.8576V11.8946V8.12378Z" stroke="white" stroke-width="4"/>
<path d="M38.9263 8.12378V6.12378H36.9263H33.1555H31.1555V8.12378V11.8946V13.8946H33.1555H36.9263H38.9263V11.8946V8.12378Z" stroke="white" stroke-width="4"/>
<path d="M35.1556 11.8885V9.88855H33.1556H29.3848H27.3848V11.8885V15.6594V17.6594H29.3848H33.1556H35.1556V15.6594V11.8885Z" stroke="white" stroke-width="4"/>
<path d="M31.4085 15.6594V13.6594H29.4085H25.6378H23.6378V15.6594V19.4302V21.4302H25.6378H29.4085H31.4085V19.4302V15.6594Z" stroke="white" stroke-width="4"/>
<path d="M23.879 30.7247V28.7247H21.879H18.1082H16.1082V30.7247V57.1084V59.1084H18.1082H21.879H23.879V57.1084V30.7247Z" stroke="white" stroke-width="4"/>
<path d="M84.1758 30.7247V28.7247H82.1758H78.405H76.405V30.7247V57.1084V59.1084H78.405H82.1758H84.1758V57.1084V30.7247Z" stroke="white" stroke-width="4"/>
<path d="M27.6377 19.4243V17.4243H25.6377H21.8669H19.8669V19.4243V30.7188V32.7188H21.8669H25.6377H27.6377V30.7188V19.4243Z" stroke="white" stroke-width="4"/>
<path d="M61.5452 4.35297V2.35297H59.5452H36.9442H34.9442V4.35297V8.12376V10.1238H36.9442H59.5452H61.5452V8.12376V4.35297Z" stroke="white" stroke-width="4"/>
<path d="M63.5381 34.4955V32.4955H61.5381H57.7673H55.7673V34.4955V38.2663V40.2663H57.7673H61.5381H63.5381V38.2663V34.4955Z" stroke="white" stroke-width="4"/>
<mask id="path-36-outside-2_0_184587" maskUnits="userSpaceOnUse" x="36.6912" y="15.1855" width="31" height="16" fill="black">
<rect fill="white" x="36.6912" y="15.1855" width="31" height="16"/>
<path d="M40.6912 23.195V26.9539H48.2507V23.195H52.0155V26.9539H59.5452V23.195H63.3339V19.1855H43.054"/>
</mask>
<path d="M40.6912 26.9539H36.6912V30.9539H40.6912V26.9539ZM48.2507 26.9539V30.9539H52.2507V26.9539H48.2507ZM48.2507 23.195V19.195H44.2507V23.195H48.2507ZM52.0155 23.195H56.0155V19.195H52.0155V23.195ZM52.0155 26.9539H48.0155V30.9539H52.0155V26.9539ZM59.5452 26.9539V30.9539H63.5452V26.9539H59.5452ZM59.5452 23.195V19.195H55.5452V23.195H59.5452ZM63.3339 23.195V27.195H67.3339V23.195H63.3339ZM63.3339 19.1855H67.3339V15.1855H63.3339V19.1855ZM36.6912 23.195V26.9539H44.6912V23.195H36.6912ZM40.6912 30.9539H48.2507V22.9539H40.6912V30.9539ZM52.2507 26.9539V23.195H44.2507V26.9539H52.2507ZM48.2507 27.195H52.0155V19.195H48.2507V27.195ZM48.0155 23.195V26.9539H56.0155V23.195H48.0155ZM52.0155 30.9539H59.5452V22.9539H52.0155V30.9539ZM63.5452 26.9539V23.195H55.5452V26.9539H63.5452ZM59.5452 27.195H63.3339V19.195H59.5452V27.195ZM67.3339 23.195V19.1855H59.3339V23.195H67.3339ZM63.3339 15.1855H43.054V23.1855H63.3339V15.1855Z" fill="white" mask="url(#path-36-outside-2_0_184587)"/>
<path d="M63.4426 44.0835V42.0835H61.4426H57.7136H55.7136V44.0835V48.2421V50.2421H57.7136H61.4426H63.4426V48.2421V44.0835Z" stroke="white" stroke-width="4"/>
<path d="M59.7134 44.0835V42.0835H57.7134H53.9844H51.9844V44.0835V48.2421V50.2421H53.9844H57.7134H59.7134V48.2421V44.0835Z" stroke="white" stroke-width="4"/>
<path d="M55.9785 44.0835V42.0835H53.9785H50.2495H48.2495V44.0835V48.2421V50.2421H50.2495H53.9785H55.9785V48.2421V44.0835Z" stroke="white" stroke-width="4"/>
<path d="M52.2496 44.0835V42.0835H50.2496H46.5206H44.5206V44.0835V48.2421V50.2421H46.5206H50.2496H52.2496V48.2421V44.0835Z" stroke="white" stroke-width="4"/>
<path d="M48.5204 44.0835V42.0835H46.5204H42.7914H40.7914V44.0835V48.2421V50.2421H42.7914H46.5204H48.5204V48.2421V44.0835Z" stroke="white" stroke-width="4"/>
<path d="M59.6181 48.2422V46.2422H57.6181H53.889H51.889V48.2422V52.4008V54.4008H53.889H57.6181H59.6181V52.4008V48.2422Z" stroke="white" stroke-width="4"/>
<path d="M55.889 48.2422V46.2422H53.889H50.16H48.16V48.2422V52.4008V54.4008H50.16H53.889H55.889V52.4008V48.2422Z" stroke="white" stroke-width="4"/>
<path d="M52.154 48.2422V46.2422H50.154H46.4249H44.4249V48.2422V52.4008V54.4008H46.4249H50.154H52.154V52.4008V48.2422Z" stroke="white" stroke-width="4"/>
<path d="M56.0084 34.4537V32.4537H54.0084H50.2375H48.2375V34.4537V41.9894V43.9894H50.2375H54.0084H56.0084V41.9894V34.4537Z" stroke="white" stroke-width="4"/>
<path d="M69.002 46.71H71.002V44.71V40.9392V38.9392H69.002H61.4604H59.4604V40.9392V44.71V46.71H61.4604H69.002Z" stroke="white" stroke-width="4"/>
<path d="M42.5826 46.7161H44.5826V44.7161V40.9453V38.9453H42.5826H35.041H33.041V40.9453V44.7161V46.7161H35.041H42.5826Z" stroke="white" stroke-width="4"/>
<path d="M80.4051 53.3375V51.3375H78.4051H67.1046H65.1046V53.3375V57.1083V59.1083H67.1046H78.4051H80.4051V57.1083V53.3375Z" stroke="white" stroke-width="4"/>
<path d="M38.9324 53.3494V51.3494H36.9324H18.1082H16.1082V53.3494V57.1202V59.1202H18.1082H36.9324H38.9324V57.1202V53.3494Z" stroke="white" stroke-width="4"/>
<path d="M56.3842 64.6977V62.6977H54.3842H46.8545H44.8545V64.6977V68.4685V70.4685H46.8545H54.3842H56.3842V68.4685V64.6977Z" stroke="white" stroke-width="4"/>
<path d="M48.8546 60.9269V58.9269H46.8546H43.0838H41.0838V60.9269V68.4625V70.4625H43.0838H46.8546H48.8546V68.4625V60.9269Z" stroke="white" stroke-width="4"/>
<path d="M56.3842 60.9269V58.9269H54.3842H46.8545H44.8545V60.9269V64.6977V66.6977H46.8545H54.3842H56.3842V64.6977V60.9269Z" stroke="white" stroke-width="4"/>
<path d="M60.1608 60.9269V58.9269H58.1608H54.3901H52.3901V60.9269V68.4625V70.4625H54.3901H58.1608H60.1608V68.4625V60.9269Z" stroke="white" stroke-width="4"/>
<path d="M18.4886 68.3193V70.3193H20.4886H27.9646H29.9646V68.3193V64.5485V62.5485H27.9646H20.4886H18.4886V64.5485V68.3193Z" stroke="white" stroke-width="4"/>
<path d="M82.7501 64.5485V62.5485H80.7501H73.2502H71.2502V64.5485V68.3193V70.3193H73.2502H80.7501H82.7501V68.3193V64.5485Z" stroke="white" stroke-width="4"/>
<path d="M75.1846 64.5485V62.5485H73.1846H65.6848H63.6848V64.5485V68.3193V70.3193H65.6848H73.1846H75.1846V68.3193V64.5485Z" stroke="white" stroke-width="4"/>
<path d="M33.542 68.3193V70.3193H35.542H39.3128H41.3128V68.3193V64.5485V62.5485H39.3128H35.542H33.542V64.5485V68.3193Z" stroke="white" stroke-width="4"/>
<path d="M56.1489 68.3193V70.3193H58.1489H65.7084H67.7084V68.3193V64.5485V62.5485H65.7084H58.1489H56.1489V64.5485V68.3193Z" stroke="white" stroke-width="4"/>
<path d="M67.7084 64.5485V62.5485H65.7084H61.9376H59.9376V64.5485V68.3193V70.3193H61.9376H65.7084H67.7084V68.3193V64.5485Z" stroke="white" stroke-width="4"/>
<path d="M48.8425 64.5485V62.5485H46.8425H43.0717H41.0717V64.5485V68.3193V70.3193H43.0717H46.8425H48.8425V68.3193V64.5485Z" stroke="white" stroke-width="4"/>
<path d="M60.149 64.5485V62.5485H58.149H54.3782H52.3782V64.5485V68.3193V70.3193H54.3782H58.149H60.149V68.3193V64.5485Z" stroke="white" stroke-width="4"/>
<path d="M56.3724 60.7837V58.7837H54.3724H46.8427H44.8427V60.7837V68.3134V70.3134H46.8427H54.3724H56.3724V68.3134V60.7837Z" stroke="white" stroke-width="4"/>
<path d="M82.7557 68.3193V66.3193H80.7557H50.6251H48.6251V68.3193V90.9322V92.9322H50.6251H80.7557H82.7557V90.9322V72.0901V70.8073V68.3193Z" stroke="white" stroke-width="4"/>
<path d="M86.5266 72.0901V70.0901H84.5266H80.7559H78.7559V72.0901V90.9322V92.9322H80.7559H84.5266H86.5266V90.9322V72.0901Z" stroke="white" stroke-width="4"/>
<path d="M82.7557 79.3871V77.3871H80.7557H50.6251H48.6251V79.3871V102V104H50.6251H80.7557H82.7557V102V83.1579V81.8751V79.3871Z" stroke="white" stroke-width="4"/>
<path d="M86.5266 83.158V81.158H84.5266H80.7559H78.7559V83.158V102V104H80.7559H84.5266H86.5266V102V83.158Z" stroke="white" stroke-width="4"/>
<path d="M10.9472 90.9322V92.9322H12.9472H16.718H18.718V90.9322V79.6198V77.6198H16.718H12.9472H10.9472V79.6198L10.9472 90.9322Z" stroke="white" stroke-width="4"/>
<path d="M10.9472 102V104H12.9472H16.718H18.718V102V90.6876V88.6876H16.718H12.9472H10.9472V90.6876L10.9472 102Z" stroke="white" stroke-width="4"/>
<mask id="path-70-outside-3_0_184587" maskUnits="userSpaceOnUse" x="12.712" y="64.3193" width="38" height="31" fill="black">
<rect fill="white" x="12.712" y="64.3193" width="38" height="31"/>
<path d="M50.6134 68.3193H20.4828V72.0901H16.712V90.9322H50.6134"/>
</mask>
<path d="M20.4828 68.3193V64.3193H16.4828V68.3193H20.4828ZM20.4828 72.0901V76.0901H24.4828V72.0901H20.4828ZM16.712 72.0901V68.0901H12.712V72.0901H16.712ZM16.712 90.9322H12.712V94.9322H16.712V90.9322ZM50.6134 64.3193H20.4828V72.3193H50.6134V64.3193ZM16.4828 68.3193V72.0901H24.4828V68.3193H16.4828ZM20.4828 68.0901H16.712V76.0901H20.4828V68.0901ZM12.712 72.0901V90.9322H20.712V72.0901H12.712ZM16.712 94.9322H50.6134V86.9322H16.712V94.9322Z" fill="white" mask="url(#path-70-outside-3_0_184587)"/>
<mask id="path-72-outside-4_0_184587" maskUnits="userSpaceOnUse" x="12.712" y="75.3871" width="38" height="31" fill="black">
<rect fill="white" x="12.712" y="75.3871" width="38" height="31"/>
<path d="M50.6134 79.3871H20.4828V83.1579H16.712V102H50.6134"/>
</mask>
<path d="M20.4828 79.3871V75.3871H16.4828V79.3871H20.4828ZM20.4828 83.1579V87.1579H24.4828V83.1579H20.4828ZM16.712 83.1579V79.1579H12.712V83.1579H16.712ZM16.712 102H12.712V106H16.712V102ZM50.6134 75.3871H20.4828V83.3871H50.6134V75.3871ZM16.4828 79.3871V83.1579H24.4828V79.3871H16.4828ZM20.4828 79.1579H16.712V87.1579H20.4828V79.1579ZM12.712 83.1579V102H20.712V83.1579H12.712ZM16.712 106H50.6134V98H16.712V106Z" fill="white" mask="url(#path-72-outside-4_0_184587)"/>
<path d="M41.301 64.5545V62.5545H39.301H35.5302H33.5302V64.5545V72.0842V74.0842H35.5302H39.301H41.301V72.0842V64.5545Z" stroke="white" stroke-width="4"/>
<path d="M33.7653 64.5545V62.5545H31.7653H27.9944H25.9944V64.5545V72.0842V74.0842H27.9944H31.7653H33.7653V72.0842V64.5545Z" stroke="white" stroke-width="4"/>
<path d="M29.9945 72.0901V70.0901H27.9945H24.2238H22.2238V72.0901V75.8609V77.8609H24.2238H27.9945H29.9945V75.8609V72.0901Z" stroke="white" stroke-width="4"/>
<path d="M45.0778 72.0901V70.0901H43.0778H39.3069H37.3069V72.0901V75.8609V77.8609H39.3069H43.0778H45.0778V75.8609V72.0901Z" stroke="white" stroke-width="4"/>
<path d="M63.902 72.0901V70.0901H61.902H43.0957H41.0957V72.0901V75.8609V77.8609H43.0957H61.902H63.902V75.8609V72.0901Z" stroke="white" stroke-width="4"/>
<path d="M22.4768 68.3193V66.3193H20.4768H16.706H14.706V68.3193V72.0901V74.0901H16.706H20.4768H22.4768V72.0901V68.3193Z" stroke="white" stroke-width="4"/>
<path d="M18.712 72.0901V70.0901H16.712H12.9412H10.9412V72.0901V79.6198V81.6198H12.9412H16.712H18.712V79.6198V72.0901Z" stroke="white" stroke-width="4"/>
<path d="M26.2416 75.849V73.849H24.2416H20.4708H18.4708V75.849V90.9322V92.9322H20.4708H24.2416H26.2416V90.9322V75.849Z" stroke="white" stroke-width="4"/>
<path d="M26.2416 86.9167V84.9167H24.2416H20.4708H18.4708V86.9167V102V104H20.4708H24.2416H26.2416V102V86.9167Z" stroke="white" stroke-width="4"/>
<path d="M29.9886 68.3193V66.3193H27.9886H20.4589H18.4589V68.3193V72.0901V74.0901H20.4589H27.9886H29.9886V72.0901V68.3193Z" stroke="white" stroke-width="4"/>
<path d="M37.554 68.3193V66.3193H35.554H31.7832H29.7832V68.3193V72.0901V74.0901H31.7832H35.554H37.554V72.0901V68.3193Z" stroke="white" stroke-width="4"/>
<path d="M37.554 64.5485V62.5485H35.554H31.7832H29.7832V64.5485V68.3193V70.3193H31.7832H35.554H37.554V68.3193V64.5485Z" stroke="white" stroke-width="4"/>
<path d="M26.2237 72.0901V70.0901H24.2237H16.694H14.694V72.0901V75.8609V77.8609H16.694H24.2237H26.2237V75.8609V72.0901Z" stroke="white" stroke-width="4"/>
<path d="M90.2976 79.6199V77.6199H88.2976H84.5268H82.5268V79.6199V90.9323V92.9323H84.5268H88.2976H90.2976V90.9323V79.6199Z" stroke="white" stroke-width="4"/>
<path d="M90.2976 90.6876V88.6876H88.2976H84.5268H82.5268V90.6876V102V104H84.5268H88.2976H90.2976V102V90.6876Z" stroke="white" stroke-width="4"/>
<path d="M59.9438 72.0841V74.0841H61.9438H65.6848H67.6848V72.0841V64.5544V62.5544H65.6848H61.9438H59.9438V64.5544V72.0841Z" stroke="white" stroke-width="4"/>
<path d="M67.4734 72.0841V74.0841H69.4734H73.2442H75.2442V72.0841V64.5544V62.5544H73.2442H69.4734H67.4734V64.5544V72.0841Z" stroke="white" stroke-width="4"/>
<path d="M71.2441 75.8608V77.8608H73.2441H77.0149H79.0149V75.8608V72.09V70.09H77.0149H73.2441H71.2441V72.09V75.8608Z" stroke="white" stroke-width="4"/>
<path d="M78.7679 72.0901V74.0901H80.7679H84.5387H86.5387V72.0901V68.3193V66.3193H84.5387H80.7679H78.7679V68.3193V72.0901Z" stroke="white" stroke-width="4"/>
<path d="M82.5268 79.6199V81.6199H84.5268H88.2976H90.2976V79.6199V72.0902V70.0902H88.2976H84.5268H82.5268V72.0902V79.6199Z" stroke="white" stroke-width="4"/>
<path d="M74.997 90.9322V92.9322H76.997H80.7678H82.7678V90.9322V75.849V73.849H80.7678H76.997H74.997V75.849V90.9322Z" stroke="white" stroke-width="4"/>
<path d="M74.997 102V104H76.997H80.7678H82.7678V102V86.9168V84.9168H80.7678H76.997H74.997V86.9168V102Z" stroke="white" stroke-width="4"/>
<path d="M78.7679 90.9322V92.9322H80.7679H84.5387H86.5387V90.9322V75.849V73.849H84.5387H80.7679H78.7679V75.849V90.9322Z" stroke="white" stroke-width="4" stroke-miterlimit="10"/>
<path d="M78.7679 102V104H80.7679H84.5387H86.5387V102V86.9168V84.9168H84.5387H80.7679H78.7679V86.9168V102Z" stroke="white" stroke-width="4" stroke-miterlimit="10"/>
<path d="M71.2501 72.0901V74.0901H73.2501H80.7798H82.7798V72.0901V68.3193V66.3193H80.7798H73.2501H71.2501V68.3193V72.0901Z" stroke="white" stroke-width="4"/>
<path d="M63.6846 72.0901V74.0901H65.6846H69.4554H71.4554V72.0901V68.3193V66.3193H69.4554H65.6846H63.6846V68.3193V72.0901Z" stroke="white" stroke-width="4"/>
<path d="M75.021 75.8608V77.8608H77.021H84.5507H86.5507V75.8608V72.09V70.09H84.5507H77.021H75.021V72.09V75.8608Z" stroke="white" stroke-width="4"/>
<path d="M63.9377 68.3193V66.3193H61.9377H39.3188H37.3188V68.3193V72.0901V74.0901H39.3188H61.9377H63.9377V72.0901V68.3193Z" stroke="white" stroke-width="4"/>
<path d="M14.7 90.9322V92.9322H16.7H20.4708H22.4708V90.9322V75.8609L22.4708 73.8609H20.4708H16.7H14.7V75.8609L14.7 90.9322Z" stroke="white" stroke-width="4"/>
<path d="M14.7 102V104H16.7H20.4708H22.4708V102V86.9287L22.4708 84.9287H20.4708H16.7H14.7V86.9287L14.7 102Z" stroke="white" stroke-width="4"/>
<path d="M37.289 72.0782V74.0782H39.289H43.0598H45.0598V72.0782V64.5485V62.5485H43.0598H39.289H37.289V64.5485V72.0782Z" stroke="white" stroke-width="4"/>
<path d="M56.143 72.0782V74.0782H58.143H61.9138H63.9138V72.0782V64.5485V62.5485H61.9138H58.143H56.143V64.5485V72.0782Z" stroke="white" stroke-width="4"/>
<mask id="path-106-outside-5_0_184587" maskUnits="userSpaceOnUse" x="43.0753" y="75.8048" width="16" height="17" fill="black">
<rect fill="white" x="43.0753" y="75.8048" width="16" height="17"/>
<path d="M51.1504 87.9908C48.901 87.9908 47.0753 86.1531 47.0753 83.8978C47.0753 81.6425 48.907 79.8048 51.1504 79.8048C52.099 79.8048 53.0179 80.133 53.7398 80.7356C53.9248 80.8907 54.0441 81.1353 54.0441 81.3501C54.0441 81.5649 53.9666 81.7499 53.8174 81.8931C53.6742 82.0363 53.4833 82.1198 53.2744 82.1198C53.1014 82.1198 52.9225 82.0542 52.7852 81.9408C52.3318 81.5709 51.7053 81.3441 51.1504 81.3441C49.7483 81.3441 48.6027 82.4897 48.6027 83.9038C48.6027 85.3178 49.7423 86.4634 51.1504 86.4634C52.4511 86.4634 53.2566 85.5266 53.2566 84.6734H51.1981V83.1759H54.062C54.4618 83.1759 54.7899 83.4742 54.8257 83.8739C54.8377 84.0171 54.8436 84.1245 54.8436 84.22C54.8436 85.2224 54.5751 86.165 53.8711 86.875C53.1551 87.597 52.3019 87.9967 51.1564 87.9967"/>
</mask>
<path d="M53.7398 80.7356L56.3103 77.6708L56.3031 77.6648L53.7398 80.7356ZM53.8174 81.8931L51.0473 79.0075L51.0178 79.0358L50.989 79.0646L53.8174 81.8931ZM52.7852 81.9408L55.3327 78.8569L55.3233 78.8491L55.3137 78.8413L52.7852 81.9408ZM53.2566 84.6734H57.2566V80.6734H53.2566V84.6734ZM51.1981 84.6734H47.1981V88.6734H51.1981V84.6734ZM51.1981 83.1759V79.1759H47.1981V83.1759H51.1981ZM54.8257 83.8739L58.8119 83.5417L58.8109 83.5294L58.8098 83.5171L54.8257 83.8739ZM53.8711 86.875L56.7112 89.6917L56.7114 89.6915L53.8711 86.875ZM51.1504 83.9908C51.1374 83.9908 51.1337 83.989 51.1315 83.988C51.1265 83.9859 51.1164 83.9803 51.1049 83.9688C51.0934 83.9572 51.0858 83.945 51.0817 83.9351C51.0786 83.9279 51.0753 83.9177 51.0753 83.8978H43.0753C43.0753 88.3432 46.6728 91.9908 51.1504 91.9908V83.9908ZM51.0753 83.8978C51.0753 83.8798 51.0782 83.8706 51.0812 83.8635C51.0854 83.8536 51.0933 83.8408 51.1057 83.8283C51.1182 83.8158 51.1292 83.8096 51.1347 83.8073C51.1374 83.8061 51.1402 83.8048 51.1504 83.8048V75.8048C46.6826 75.8048 43.0753 79.4486 43.0753 83.8978H51.0753ZM51.1504 83.8048C51.1638 83.8048 51.1736 83.8072 51.1791 83.8092C51.1844 83.811 51.1827 83.8114 51.1766 83.8064L56.3031 77.6648C54.8478 76.4501 53.0174 75.8048 51.1504 75.8048V83.8048ZM51.1694 83.8003C50.8068 83.4962 50.5485 83.1437 50.3738 82.7894C50.2036 82.4442 50.0441 81.9565 50.0441 81.3501H58.0441C58.0441 79.8282 57.3016 78.5022 56.3103 77.6708L51.1694 83.8003ZM50.0441 81.3501C50.0441 80.5163 50.3819 79.6463 51.0473 79.0075L56.5875 84.7786C57.5512 83.8535 58.0441 82.6135 58.0441 81.3501H50.0441ZM50.989 79.0646C51.5662 78.4874 52.3811 78.1198 53.2744 78.1198V86.1198C54.5855 86.1198 55.7822 85.5851 56.6458 84.7215L50.989 79.0646ZM53.2744 78.1198C54.0634 78.1198 54.7782 78.3989 55.3327 78.8569L50.2377 85.0246C51.0667 85.7094 52.1395 86.1198 53.2744 86.1198V78.1198ZM55.3137 78.8413C54.1775 77.9144 52.6661 77.3441 51.1504 77.3441V85.3441C50.9024 85.3441 50.7345 85.2978 50.6373 85.2624C50.5371 85.2259 50.407 85.1628 50.2567 85.0403L55.3137 78.8413ZM51.1504 77.3441C47.5269 77.3441 44.6027 80.2928 44.6027 83.9038H52.6027C52.6027 84.6866 51.9696 85.3441 51.1504 85.3441V77.3441ZM44.6027 83.9038C44.6027 87.5086 47.5149 90.4634 51.1504 90.4634V82.4634C51.9697 82.4634 52.6027 83.127 52.6027 83.9038H44.6027ZM51.1504 90.4634C54.4088 90.4634 57.2566 87.979 57.2566 84.6734H49.2566C49.2566 83.0742 50.4933 82.4634 51.1504 82.4634V90.4634ZM53.2566 80.6734H51.1981V88.6734H53.2566V80.6734ZM55.1981 84.6734V83.1759H47.1981V84.6734H55.1981ZM51.1981 87.1759H54.062V79.1759H51.1981V87.1759ZM54.062 87.1759C52.3985 87.1759 50.9913 85.9011 50.8417 84.2307L58.8098 83.5171C58.5886 81.0472 56.525 79.1759 54.062 79.1759V87.1759ZM50.8396 84.2061C50.8414 84.2283 50.8427 84.2447 50.8435 84.2564C50.8443 84.2681 50.8446 84.2738 50.8447 84.2747C50.8448 84.2764 50.8436 84.2557 50.8436 84.22H58.8436C58.8436 83.963 58.8276 83.7297 58.8119 83.5417L50.8396 84.2061ZM50.8436 84.22C50.8436 84.3724 50.8223 84.4041 50.84 84.3528C50.8497 84.3246 50.8692 84.2778 50.9038 84.2209C50.939 84.1631 50.9825 84.1073 51.0307 84.0586L56.7114 89.6915C58.3786 88.0102 58.8436 85.9167 58.8436 84.22H50.8436ZM51.0309 84.0584C51.002 84.0876 50.9953 84.0897 51.0121 84.078C51.0303 84.0652 51.0626 84.0456 51.1058 84.0272C51.1492 84.0087 51.1848 83.9994 51.2041 83.9957C51.2219 83.9922 51.2091 83.9967 51.1564 83.9967V91.9967C53.416 91.9967 55.2783 91.1366 56.7112 89.6917L51.0309 84.0584Z" fill="white" mask="url(#path-106-outside-5_0_184587)"/>
<path d="M49.9438 83.9157C49.9438 83.2228 50.5051 82.6615 51.198 82.6615C51.8909 82.6615 52.4522 83.2228 52.4522 83.9157C52.4522 84.6086 51.8909 85.1699 51.198 85.1699C50.5051 85.1699 49.9438 84.6086 49.9438 83.9157ZM51.198 86.6615C52.7143 86.6615 53.9438 85.4319 53.9438 83.9157C53.9438 82.3994 52.7143 81.1699 51.198 81.1699C49.6818 81.1699 48.4522 82.3994 48.4522 83.9157C48.4522 85.4319 49.6818 86.6615 51.198 86.6615ZM51.9438 83.9157C51.9438 84.3274 51.6097 84.6615 51.198 84.6615C50.7863 84.6615 50.4522 84.3274 50.4522 83.9157C50.4522 83.504 50.7863 83.1699 51.198 83.1699C51.6097 83.1699 51.9438 83.504 51.9438 83.9157Z" stroke="white" stroke-width="4"/>
<path d="M71.2944 19.4243V17.4243H69.2944H58.2744H56.2744V19.4243V23.1951V25.1951H58.2744H69.2944H71.2944V23.1951V19.4243Z" stroke="white" stroke-width="4"/>
<path d="M82.152 56.9175V34.4955H78.3871V30.7307H74.6283V19.4243H70.8575V15.6594L70.8694 11.8886H63.3338H59.563V8.12378H36.9322V11.8886H33.1435V15.6594H29.3965V19.4243H25.6257V30.7247H21.8609V57.1084" fill="#3D3A37"/>
<path d="M44.4681 23.1951H36.9325V34.4955H33.1676V38.2663H29.3789V42.0371H33.1676V49.5728H36.9325V53.3376H40.7033V57.1084H63.334V53.3376H67.0989V49.5728H70.8697V42.0371H74.6345V38.2663H70.8697V34.4955H67.0989V23.1951H63.3221V19.4243H44.4681V23.1951Z" fill="#EDCFB9"/>
<path d="M36.9263 49.5727H33.1555V53.3435H36.9263V49.5727Z" fill="#C2A490"/>
<path d="M33.1556 34.4955H29.3848V38.2663H33.1556V34.4955Z" fill="#C2A490"/>
<path d="M67.1048 23.195H63.334V26.9658H67.1048V23.195Z" fill="#C2A490"/>
<path d="M40.6971 23.195H36.9263V26.9658H40.6971V23.195Z" fill="#C2A490"/>
<path d="M52.0215 23.195H48.2507V26.9658H52.0215V23.195Z" fill="#C2A490"/>
<path d="M63.3339 23.195H59.5631V26.9658H63.3339V23.195Z" fill="#C2A490"/>
<path d="M48.2508 26.9539H40.7271V30.7247H48.2508V26.9539Z" fill="#C2A490"/>
<path d="M59.5452 26.9539H52.0215V30.7247H59.5452V26.9539Z" fill="#C2A490"/>
<path d="M29.3908 38.2662H25.62V42.037H29.3908V38.2662Z" fill="#C2A490"/>
<path d="M40.6971 53.3375H36.9263V57.1083H40.6971V53.3375Z" fill="#C2A490"/>
<path d="M67.0988 53.3375H70.8696V49.5667H67.0988V53.3375Z" fill="#C2A490"/>
<path d="M63.3279 57.1083H67.0988V53.3375H63.3279V57.1083Z" fill="#C2A490"/>
<path d="M63.322 57.1083H40.6912V60.8791H63.322V57.1083Z" fill="#C2A490"/>
<path d="M36.9263 26.9598H33.1555V34.4955H36.9263V26.9598Z" fill="#C2A490"/>
<path d="M33.1556 42.037H29.3848V49.5727H33.1556V42.037Z" fill="#C2A490"/>
<path d="M70.8635 38.2662H74.6343V34.4954H70.8635V38.2662Z" fill="#C2A490"/>
<path d="M74.6404 42.0312H78.4112V38.2604H74.6404V42.0312Z" fill="#C2A490"/>
<path d="M67.0988 34.5015H70.8696V26.9658H67.0988V34.5015Z" fill="#C2A490"/>
<path d="M70.8635 49.5668H74.6343V42.0311H70.8635V49.5668Z" fill="#C2A490"/>
<path d="M46.4548 34.4955H42.684V38.2663H46.4548V34.4955Z" fill="#383532"/>
<path d="M74.6405 15.6594H70.8697V19.4302H74.6405V15.6594Z" fill="#302E2B"/>
<path d="M74.6405 11.8885H70.8697V15.6594H74.6405V11.8885Z" fill="#302E2B"/>
<path d="M78.4051 19.4243H74.6343V30.7307H78.4051V19.4243Z" fill="#302E2B"/>
<path d="M70.8576 8.12378H59.5571V11.8946H70.8576V8.12378Z" fill="#302E2B"/>
<path d="M36.9263 8.12378H33.1555V11.8946H36.9263V8.12378Z" fill="#302E2B"/>
<path d="M33.1556 11.8885H29.3848V15.6594H33.1556V11.8885Z" fill="#302E2B"/>
<path d="M29.4085 15.6594H25.6378V19.4302H29.4085V15.6594Z" fill="#302E2B"/>
<path d="M21.879 30.7247H18.1082V57.1084H21.879V30.7247Z" fill="#302E2B"/>
<path d="M82.1758 30.7247H78.405V57.1084H82.1758V30.7247Z" fill="#302E2B"/>
<path d="M25.6377 19.4243H21.8669V30.7188H25.6377V19.4243Z" fill="#302E2B"/>
<path d="M59.5452 4.35297H36.9442V8.12376H59.5452V4.35297Z" fill="#302E2B"/>
<path d="M61.5381 34.4955H57.7673V38.2663H61.5381V34.4955Z" fill="#383532"/>
<path d="M40.6912 23.195V26.9539H48.2507V23.195H52.0155V26.9539H59.5452V23.195H63.3339V19.1855H43.054" fill="#3D3A37"/>
<path d="M61.4426 44.0835H57.7136V48.2421H61.4426V44.0835Z" fill="#C30045"/>
<path d="M57.7134 44.0835H53.9844V48.2421H57.7134V44.0835Z" fill="#C30045"/>
<path d="M53.9785 44.0835H50.2495V48.2421H53.9785V44.0835Z" fill="#C30045"/>
<path d="M50.2496 44.0835H46.5206V48.2421H50.2496V44.0835Z" fill="#C30045"/>
<path d="M46.5204 44.0835H42.7914V48.2421H46.5204V44.0835Z" fill="#C30045"/>
<path d="M57.6181 48.2422H53.889V52.4008H57.6181V48.2422Z" fill="#C30045"/>
<path d="M53.889 48.2422H50.16V52.4008H53.889V48.2422Z" fill="#C30045"/>
<path d="M50.154 48.2422H46.4249V52.4008H50.154V48.2422Z" fill="#C30045"/>
<path d="M54.0084 34.4537H50.2375V41.9894H54.0084V34.4537Z" fill="#C2A490"/>
<path d="M69.002 44.71V40.9392H61.4604V44.71H69.002Z" fill="#FF92A0"/>
<path d="M42.5826 44.7161V40.9453H35.041V44.7161H42.5826Z" fill="#FF92A0"/>
<path d="M78.4051 53.3375H67.1046V57.1083H78.4051V53.3375Z" fill="#302E2B"/>
<path d="M36.9324 53.3494H18.1082V57.1202H36.9324V53.3494Z" fill="#302E2B"/>
<path d="M54.3842 64.6977H46.8545V68.4685H54.3842V64.6977Z" fill="#C2A490"/>
<path d="M46.8546 60.9269H43.0838V68.4625H46.8546V60.9269Z" fill="#C2A490"/>
<path d="M54.3842 60.9269H46.8545V64.6977H54.3842V60.9269Z" fill="#EDCFB9"/>
<path d="M58.1608 60.9269H54.3901V68.4625H58.1608V60.9269Z" fill="#C2A490"/>
<path d="M20.4886 68.3193H27.9646V64.5485H20.4886V68.3193Z" fill="#CFC8C3"/>
<path d="M80.7501 64.5485H73.2502V68.3193H80.7501V64.5485Z" fill="#CFC8C3"/>
<path d="M73.1846 64.5485H65.6848V68.3193H73.1846V64.5485Z" fill="#6FB87A"/>
<path d="M35.542 68.3193H39.3128V64.5485H35.542V68.3193Z" fill="white"/>
<path d="M58.1489 68.3193H65.7084V64.5485H58.1489V68.3193Z" fill="#C2A490"/>
<path d="M65.7084 64.5485H61.9376V68.3193H65.7084V64.5485Z" fill="white"/>
<path d="M46.8425 64.5485H43.0717V68.3193H46.8425V64.5485Z" fill="#EDCFB9"/>
<path d="M58.149 64.5485H54.3782V68.3193H58.149V64.5485Z" fill="#EDCFB9"/>
<path d="M54.3724 60.7837H46.8427V68.3134H54.3724V60.7837Z" fill="#EDCFB9"/>
<path d="M80.7557 70.8073V68.3193H50.6251V90.9322H80.7557V72.0901V70.8073Z" fill="#6FB87A"/>
<path d="M84.5266 72.0901H80.7559V90.9322H84.5266V72.0901Z" fill="white"/>
<path d="M80.7557 81.8751V79.3871H50.6251V102H80.7557V83.1579V81.8751Z" fill="#6FB87A"/>
<path d="M84.5266 83.158H80.7559V102H84.5266V83.158Z" fill="white"/>
<path d="M12.9472 90.9322H16.718V79.6198H12.9472L12.9472 90.9322Z" fill="#CFC8C3"/>
<path d="M12.9472 102H16.718V90.6876H12.9472L12.9472 102Z" fill="#CFC8C3"/>
<path d="M50.6134 68.3193H20.4828V72.0901H16.712V90.9322H50.6134" fill="#6FB87A"/>
<path d="M50.6134 79.3871H20.4828V83.1579H16.712V102H50.6134" fill="#6FB87A"/>
<path d="M39.301 64.5545H35.5302V72.0842H39.301V64.5545Z" fill="white"/>
<path d="M31.7653 64.5545H27.9944V72.0842H31.7653V64.5545Z" fill="white"/>
<path d="M27.9945 72.0901H24.2238V75.8609H27.9945V72.0901Z" fill="white"/>
<path d="M43.0778 72.0901H39.3069V75.8609H43.0778V72.0901Z" fill="white"/>
<path d="M61.902 72.0901H43.0957V75.8609H61.902V72.0901Z" fill="white"/>
<path d="M20.4768 68.3193H16.706V72.0901H20.4768V68.3193Z" fill="#CFC8C3"/>
<path d="M16.712 72.0901H12.9412V79.6198H16.712V72.0901Z" fill="#CFC8C3"/>
<path d="M24.2416 75.849H20.4708V90.9322H24.2416V75.849Z" fill="white"/>
<path d="M24.2416 86.9167H20.4708V102H24.2416V86.9167Z" fill="white"/>
<path d="M27.9886 68.3193H20.4589V72.0901H27.9886V68.3193Z" fill="white"/>
<path d="M35.554 68.3193H31.7832V72.0901H35.554V68.3193Z" fill="#6FB87A"/>
<path d="M35.554 64.5485H31.7832V68.3193H35.554V64.5485Z" fill="#6FB87A"/>
<path d="M24.2237 72.0901H16.694V75.8609H24.2237V72.0901Z" fill="white"/>
<path d="M88.2976 79.6199H84.5268V90.9323H88.2976V79.6199Z" fill="#CFC8C3"/>
<path d="M88.2976 90.6876H84.5268V102H88.2976V90.6876Z" fill="#CFC8C3"/>
<path d="M61.9438 72.0841H65.6848V64.5544H61.9438V72.0841Z" fill="white"/>
<path d="M69.4734 72.0841H73.2442V64.5544H69.4734V72.0841Z" fill="white"/>
<path d="M73.2441 75.8608H77.0149V72.09H73.2441V75.8608Z" fill="white"/>
<path d="M80.7679 72.0901H84.5387V68.3193H80.7679V72.0901Z" fill="#CFC8C3"/>
<path d="M84.5268 79.6199H88.2976V72.0902H84.5268V79.6199Z" fill="#CFC8C3"/>
<path d="M76.997 90.9322H80.7678V75.849H76.997V90.9322Z" fill="white"/>
<path d="M76.997 102H80.7678V86.9168H76.997V102Z" fill="white"/>
<path d="M80.7679 90.9322H84.5387V75.849H80.7679V90.9322Z" stroke="#7A7672" stroke-width="0.02" stroke-miterlimit="10"/>
<path d="M80.7679 102H84.5387V86.9168H80.7679V102Z" stroke="#7A7672" stroke-width="0.02" stroke-miterlimit="10"/>
<path d="M73.2501 72.0901H80.7798V68.3193H73.2501V72.0901Z" fill="white"/>
<path d="M65.6846 72.0901H69.4554V68.3193H65.6846V72.0901Z" fill="#6FB87A"/>
<path d="M77.021 75.8608H84.5507V72.09H77.021V75.8608Z" fill="white"/>
<path d="M61.9377 68.3193H39.3188V72.0901H61.9377V68.3193Z" fill="#EDCFB9"/>
<path d="M16.7 90.9322H20.4708L20.4708 75.8609H16.7V90.9322Z" fill="white"/>
<path d="M16.7 102H20.4708L20.4708 86.9287H16.7V102Z" fill="white"/>
<path d="M39.289 72.0782H43.0598V64.5485H39.289V72.0782Z" fill="#C2A490"/>
<path d="M58.143 72.0782H61.9138V64.5485H58.143V72.0782Z" fill="#C2A490"/>
<path d="M51.1504 87.9908C48.901 87.9908 47.0753 86.1531 47.0753 83.8978C47.0753 81.6425 48.907 79.8048 51.1504 79.8048C52.099 79.8048 53.0179 80.133 53.7398 80.7356C53.9248 80.8907 54.0441 81.1353 54.0441 81.3501C54.0441 81.5649 53.9666 81.7499 53.8174 81.8931C53.6742 82.0363 53.4833 82.1198 53.2744 82.1198C53.1014 82.1198 52.9225 82.0542 52.7852 81.9408C52.3318 81.5709 51.7053 81.3441 51.1504 81.3441C49.7483 81.3441 48.6027 82.4897 48.6027 83.9038C48.6027 85.3178 49.7423 86.4634 51.1504 86.4634C52.4511 86.4634 53.2566 85.5266 53.2566 84.6734H51.1981V83.1759H54.062C54.4618 83.1759 54.7899 83.4742 54.8257 83.8739C54.8377 84.0171 54.8436 84.1245 54.8436 84.22C54.8436 85.2224 54.5751 86.165 53.8711 86.875C53.1551 87.597 52.3019 87.9967 51.1564 87.9967" fill="white"/>
<path d="M51.9438 83.9157C51.9438 84.3274 51.6097 84.6615 51.198 84.6615C50.7863 84.6615 50.4522 84.3274 50.4522 83.9157C50.4522 83.504 50.7863 83.1699 51.198 83.1699C51.6097 83.1699 51.9438 83.504 51.9438 83.9157Z" fill="#00C01E"/>
<path d="M69.2944 19.4243H58.2744V23.1951H69.2944V19.4243Z" fill="#3D3A37"/>
</svg>
