<svg width="100" height="106" viewBox="0 0 100 106" fill="none" xmlns="http://www.w3.org/2000/svg">
<path d="M15.5634 73.687H13.5634V75.687V90.7043V92.7043H15.5634H83.3599H85.3599V90.7043V75.687V73.687H83.3599H15.5634Z" stroke="white" stroke-width="4"/>
<path d="M15.5634 84.9827H13.5634V86.9827V102V104H15.5634H83.3599H85.3599V102V86.9827V84.9827H83.3599H15.5634Z" stroke="white" stroke-width="4"/>
<path d="M15.5394 66.1843H13.5394V68.1843V75.687V77.687H15.5394H83.3241H85.3241V75.687V68.1843V66.1843H83.3241H15.5394Z" stroke="white" stroke-width="4"/>
<mask id="path-4-outside-1_0_183051" maskUnits="userSpaceOnUse" x="15.2904" y="4.10309" width="69" height="57" fill="black">
<rect fill="white" x="15.2904" y="4.10309" width="69" height="57"/>
<path d="M79.5434 60.6697V32.6385H75.7866V29.1309H72.0237V18.614H68.2609V15.1124L68.2728 11.6048H60.7352H56.9664L56.9724 8.10309H34.3537V11.6048H30.567V15.1124H26.8161V18.614H23.0532V29.125H19.2904V60.6697"/>
</mask>
<path d="M79.5434 32.6385H83.5434V28.6385H79.5434V32.6385ZM75.7866 32.6385H71.7866V36.6385H75.7866V32.6385ZM75.7866 29.1309H79.7866V25.1309H75.7866V29.1309ZM72.0238 29.1309H68.0238V33.1309H72.0238V29.1309ZM72.0238 18.614H76.0238V14.614H72.0238V18.614ZM68.2609 18.614H64.2609V22.614H68.2609V18.614ZM68.2609 15.1124L64.2609 15.0987V15.1124H68.2609ZM68.2728 11.6048L72.2728 11.6184L72.2865 7.60475H68.2728V11.6048ZM56.9664 11.6048L52.9664 11.5979L52.9596 15.6048H56.9664V11.6048ZM56.9724 8.10309L60.9724 8.1099L60.9792 4.10309H56.9724V8.10309ZM34.3537 8.10309V4.10309H30.3537V8.10309H34.3537ZM34.3537 11.6048V15.6048H38.3537V11.6048H34.3537ZM30.567 11.6048V7.60475H26.567V11.6048H30.567ZM30.567 15.1124V19.1124H34.567V15.1124H30.567ZM26.8161 15.1124V11.1124H22.8161V15.1124H26.8161ZM26.8161 18.614V22.614H30.8161V18.614H26.8161ZM23.0532 18.614V14.614H19.0532V18.614H23.0532ZM23.0532 29.125V33.125H27.0532V29.125H23.0532ZM19.2904 29.125V25.125H15.2904V29.125H19.2904ZM83.5434 60.6697V32.6385H75.5434V60.6697H83.5434ZM79.5434 28.6385H75.7866V36.6385H79.5434V28.6385ZM79.7866 32.6385V29.1309H71.7866V32.6385H79.7866ZM75.7866 25.1309H72.0238V33.1309H75.7866V25.1309ZM76.0238 29.1309V18.614H68.0238V29.1309H76.0238ZM72.0238 14.614H68.2609V22.614H72.0238V14.614ZM72.2609 18.614V15.1124H64.2609V18.614H72.2609ZM72.2609 15.126L72.2728 11.6184L64.2729 11.5911L64.2609 15.0987L72.2609 15.126ZM68.2728 7.60475H60.7352V15.6048H68.2728V7.60475ZM60.7352 7.60475H56.9664V15.6048H60.7352V7.60475ZM60.9664 11.6116L60.9724 8.1099L52.9724 8.09628L52.9664 11.5979L60.9664 11.6116ZM56.9724 4.10309H34.3537V12.1031H56.9724V4.10309ZM30.3537 8.10309V11.6048H38.3537V8.10309H30.3537ZM34.3537 7.60475H30.567V15.6048H34.3537V7.60475ZM26.567 11.6048V15.1124H34.567V11.6048H26.567ZM30.567 11.1124H26.8161V19.1124H30.567V11.1124ZM22.8161 15.1124V18.614H30.8161V15.1124H22.8161ZM26.8161 14.614H23.0532V22.614H26.8161V14.614ZM19.0532 18.614V29.125H27.0532V18.614H19.0532ZM23.0532 25.125H19.2904V33.125H23.0532V25.125ZM15.2904 29.125V60.6697H23.2904V29.125H15.2904Z" fill="white" mask="url(#path-4-outside-1_0_183051)"/>
<path d="M39.8852 19.3631V21.1204H34.3536H32.3536V23.1204V32.3864H30.5848H28.5848V34.3864V36.1377H26.7981H24.7981V38.1377V41.895V43.895H26.7981H28.5848V49.4037V51.4037H30.5848H32.3536V53.161V55.161H34.3536H36.1164V56.9124V58.9124H38.1164H60.7352H62.7352V56.9124V55.161H64.504H66.504V53.161V51.4037H68.2728H70.2728V49.4037V43.895H72.0356H74.0356V41.895V38.1377V36.1377H72.0356H70.2728V34.3864V32.3864H68.2728H66.504V23.1204V21.1204H64.504H62.7292V19.3631V17.3631H60.7292H41.8852H39.8852V19.3631Z" stroke="white" stroke-width="4"/>
<path d="M30.5789 47.4037H28.5789V49.4037V53.161V55.161H30.5789H34.3477H36.3477V53.161V49.4037V47.4037H34.3477H30.5789Z" stroke="white" stroke-width="4"/>
<path d="M26.8101 32.3864H24.8101V34.3864V38.1437V40.1437H26.8101H30.5789H32.5789V38.1437V34.3864V32.3864H30.5789H26.8101Z" stroke="white" stroke-width="4"/>
<path d="M60.7351 21.1204H58.7351V23.1204V26.8777V28.8777H60.7351H64.5039H66.5039V26.8777V23.1204V21.1204H64.5039H60.7351Z" stroke="white" stroke-width="4"/>
<path d="M56.9723 21.1204H54.9723V23.1204V26.8777V28.8777H56.9723H60.7411H62.7411V26.8777V23.1204V21.1204H60.7411H56.9723Z" stroke="white" stroke-width="4"/>
<path d="M34.3535 24.8658H32.3535V26.8658V30.6231V32.6231H34.3535H45.6599H47.6599V30.6231V26.8658V24.8658H45.6599H34.3535Z" stroke="white" stroke-width="4"/>
<path d="M19.3022 73.9355H21.3022V71.9355V68.1782V66.1782H19.3022H15.5335H13.5335V68.1782V71.9355V73.9355H15.5335H19.3022Z" stroke="white" stroke-width="4"/>
<path d="M15.5334 77.687H17.5334V75.687V71.9296V69.9296H15.5334H11.7647H9.76466V71.9296V75.687V77.687H11.7647H15.5334Z" stroke="white" stroke-width="4"/>
<path d="M15.5334 92.6984H17.5334V90.6984V75.6929L17.5334 73.6929H15.5334H11.7647H9.76466V75.6929L9.76466 90.6984V92.6984H11.7647H15.5334Z" stroke="white" stroke-width="4"/>
<path d="M15.5334 103.994H17.5334V101.994V86.9886L17.5334 84.9886H15.5334H11.7647H9.76466V86.9886L9.76466 101.994V103.994H11.7647H15.5334Z" stroke="white" stroke-width="4"/>
<path d="M87.1108 92.6984H89.1108V90.6984V75.6929V73.6929H87.1108H83.342H81.342V75.6929V90.6984V92.6984H83.342H87.1108Z" stroke="white" stroke-width="4"/>
<path d="M87.1108 103.994H89.1108V101.994V86.9886V84.9886H87.1108H83.342H81.342V86.9886V101.994V103.994H83.342H87.1108Z" stroke="white" stroke-width="4"/>
<path d="M79.5673 66.1783H77.5673V68.1783V71.9356V73.9356H79.5673H83.336H85.336V71.9356V68.1783V66.1783H83.336H79.5673Z" stroke="white" stroke-width="4"/>
<path d="M83.3361 69.9355H81.3361V71.9355V75.6929V77.6929H83.3361H87.1049H89.1049V75.6929V71.9355V69.9355H87.1049H83.3361Z" stroke="white" stroke-width="4"/>
<path d="M23.0413 36.1378H21.0413V38.1378V41.8951V43.8951H23.0413H26.8101H28.8101V41.8951V38.1378V36.1378H26.8101H23.0413Z" stroke="white" stroke-width="4"/>
<path d="M34.3417 51.161H32.3417V53.161V56.9183V58.9183H34.3417H38.1105H40.1105V56.9183V53.161V51.161H38.1105H34.3417Z" stroke="white" stroke-width="4"/>
<path d="M41.8972 58.6697H39.8972V60.6697V64.427V66.427H41.8972H45.666H47.666V64.427V60.6697V58.6697H45.666H41.8972Z" stroke="white" stroke-width="4"/>
<path d="M41.8972 62.427H39.8972V64.427V68.1843V70.1843H41.8972H45.666H47.666V68.1843V64.427V62.427H45.666H41.8972Z" stroke="white" stroke-width="4"/>
<path d="M53.1976 62.427H51.1976V64.427V68.1843V70.1843H53.1976H56.9664H58.9664V68.1843V64.427V62.427H56.9664H53.1976Z" stroke="white" stroke-width="4"/>
<path d="M45.66 58.6697H43.66V60.6697V68.1724V70.1724H45.66H53.1857H55.1857V68.1724V60.6697V58.6697H53.1857H45.66Z" stroke="white" stroke-width="4"/>
<path d="M53.1976 58.6697H51.1976V60.6697V64.427V66.427H53.1976H56.9664H58.9664V64.427V60.6697V58.6697H56.9664H53.1976Z" stroke="white" stroke-width="4"/>
<path d="M68.2727 55.161H70.2727V53.161V49.4037V47.4037H68.2727H64.5039H62.5039V49.4037V53.161V55.161H64.5039H68.2727Z" stroke="white" stroke-width="4"/>
<path d="M64.504 58.9123H66.504V56.9123V53.155V51.155H64.504H60.7352H58.7352V53.155V56.9123V58.9123H60.7352H64.504Z" stroke="white" stroke-width="4"/>
<path d="M38.1105 54.9123H36.1105V56.9123V60.6696V62.6696H38.1105H60.7292H62.7292V60.6696V56.9123V54.9123H60.7292H38.1105Z" stroke="white" stroke-width="4"/>
<path d="M30.5789 28.6291H28.5789V30.6291V34.3864V36.3864H30.5789H34.3477H36.3477V34.3864V30.6291V28.6291H34.3477H30.5789Z" stroke="white" stroke-width="4"/>
<path d="M26.8101 39.895H24.8101V41.895V49.4037V51.4037H26.8101H30.5789H32.5789V49.4037V41.895V39.895H30.5789H26.8101Z" stroke="white" stroke-width="4"/>
<path d="M72.0356 40.1378H74.0356V38.1378V34.3805V32.3805H72.0356H68.2668H66.2668V34.3805V38.1378V40.1378H68.2668H72.0356Z" stroke="white" stroke-width="4"/>
<path d="M75.8044 43.895H77.8044V41.895V38.1377V36.1377H75.8044H72.0356H70.0356V38.1377V41.895V43.895H72.0356H75.8044Z" stroke="white" stroke-width="4"/>
<path d="M68.2727 36.3804H70.2727V34.3804V26.8718V24.8718H68.2727H64.5039H62.5039V26.8718V34.3804V36.3804H64.5039H68.2727Z" stroke="white" stroke-width="4"/>
<path d="M72.0356 51.4037H74.0356V49.4037V41.895V39.895H72.0356H68.2668H66.2668V41.895V49.4037V51.4037H68.2668H72.0356Z" stroke="white" stroke-width="4"/>
<path d="M68.2727 13.6118H66.2727V15.6118V19.3691V21.3691H68.2727H72.0415H74.0415V19.3691V15.6118V13.6118H72.0415H68.2727Z" stroke="white" stroke-width="4"/>
<path d="M68.2727 9.85437H66.2727V11.8544V15.6117V17.6117H68.2727H72.0415H74.0415V15.6117V11.8544V9.85437H72.0415H68.2727Z" stroke="white" stroke-width="4"/>
<path d="M72.0356 17.3631H70.0356V19.3631V30.6291V32.6291H72.0356H75.8044H77.8044V30.6291V19.3631V17.3631H75.8044H72.0356Z" stroke="white" stroke-width="4"/>
<path d="M56.9664 6.10309H54.9664V8.10309V11.8604V13.8604H56.9664H68.2609H70.2609V11.8604V8.10309V6.10309H68.2609H56.9664Z" stroke="white" stroke-width="4"/>
<path d="M30.5789 6.10309H28.5789V8.10309V11.8604V13.8604H30.5789H34.3477H36.3477V11.8604V8.10309V6.10309H34.3477H30.5789Z" stroke="white" stroke-width="4"/>
<path d="M26.8101 9.85437H24.8101V11.8544V15.6117V17.6117H26.8101H30.5789H32.5789V15.6117V11.8544V9.85437H30.5789H26.8101Z" stroke="white" stroke-width="4"/>
<path d="M23.0651 13.6118H21.0651V15.6118V19.3691V21.3691H23.0651H26.8339H28.8339V19.3691V15.6118V13.6118H26.8339H23.0651Z" stroke="white" stroke-width="4"/>
<path d="M15.5334 28.6232H13.5334V30.6232V64.4211V66.4211H15.5334H19.3022H21.3022V64.4211V30.6232V28.6232H19.3022H15.5334Z" stroke="white" stroke-width="4"/>
<path d="M75.8044 24.8776H73.8044V26.8776V60.6696V62.6696H75.8044H79.5732H81.5732V60.6696V26.8776V24.8776H79.5732H75.8044Z" stroke="white" stroke-width="4"/>
<path d="M19.2963 17.3631H17.2963V19.3631V30.6231V32.6231H19.2963H23.0651H25.0651V30.6231V19.3631V17.3631H23.0651H19.2963Z" stroke="white" stroke-width="4"/>
<path d="M34.3655 2.34576H32.3655V4.34576V8.10307V10.1031H34.3655H56.9544H58.9544V8.10307V4.34576V2.34576H56.9544H34.3655Z" stroke="white" stroke-width="4"/>
<mask id="path-47-outside-2_0_183051" maskUnits="userSpaceOnUse" x="30.3417" y="15.1253" width="35" height="16" fill="black">
<rect fill="white" x="30.3417" y="15.1253" width="35" height="16"/>
<path d="M34.3417 23.1204V26.8658H45.66V23.1204H49.4288V26.8658H56.9545V23.1204H60.7352V19.1253H40.4719"/>
</mask>
<path d="M34.3417 26.8658H30.3417V30.8658H34.3417V26.8658ZM45.66 26.8658V30.8658H49.66V26.8658H45.66ZM45.66 23.1204V19.1204H41.66V23.1204H45.66ZM49.4288 23.1204H53.4288V19.1204H49.4288V23.1204ZM49.4288 26.8658H45.4288V30.8658H49.4288V26.8658ZM56.9545 26.8658V30.8658H60.9545V26.8658H56.9545ZM56.9545 23.1204V19.1204H52.9545V23.1204H56.9545ZM60.7352 23.1204V27.1204H64.7352V23.1204H60.7352ZM60.7352 19.1253H64.7352V15.1253H60.7352V19.1253ZM30.3417 23.1204V26.8658H38.3417V23.1204H30.3417ZM34.3417 30.8658H45.66V22.8658H34.3417V30.8658ZM49.66 26.8658V23.1204H41.66V26.8658H49.66ZM45.66 27.1204H49.4288V19.1204H45.66V27.1204ZM45.4288 23.1204V26.8658H53.4288V23.1204H45.4288ZM49.4288 30.8658H56.9545V22.8658H49.4288V30.8658ZM60.9545 26.8658V23.1204H52.9545V26.8658H60.9545ZM56.9545 27.1204H60.7352V19.1204H56.9545V27.1204ZM64.7352 23.1204V19.1253H56.7352V23.1204H64.7352ZM60.7352 15.1253H40.4719V23.1253H60.7352V15.1253Z" fill="white" mask="url(#path-47-outside-2_0_183051)"/>
<path d="M56.9545 62.427H54.9545V64.427V68.1843V70.1843H56.9545H79.5613H81.5613V68.1843V64.427V62.427H79.5613H56.9545Z" stroke="white" stroke-width="4"/>
<path d="M45.66 21.1145H43.66V23.1145V26.8718V28.8718H45.66H56.9545H58.9545V26.8718V23.1145V21.1145H56.9545H45.66Z" stroke="white" stroke-width="4"/>
<path d="M23.0532 66.427H25.0532V64.427V56.9183V54.9183H23.0532H19.2844H17.2844V56.9183V64.427V66.427H19.2844H23.0532Z" stroke="white" stroke-width="4"/>
<path d="M41.8853 70.1724H43.8853V68.1724V64.4151V62.4151H41.8853H38.1165H36.1165V64.4151V68.1724V70.1724H38.1165H41.8853Z" stroke="white" stroke-width="4"/>
<path d="M38.2595 81.4324H40.2595V79.4324V60.6696V58.6696H38.2595H23.0531H21.0531V60.6696L21.0531 79.4324V81.4324H23.0531H38.2595Z" stroke="white" stroke-width="4"/>
<path d="M34.3477 85.2016H36.3477V83.2016V79.4443V77.4443H34.3477H26.8041H24.8041V79.4443V83.2016V85.2016H26.8041H34.3477Z" stroke="white" stroke-width="4"/>
<path d="M41.8972 62.427H39.8972V64.427V68.1843V70.1843H41.8972H45.666H47.666V68.1843V64.427V62.427H45.666H41.8972Z" stroke="white" stroke-width="4"/>
<path d="M45.6541 66.1843H43.6541V68.1843V71.9416V73.9416H45.6541H53.2036H55.2036V71.9416V68.1843V66.1843H53.2036H45.6541Z" stroke="white" stroke-width="4"/>
<path d="M53.1976 62.427H51.1976V64.427V68.1843V70.1843H53.1976H56.9664H58.9664V68.1843V64.427V62.427H56.9664H53.1976Z" stroke="white" stroke-width="4"/>
<path d="M38.1165 58.6697H36.1165V60.6697V79.4324V81.4324H38.1165H41.8853H43.8853V79.4324V60.6697V58.6697H41.8853H38.1165Z" stroke="white" stroke-width="4"/>
<path d="M38.1045 88.947H40.1045V86.947V83.1897V81.1897H38.1045H30.5729H28.5729V83.1897V86.947V88.947H30.5729H38.1045Z" stroke="white" stroke-width="4"/>
<path d="M26.8101 81.4324H28.8101V79.4324V75.6751V73.6751H26.8101H23.0413H21.0413V75.6751V79.4324V81.4324H23.0413H26.8101Z" stroke="white" stroke-width="4"/>
<path d="M38.1105 85.2016H40.1105V83.2016V79.4443V77.4443H38.1105H34.3417H32.3417V79.4443V83.2016V85.2016H34.3417H38.1105Z" stroke="white" stroke-width="4"/>
<path d="M34.3417 85.2016H36.3417V83.2016V79.4443V77.4443H34.3417H30.5729H28.5729V79.4443V83.2016V85.2016H30.5729H34.3417Z" stroke="white" stroke-width="4"/>
<path d="M38.1105 92.7043H40.1105V90.7043V79.4383V77.4383H38.1105H34.3417H32.3417V79.4383V90.7043V92.7043H34.3417H38.1105Z" stroke="white" stroke-width="4"/>
<path d="M75.8044 66.421H77.8044V64.421V60.6697V58.6697H75.8044H56.9664H54.9664V60.6697V64.421V66.421H56.9664H75.8044Z" stroke="white" stroke-width="4"/>
<path d="M72.0356 58.6637H70.0356V60.6637V64.421V66.421H72.0356H75.8044H77.8044V64.421V60.6637V58.6637H75.8044H72.0356Z" stroke="white" stroke-width="4"/>
<path d="M19.2843 58.6697H17.2843V60.6697V75.6989V77.6989H19.2843H23.0531H25.0531V75.6989V60.6697V58.6697H23.0531H19.2843Z" stroke="white" stroke-width="4"/>
<path d="M68.2727 28.6232H66.2727V30.6232V34.3805V36.3805H68.2727H72.0415H74.0415V34.3805V30.6232V28.6232H72.0415H68.2727Z" stroke="white" stroke-width="4"/>
<path d="M75.8043 21.1145H73.8043V23.1145V26.8718V28.8718H75.8043H79.5731H81.5731V26.8718V23.1145V21.1145H79.5731H75.8043Z" stroke="white" stroke-width="4"/>
<path d="M72.0355 24.8658H70.0355V26.8658V30.6231V32.6231H72.0355H75.8043H77.8043V30.6231V26.8658V24.8658H75.8043H72.0355Z" stroke="white" stroke-width="4"/>
<path d="M39.9949 32.4755H37.9949V34.4755V38.2328V40.2328H39.9949H43.7637H45.7637V38.2328V34.4755V32.4755H43.7637H39.9949Z" stroke="white" stroke-width="4"/>
<path d="M55.0699 32.4755H53.0699V34.4755V38.2328V40.2328H55.0699H58.8387H60.8387V38.2328V34.4755V32.4755H58.8387H55.0699Z" stroke="white" stroke-width="4"/>
<path d="M47.6099 31.6135H45.6099V33.6135V41.1222V43.1222H47.6099H51.2654H53.2654V41.1222V33.6135V31.6135H51.2654H47.6099Z" stroke="white" stroke-width="4"/>
<path d="M55.0343 40.9116H53.0343V42.9116V47.0554V49.0554H55.0343H58.7614H60.7614V47.0554V42.9116V40.9116H58.7614H55.0343Z" stroke="white" stroke-width="4"/>
<path d="M51.3013 40.9116H49.3013V42.9116V47.0554V49.0554H51.3013H55.0283H57.0283V47.0554V42.9116V40.9116H55.0283H51.3013Z" stroke="white" stroke-width="4"/>
<path d="M47.5742 40.9116H45.5742V42.9116V47.0554V49.0554H47.5742H51.3013H53.3013V47.0554V42.9116V40.9116H51.3013H47.5742Z" stroke="white" stroke-width="4"/>
<path d="M43.8472 40.9116H41.8472V42.9116V47.0554V49.0554H43.8472H47.5742H49.5742V47.0554V42.9116V40.9116H47.5742H43.8472Z" stroke="white" stroke-width="4"/>
<path d="M40.1141 40.9116H38.1141V42.9116V47.0554V49.0554H40.1141H43.8412H45.8412V47.0554V42.9116V40.9116H43.8412H40.1141Z" stroke="white" stroke-width="4"/>
<path d="M51.2118 45.0554H49.2118V47.0554V51.1991V53.1991H51.2118H54.9388H56.9388V51.1991V47.0554V45.0554H54.9388H51.2118Z" stroke="white" stroke-width="4"/>
<path d="M47.4788 45.0554H45.4788V47.0554V51.1991V53.1991H47.4788H51.2058H53.2058V51.1991V47.0554V45.0554H51.2058H47.4788Z" stroke="white" stroke-width="4"/>
<path d="M43.7517 45.0554H41.7517V47.0554V51.1991V53.1991H43.7517H47.4788H49.4788V51.1991V47.0554V45.0554H47.4788H43.7517Z" stroke="white" stroke-width="4"/>
<path d="M68.3883 39.2436V37.2436H66.3883H58.8507H56.8507V39.2436V43.0009V45.0009H58.8507H66.3883H68.3883V43.0009V39.2436Z" stroke="white" stroke-width="4"/>
<path d="M41.9829 39.2435V37.2435H39.9829H32.4453H30.4453V39.2435V43.0008V45.0008H32.4453H39.9829H41.9829V43.0008V39.2435Z" stroke="white" stroke-width="4"/>
<mask id="path-83-outside-3_0_183051" maskUnits="userSpaceOnUse" x="61.1897" y="71.6751" width="19" height="20" fill="black">
<rect fill="white" x="61.1897" y="71.6751" width="19" height="20"/>
<path d="M70.7654 86.84C67.6943 86.84 65.1897 84.3371 65.1897 81.2576C65.1897 78.178 67.6883 75.6751 70.7654 75.6751C72.0654 75.6751 73.3177 76.1269 74.3016 76.9414C74.5521 77.1495 74.719 77.4884 74.719 77.7797C74.719 78.071 74.6117 78.3207 74.4149 78.5228C74.2181 78.719 73.9557 78.832 73.6755 78.832C73.4369 78.832 73.1984 78.7428 73.0016 78.5882C72.3814 78.0829 71.5227 77.7737 70.7654 77.7737C68.8452 77.7737 67.2828 79.3373 67.2828 81.2576C67.2828 83.1778 68.8452 84.7414 70.7654 84.7414C72.5424 84.7414 73.6397 83.4691 73.6397 82.3039H70.825V80.2647H74.7369C75.2796 80.2647 75.7328 80.6749 75.7805 81.2159C75.7984 81.4062 75.8044 81.5548 75.8044 81.6916C75.8044 83.053 75.4346 84.3431 74.4745 85.3062C73.4966 86.2931 72.3278 86.8341 70.7654 86.8341"/>
</mask>
<path d="M74.3016 76.9414L76.8577 73.8647L76.8522 73.8601L74.3016 76.9414ZM74.4149 78.5228L77.239 81.3556L77.2601 81.3345L77.281 81.3131L74.4149 78.5228ZM73.0016 78.5882L70.4749 81.6891L70.5026 81.7117L70.5308 81.7338L73.0016 78.5882ZM73.6397 82.3039H77.6397V78.3039H73.6397V82.3039ZM70.825 82.3039H66.825V86.3039H70.825V82.3039ZM70.825 80.2647V76.2647H66.825V80.2647H70.825ZM75.7805 81.2159L71.796 81.5673L71.797 81.5789L71.7981 81.5904L75.7805 81.2159ZM74.4745 85.3062L71.6417 82.4822L71.6333 82.4906L74.4745 85.3062ZM70.7654 82.84C69.9058 82.84 69.1897 82.1303 69.1897 81.2576H61.1897C61.1897 86.5439 65.4828 90.84 70.7654 90.84V82.84ZM69.1897 81.2576C69.1897 80.382 69.9026 79.6751 70.7654 79.6751V71.6751C65.474 71.6751 61.1897 75.974 61.1897 81.2576H69.1897ZM70.7654 79.6751C71.1411 79.6751 71.4897 79.8065 71.751 80.0227L76.8522 73.8601C75.1456 72.4474 72.9896 71.6751 70.7654 71.6751V79.6751ZM71.7455 80.0181C71.4032 79.7338 71.1731 79.4134 71.0215 79.1081C70.8752 78.8134 70.719 78.3642 70.719 77.7797H78.719C78.719 76.1723 77.9207 74.7478 76.8577 73.8647L71.7455 80.0181ZM70.719 77.7797C70.719 77.4234 70.7869 77.036 70.9456 76.6532C71.1032 76.2728 71.3219 75.9656 71.5488 75.7325L77.281 81.3131C78.1769 80.3928 78.719 79.1527 78.719 77.7797H70.719ZM71.5908 75.6901C72.1157 75.1668 72.8579 74.832 73.6755 74.832V82.832C75.0536 82.832 76.3206 82.2712 77.239 81.3556L71.5908 75.6901ZM73.6755 74.832C74.4264 74.832 75.0417 75.1043 75.4724 75.4426L70.5308 81.7338C71.3551 82.3813 72.4474 82.832 73.6755 82.832V74.832ZM75.5283 75.4873C74.2228 74.4235 72.4792 73.7737 70.7654 73.7737V81.7737C70.6855 81.7737 70.6338 81.7659 70.61 81.7614C70.5852 81.7568 70.5731 81.7525 70.5699 81.7513C70.5665 81.7501 70.5607 81.7479 70.5501 81.742C70.5399 81.7362 70.5137 81.7208 70.4749 81.6891L75.5283 75.4873ZM70.7654 73.7737C66.6342 73.7737 63.2828 77.13 63.2828 81.2576H71.2828C71.2828 81.5446 71.0562 81.7737 70.7654 81.7737V73.7737ZM63.2828 81.2576C63.2828 85.3851 66.6342 88.7414 70.7654 88.7414V80.7414C71.0562 80.7414 71.2828 80.9705 71.2828 81.2576H63.2828ZM70.7654 88.7414C74.4903 88.7414 77.6397 85.9308 77.6397 82.3039H69.6397C69.6397 81.0074 70.5946 80.7414 70.7654 80.7414V88.7414ZM73.6397 78.3039H70.825V86.3039H73.6397V78.3039ZM74.825 82.3039V80.2647H66.825V82.3039H74.825ZM70.825 84.2647H74.7369V76.2647H70.825V84.2647ZM74.7369 84.2647C73.2308 84.2647 71.9325 83.1153 71.796 81.5673L79.765 80.8646C79.5331 78.2346 77.3283 76.2647 74.7369 76.2647V84.2647ZM71.7981 81.5904C71.8017 81.6296 71.8031 81.6529 71.8037 81.6647C71.8042 81.6757 71.8044 81.6833 71.8044 81.6916H79.8044C79.8044 81.4252 79.7921 81.1515 79.7629 80.8414L71.7981 81.5904ZM71.8044 81.6916C71.8044 82.0187 71.759 82.2258 71.72 82.3386C71.6863 82.4357 71.6577 82.4661 71.6417 82.4822L77.3074 88.1302C79.2357 86.1958 79.8044 83.7514 79.8044 81.6916H71.8044ZM71.6333 82.4906C71.4557 82.6698 71.3416 82.7304 71.2773 82.7577C71.2148 82.7842 71.071 82.8341 70.7654 82.8341V90.8341C73.4303 90.8341 75.6119 89.8411 77.3158 88.1217L71.6333 82.4906Z" fill="white" mask="url(#path-83-outside-3_0_183051)"/>
<path d="M70.825 84.3038C72.4904 84.3038 73.8447 82.9623 73.8447 81.2872C73.8447 79.6256 72.498 78.2706 70.825 78.2706C69.1521 78.2706 67.8053 79.6256 67.8053 81.2872C67.8053 82.9487 69.1521 84.3038 70.825 84.3038Z" stroke="white" stroke-width="4"/>
<path d="M83.3599 75.687H15.5634V90.7043H83.3599V75.687Z" fill="#299BBA"/>
<path d="M83.3599 86.9827H15.5634V102H83.3599V86.9827Z" fill="#299BBA"/>
<path d="M83.3241 68.1843H15.5394V75.687H83.3241V68.1843Z" fill="#299BBA"/>
<path d="M79.5434 60.6697V32.6385H75.7866V29.1309H72.0237V18.614H68.2609V15.1124L68.2728 11.6048H60.7352H56.9664L56.9724 8.10309H34.3537V11.6048H30.567V15.1124H26.8161V18.614H23.0532V29.125H19.2904V60.6697" fill="#99755D"/>
<path d="M41.8852 23.1204H34.3536V34.3864H30.5848V38.1377H26.7981V41.895H30.5848V49.4037H34.3536V53.161H38.1164V56.9124H60.7352V53.161H64.504V49.4037H68.2728V41.895H72.0356V38.1377H68.2728V34.3864H64.504V23.1204H60.7292V19.3631H41.8852V23.1204Z" fill="#EDCFB9"/>
<path d="M34.3477 49.4037H30.5789V53.161H34.3477V49.4037Z" fill="#C2A490"/>
<path d="M30.5789 34.3864H26.8101V38.1437H30.5789V34.3864Z" fill="#C2A490"/>
<path d="M64.5039 23.1204H60.7351V26.8777H64.5039V23.1204Z" fill="#EDCFB9"/>
<path d="M60.7411 23.1204H56.9723V26.8777H60.7411V23.1204Z" fill="#C2A490"/>
<path d="M45.6599 26.8658H34.3535V30.6231H45.6599V26.8658Z" fill="#C2A490"/>
<path d="M15.5335 71.9355H19.3022V68.1782H15.5335V71.9355Z" fill="#22829C"/>
<path d="M11.7647 75.687H15.5334V71.9296H11.7647V75.687Z" fill="#22829C"/>
<path d="M11.7647 90.6984H15.5334L15.5334 75.6929H11.7647L11.7647 90.6984Z" fill="#22829C"/>
<path d="M11.7647 101.994H15.5334L15.5334 86.9886H11.7647L11.7647 101.994Z" fill="#22829C"/>
<path d="M83.342 90.6984H87.1108V75.6929H83.342V90.6984Z" fill="#22829C"/>
<path d="M83.342 101.994H87.1108V86.9886H83.342V101.994Z" fill="#22829C"/>
<path d="M83.336 68.1783H79.5673V71.9356H83.336V68.1783Z" fill="#22829C"/>
<path d="M87.1049 71.9355H83.3361V75.6929H87.1049V71.9355Z" fill="#22829C"/>
<path d="M26.8101 38.1378H23.0413V41.8951H26.8101V38.1378Z" fill="#C2A490"/>
<path d="M38.1105 53.161H34.3417V56.9183H38.1105V53.161Z" fill="#C2A490"/>
<path d="M45.666 60.6697H41.8972V64.427H45.666V60.6697Z" fill="#C2A490"/>
<path d="M45.666 64.427H41.8972V68.1843H45.666V64.427Z" fill="#EDCFB9"/>
<path d="M56.9664 64.427H53.1976V68.1843H56.9664V64.427Z" fill="#EDCFB9"/>
<path d="M53.1857 60.6697H45.66V68.1724H53.1857V60.6697Z" fill="#EDCFB9"/>
<path d="M56.9664 60.6697H53.1976V64.427H56.9664V60.6697Z" fill="#C2A490"/>
<path d="M64.5039 53.161H68.2727V49.4037H64.5039V53.161Z" fill="#C2A490"/>
<path d="M60.7352 56.9123H64.504V53.155H60.7352V56.9123Z" fill="#C2A490"/>
<path d="M60.7292 56.9123H38.1105V60.6696H60.7292V56.9123Z" fill="#C2A490"/>
<path d="M34.3477 30.6291H30.5789V34.3864H34.3477V30.6291Z" fill="#C2A490"/>
<path d="M30.5789 41.895H26.8101V49.4037H30.5789V41.895Z" fill="#C2A490"/>
<path d="M68.2668 38.1378H72.0356V34.3805H68.2668V38.1378Z" fill="#C2A490"/>
<path d="M72.0356 41.895H75.8044V38.1377H72.0356V41.895Z" fill="#C2A490"/>
<path d="M64.5039 34.3804H68.2727V26.8718H64.5039V34.3804Z" fill="#C2A490"/>
<path d="M68.2668 49.4037H72.0356V41.895H68.2668V49.4037Z" fill="#C2A490"/>
<path d="M72.0415 15.6118H68.2727V19.3691H72.0415V15.6118Z" fill="#8F6C56"/>
<path d="M72.0415 11.8544H68.2727V15.6117H72.0415V11.8544Z" fill="#8F6C56"/>
<path d="M75.8044 19.3631H72.0356V30.6291H75.8044V19.3631Z" fill="#8F6C56"/>
<path d="M68.2609 8.10309H56.9664V11.8604H68.2609V8.10309Z" fill="#8F6C56"/>
<path d="M34.3477 8.10309H30.5789V11.8604H34.3477V8.10309Z" fill="#8F6C56"/>
<path d="M30.5789 11.8544H26.8101V15.6117H30.5789V11.8544Z" fill="#8F6C56"/>
<path d="M26.8339 15.6118H23.0651V19.3691H26.8339V15.6118Z" fill="#8F6C56"/>
<path d="M19.3022 30.6232H15.5334V64.4211H19.3022V30.6232Z" fill="#8F6C56"/>
<path d="M79.5732 26.8776H75.8044V60.6696H79.5732V26.8776Z" fill="#8F6C56"/>
<path d="M23.0651 19.3631H19.2963V30.6231H23.0651V19.3631Z" fill="#8F6C56"/>
<path d="M56.9544 4.34576H34.3655V8.10307H56.9544V4.34576Z" fill="#8F6C56"/>
<path d="M34.3417 23.1204V26.8658H45.66V23.1204H49.4288V26.8658H56.9545V23.1204H60.7352V19.1253H40.4719" fill="#99755D"/>
<path d="M79.5613 64.427H56.9545V68.1843H79.5613V64.427Z" fill="#22829C"/>
<path d="M56.9545 23.1145H45.66V26.8718H56.9545V23.1145Z" fill="#C2A490"/>
<path d="M19.2844 64.427H23.0532V56.9183H19.2844V64.427Z" fill="#99755D"/>
<path d="M38.1165 68.1724H41.8853V64.4151H38.1165V68.1724Z" fill="#FFE380"/>
<path d="M23.0531 79.4324H38.2595V60.6696H23.0531V79.4324Z" fill="#99755D"/>
<path d="M26.8041 83.2016H34.3477V79.4443H26.8041V83.2016Z" fill="#8F6C56"/>
<path d="M45.666 64.427H41.8972V68.1843H45.666V64.427Z" fill="#C2A490"/>
<path d="M53.2036 68.1843H45.6541V71.9416H53.2036V68.1843Z" fill="#C2A490"/>
<path d="M56.9664 64.427H53.1976V68.1843H56.9664V64.427Z" fill="#C2A490"/>
<path d="M41.8853 60.6697H38.1165V79.4324H41.8853V60.6697Z" fill="#8F6C56"/>
<path d="M30.5729 86.947H38.1045V83.1897H30.5729V86.947Z" fill="#8F6C56"/>
<path d="M23.0413 79.4324H26.8101V75.6751H23.0413V79.4324Z" fill="#8F6C56"/>
<path d="M34.3417 83.2016H38.1105V79.4443H34.3417V83.2016Z" fill="#99755D"/>
<path d="M30.5729 83.2016H34.3417V79.4443H30.5729V83.2016Z" fill="#99755D"/>
<path d="M34.3417 90.7043H38.1105V79.4383H34.3417V90.7043Z" fill="#8F6C56"/>
<path d="M56.9664 64.421H75.8044V60.6697H56.9664V64.421Z" fill="#99755D"/>
<path d="M75.8044 60.6637H72.0356V64.421H75.8044V60.6637Z" fill="#8F6C56"/>
<path d="M23.0531 60.6697H19.2843V75.6989H23.0531V60.6697Z" fill="#8F6C56"/>
<path d="M72.0415 30.6232H68.2727V34.3805H72.0415V30.6232Z" fill="white"/>
<path d="M79.5731 23.1145H75.8043V26.8718H79.5731V23.1145Z" fill="white"/>
<path d="M75.8043 26.8658H72.0355V30.6231H75.8043V26.8658Z" fill="white"/>
<path d="M43.7637 34.4755H39.9949V38.2328H43.7637V34.4755Z" fill="#383532"/>
<path d="M58.8387 34.4755H55.0699V38.2328H58.8387V34.4755Z" fill="#383532"/>
<path d="M51.2654 33.6135H47.6099V41.1222H51.2654V33.6135Z" fill="#C2A490"/>
<path d="M58.7614 42.9116H55.0343V47.0554H58.7614V42.9116Z" fill="#C30045"/>
<path d="M55.0283 42.9116H51.3013V47.0554H55.0283V42.9116Z" fill="#C30045"/>
<path d="M51.3013 42.9116H47.5742V47.0554H51.3013V42.9116Z" fill="#C30045"/>
<path d="M47.5742 42.9116H43.8472V47.0554H47.5742V42.9116Z" fill="#C30045"/>
<path d="M43.8412 42.9116H40.1141V47.0554H43.8412V42.9116Z" fill="#C30045"/>
<path d="M54.9388 47.0554H51.2118V51.1991H54.9388V47.0554Z" fill="#C30045"/>
<path d="M51.2058 47.0554H47.4788V51.1991H51.2058V47.0554Z" fill="#C30045"/>
<path d="M47.4788 47.0554H43.7517V51.1991H47.4788V47.0554Z" fill="#C30045"/>
<path d="M66.3883 43.0009V39.2436H58.8507V43.0009H66.3883Z" fill="#FF92A0"/>
<path d="M39.9829 43.0008V39.2435H32.4453V43.0008H39.9829Z" fill="#FF92A0"/>
<path d="M70.7654 86.84C67.6943 86.84 65.1897 84.3371 65.1897 81.2576C65.1897 78.178 67.6883 75.6751 70.7654 75.6751C72.0654 75.6751 73.3177 76.1269 74.3016 76.9414C74.5521 77.1495 74.719 77.4884 74.719 77.7797C74.719 78.071 74.6117 78.3207 74.4149 78.5228C74.2181 78.719 73.9557 78.832 73.6755 78.832C73.4369 78.832 73.1984 78.7428 73.0016 78.5882C72.3814 78.0829 71.5227 77.7737 70.7654 77.7737C68.8452 77.7737 67.2828 79.3373 67.2828 81.2576C67.2828 83.1778 68.8452 84.7414 70.7654 84.7414C72.5424 84.7414 73.6397 83.4691 73.6397 82.3039H70.825V80.2647H74.7369C75.2796 80.2647 75.7328 80.6749 75.7805 81.2159C75.7984 81.4062 75.8044 81.5548 75.8044 81.6916C75.8044 83.053 75.4346 84.3431 74.4745 85.3062C73.4966 86.2931 72.3278 86.8341 70.7654 86.8341" fill="white"/>
<path d="M71.8447 81.2872C71.8447 81.852 71.3915 82.3038 70.825 82.3038C70.2585 82.3038 69.8053 81.846 69.8053 81.2872C69.8053 80.7283 70.2585 80.2706 70.825 80.2706C71.3915 80.2706 71.8447 80.7283 71.8447 81.2872Z" fill="#00C01E"/>
</svg>
