<svg width="100" height="104" viewBox="0 0 100 104" fill="none" xmlns="http://www.w3.org/2000/svg">
<path d="M21.3345 35.8755V37.8755H23.3345H27.1167H29.1167V35.8755V32.0932V30.0932H27.1167H23.3345H21.3345V32.0932V35.8755Z" stroke="white" stroke-width="4"/>
<path d="M70.4796 35.8755V37.8755H72.4796H76.2618H78.2618V35.8755V32.0932V30.0932H76.2618H72.4796H70.4796V32.0932V35.8755Z" stroke="white" stroke-width="4"/>
<path d="M28.8868 20.7525V22.7525H30.8868H34.6691H36.6691V20.7525V16.9703V14.9703H34.6691H30.8868H28.8868V16.9703V20.7525Z" stroke="white" stroke-width="4"/>
<path d="M32.6691 16.9702V18.9702H34.6691H38.4513H40.4513V16.9702V13.188V11.188H38.4513H34.6691H32.6691V13.188V16.9702Z" stroke="white" stroke-width="4"/>
<path d="M25.1106 32.0992V34.0992H27.1106H30.8928H32.8928V32.0992V20.7585V18.7585H30.8928H27.1106H25.1106V20.7585V32.0992Z" stroke="white" stroke-width="4"/>
<path d="M32.681 13.206V15.206H34.681H38.4633H40.4633V13.206V9.42376V7.42376H38.4633L34.681 7.42376H32.681V9.42376V13.206Z" stroke="white" stroke-width="4"/>
<path d="M25.1106 20.7585V22.7585H27.1106H30.8928H32.8928V20.7585V16.9762V14.9762H30.8928H27.1106H25.1106V16.9762V20.7585Z" stroke="white" stroke-width="4"/>
<path d="M28.8868 16.9702V18.9702H30.8868H34.6691H36.6691V16.9702V13.188V11.188H34.6691H30.8868H28.8868V13.188V16.9702Z" stroke="white" stroke-width="4"/>
<path d="M70.7034 16.9763V14.9763H68.7034H64.9211H62.9211V16.9763V20.7585V22.7585H64.9211H68.7034H70.7034V20.7585V16.9763Z" stroke="white" stroke-width="4"/>
<path d="M66.9271 13.194V11.194H64.9271H61.1449H59.1449V13.194V16.9763V18.9763H61.1449H64.9271H66.9271V16.9763V13.194Z" stroke="white" stroke-width="4"/>
<path d="M74.4856 20.7525V18.7525H72.4856H68.7034H66.7034V20.7525V32.0932V34.0932H68.7034H72.4856H74.4856V32.0932V20.7525Z" stroke="white" stroke-width="4"/>
<path d="M66.9151 9.42377V7.42377H64.9151H61.1328H59.1328V9.42377V13.206V15.206H61.1328H64.9151H66.9151V13.206V9.42377Z" stroke="white" stroke-width="4"/>
<path d="M74.4856 16.9822V14.9822H72.4856H68.7034H66.7034V16.9822V20.7644V22.7644H68.7034H72.4856H74.4856V20.7644V16.9822Z" stroke="white" stroke-width="4"/>
<path d="M70.7034 13.194V11.194H68.7034H64.9211H62.9211V13.194V16.9763V18.9763H64.9211H68.7034H70.7034V16.9763V13.194Z" stroke="white" stroke-width="4"/>
<path d="M34.6751 14.9822H32.6751V16.9822V30.0992H30.8928H28.8928V32.0992V33.8814H27.0927H25.0927V35.8814V39.6577V41.6577H27.0927H28.8928V47.2162V49.2162H30.8928H32.6751V50.9984V52.9984H34.6751H36.4513V54.7806V56.7806H38.4513H61.1508H63.1508V54.7806V52.9984H64.933H66.933V50.9984V49.2162H68.7153H70.7153V47.2162V41.6577H72.4915H74.4915V39.6577V35.8814V33.8814H72.4915H70.7153V32.0992V30.0992H68.7153H66.933V16.9822V14.9822H64.933H34.6751Z" stroke="white" stroke-width="4"/>
<path d="M36.6691 47.2162V45.2162H34.6691H30.8868H28.8868V47.2162V50.9985V52.9985H30.8868H34.6691H36.6691V50.9985V47.2162Z" stroke="white" stroke-width="4"/>
<path d="M32.8869 32.0992V30.0992H30.8869H27.1046H25.1046V32.0992V35.8815V37.8815H27.1046H30.8869H32.8869V35.8815V32.0992Z" stroke="white" stroke-width="4"/>
<path d="M29.1046 35.8815V33.8815H27.1046H23.3224H21.3224V35.8815V39.6637V41.6637H23.3224H27.1046H29.1046V39.6637V35.8815Z" stroke="white" stroke-width="4"/>
<path d="M40.4453 50.9985V48.9985H38.4453H34.6631H32.6631V50.9985V54.7807V56.7807H34.6631H38.4453H40.4453V54.7807V50.9985Z" stroke="white" stroke-width="4"/>
<path d="M62.9331 50.9985V52.9985H64.9331H68.7153H70.7153V50.9985V47.2162V45.2162H68.7153H64.9331H62.9331V47.2162V50.9985Z" stroke="white" stroke-width="4"/>
<path d="M59.1509 54.7747V56.7747H61.1509H64.9331H66.9331V54.7747V50.9925V48.9925H64.9331H61.1509H59.1509V50.9925V54.7747Z" stroke="white" stroke-width="4"/>
<path d="M48.0279 54.7807V52.7807H46.0279H38.4454H36.4454V54.7807V58.5629V60.5629H38.4454H46.0279H48.0279V58.5629V54.7807Z" stroke="white" stroke-width="4"/>
<path d="M63.1568 54.7807V52.7807H61.1568H53.5743H51.5743V54.7807V58.5629V60.5629H53.5743H61.1568H63.1568V58.5629V54.7807Z" stroke="white" stroke-width="4"/>
<path d="M36.6691 20.7585V18.7585H34.6691H30.8868H28.8868V20.7585V32.0992V34.0992H30.8868H34.6691H36.6691V32.0992V20.7585Z" stroke="white" stroke-width="4"/>
<path d="M40.4453 16.9763V14.9763H38.4453H34.6631H32.6631V16.9763V20.7585V22.7585H34.6631H38.4453H40.4453V20.7585V16.9763Z" stroke="white" stroke-width="4"/>
<path d="M66.933 16.9763V14.9763H64.933H61.1508H59.1508V16.9763V20.7585V22.7585H61.1508H64.933H66.933V20.7585V16.9763Z" stroke="white" stroke-width="4"/>
<path d="M63.1389 13.194V11.194H61.1389H38.4813H36.4813V13.194V16.9763V18.9763H38.4813H61.1389H63.1389V16.9763V13.194Z" stroke="white" stroke-width="4"/>
<path d="M32.8869 39.6577V37.6577H30.8869H27.1046H25.1046V39.6577V47.2162V49.2162H27.1046H30.8869H32.8869V47.2162V39.6577Z" stroke="white" stroke-width="4"/>
<path d="M66.7092 35.8755V37.8755H68.7092H72.4915H74.4915V35.8755V32.0932V30.0932H72.4915H68.7092H66.7092V32.0932V35.8755Z" stroke="white" stroke-width="4"/>
<path d="M70.4916 39.6577V41.6577H72.4916H76.2738H78.2738V39.6577V35.8755V33.8755H76.2738H72.4916H70.4916V35.8755V39.6577Z" stroke="white" stroke-width="4"/>
<path d="M62.9331 32.0992V34.0992H64.9331H68.7153H70.7153V32.0992V20.7584V18.7584H68.7153H64.9331H62.9331V20.7584V32.0992Z" stroke="white" stroke-width="4"/>
<path d="M66.7092 47.2161V49.2161H68.7092H72.4915H74.4915V47.2161V39.6576V37.6576H72.4915H68.7092H66.7092V39.6576V47.2161Z" stroke="white" stroke-width="4"/>
<path d="M55.5803 54.7807V52.7807H53.5803H46.0219H44.0219V54.7807V58.5629V60.5629H46.0219H53.5803H55.5803V58.5629V54.7807Z" stroke="white" stroke-width="4"/>
<path d="M63.1389 54.7807V52.7807H61.1389H45.9919H43.9919V54.7807V58.5629V60.5629H45.9919H61.1389H63.1389V58.5629V54.7807Z" stroke="white" stroke-width="4"/>
<path d="M36.4813 13.194V15.194L38.4813 15.194L57.3685 15.194H59.3685V13.194V9.41179V7.41179H57.3685L38.4813 7.41179H36.4813V9.41179V13.194Z" stroke="white" stroke-width="4"/>
<path d="M32.7109 13.194V15.194H34.7109H38.4932H40.4932V13.194V9.41179V7.41179H38.4932L34.7109 7.41179H32.7109V9.41179V13.194Z" stroke="white" stroke-width="4"/>
<path d="M59.1449 13.194V15.194H61.1449H64.9271H66.9271V13.194V9.41179V7.41179H64.9271L61.1449 7.41179H59.1449V9.41179V13.194Z" stroke="white" stroke-width="4"/>
<path d="M49.1028 13.194V15.194H51.1028L61.3364 15.194H63.3364V13.194V9.41179V7.41179H61.3364L51.1028 7.41179L49.1028 7.41179V9.41179V13.194Z" stroke="white" stroke-width="4"/>
<path d="M46.011 32.0992V30.0992H44.011H40.2288H38.2288V32.0992V35.8815V37.8815H40.2288H44.011H46.011V35.8815V32.0992Z" stroke="white" stroke-width="4"/>
<path d="M61.1459 32.0992V30.0992H59.1459H55.3636H53.3636V32.0992V35.8815V37.8815H55.3636H59.1459H61.1459V35.8815V32.0992Z" stroke="white" stroke-width="4"/>
<path d="M53.5395 32.1651V30.1651H51.5395H47.871H45.871V32.1651V39.7236V41.7236H47.871H51.5395H53.5395V39.7236V32.1651Z" stroke="white" stroke-width="4"/>
<path d="M61.0563 41.5249V39.5249H59.0563H55.3159H53.3159V41.5249V45.6961V47.6961H55.3159H59.0563H61.0563V45.6961V41.5249Z" stroke="white" stroke-width="4"/>
<path d="M57.3159 41.5249V39.5249H55.3159H51.5756H49.5756V41.5249V45.6961V47.6961H51.5756H55.3159H57.3159V45.6961V41.5249Z" stroke="white" stroke-width="4"/>
<path d="M53.5696 41.5249V39.5249H51.5696H47.8292H45.8292V41.5249V45.6961V47.6961H47.8292H51.5696H53.5696V45.6961V41.5249Z" stroke="white" stroke-width="4"/>
<path d="M49.8292 41.5249V39.5249H47.8292H44.0889H42.0889V41.5249V45.6961V47.6961H44.0889H47.8292H49.8292V45.6961V41.5249Z" stroke="white" stroke-width="4"/>
<path d="M46.0889 41.5249V39.5249H44.0889H40.3485H38.3485V41.5249V45.6961V47.6961H40.3485H44.0889H46.0889V45.6961V41.5249Z" stroke="white" stroke-width="4"/>
<path d="M57.2201 45.6962V43.6962H55.2201H51.4797H49.4797V45.6962V49.8674V51.8674H51.4797H55.2201H57.2201V49.8674V45.6962Z" stroke="white" stroke-width="4"/>
<path d="M53.4799 45.6962V43.6962H51.4799H47.7395H45.7395V45.6962V49.8674V51.8674H47.7395H51.4799H53.4799V49.8674V45.6962Z" stroke="white" stroke-width="4"/>
<path d="M49.7335 45.6962V43.6962H47.7335H43.9932H41.9932V45.6962V49.8674V51.8674H43.9932H47.7335H49.7335V49.8674V45.6962Z" stroke="white" stroke-width="4"/>
<path d="M66.7344 42.8607H68.7344V40.8607V37.0784V35.0784H66.7344H59.1699H57.1699V37.0784V40.8607V42.8607H59.1699H66.7344Z" stroke="white" stroke-width="4"/>
<path d="M40.2347 42.8607H42.2347V40.8607V37.0784V35.0784H40.2347H32.6703H30.6703V37.0784V40.8607V42.8607H32.6703H40.2347Z" stroke="white" stroke-width="4"/>
<path d="M10.0116 69.9036V71.9036H12.0116H15.7938H17.7938V69.9036V66.1214V64.1214H15.7938H12.0116H10.0116V66.1214V69.9036Z" stroke="white" stroke-width="4"/>
<path d="M10.0116 69.3052V71.3052H12.0116H15.7938H17.7938V69.3052V65.5229V63.5229H15.7938H12.0116H10.0116V65.5229V69.3052Z" stroke="white" stroke-width="4"/>
<path d="M28.8809 62.3392V64.3392H30.8809H42.2456H44.2456V62.3392V58.5569V56.5569H42.2456H30.8809H28.8809V58.5569V62.3392Z" stroke="white" stroke-width="4"/>
<path d="M28.8809 58.557V60.557H30.8809H38.4933H40.4933V58.557V54.7748V52.7748H38.4933H30.8809H28.8809V54.7748V58.557Z" stroke="white" stroke-width="4"/>
<path d="M55.3685 62.3392V64.3392H57.3685H77.0817H79.0817V62.3392V58.5569V56.5569H77.0817H57.3685H55.3685V58.5569V62.3392Z" stroke="white" stroke-width="4"/>
<path d="M59.1509 58.551V60.551H61.1509H76.3756H78.3756V58.551V54.7687V52.7687H76.3756H61.1509H59.1509V54.7687V58.551Z" stroke="white" stroke-width="4"/>
<path d="M25.1286 58.557V60.557H27.1286H30.9109H32.9109V58.557V54.7748V52.7748H30.9109H27.1286H25.1286V54.7748V58.557Z" stroke="white" stroke-width="4"/>
<path d="M74.2798 62.3392V64.3392H76.2798H80.062H82.062V62.3392V58.5569V56.5569H80.062H76.2798H74.2798V58.5569V62.3392Z" stroke="white" stroke-width="4"/>
<path d="M74.2798 58.557V60.557H76.2798H80.062H82.062V58.557V54.7748V52.7748H80.062H76.2798H74.2798V54.7748V58.557Z" stroke="white" stroke-width="4"/>
<path d="M28.8808 54.7747V56.7747H30.8808H34.6631H36.6631V54.7747V50.9925V48.9925H34.6631H30.8808H28.8808V50.9925V54.7747Z" stroke="white" stroke-width="4"/>
<path d="M62.9211 54.7747V56.7747H64.9211H68.7034H70.7034V54.7747V50.9925V48.9925H68.7034H64.9211H62.9211V50.9925V54.7747Z" stroke="white" stroke-width="4"/>
<path d="M66.6973 54.7747V56.7747H68.6973H72.4795H74.4795V54.7747V50.9925V48.9925H72.4795H68.6973H66.6973V50.9925V54.7747Z" stroke="white" stroke-width="4"/>
<path d="M70.4796 54.7747V56.7747H72.4796H76.2618H78.2618V54.7747V50.9925V48.9925H76.2618H72.4796H70.4796V50.9925V54.7747Z" stroke="white" stroke-width="4"/>
<path d="M6.23534 88.7969V90.7969H8.23534H12.0176H14.0176V88.7969L14.0176 69.8977L14.0176 67.8977H12.0176H8.23534H6.23534V69.8977L6.23534 88.7969Z" stroke="white" stroke-width="4"/>
<path d="M6.23534 99.994V101.994H8.23534H12.0176H14.0176V99.994L14.0176 81.0948L14.0176 79.0948H12.0176H8.23534H6.23534V81.0948L6.23534 99.994Z" stroke="white" stroke-width="4"/>
<path d="M13.7939 69.9036V71.9036H15.7939H19.5762H21.5762V69.9036V66.1214V64.1214H19.5762H15.7939H13.7939V66.1214V69.9036Z" stroke="white" stroke-width="4"/>
<path d="M10.0116 88.7969V90.7969H12.0116H15.7938H17.7938V88.7969L17.7938 69.8977V67.8977H15.7938H12.0116H10.0116V69.8977L10.0116 88.7969Z" stroke="white" stroke-width="4"/>
<path d="M10.0116 99.994V101.994H12.0116H15.7938H17.7938V99.994L17.7938 81.0948V79.0948H15.7938H12.0116H10.0116V81.0948L10.0116 99.994Z" stroke="white" stroke-width="4"/>
<path d="M13.7998 66.1214V68.1214H15.7998H42.2516H44.2516V66.1214V62.3392V60.3392H42.2516H15.7998H13.7998V62.3392V66.1214Z" stroke="white" stroke-width="4"/>
<path d="M85.8323 66.1214V64.1214H83.8323H80.05H78.05V66.1214V69.9036V71.9036H80.05H83.8323H85.8323V69.9036V66.1214Z" stroke="white" stroke-width="4"/>
<path d="M89.6205 69.9036V67.9036H87.6205H83.8383H81.8383V69.9036V88.8029V90.8029H83.8383H87.6205H89.6205V88.8029V69.9036Z" stroke="white" stroke-width="4"/>
<path d="M89.6205 81.1007V79.1007H87.6205H83.8383H81.8383V81.1007V100V102H83.8383H87.6205H89.6205V100V81.1007Z" stroke="white" stroke-width="4"/>
<path d="M89.6205 66.1214V64.1214H87.6205H83.8383H81.8383V66.1214V69.9036V71.9036H83.8383H87.6205H89.6205V69.9036V66.1214Z" stroke="white" stroke-width="4"/>
<path d="M93.4087 69.9036V67.9036H91.4087H87.6265H85.6265V69.9036V88.8029V90.8029H87.6265H91.4087H93.4087V88.8029V69.9036Z" stroke="white" stroke-width="4"/>
<path d="M93.4087 81.1007V79.1007H91.4087H87.6265H85.6265V81.1007V100V102H87.6265H91.4087H93.4087V100V81.1007Z" stroke="white" stroke-width="4"/>
<path d="M85.8324 62.3392V60.3392H83.8324H57.3627H55.3627V62.3392V66.1214V68.1214H57.3627H83.8324H85.8324V66.1214V62.3392Z" stroke="white" stroke-width="4"/>
<path d="M55.5803 62.3392V60.3392H53.5803H46.0278H44.0278V62.3392V66.1214V68.1214H46.0278H53.5803H55.5803V66.1214V62.3392Z" stroke="white" stroke-width="4"/>
<path d="M48.0338 58.5629V56.5629H46.0338H42.2516H40.2516V58.5629V66.1214V68.1214H42.2516H46.0338H48.0338V66.1214V58.5629Z" stroke="white" stroke-width="4"/>
<path d="M55.5803 58.5629V56.5629H53.5803H46.0278H44.0278V58.5629V62.3452V64.3452H46.0278H53.5803H55.5803V62.3452V58.5629Z" stroke="white" stroke-width="4"/>
<path d="M59.3685 58.5629V56.5629H57.3685H53.5863H51.5863V58.5629V66.1214V68.1214H53.5863H57.3685H59.3685V66.1214V58.5629Z" stroke="white" stroke-width="4"/>
<mask id="path-82-outside-1_0_183783" maskUnits="userSpaceOnUse" x="11.7938" y="62.1214" width="39" height="31" fill="black">
<rect fill="white" x="11.7938" y="62.1214" width="39" height="31"/>
<path d="M49.7981 66.1214H19.5761V69.9036H15.7938V88.8029H49.7981"/>
</mask>
<path d="M19.5761 66.1214V62.1214H15.5761V66.1214H19.5761ZM19.5761 69.9036V73.9036H23.5761V69.9036H19.5761ZM15.7938 69.9036V65.9036H11.7938V69.9036H15.7938ZM15.7938 88.8029H11.7938V92.8029H15.7938V88.8029ZM49.7981 62.1214H19.5761V70.1214H49.7981V62.1214ZM15.5761 66.1214V69.9036H23.5761V66.1214H15.5761ZM19.5761 65.9036H15.7938V73.9036H19.5761V65.9036ZM11.7938 69.9036V88.8029H19.7938V69.9036H11.7938ZM15.7938 92.8029H49.7981V84.8029H15.7938V92.8029Z" fill="white" mask="url(#path-82-outside-1_0_183783)"/>
<mask id="path-84-outside-2_0_183783" maskUnits="userSpaceOnUse" x="11.7938" y="73.3185" width="39" height="31" fill="black">
<rect fill="white" x="11.7938" y="73.3185" width="39" height="31"/>
<path d="M49.7981 77.3185H19.5761V81.1008H15.7938V100H49.7981"/>
</mask>
<path d="M19.5761 77.3185V73.3185H15.5761V77.3185H19.5761ZM19.5761 81.1008V85.1008H23.5761V81.1008H19.5761ZM15.7938 81.1008V77.1008H11.7938V81.1008H15.7938ZM15.7938 100H11.7938V104H15.7938V100ZM49.7981 73.3185H19.5761V81.3185H49.7981V73.3185ZM15.5761 77.3185V81.1008H23.5761V77.3185H15.5761ZM19.5761 77.1008H15.7938V85.1008H19.5761V77.1008ZM11.7938 81.1008V100H19.7938V81.1008H11.7938ZM15.7938 104H49.7981V96H15.7938V104Z" fill="white" mask="url(#path-84-outside-2_0_183783)"/>
<mask id="path-86-outside-3_0_183783" maskUnits="userSpaceOnUse" x="49.7981" y="62.1214" width="39" height="31" fill="black">
<rect fill="white" x="49.7981" y="62.1214" width="39" height="31"/>
<path d="M49.7981 66.1214H80.068V69.9036H83.8442V88.8029H49.7981"/>
</mask>
<path d="M80.068 66.1214H84.068V62.1214H80.068V66.1214ZM80.068 69.9036H76.068V73.9036H80.068V69.9036ZM83.8442 69.9036H87.8442V65.9036H83.8442V69.9036ZM83.8442 88.8029V92.8029H87.8442V88.8029H83.8442ZM49.7981 70.1214H80.068V62.1214H49.7981V70.1214ZM76.068 66.1214V69.9036H84.068V66.1214H76.068ZM80.068 73.9036H83.8442V65.9036H80.068V73.9036ZM79.8442 69.9036V88.8029H87.8442V69.9036H79.8442ZM83.8442 84.8029H49.7981V92.8029H83.8442V84.8029Z" fill="white" mask="url(#path-86-outside-3_0_183783)"/>
<mask id="path-88-outside-4_0_183783" maskUnits="userSpaceOnUse" x="49.7981" y="73.3185" width="39" height="31" fill="black">
<rect fill="white" x="49.7981" y="73.3185" width="39" height="31"/>
<path d="M49.7981 77.3185H80.068V81.1008H83.8442V100H49.7981"/>
</mask>
<path d="M80.068 77.3185H84.068V73.3185H80.068V77.3185ZM80.068 81.1008H76.068V85.1008H80.068V81.1008ZM83.8442 81.1008H87.8442V77.1008H83.8442V81.1008ZM83.8442 100V104H87.8442V100H83.8442ZM49.7981 81.3185H80.068V73.3185H49.7981V81.3185ZM76.068 77.3185V81.1008H84.068V77.3185H76.068ZM80.068 85.1008H83.8442V77.1008H80.068V85.1008ZM79.8442 81.1008V100H87.8442V81.1008H79.8442ZM83.8442 96H49.7981V104H83.8442V96Z" fill="white" mask="url(#path-88-outside-4_0_183783)"/>
<mask id="path-90-outside-5_0_183783" maskUnits="userSpaceOnUse" x="61.3699" y="69.7277" width="19" height="20" fill="black">
<rect fill="white" x="61.3699" y="69.7277" width="19" height="20"/>
<path d="M70.9654 84.9667C67.8834 84.9667 65.3699 82.4472 65.3699 79.3472C65.3699 76.2472 67.8774 73.7277 70.9654 73.7277C72.2701 73.7277 73.5268 74.1826 74.5143 75.0024C74.7656 75.2119 74.9332 75.553 74.9332 75.8463C74.9332 76.1395 74.8255 76.3909 74.628 76.5943C74.4305 76.7918 74.1672 76.9055 73.8859 76.9055C73.6465 76.9055 73.4071 76.8158 73.2096 76.6602C72.5872 76.1515 71.7255 75.8403 70.9654 75.8403C69.0384 75.8403 67.4705 77.4142 67.4705 79.3472C67.4705 81.2802 69.0384 82.8542 70.9654 82.8542C72.7488 82.8542 73.85 81.5735 73.85 80.4005H71.0253V78.3478H74.9512C75.4957 78.3478 75.9506 78.7607 75.9984 79.3053C76.0164 79.4968 76.0224 79.6464 76.0224 79.7841C76.0224 81.1546 75.6513 82.4532 74.6878 83.4227C73.7064 84.4162 72.5334 84.9607 70.9654 84.9607"/>
</mask>
<path d="M74.5143 75.0024L77.075 71.9295L77.0695 71.925L74.5143 75.0024ZM74.628 76.5943L77.4564 79.4228L77.4775 79.4017L77.4983 79.3802L74.628 76.5943ZM73.2096 76.6602L70.6783 79.7573L70.706 79.78L70.7342 79.8021L73.2096 76.6602ZM73.85 80.4005H77.85V76.4005H73.85V80.4005ZM71.0253 80.4005H67.0253V84.4005H71.0253V80.4005ZM71.0253 78.3478V74.3478H67.0253V78.3478H71.0253ZM75.9984 79.3053L72.0138 79.6556L72.0148 79.6672L72.0159 79.6787L75.9984 79.3053ZM74.6878 83.4227L71.8506 80.603L71.8423 80.6115L74.6878 83.4227ZM70.9654 80.9667C70.1064 80.9667 69.3699 80.252 69.3699 79.3472H61.3699C61.3699 84.6425 65.6604 88.9667 70.9654 88.9667V80.9667ZM69.3699 79.3472C69.3699 78.4397 70.1032 77.7277 70.9654 77.7277V69.7277C65.6516 69.7277 61.3699 74.0548 61.3699 79.3472H69.3699ZM70.9654 77.7277C71.3425 77.7277 71.694 77.8598 71.959 78.0799L77.0695 71.925C75.3596 70.5053 73.1976 69.7277 70.9654 69.7277V77.7277ZM71.9535 78.0753C71.612 77.7907 71.3834 77.471 71.2331 77.1673C71.088 76.8741 70.9332 76.4275 70.9332 75.8463H78.9332C78.9332 74.2418 78.1385 72.8158 77.075 71.9296L71.9535 78.0753ZM70.9332 75.8463C70.9332 75.4926 71.0003 75.1075 71.1578 74.7265C71.3143 74.3478 71.5316 74.0413 71.7577 73.8084L77.4983 79.3802C78.3937 78.4577 78.9332 77.2172 78.9332 75.8463H70.9332ZM71.7996 73.7659C72.3228 73.2426 73.0654 72.9055 73.8859 72.9055V80.9055C75.2689 80.9055 76.5382 80.341 77.4564 79.4228L71.7996 73.7659ZM73.8859 72.9055C74.6394 72.9055 75.2554 73.1796 75.6851 73.5182L70.7342 79.8021C71.5588 80.4519 72.6536 80.9055 73.8859 80.9055V72.9055ZM75.741 73.563C74.4335 72.4944 72.6853 71.8403 70.9654 71.8403V79.8403C70.8854 79.8403 70.8337 79.8324 70.8099 79.8279C70.7853 79.8233 70.7734 79.8191 70.7704 79.818C70.7673 79.8169 70.762 79.8148 70.7518 79.8091C70.742 79.8036 70.7165 79.7885 70.6783 79.7573L75.741 73.563ZM70.9654 71.8403C66.8159 71.8403 63.4705 75.2185 63.4705 79.3472H71.4705C71.4705 79.61 71.2609 79.8403 70.9654 79.8403V71.8403ZM63.4705 79.3472C63.4705 83.476 66.8159 86.8542 70.9654 86.8542V78.8542C71.2609 78.8542 71.4705 79.0845 71.4705 79.3472H63.4705ZM70.9654 86.8542C74.7085 86.8542 77.85 84.024 77.85 80.4005H69.85C69.85 79.1229 70.7891 78.8542 70.9654 78.8542V86.8542ZM73.85 76.4005H71.0253V84.4005H73.85V76.4005ZM75.0253 80.4005V78.3478H67.0253V80.4005H75.0253ZM71.0253 82.3478H74.9512V74.3478H71.0253V82.3478ZM74.9512 82.3478C73.4365 82.3478 72.1488 81.1905 72.0138 79.6556L79.9831 78.955C79.7524 76.331 77.555 74.3478 74.9512 74.3478V82.3478ZM72.0159 79.6787C72.0196 79.7185 72.0211 79.7426 72.0217 79.7551C72.0222 79.7668 72.0224 79.7751 72.0224 79.7841H80.0224C80.0224 79.5174 80.0102 79.2431 79.981 78.932L72.0159 79.6787ZM72.0224 79.7841C72.0224 80.1169 71.9764 80.3297 71.9357 80.4477C71.9003 80.5501 71.8692 80.5844 71.8507 80.6031L77.525 86.2424C79.4543 84.3011 80.0224 81.8497 80.0224 79.7841H72.0224ZM71.8423 80.6115C71.6624 80.7936 71.5463 80.8556 71.4807 80.8835C71.4171 80.9105 71.2723 80.9607 70.9654 80.9607V88.9607C73.6399 88.9607 75.827 87.9611 77.5333 86.2339L71.8423 80.6115Z" fill="white" mask="url(#path-90-outside-5_0_183783)"/>
<path d="M71.0253 82.4005C72.6984 82.4005 74.0487 81.0503 74.0487 79.3772C74.0487 77.7177 72.706 76.3538 71.0253 76.3538C69.3446 76.3538 68.002 77.7177 68.002 79.3772C68.002 81.0367 69.3446 82.4005 71.0253 82.4005Z" stroke="white" stroke-width="4"/>
<path d="M40.2337 68.6649V70.6649H42.2337H44.7771H46.7771V68.6649V66.1214V64.1214H44.7771H42.2337H40.2337V66.1214V68.6649Z" stroke="white" stroke-width="4"/>
<path d="M40.2337 71.2083V73.2083H42.2337H44.7771H46.7771V71.2083V68.6648V66.6648H44.7771H42.2337H40.2337V68.6648V71.2083Z" stroke="white" stroke-width="4"/>
<path d="M40.2337 73.7518V75.7518H42.2337H44.7771H46.7771V73.7518V71.2083V69.2083H44.7771H42.2337H40.2337V71.2083V73.7518Z" stroke="white" stroke-width="4"/>
<path d="M39.342 77.3725V79.3725H41.342H45.6569H47.6569V77.3725V73.0576V71.0576H45.6569H41.342H39.342V73.0576V77.3725Z" stroke="white" stroke-width="4"/>
<path d="M52.8251 68.6649V70.6649H54.8251H57.3685H59.3685V68.6649V66.1214V64.1214H57.3685H54.8251H52.8251V66.1214V68.6649Z" stroke="white" stroke-width="4"/>
<path d="M52.8251 71.2083V73.2083H54.8251H57.3685H59.3685V71.2083V68.6648V66.6648H57.3685H54.8251H52.8251V68.6648V71.2083Z" stroke="white" stroke-width="4"/>
<path d="M52.8251 73.7518V75.7518H54.8251H57.3685H59.3685V73.7518V71.2083V69.2083H57.3685H54.8251H52.8251V71.2083V73.7518Z" stroke="white" stroke-width="4"/>
<path d="M51.9394 77.3725V79.3725H53.9394H58.2543H60.2543V77.3725V73.0576V71.0576H58.2543H53.9394H51.9394V73.0576V77.3725Z" stroke="white" stroke-width="4"/>
<path d="M25.1286 62.3392V64.3392H27.1286H30.9109H32.9109V62.3392V58.5569V56.5569H30.9109H27.1286H25.1286V58.5569V62.3392Z" stroke="white" stroke-width="4"/>
<path d="M36.4394 62.3392V64.3392H38.4394H42.2217H44.2217V62.3392V58.5569V56.5569H42.2217H38.4394H36.4394V58.5569V62.3392Z" stroke="white" stroke-width="4"/>
<path d="M32.6632 58.557V60.557H34.6632H38.4454H40.4454V58.557V54.7748V52.7748H38.4454H34.6632H32.6632V54.7748V58.557Z" stroke="white" stroke-width="4"/>
<path d="M55.3565 62.3392V64.3392H57.3565H61.1388H63.1388V62.3392V58.5569V56.5569H61.1388H57.3565H55.3565V58.5569V62.3392Z" stroke="white" stroke-width="4"/>
<path d="M51.5863 66.1214V68.1214H53.5863H57.3685H59.3685V66.1214V62.3392V60.3392H57.3685H53.5863H51.5863V62.3392V66.1214Z" stroke="white" stroke-width="4"/>
<path d="M40.2456 66.1214V68.1214H42.2456H46.0278H48.0278V66.1214V62.3392V60.3392H46.0278H42.2456H40.2456V62.3392V66.1214Z" stroke="white" stroke-width="4"/>
<path d="M59.1509 58.557V60.557H61.1509H64.9331H66.9331V58.557V54.7748V52.7748H64.9331H61.1509H59.1509V54.7748V58.557Z" stroke="white" stroke-width="4"/>
<path d="M42.1367 69.9036V71.9036H44.1367H47.9189H49.9189V69.9036V66.1214V64.1214H47.9189H44.1367H42.1367V66.1214V69.9036Z" stroke="white" stroke-width="4"/>
<path d="M45.9189 69.9036V71.9036H47.9189H51.7012H53.7012V69.9036V66.1214V64.1214H51.7012H47.9189H45.9189V66.1214V69.9036Z" stroke="white" stroke-width="4"/>
<path d="M49.6953 69.9036V71.9036H51.6953H55.4775H57.4775V69.9036V66.1214V64.1214H55.4775H51.6953H49.6953V66.1214V69.9036Z" stroke="white" stroke-width="4"/>
<path d="M23.3345 35.8755H27.1167V32.0932H23.3345V35.8755Z" fill="#C2A490"/>
<path d="M72.4796 35.8755H76.2618V32.0932H72.4796V35.8755Z" fill="#C2A490"/>
<path d="M30.8868 20.7525H34.6691V16.9703H30.8868V20.7525Z" fill="#C2A490"/>
<path d="M34.6691 16.9702H38.4513V13.188H34.6691V16.9702Z" fill="#C2A490"/>
<path d="M27.1106 32.0992H30.8928V20.7585H27.1106V32.0992Z" fill="#C2A490"/>
<path d="M34.681 13.206H38.4633V9.42376H34.681V13.206Z" fill="#C2A490"/>
<path d="M27.1106 20.7585H30.8928V16.9762H27.1106V20.7585Z" fill="#C2A490"/>
<path d="M30.8868 16.9702H34.6691V13.188H30.8868V16.9702Z" fill="#C2A490"/>
<path d="M68.7034 16.9763H64.9211V20.7585H68.7034V16.9763Z" fill="#C2A490"/>
<path d="M64.9271 13.194H61.1449V16.9763H64.9271V13.194Z" fill="#C2A490"/>
<path d="M72.4856 20.7525H68.7034V32.0932H72.4856V20.7525Z" fill="#C2A490"/>
<path d="M64.9151 9.42377H61.1328V13.206H64.9151V9.42377Z" fill="#C2A490"/>
<path d="M72.4856 16.9822H68.7034V20.7644H72.4856V16.9822Z" fill="#C2A490"/>
<path d="M68.7034 13.194H64.9211V16.9763H68.7034V13.194Z" fill="#C2A490"/>
<path d="M34.6751 16.9822V32.0992H30.8928V35.8814H27.0927V39.6577H30.8928V47.2162H34.6751V50.9984H38.4513V54.7806H61.1508V50.9984H64.933V47.2162H68.7153V39.6577H72.4915V35.8814H68.7153V32.0992H64.933V16.9822H34.6751Z" fill="#EDCFB9"/>
<path d="M34.6691 47.2162H30.8868V50.9985H34.6691V47.2162Z" fill="#C2A490"/>
<path d="M30.8869 32.0992H27.1046V35.8815H30.8869V32.0992Z" fill="#EDCFB9"/>
<path d="M27.1046 35.8815H23.3224V39.6637H27.1046V35.8815Z" fill="#C2A490"/>
<path d="M38.4453 50.9985H34.6631V54.7807H38.4453V50.9985Z" fill="#C2A490"/>
<path d="M64.9331 50.9985H68.7153V47.2162H64.9331V50.9985Z" fill="#C2A490"/>
<path d="M61.1509 54.7747H64.9331V50.9925H61.1509V54.7747Z" fill="#C2A490"/>
<path d="M46.0279 54.7807H38.4454V58.5629H46.0279V54.7807Z" fill="#C2A490"/>
<path d="M61.1568 54.7807H53.5743V58.5629H61.1568V54.7807Z" fill="#C2A490"/>
<path d="M34.6691 20.7585H30.8868V32.0992H34.6691V20.7585Z" fill="#EDCFB9"/>
<path d="M38.4453 16.9763H34.6631V20.7585H38.4453V16.9763Z" fill="#EDCFB9"/>
<path d="M64.933 16.9763H61.1508V20.7585H64.933V16.9763Z" fill="#EDCFB9"/>
<path d="M61.1389 13.194H38.4813V16.9763H61.1389V13.194Z" fill="#EDCFB9"/>
<path d="M30.8869 39.6577H27.1046V47.2162H30.8869V39.6577Z" fill="#C2A490"/>
<path d="M68.7092 35.8755H72.4915V32.0932H68.7092V35.8755Z" fill="#EDCFB9"/>
<path d="M72.4916 39.6577H76.2738V35.8755H72.4916V39.6577Z" fill="#C2A490"/>
<path d="M64.9331 32.0992H68.7153V20.7584H64.9331V32.0992Z" fill="#EDCFB9"/>
<path d="M68.7092 47.2161H72.4915V39.6576H68.7092V47.2161Z" fill="#C2A490"/>
<path d="M53.5803 54.7807H46.0219V58.5629H53.5803V54.7807Z" fill="#705E52"/>
<path d="M61.1389 54.7807H45.9919V58.5629H61.1389V54.7807Z" fill="#C2A490"/>
<path d="M38.4813 13.194L57.3685 13.194V9.41179L38.4813 9.41179V13.194Z" fill="#C2A490"/>
<path d="M34.7109 13.194H38.4932V9.41179H34.7109V13.194Z" fill="#C2A490"/>
<path d="M61.1449 13.194H64.9271V9.41179H61.1449V13.194Z" fill="#C2A490"/>
<path d="M51.1028 13.194L61.3364 13.194V9.41179L51.1028 9.41179V13.194Z" fill="#C2A490"/>
<path d="M44.011 32.0992H40.2288V35.8815H44.011V32.0992Z" fill="#383532"/>
<path d="M59.1459 32.0992H55.3636V35.8815H59.1459V32.0992Z" fill="#383532"/>
<path d="M51.5395 32.1651H47.871V39.7236H51.5395V32.1651Z" fill="#C2A490"/>
<path d="M59.0563 41.5249H55.3159V45.6961H59.0563V41.5249Z" fill="#C30045"/>
<path d="M55.3159 41.5249H51.5756V45.6961H55.3159V41.5249Z" fill="#C30045"/>
<path d="M51.5696 41.5249H47.8292V45.6961H51.5696V41.5249Z" fill="#C30045"/>
<path d="M47.8292 41.5249H44.0889V45.6961H47.8292V41.5249Z" fill="#C30045"/>
<path d="M44.0889 41.5249H40.3485V45.6961H44.0889V41.5249Z" fill="#C30045"/>
<path d="M55.2201 45.6962H51.4797V49.8674H55.2201V45.6962Z" fill="#C30045"/>
<path d="M51.4799 45.6962H47.7395V49.8674H51.4799V45.6962Z" fill="#C30045"/>
<path d="M47.7335 45.6962H43.9932V49.8674H47.7335V45.6962Z" fill="#C30045"/>
<path d="M66.7344 40.8607V37.0784H59.1699V40.8607H66.7344Z" fill="#FF92A0"/>
<path d="M40.2347 40.8607V37.0784H32.6703V40.8607H40.2347Z" fill="#FF92A0"/>
<path d="M12.0116 69.9036H15.7938V66.1214H12.0116V69.9036Z" fill="#5C9965"/>
<path d="M12.0116 69.3052H15.7938V65.5229H12.0116V69.3052Z" fill="#5C9965"/>
<path d="M30.8809 62.3392H42.2456V58.5569H30.8809V62.3392Z" fill="#6FB87A"/>
<path d="M30.8809 58.557H38.4933V54.7748H30.8809V58.557Z" fill="#6FB87A"/>
<path d="M57.3685 62.3392H77.0817V58.5569H57.3685V62.3392Z" fill="#6FB87A"/>
<path d="M61.1509 58.551H76.3756V54.7687H61.1509V58.551Z" fill="#6FB87A"/>
<path d="M27.1286 58.557H30.9109V54.7748H27.1286V58.557Z" fill="#5C9965"/>
<path d="M76.2798 62.3392H80.062V58.5569H76.2798V62.3392Z" fill="#5C9965"/>
<path d="M76.2798 58.557H80.062V54.7748H76.2798V58.557Z" fill="#5C9965"/>
<path d="M30.8808 54.7747H34.6631V50.9925H30.8808V54.7747Z" fill="#5C9965"/>
<path d="M64.9211 54.7747H68.7034V50.9925H64.9211V54.7747Z" fill="#5C9965"/>
<path d="M68.6973 54.7747H72.4795V50.9925H68.6973V54.7747Z" fill="#5C9965"/>
<path d="M72.4796 54.7747H76.2618V50.9925H72.4796V54.7747Z" fill="#5C9965"/>
<path d="M8.23534 88.7969H12.0176L12.0176 69.8977H8.23534L8.23534 88.7969Z" fill="#5C9965"/>
<path d="M8.23534 99.994H12.0176L12.0176 81.0948H8.23534L8.23534 99.994Z" fill="#5C9965"/>
<path d="M15.7939 69.9036H19.5762V66.1214H15.7939V69.9036Z" fill="#6FB87A"/>
<path d="M12.0116 88.7969H15.7938L15.7938 69.8977H12.0116L12.0116 88.7969Z" fill="#6FB87A"/>
<path d="M12.0116 99.994H15.7938L15.7938 81.0948H12.0116L12.0116 99.994Z" fill="#6FB87A"/>
<path d="M15.7998 66.1214H42.2516V62.3392H15.7998V66.1214Z" fill="#5C9965"/>
<path d="M83.8323 66.1214H80.05V69.9036H83.8323V66.1214Z" fill="#6FB87A"/>
<path d="M87.6205 69.9036H83.8383V88.8029H87.6205V69.9036Z" fill="#6FB87A"/>
<path d="M87.6205 81.1007H83.8383V100H87.6205V81.1007Z" fill="#6FB87A"/>
<path d="M87.6205 66.1214H83.8383V69.9036H87.6205V66.1214Z" fill="#5C9965"/>
<path d="M91.4087 69.9036H87.6265V88.8029H91.4087V69.9036Z" fill="#5C9965"/>
<path d="M91.4087 81.1007H87.6265V100H91.4087V81.1007Z" fill="#5C9965"/>
<path d="M83.8324 62.3392H57.3627V66.1214H83.8324V62.3392Z" fill="#5C9965"/>
<path d="M53.5803 62.3392H46.0278V66.1214H53.5803V62.3392Z" fill="#C2A490"/>
<path d="M46.0338 58.5629H42.2516V66.1214H46.0338V58.5629Z" fill="#C2A490"/>
<path d="M53.5803 58.5629H46.0278V62.3452H53.5803V58.5629Z" fill="#EDCFB9"/>
<path d="M57.3685 58.5629H53.5863V66.1214H57.3685V58.5629Z" fill="#C2A490"/>
<path d="M49.7981 66.1214H19.5761V69.9036H15.7938V88.8029H49.7981" fill="#6FB87A"/>
<path d="M49.7981 77.3185H19.5761V81.1008H15.7938V100H49.7981" fill="#6FB87A"/>
<path d="M49.7981 66.1214H80.068V69.9036H83.8442V88.8029H49.7981" fill="#6FB87A"/>
<path d="M49.7981 77.3185H80.068V81.1008H83.8442V100H49.7981" fill="#6FB87A"/>
<path d="M70.9654 84.9667C67.8834 84.9667 65.3699 82.4472 65.3699 79.3472C65.3699 76.2472 67.8774 73.7277 70.9654 73.7277C72.2701 73.7277 73.5268 74.1826 74.5143 75.0024C74.7656 75.2119 74.9332 75.553 74.9332 75.8463C74.9332 76.1395 74.8255 76.3909 74.628 76.5943C74.4305 76.7918 74.1672 76.9055 73.8859 76.9055C73.6465 76.9055 73.4071 76.8158 73.2096 76.6602C72.5872 76.1515 71.7255 75.8403 70.9654 75.8403C69.0384 75.8403 67.4705 77.4142 67.4705 79.3472C67.4705 81.2802 69.0384 82.8542 70.9654 82.8542C72.7488 82.8542 73.85 81.5735 73.85 80.4005H71.0253V78.3478H74.9512C75.4957 78.3478 75.9506 78.7607 75.9984 79.3053C76.0164 79.4968 76.0224 79.6464 76.0224 79.7841C76.0224 81.1546 75.6513 82.4532 74.6878 83.4227C73.7064 84.4162 72.5334 84.9607 70.9654 84.9607" fill="white"/>
<path d="M72.0487 79.3772C72.0487 79.9457 71.5938 80.4005 71.0253 80.4005C70.4568 80.4005 70.002 79.9397 70.002 79.3772C70.002 78.8146 70.4568 78.3538 71.0253 78.3538C71.5938 78.3538 72.0487 78.8146 72.0487 79.3772Z" fill="#00C01E"/>
<path d="M42.2337 68.6649H44.7771V66.1214H42.2337V68.6649Z" fill="#5C9965"/>
<path d="M42.2337 71.2083H44.7771V68.6648H42.2337V71.2083Z" fill="#5C9965"/>
<path d="M42.2337 73.7518H44.7771V71.2083H42.2337V73.7518Z" fill="#5C9965"/>
<path d="M41.342 77.3725H45.6569V73.0576H41.342V77.3725Z" fill="#5C9965"/>
<path d="M54.8251 68.6649H57.3685V66.1214H54.8251V68.6649Z" fill="#5C9965"/>
<path d="M54.8251 71.2083H57.3685V68.6648H54.8251V71.2083Z" fill="#5C9965"/>
<path d="M54.8251 73.7518H57.3685V71.2083H54.8251V73.7518Z" fill="#5C9965"/>
<path d="M53.9394 77.3725H58.2543V73.0576H53.9394V77.3725Z" fill="#5C9965"/>
<path d="M27.1286 62.3392H30.9109V58.5569H27.1286V62.3392Z" fill="#5C9965"/>
<path d="M38.4394 62.3392H42.2217V58.5569H38.4394V62.3392Z" fill="#5C9965"/>
<path d="M34.6632 58.557H38.4454V54.7748H34.6632V58.557Z" fill="#5C9965"/>
<path d="M57.3565 62.3392H61.1388V58.5569H57.3565V62.3392Z" fill="#5C9965"/>
<path d="M53.5863 66.1214H57.3685V62.3392H53.5863V66.1214Z" fill="#5C9965"/>
<path d="M42.2456 66.1214H46.0278V62.3392H42.2456V66.1214Z" fill="#5C9965"/>
<path d="M61.1509 58.557H64.9331V54.7748H61.1509V58.557Z" fill="#5C9965"/>
<path d="M44.1367 69.9036H47.9189V66.1214H44.1367V69.9036Z" fill="#5C9965"/>
<path d="M47.9189 69.9036H51.7012V66.1214H47.9189V69.9036Z" fill="#5C9965"/>
<path d="M51.6953 69.9036H55.4775V66.1214H51.6953V69.9036Z" fill="#5C9965"/>
</svg>
