<svg width="100" height="106" viewBox="0 0 100 106" fill="none" xmlns="http://www.w3.org/2000/svg">
<mask id="path-1-outside-1_0_183229" maskUnits="userSpaceOnUse" x="66.8096" y="22.9814" width="16" height="20" fill="black">
<rect fill="white" x="66.8096" y="22.9814" width="16" height="20"/>
<path d="M78.4499 26.9814H70.8096V34.5202H74.4447V38.2927H78.4499V27.25"/>
</mask>
<path d="M70.8096 26.9814V22.9814H66.8096V26.9814H70.8096ZM70.8096 34.5202H66.8096V38.5202H70.8096V34.5202ZM74.4447 34.5202H78.4447V30.5202H74.4447V34.5202ZM74.4447 38.2927H70.4447V42.2927H74.4447V38.2927ZM78.4499 38.2927V42.2927H82.4499V38.2927H78.4499ZM78.4499 22.9814H70.8096V30.9814H78.4499V22.9814ZM66.8096 26.9814V34.5202H74.8096V26.9814H66.8096ZM70.8096 38.5202H74.4447V30.5202H70.8096V38.5202ZM70.4447 34.5202V38.2927H78.4447V34.5202H70.4447ZM74.4447 42.2927H78.4499V34.2927H74.4447V42.2927ZM82.4499 38.2927V27.25H74.4499V38.2927H82.4499Z" fill="white" mask="url(#path-1-outside-1_0_183229)"/>
<mask id="path-3-outside-2_0_183229" maskUnits="userSpaceOnUse" x="25.3667" y="22.9814" width="16" height="20" fill="black">
<rect fill="white" x="25.3667" y="22.9814" width="16" height="20"/>
<path d="M37.007 26.9814H29.3667V34.5202H33.0018V38.2927H37.007V27.25"/>
</mask>
<path d="M29.3667 26.9814V22.9814H25.3667V26.9814H29.3667ZM29.3667 34.5202H25.3667V38.5202H29.3667V34.5202ZM33.0018 34.5202H37.0018V30.5202H33.0018V34.5202ZM33.0018 38.2927H29.0018V42.2927H33.0018V38.2927ZM37.007 38.2927V42.2927H41.007V38.2927H37.007ZM37.007 22.9814H29.3667V30.9814H37.007V22.9814ZM25.3667 26.9814V34.5202H33.3667V26.9814H25.3667ZM29.3667 38.5202H33.0018V30.5202H29.3667V38.5202ZM29.0018 34.5202V38.2927H37.0018V34.5202H29.0018ZM33.0018 42.2927H37.007V34.2927H33.0018V42.2927ZM41.007 38.2927V27.25H33.007V38.2927H41.007Z" fill="white" mask="url(#path-3-outside-2_0_183229)"/>
<path d="M36.9653 17.4426H34.9653V19.4426V32.5203H33.1989H31.1989V34.5203V36.2927H29.4086H27.4086V38.2927V42.0591V44.0591H29.4086H31.1989V49.598V51.598H33.1989H34.9653V53.3704V55.3704H36.9653H38.7378V57.1369V59.1369H40.7378H63.3782H65.3782V57.1369V55.3704H67.1447H69.1447V53.3704V51.598H70.9171H72.9171V49.598V44.0591H74.6895H76.6895V42.0591V38.2927V36.2927H74.6895H72.9171V34.5203V32.5203H70.9171H69.1447V19.4426V17.4426H67.1447H36.9653Z" stroke="white" stroke-width="4"/>
<path d="M38.9593 49.598V47.598H36.9593H33.1869H31.1869V49.598V53.3704V55.3704H33.1869H36.9593H38.9593V53.3704V49.598Z" stroke="white" stroke-width="4"/>
<path d="M35.187 34.5203V32.5203H33.187H29.4146H27.4146V34.5203V38.2927V40.2927H29.4146H33.187H35.187V38.2927V34.5203Z" stroke="white" stroke-width="4"/>
<path d="M16.1271 72.2206V74.2206H18.1271H21.8995H23.8995V72.2206V68.4482V66.4482H21.8995H18.1271H16.1271V68.4482V72.2206Z" stroke="white" stroke-width="4"/>
<path d="M12.3606 91.0707V93.0707H14.3606H18.1331H20.1331V91.0707L20.1331 72.2206V70.2206H18.1331H14.3606H12.3606V72.2206L12.3606 91.0707Z" stroke="white" stroke-width="4"/>
<path d="M12.3606 102V104H14.3606H18.1331H20.1331V102L20.1331 83.1498V81.1498H18.1331H14.3606H12.3606V83.1498L12.3606 102Z" stroke="white" stroke-width="4"/>
<path d="M19.8995 68.4482V70.4482H21.8995H44.5161H46.5161V68.4482V64.6758V62.6758H44.5161H21.8995H19.8995V64.6758V68.4482Z" stroke="white" stroke-width="4"/>
<path d="M87.9947 68.4482V66.4482H85.9947H82.2223H80.2223V68.4482V72.2206V74.2206H82.2223H85.9947H87.9947V72.2206V68.4482Z" stroke="white" stroke-width="4"/>
<path d="M91.7732 72.2206V70.2206H89.7732H86.0007H84.0007V72.2206V91.0708V93.0708H86.0007H89.7732H91.7732V91.0708V72.2206Z" stroke="white" stroke-width="4"/>
<path d="M91.7732 83.1498V81.1498H89.7732H86.0007H84.0007V83.1498V102V104H86.0007H89.7732H91.7732V102V83.1498Z" stroke="white" stroke-width="4"/>
<path d="M84.2164 64.6818V62.6818H82.2164H59.5879H57.5879V64.6818V68.4542V70.4542H59.5879H82.2164H84.2164V68.4542V64.6818Z" stroke="white" stroke-width="4"/>
<path d="M31.4205 38.2927V36.2927H29.4205H25.6481H23.6481V38.2927V42.0651V44.0651H25.6481H29.4205H31.4205V42.0651V38.2927Z" stroke="white" stroke-width="4"/>
<path d="M42.7318 53.3704V51.3704H40.7318H36.9594H34.9594V53.3704V57.1428V59.1428H36.9594H40.7318H42.7318V57.1428V53.3704Z" stroke="white" stroke-width="4"/>
<path d="M57.8215 64.6818V62.6818H55.8215H48.2886H46.2886V64.6818V68.4542V70.4542H48.2886H55.8215H57.8215V68.4542V64.6818Z" stroke="white" stroke-width="4"/>
<path d="M50.2885 60.9094V58.9094H48.2885H44.5161H42.5161V60.9094V68.4483V70.4483H44.5161H48.2885H50.2885V68.4483V60.9094Z" stroke="white" stroke-width="4"/>
<path d="M57.8215 60.9094V58.9094H55.8215H48.2886H46.2886V60.9094V64.6818V66.6818H48.2886H55.8215H57.8215V64.6818V60.9094Z" stroke="white" stroke-width="4"/>
<path d="M61.5998 60.9094V58.9094H59.5998H55.8274H53.8274V60.9094V68.4483V70.4483H55.8274H59.5998H61.5998V68.4483V60.9094Z" stroke="white" stroke-width="4"/>
<path d="M65.1446 53.3704V55.3704H67.1446H70.917H72.917V53.3704V49.598V47.598H70.917H67.1446H65.1446V49.598V53.3704Z" stroke="white" stroke-width="4"/>
<path d="M61.3722 57.1368V59.1368H63.3722H67.1447H69.1447V57.1368V53.3644V51.3644H67.1447H63.3722H61.3722V53.3644V57.1368Z" stroke="white" stroke-width="4"/>
<path d="M65.3662 57.1368V55.1368H63.3662H40.7257H38.7257V57.1368V60.9093V62.9093H40.7257H63.3662H65.3662V60.9093V57.1368Z" stroke="white" stroke-width="4"/>
<path d="M38.9593 23.209V21.209H36.9593H33.1869H31.1869V23.209V34.5203V36.5203H33.1869H36.9593H38.9593V34.5203V23.209Z" stroke="white" stroke-width="4"/>
<path d="M35.187 42.0591V40.0591H33.187H29.4146H27.4146V42.0591V49.598V51.598H29.4146H33.187H35.187V49.598V42.0591Z" stroke="white" stroke-width="4"/>
<path d="M68.917 38.2867V40.2867H70.917H74.6895H76.6895V38.2867V34.5143V32.5143H74.6895H70.917H68.917V34.5143V38.2867Z" stroke="white" stroke-width="4"/>
<path d="M72.6835 42.0591V44.0591H74.6835H78.4559H80.4559V42.0591V38.2867V36.2867H78.4559H74.6835H72.6835V38.2867V42.0591Z" stroke="white" stroke-width="4"/>
<path d="M65.1446 34.5203V36.5203H67.1446H70.917H72.917V34.5203V23.209V21.209H70.917H67.1446H65.1446V23.209V34.5203Z" stroke="white" stroke-width="4"/>
<path d="M68.917 49.598V51.598H70.917H74.6895H76.6895V49.598V42.0592V40.0592H74.6895H70.917H68.917V42.0592V49.598Z" stroke="white" stroke-width="4"/>
<path d="M48.0263 34.5203V32.5203H46.0263H42.2539H40.2539V34.5203V38.2927V40.2927H42.2539H46.0263H48.0263V38.2927V34.5203Z" stroke="white" stroke-width="4"/>
<path d="M72.6955 38.2867V40.2867H74.6955H78.4679H80.4679V38.2867V26.9755V24.9755H78.4679H74.6955H72.6955V26.9755V38.2867Z" stroke="white" stroke-width="4"/>
<path d="M23.6422 38.2867V40.2867H25.6422H29.4146H31.4146V38.2867V34.5143V32.5143H29.4146H25.6422H23.6422V34.5143V38.2867Z" stroke="white" stroke-width="4"/>
<path d="M63.1159 34.5203V32.5203H61.1159H57.3435H55.3435V34.5203V38.2927V40.2927H57.3435H61.1159H63.1159V38.2927V34.5203Z" stroke="white" stroke-width="4"/>
<path d="M55.5771 34.5203V32.5203H53.5771H49.8047H47.8047V34.5203V42.0592V44.0592H49.8047H53.5771H55.5771V42.0592V34.5203Z" stroke="white" stroke-width="4"/>
<mask id="path-36-outside-3_0_183229" maskUnits="userSpaceOnUse" x="14.1331" y="64.4482" width="38" height="31" fill="black">
<rect fill="white" x="14.1331" y="64.4482" width="38" height="31"/>
<path d="M52.049 68.4482H21.9055V72.2206H18.1331V91.0707H52.049"/>
</mask>
<path d="M21.9055 68.4482V64.4482H17.9055V68.4482H21.9055ZM21.9055 72.2206V76.2206H25.9055V72.2206H21.9055ZM18.1331 72.2206V68.2206H14.1331V72.2206H18.1331ZM18.1331 91.0707H14.1331V95.0707H18.1331V91.0707ZM52.049 64.4482H21.9055V72.4482H52.049V64.4482ZM17.9055 68.4482V72.2206H25.9055V68.4482H17.9055ZM21.9055 68.2206H18.1331V76.2206H21.9055V68.2206ZM14.1331 72.2206V91.0707H22.1331V72.2206H14.1331ZM18.1331 95.0707H52.049V87.0707H18.1331V95.0707Z" fill="white" mask="url(#path-36-outside-3_0_183229)"/>
<mask id="path-38-outside-4_0_183229" maskUnits="userSpaceOnUse" x="14.1331" y="75.3775" width="38" height="31" fill="black">
<rect fill="white" x="14.1331" y="75.3775" width="38" height="31"/>
<path d="M52.049 79.3775H21.9055V83.1499H18.1331V102H52.049"/>
</mask>
<path d="M21.9055 79.3775V75.3775H17.9055V79.3775H21.9055ZM21.9055 83.1499V87.1499H25.9055V83.1499H21.9055ZM18.1331 83.1499V79.1499H14.1331V83.1499H18.1331ZM18.1331 102H14.1331V106H18.1331V102ZM52.049 75.3775H21.9055V83.3775H52.049V75.3775ZM17.9055 79.3775V83.1499H25.9055V79.3775H17.9055ZM21.9055 79.1499H18.1331V87.1499H21.9055V79.1499ZM14.1331 83.1499V102H22.1331V83.1499H14.1331ZM18.1331 106H52.049V98.0001H18.1331V106Z" fill="white" mask="url(#path-38-outside-4_0_183229)"/>
<mask id="path-40-outside-5_0_183229" maskUnits="userSpaceOnUse" x="52.049" y="64.4482" width="38" height="31" fill="black">
<rect fill="white" x="52.049" y="64.4482" width="38" height="31"/>
<path d="M52.049 68.4482H82.2342V72.2206H86.0067V91.0707H52.049"/>
</mask>
<path d="M82.2342 68.4482H86.2342V64.4482H82.2342V68.4482ZM82.2342 72.2206H78.2342V76.2206H82.2342V72.2206ZM86.0067 72.2206H90.0067V68.2206H86.0067V72.2206ZM86.0067 91.0707V95.0707H90.0067V91.0707H86.0067ZM52.049 72.4482H82.2342V64.4482H52.049V72.4482ZM78.2342 68.4482V72.2206H86.2342V68.4482H78.2342ZM82.2342 76.2206H86.0067V68.2206H82.2342V76.2206ZM82.0067 72.2206V91.0707H90.0067V72.2206H82.0067ZM86.0067 87.0707H52.049V95.0707H86.0067V87.0707Z" fill="white" mask="url(#path-40-outside-5_0_183229)"/>
<mask id="path-42-outside-6_0_183229" maskUnits="userSpaceOnUse" x="52.049" y="75.3775" width="38" height="31" fill="black">
<rect fill="white" x="52.049" y="75.3775" width="38" height="31"/>
<path d="M52.049 79.3775H82.2342V83.1499H86.0067V102H52.049"/>
</mask>
<path d="M82.2342 79.3775H86.2342V75.3775H82.2342V79.3775ZM82.2342 83.1499H78.2342V87.1499H82.2342V83.1499ZM86.0067 83.1499H90.0067V79.1499H86.0067V83.1499ZM86.0067 102V106H90.0067V102H86.0067ZM52.049 83.3775H82.2342V75.3775H52.049V83.3775ZM78.2342 79.3775V83.1499H86.2342V79.3775H78.2342ZM82.2342 87.1499H86.0067V79.1499H82.2342V87.1499ZM82.0067 83.1499V102H90.0067V83.1499H82.0067ZM86.0067 98.0001H52.049V106H86.0067V98.0001Z" fill="white" mask="url(#path-42-outside-6_0_183229)"/>
<path d="M63.11 44.2498V42.2498H61.11H57.3794H55.3794V44.2498V48.4102V50.4102H57.3794H61.11H63.11V48.4102V44.2498Z" stroke="white" stroke-width="4"/>
<path d="M59.3793 44.2498V42.2498H57.3793H53.6487H51.6487V44.2498V48.4102V50.4102H53.6487H57.3793H59.3793V48.4102V44.2498Z" stroke="white" stroke-width="4"/>
<path d="M55.6487 44.2498V42.2498H53.6487H49.9181H47.9181V44.2498V48.4102V50.4102H49.9181H53.6487H55.6487V48.4102V44.2498Z" stroke="white" stroke-width="4"/>
<path d="M51.9121 44.2498V42.2498H49.9121H46.1815H44.1815V44.2498V48.4102V50.4102H46.1815H49.9121H51.9121V48.4102V44.2498Z" stroke="white" stroke-width="4"/>
<path d="M48.1814 44.2498V42.2498H46.1814H42.4508H40.4508V44.2498V48.4102V50.4102H42.4508H46.1814H48.1814V48.4102V44.2498Z" stroke="white" stroke-width="4"/>
<path d="M59.2839 48.4043V46.4043H57.2839H53.5532H51.5532V48.4043V52.5647V54.5647H53.5532H57.2839H59.2839V52.5647V48.4043Z" stroke="white" stroke-width="4"/>
<path d="M55.5531 48.4043V46.4043H53.5531H49.8225H47.8225V48.4043V52.5647V54.5647H49.8225H53.5531H55.5531V52.5647V48.4043Z" stroke="white" stroke-width="4"/>
<path d="M51.8226 48.4043V46.4043H49.8226H46.0919H44.0919V48.4043V52.5647V54.5647H46.0919H49.8226H51.8226V52.5647V48.4043Z" stroke="white" stroke-width="4"/>
<path d="M69.0725 45.9394H71.0725V43.9394V40.167V38.167H69.0725H61.5277H59.5277V40.167V43.9394V45.9394H61.5277H69.0725Z" stroke="white" stroke-width="4"/>
<path d="M42.6418 45.9455H44.6418V43.9455V40.173V38.173H42.6418H35.097H33.097V40.173V43.9455V45.9455H35.097H42.6418Z" stroke="white" stroke-width="4"/>
<path d="M38.9473 26.9814V24.9814H36.9473H33.1749H31.1749V26.9814V34.5202V36.5202H33.1749H36.9473H38.9473V34.5202V26.9814Z" stroke="white" stroke-width="4"/>
<path d="M61.5878 19.4486V17.4486H59.5878H55.8154H53.8154V19.4486V23.221V25.221H55.8154H59.5878H61.5878V23.221V19.4486Z" stroke="white" stroke-width="4"/>
<path d="M65.3603 23.215V21.215H63.3603H59.5879H57.5879V23.215V26.9874V28.9874H59.5879H63.3603H65.3603V26.9874V23.215Z" stroke="white" stroke-width="4"/>
<path d="M69.1386 26.9874V24.9874H67.1386H63.3662H61.3662V26.9874V30.7598V32.7598H63.3662H67.1386H69.1386V30.7598V26.9874Z" stroke="white" stroke-width="4"/>
<path d="M42.7198 26.9874V24.9874H40.7198H36.9474H34.9474V26.9874V30.7598V32.7598H36.9474H40.7198H42.7198V30.7598V26.9874Z" stroke="white" stroke-width="4"/>
<path d="M46.4981 26.9874V24.9874H44.4981H40.7257H38.7257V26.9874V30.7598V32.7598H40.7257H44.4981H46.4981V30.7598V26.9874Z" stroke="white" stroke-width="4"/>
<path d="M57.8094 23.215V21.215H55.8094H44.4922H42.4922V23.215V26.9874V28.9874H44.4922H55.8094H57.8094V26.9874V23.215Z" stroke="white" stroke-width="4"/>
<path d="M21.8995 36.5263H23.8995V34.5263V30.7539V28.7539H21.8995H10.5883H8.58826V30.7539V34.5263V36.5263H10.5883H21.8995Z" stroke="white" stroke-width="4"/>
<path d="M36.9474 36.5263H38.9474V34.5263V30.7539V28.7539H36.9474H21.9174H19.9174V30.7539V34.5263V36.5263H21.9174H36.9474Z" stroke="white" stroke-width="4"/>
<path d="M70.9409 29.0173H72.9409V27.0173V23.1255V21.1255H70.9409L36.8758 21.1255H34.8758V23.1255V27.0173V29.0173H36.8758H70.9409Z" stroke="white" stroke-width="4"/>
<path d="M52.043 6.12538H52.0358L52.0286 6.12543L52.043 8.12538C52.0286 6.12543 52.0286 6.12543 52.0285 6.12543L52.028 6.12543L52.026 6.12545L52.0179 6.1255L51.986 6.12573L51.8611 6.12661L51.3867 6.12983C50.9779 6.13255 50.3936 6.13633 49.6921 6.14052C48.289 6.14891 46.4176 6.15897 44.5432 6.16568C42.6678 6.17239 40.7937 6.17573 39.3837 6.17072C38.6772 6.16821 38.0953 6.16362 37.6904 6.15653C37.49 6.15302 37.3472 6.14912 37.2587 6.14531C37.1158 6.12479 36.9907 6.12194 36.8951 6.12568C36.5784 6.13808 36.3412 6.22335 36.2448 6.26066C36.0371 6.34107 35.8879 6.43945 35.8447 6.46794C35.7286 6.54455 35.6336 6.62329 35.5896 6.66022C35.483 6.74957 35.3633 6.8597 35.2502 6.96632C35.0148 7.18837 34.6989 7.49897 34.34 7.85778C33.6175 8.57996 32.6703 9.5478 31.7331 10.5122C30.7944 11.4782 29.8597 12.4472 29.1601 13.1742C28.8102 13.5378 28.5188 13.8411 28.3149 14.0537L28.0781 14.3005L28.0156 14.3658L27.9995 14.3826L27.9953 14.3869L27.9943 14.388L27.994 14.3882C27.994 14.3883 27.9939 14.3884 29.4384 15.7717L27.9939 14.3884L27.4384 14.9685V15.7717V23.2031V25.2031H29.4384H74.6954H76.6954V23.2031V15.6642V14.834L76.1074 14.2478L72.3252 10.4776L72.323 10.4754L68.5588 6.71116L67.973 6.12538H67.1446H52.049H52.043Z" stroke="white" stroke-width="4"/>
<path d="M31.2048 11.8978V13.8978H33.2048H36.9772H38.9772V11.8978V8.12535V6.12535H36.9772L33.2048 6.12535H31.2048V8.12535V11.8978Z" stroke="white" stroke-width="4"/>
<path d="M65.1386 11.8978V13.8978H67.1386H70.905H72.905V11.8978V8.13132V6.13132H70.905L67.1386 6.13132H65.1386V8.13132V11.8978Z" stroke="white" stroke-width="4"/>
<path d="M27.4324 19.5321V21.5321H29.4324H33.2048H35.2048V19.5321V11.8918V9.89177H33.2048H29.4324H27.4324V11.8918V19.5321Z" stroke="white" stroke-width="4"/>
<path d="M72.6894 30.7479V32.7479H74.6894H78.4618H80.4618V30.7479V19.4366V17.4366H78.4618H74.6894H72.6894V19.4366V30.7479Z" stroke="white" stroke-width="4"/>
<path d="M68.9111 30.7598V32.7598H70.9111H74.6835H76.6835V30.7598V19.4366V17.4366H74.6835H70.9111H68.9111V19.4366V30.7598Z" stroke="white" stroke-width="4"/>
<path d="M34.9713 8.12543V10.1254H36.9713L67.1387 10.1254H69.1387V8.12543V4.35301V2.35301H67.1387L36.9713 2.35301H34.9713V4.35301V8.12543Z" stroke="white" stroke-width="4"/>
<path d="M23.6659 30.8494V32.8494H25.6659H29.4384H31.4384V30.8494V19.5381V17.5381H29.4384H25.6659H23.6659V19.5381V30.8494Z" stroke="white" stroke-width="4"/>
<path d="M68.9111 19.5321V21.5321H70.9111H74.6835H76.6835V19.5321V11.8918V9.89177H74.6835H70.9111H68.9111V11.8918V19.5321Z" stroke="white" stroke-width="4"/>
<path d="M38.9474 23.215V21.215H36.9474H29.4384H27.4384V23.215V30.7539V32.7539H29.4384H36.9474H38.9474V30.7539V23.215Z" stroke="white" stroke-width="4"/>
<path d="M72.8872 23.215V21.215H70.8872H63.3782H61.3782V23.215V30.7539V32.7539H63.3782H70.8872H72.8872V30.7539V23.215Z" stroke="white" stroke-width="4"/>
<path d="M89.7552 32.7658H91.7552V30.7658V26.9934V24.9934H89.7552H78.444H76.444V26.9934V30.7658V32.7658H78.444H89.7552Z" stroke="white" stroke-width="4"/>
<path d="M78.4559 32.7658H80.4559V30.7658V26.9934V24.9934H78.4559L36.9474 24.9934H34.9474V26.9934V30.7658V32.7658H36.9474H78.4559Z" stroke="white" stroke-width="4"/>
<mask id="path-77-outside-7_0_183229" maskUnits="userSpaceOnUse" x="63.5743" y="72.0408" width="19" height="20" fill="black">
<rect fill="white" x="63.5743" y="72.0408" width="19" height="20"/>
<path d="M73.1554 87.2506C70.0813 87.2506 67.5743 84.7377 67.5743 81.6457C67.5743 78.5538 70.0754 76.0408 73.1554 76.0408C74.4566 76.0408 75.7101 76.4945 76.695 77.3122C76.9457 77.5211 77.1128 77.8614 77.1128 78.1539C77.1128 78.4463 77.0054 78.697 76.8084 78.9C76.6114 79.097 76.3488 79.2104 76.0683 79.2104C75.8295 79.2104 75.5907 79.1208 75.3937 78.9656C74.773 78.4583 73.9134 78.1479 73.1554 78.1479C71.2333 78.1479 69.6695 79.7177 69.6695 81.6457C69.6695 83.5737 71.2333 85.1436 73.1554 85.1436C74.9341 85.1436 76.0324 83.8662 76.0324 82.6963H73.2151V80.6489H77.1307C77.6739 80.6489 78.1276 81.0608 78.1753 81.6039C78.1932 81.795 78.1992 81.9442 78.1992 82.0815C78.1992 83.4484 77.8291 84.7436 76.8681 85.7106C75.8892 86.7015 74.7193 87.2447 73.1554 87.2447"/>
</mask>
<path d="M76.695 77.3122L79.2557 74.2393L79.2502 74.2348L76.695 77.3122ZM76.8084 78.9L79.6368 81.7284L79.6579 81.7073L79.6787 81.6859L76.8084 78.9ZM75.3937 78.9656L72.8624 82.0628L72.8901 82.0855L72.9183 82.1076L75.3937 78.9656ZM76.0324 82.6963H80.0324V78.6963H76.0324V82.6963ZM73.2151 82.6963H69.2151V86.6963H73.2151V82.6963ZM73.2151 80.6489V76.6489H69.2151V80.6489H73.2151ZM78.1753 81.6039L74.1907 81.9542L74.1917 81.9658L74.1928 81.9773L78.1753 81.6039ZM76.8681 85.7106L74.0309 82.891L74.0226 82.8994L76.8681 85.7106ZM73.1554 83.2506C72.3043 83.2506 71.5743 82.5424 71.5743 81.6457H63.5743C63.5743 86.9329 67.8583 91.2506 73.1554 91.2506V83.2506ZM71.5743 81.6457C71.5743 80.7462 72.3012 80.0408 73.1554 80.0408V72.0408C67.8496 72.0408 63.5743 76.3613 63.5743 81.6457H71.5743ZM73.1554 80.0408C73.529 80.0408 73.8773 80.1718 74.1398 80.3897L79.2502 74.2348C77.5429 72.8172 75.3842 72.0408 73.1554 72.0408V80.0408ZM74.1343 80.3851C73.7925 80.1003 73.5635 79.7802 73.413 79.4761C73.2677 79.1826 73.1128 78.7355 73.1128 78.1539H81.1128C81.1128 76.5501 80.3185 75.125 79.2557 74.2393L74.1343 80.3851ZM73.1128 78.1539C73.1128 77.7998 73.1801 77.4143 73.3376 77.033C73.4942 76.6539 73.7118 76.3472 73.9381 76.1141L79.6787 81.6859C80.5736 80.7639 81.1128 79.5241 81.1128 78.1539H73.1128ZM73.98 76.0716C74.5037 75.5479 75.2469 75.2104 76.0683 75.2104V83.2104C77.4506 83.2104 78.7192 82.646 79.6368 81.7284L73.98 76.0716ZM76.0683 75.2104C76.8223 75.2104 77.439 75.4847 77.8692 75.8237L72.9183 82.1076C73.7424 82.757 74.8366 83.2104 76.0683 83.2104V75.2104ZM77.9251 75.8685C76.6192 74.8012 74.8733 74.1479 73.1554 74.1479V82.1479C73.0749 82.1479 73.0226 82.14 72.9983 82.1354C72.9732 82.1307 72.9608 82.1263 72.9573 82.125C72.9537 82.1237 72.9479 82.1214 72.9372 82.1155C72.927 82.1098 72.901 82.0943 72.8624 82.0628L77.9251 75.8685ZM73.1554 74.1479C69.0109 74.1479 65.6695 77.522 65.6695 81.6457H73.6695C73.6695 81.9135 73.4558 82.1479 73.1554 82.1479V74.1479ZM65.6695 81.6457C65.6695 85.7695 69.0109 89.1436 73.1554 89.1436V81.1436C73.4558 81.1436 73.6695 81.3779 73.6695 81.6457H65.6695ZM73.1554 89.1436C76.8938 89.1436 80.0324 86.3168 80.0324 82.6963H72.0324C72.0324 81.4156 72.9744 81.1436 73.1554 81.1436V89.1436ZM76.0324 78.6963H73.2151V86.6963H76.0324V78.6963ZM77.2151 82.6963V80.6489H69.2151V82.6963H77.2151ZM73.2151 84.6489H77.1307V76.6489H73.2151V84.6489ZM77.1307 84.6489C75.6147 84.6489 74.3257 83.4906 74.1907 81.9542L82.1599 81.2536C81.9294 78.6309 79.7331 76.6489 77.1307 76.6489V84.6489ZM74.1928 81.9773C74.1965 82.0168 74.1979 82.0406 74.1985 82.0529C74.199 82.0644 74.1992 82.0726 74.1992 82.0815H82.1992C82.1992 81.8153 82.187 81.5414 82.1578 81.2306L74.1928 81.9773ZM74.1992 82.0815C74.1992 82.4125 74.1535 82.6236 74.1132 82.74C74.0784 82.8407 74.0482 82.8736 74.0309 82.891L79.7053 88.5303C81.6321 86.5915 82.1992 84.1435 82.1992 82.0815H74.1992ZM74.0226 82.8994C73.8439 83.0802 73.7293 83.1412 73.6652 83.1685C73.6032 83.1948 73.4601 83.2447 73.1554 83.2447V91.2447C75.8258 91.2447 78.0098 90.2464 79.7136 88.5219L74.0226 82.8994Z" fill="white" mask="url(#path-77-outside-7_0_183229)"/>
<path d="M73.2149 84.6962C74.8866 84.6962 76.2356 83.3471 76.2356 81.6755C76.2356 80.0175 74.8942 78.6548 73.2149 78.6548C71.5357 78.6548 70.1942 80.0174 70.1942 81.6755C70.1942 83.3336 71.5357 84.6962 73.2149 84.6962Z" stroke="white" stroke-width="4"/>
<path d="M46.4981 76.0408V74.0408H44.4981H40.7257H38.7257V76.0408V79.8431V81.8431H40.7257H44.4981H46.4981V79.8431V76.0408Z" stroke="white" stroke-width="4"/>
<path d="M50.2766 72.2385V70.2385H48.2766H44.5042H42.5042V72.2385V76.0407V78.0407H44.5042H48.2766H50.2766V76.0407V72.2385Z" stroke="white" stroke-width="4"/>
<path d="M57.582 79.843V81.843H59.582H63.3544H65.3544V79.843V76.0408V74.0408H63.3544H59.582H57.582V76.0408V79.843Z" stroke="white" stroke-width="4"/>
<path d="M53.7975 76.0408V78.0408H55.7975H59.5699H61.5699V76.0408V72.2386V70.2386H59.5699H55.7975H53.7975V72.2386V76.0408Z" stroke="white" stroke-width="4"/>
<path d="M57.8095 68.4422V66.4422H55.8095H48.2766H46.2766V68.4422V72.2445V74.2445H48.2766H55.8095H57.8095V72.2445V68.4422Z" stroke="white" stroke-width="4"/>
<path d="M78.4499 26.9814H70.8096V34.5202H74.4447V38.2927H78.4499V27.25" fill="#59544F"/>
<path d="M37.007 26.9814H29.3667V34.5202H33.0018V38.2927H37.007V27.25" fill="#59544F"/>
<path d="M36.9653 19.4426V34.5203H33.1989V38.2927H29.4086V42.0591H33.1989V49.598H36.9653V53.3704H40.7378V57.1369H63.3782V53.3704H67.1447V49.598H70.9171V42.0591H74.6895V38.2927H70.9171V34.5203H67.1447V19.4426H36.9653Z" fill="#EDCFB9"/>
<path d="M36.9593 49.598H33.1869V53.3704H36.9593V49.598Z" fill="#C2A490"/>
<path d="M33.187 34.5203H29.4146V38.2927H33.187V34.5203Z" fill="#C2A490"/>
<path d="M18.1271 72.2206H21.8995V68.4482H18.1271V72.2206Z" fill="#22829C"/>
<path d="M14.3606 91.0707H18.1331L18.1331 72.2206H14.3606L14.3606 91.0707Z" fill="#22829C"/>
<path d="M14.3606 102H18.1331L18.1331 83.1498H14.3606L14.3606 102Z" fill="#22829C"/>
<path d="M21.8995 68.4482H44.5161V64.6758H21.8995V68.4482Z" fill="#22829C"/>
<path d="M85.9947 68.4482H82.2223V72.2206H85.9947V68.4482Z" fill="#22829C"/>
<path d="M89.7732 72.2206H86.0007V91.0708H89.7732V72.2206Z" fill="#22829C"/>
<path d="M89.7732 83.1498H86.0007V102H89.7732V83.1498Z" fill="#22829C"/>
<path d="M82.2164 64.6818H59.5879V68.4542H82.2164V64.6818Z" fill="#22829C"/>
<path d="M29.4205 38.2927H25.6481V42.0651H29.4205V38.2927Z" fill="#C2A490"/>
<path d="M40.7318 53.3704H36.9594V57.1428H40.7318V53.3704Z" fill="#C2A490"/>
<path d="M55.8215 64.6818H48.2886V68.4542H55.8215V64.6818Z" fill="#C2A490"/>
<path d="M48.2885 60.9094H44.5161V68.4483H48.2885V60.9094Z" fill="#C2A490"/>
<path d="M55.8215 60.9094H48.2886V64.6818H55.8215V60.9094Z" fill="#EDCFB9"/>
<path d="M59.5998 60.9094H55.8274V68.4483H59.5998V60.9094Z" fill="#C2A490"/>
<path d="M67.1446 53.3704H70.917V49.598H67.1446V53.3704Z" fill="#C2A490"/>
<path d="M63.3722 57.1368H67.1447V53.3644H63.3722V57.1368Z" fill="#C2A490"/>
<path d="M63.3662 57.1368H40.7257V60.9093H63.3662V57.1368Z" fill="#C2A490"/>
<path d="M36.9593 23.209H33.1869V34.5203H36.9593V23.209Z" fill="#C2A490"/>
<path d="M33.187 42.0591H29.4146V49.598H33.187V42.0591Z" fill="#C2A490"/>
<path d="M70.917 38.2867H74.6895V34.5143H70.917V38.2867Z" fill="#C2A490"/>
<path d="M74.6835 42.0591H78.4559V38.2867H74.6835V42.0591Z" fill="#C2A490"/>
<path d="M67.1446 34.5203H70.917V23.209H67.1446V34.5203Z" fill="#C2A490"/>
<path d="M70.917 49.598H74.6895V42.0592H70.917V49.598Z" fill="#C2A490"/>
<path d="M46.0263 34.5203H42.2539V38.2927H46.0263V34.5203Z" fill="#383532"/>
<path d="M74.6955 38.2867H78.4679V26.9755H74.6955V38.2867Z" fill="#383532"/>
<path d="M25.6422 38.2867H29.4146V34.5143H25.6422V38.2867Z" fill="#383532"/>
<path d="M61.1159 34.5203H57.3435V38.2927H61.1159V34.5203Z" fill="#383532"/>
<path d="M53.5771 34.5203H49.8047V42.0592H53.5771V34.5203Z" fill="#C2A490"/>
<path d="M52.049 68.4482H21.9055V72.2206H18.1331V91.0707H52.049" fill="#299BBA"/>
<path d="M52.049 79.3775H21.9055V83.1499H18.1331V102H52.049" fill="#299BBA"/>
<path d="M52.049 68.4482H82.2342V72.2206H86.0067V91.0707H52.049" fill="#299BBA"/>
<path d="M52.049 79.3775H82.2342V83.1499H86.0067V102H52.049" fill="#299BBA"/>
<path d="M61.11 44.2498H57.3794V48.4102H61.11V44.2498Z" fill="#C30045"/>
<path d="M57.3793 44.2498H53.6487V48.4102H57.3793V44.2498Z" fill="#C30045"/>
<path d="M53.6487 44.2498H49.9181V48.4102H53.6487V44.2498Z" fill="#C30045"/>
<path d="M49.9121 44.2498H46.1815V48.4102H49.9121V44.2498Z" fill="#C30045"/>
<path d="M46.1814 44.2498H42.4508V48.4102H46.1814V44.2498Z" fill="#C30045"/>
<path d="M57.2839 48.4043H53.5532V52.5647H57.2839V48.4043Z" fill="#C30045"/>
<path d="M53.5531 48.4043H49.8225V52.5647H53.5531V48.4043Z" fill="#C30045"/>
<path d="M49.8226 48.4043H46.0919V52.5647H49.8226V48.4043Z" fill="#C30045"/>
<path d="M69.0725 43.9394V40.167H61.5277V43.9394H69.0725Z" fill="#FF92A0"/>
<path d="M42.6418 43.9455V40.173H35.097V43.9455H42.6418Z" fill="#FF92A0"/>
<path d="M36.9473 26.9814H33.1749V34.5202H36.9473V26.9814Z" fill="#C2A490"/>
<path d="M59.5878 19.4486H55.8154V23.221H59.5878V19.4486Z" fill="#C2A490"/>
<path d="M63.3603 23.215H59.5879V26.9874H63.3603V23.215Z" fill="#C2A490"/>
<path d="M67.1386 26.9874H63.3662V30.7598H67.1386V26.9874Z" fill="#C2A490"/>
<path d="M40.7198 26.9874H36.9474V30.7598H40.7198V26.9874Z" fill="#C2A490"/>
<path d="M44.4981 26.9874H40.7257V30.7598H44.4981V26.9874Z" fill="#C2A490"/>
<path d="M55.8094 23.215H44.4922V26.9874H55.8094V23.215Z" fill="#C2A490"/>
<path d="M21.8995 34.5263V30.7539H10.5883V34.5263H21.8995Z" fill="#5C9965"/>
<path d="M36.9474 34.5263V30.7539H21.9174V34.5263H36.9474Z" fill="#5C9965"/>
<path d="M70.9409 27.0173V23.1255L36.8758 23.1255V27.0173L70.9409 27.0173Z" fill="#6FB87A"/>
<path d="M52.043 8.12538C52.043 8.12538 37.0846 8.23282 36.9772 8.12538C36.8698 8.01197 29.4384 15.7717 29.4384 15.7717V23.2031H74.6954V15.6642L70.911 11.8918L67.1446 8.12538H52.049H52.043Z" fill="#6FB87A"/>
<path d="M33.2048 11.8978H36.9772V8.12535H33.2048V11.8978Z" fill="#5C9965"/>
<path d="M67.1386 11.8978H70.905V8.13132H67.1386V11.8978Z" fill="#5C9965"/>
<path d="M29.4324 19.5321H33.2048V11.8918H29.4324V19.5321Z" fill="#5C9965"/>
<path d="M74.6894 30.7479H78.4618V19.4366H74.6894V30.7479Z" fill="#5C9965"/>
<path d="M70.9111 30.7598H74.6835V19.4366H70.9111V30.7598Z" fill="#6FB87A"/>
<path d="M36.9713 8.12543L67.1387 8.12543V4.35301L36.9713 4.35301V8.12543Z" fill="#5C9965"/>
<path d="M25.6659 30.8494H29.4384V19.5381H25.6659V30.8494Z" fill="#5C9965"/>
<path d="M70.9111 19.5321H74.6835V11.8918H70.9111V19.5321Z" fill="#5C9965"/>
<path d="M36.9474 23.215H29.4384V30.7539H36.9474V23.215Z" fill="#6FB87A"/>
<path d="M70.8872 23.215H63.3782V30.7539H70.8872V23.215Z" fill="#6FB87A"/>
<path d="M89.7552 30.7658V26.9934H78.444V30.7658H89.7552Z" fill="#5C9965"/>
<path d="M78.4559 30.7658V26.9934L36.9474 26.9934V30.7658L78.4559 30.7658Z" fill="#5C9965"/>
<path d="M73.1554 87.2506C70.0813 87.2506 67.5743 84.7377 67.5743 81.6457C67.5743 78.5538 70.0754 76.0408 73.1554 76.0408C74.4566 76.0408 75.7101 76.4945 76.695 77.3122C76.9457 77.5211 77.1128 77.8614 77.1128 78.1539C77.1128 78.4463 77.0054 78.697 76.8084 78.9C76.6114 79.097 76.3488 79.2104 76.0683 79.2104C75.8295 79.2104 75.5907 79.1208 75.3937 78.9656C74.773 78.4583 73.9134 78.1479 73.1554 78.1479C71.2333 78.1479 69.6695 79.7177 69.6695 81.6457C69.6695 83.5737 71.2333 85.1436 73.1554 85.1436C74.9341 85.1436 76.0324 83.8662 76.0324 82.6963H73.2151V80.6489H77.1307C77.6739 80.6489 78.1276 81.0608 78.1753 81.6039C78.1932 81.795 78.1992 81.9442 78.1992 82.0815C78.1992 83.4484 77.8291 84.7436 76.8681 85.7106C75.8892 86.7015 74.7193 87.2447 73.1554 87.2447" fill="white"/>
<path d="M74.2356 81.6755C74.2356 82.2425 73.782 82.6962 73.2149 82.6962C72.6479 82.6962 72.1942 82.2366 72.1942 81.6755C72.1942 81.1144 72.6479 80.6548 73.2149 80.6548C73.782 80.6548 74.2356 81.1144 74.2356 81.6755Z" fill="#00C01E"/>
<path d="M44.4981 76.0408H40.7257V79.8431H44.4981V76.0408Z" fill="#6FB87A"/>
<path d="M48.2766 72.2385H44.5042V76.0407H48.2766V72.2385Z" fill="#6FB87A"/>
<path d="M59.582 79.843H63.3544V76.0408H59.582V79.843Z" fill="#6FB87A"/>
<path d="M55.7975 76.0408H59.5699V72.2386H55.7975V76.0408Z" fill="#6FB87A"/>
<path d="M55.8095 68.4422H48.2766V72.2445H55.8095V68.4422Z" fill="#6FB87A"/>
</svg>
