<svg width="85" height="85" viewBox="0 0 85 85" fill="none" xmlns="http://www.w3.org/2000/svg">
<path d="M71.7317 56.3397H14.2036V62.7267H71.7317V56.3397Z" fill="#EDCFB9"/>
<path d="M68.5231 53.1362V27.5732H65.3347V24.3746H62.1412V14.7892H58.9477V11.5906L58.9578 8.39714H52.5607H49.3622L49.3673 5.19861H30.171V8.39714H26.9573V11.5906H23.779V14.7892H20.5805V24.3696H17.387V53.1362" fill="#3D3A37"/>
<path d="M36.5629 17.9825H30.1709V27.5731H26.9724V30.7666H23.7587V33.9651H26.9724V40.3571H30.1709V43.5556H33.3695V46.7491H52.5607V43.5556H55.7592V40.3571H58.9577V33.9651H62.1512V30.7666H58.9577V27.5731H55.7592V17.9825H52.5556V14.7891H36.5629V17.9825Z" fill="#EDCFB9"/>
<path d="M30.1659 40.3572H26.9674V43.5557H30.1659V40.3572Z" fill="#C2A490"/>
<path d="M26.9673 27.5731H23.7688V30.7717H26.9673V27.5731Z" fill="#C2A490"/>
<path d="M55.7592 17.9825H52.5607V21.1811H55.7592V17.9825Z" fill="#C2A490"/>
<path d="M33.3594 17.9825H30.1609V21.1811H33.3594V17.9825Z" fill="#C2A490"/>
<path d="M42.965 17.9825H39.7665V21.1811H42.965V17.9825Z" fill="#C2A490"/>
<path d="M52.5657 17.9825H49.3672V21.1811H52.5657V17.9825Z" fill="#C2A490"/>
<path d="M55.7592 21.171H52.5607V24.3696H55.7592V21.171Z" fill="#C2A490"/>
<path d="M39.7665 21.171H33.3846V24.3696H39.7665V21.171Z" fill="#C2A490"/>
<path d="M49.3521 21.171H42.9702V24.3696H49.3521V21.171Z" fill="#C2A490"/>
<path d="M14.1986 59.5331H17.3971V56.3346H14.1986V59.5331Z" fill="#C2A490"/>
<path d="M17.392 62.7368H20.5906V59.5382H17.392V62.7368Z" fill="#C2A490"/>
<path d="M65.3397 62.7368H68.5382V59.5382H65.3397V62.7368Z" fill="#C2A490"/>
<path d="M20.5855 65.9353H65.3447V62.7368L20.5855 62.7368V65.9353Z" fill="#6FB87A"/>
<path d="M10.9999 62.7317H14.1985V59.5331H10.9999V62.7317Z" fill="#5C9965"/>
<path d="M10.9999 75.5106H14.1985L14.1985 62.7367H10.9999L10.9999 75.5106Z" fill="#5C9965"/>
<path d="M11.0202 85H14.0568L14.0568 71.8415H11.0202L11.0202 85Z" fill="#5C9965"/>
<path d="M71.7469 75.5106H74.9454V62.7367H71.7469V75.5106Z" fill="#5C9965"/>
<path d="M71.7469 85H74.9454V72.3476H71.7469V85Z" fill="#5C9965"/>
<path d="M17.3971 56.3397H36.5731V53.1412H17.3971V56.3397Z" fill="#C2A490"/>
<path d="M71.7418 56.3397H68.5432V59.5383H71.7418V56.3397Z" fill="#C2A490"/>
<path d="M74.9455 59.5331H71.7469V62.7317H74.9455V59.5331Z" fill="#5C9965"/>
<path d="M23.7689 30.7666H20.5703V33.9651H23.7689V30.7666Z" fill="#C2A490"/>
<path d="M26.9673 14.5867H23.7688V17.7852H26.9673V14.5867Z" fill="#299BBA"/>
<path d="M30.1659 11.3932H26.9674V14.5917H30.1659V11.3932Z" fill="#299BBA"/>
<path d="M33.3594 43.5557H30.1609V46.7542H33.3594V43.5557Z" fill="#C2A490"/>
<path d="M39.7717 49.9476H36.5731V53.1462H39.7717V49.9476Z" fill="#C2A490"/>
<path d="M39.7717 53.1412H36.5731V56.3397H39.7717V53.1412Z" fill="#EDCFB9"/>
<path d="M49.3622 53.1412H46.1637V56.3397H49.3622V53.1412Z" fill="#EDCFB9"/>
<path d="M46.1534 49.9476H39.7665V56.3346H46.1534V49.9476Z" fill="#EDCFB9"/>
<path d="M49.3622 49.9476H46.1637V53.1462H49.3622V49.9476Z" fill="#C2A490"/>
<path d="M55.7592 43.5557H58.9578V40.3571H55.7592V43.5557Z" fill="#C2A490"/>
<path d="M52.5607 46.7491H55.7593V43.5506H52.5607V46.7491Z" fill="#C2A490"/>
<path d="M52.5557 46.7491H33.3594V49.9477H52.5557V46.7491Z" fill="#C2A490"/>
<path d="M30.1659 21.1812H26.9674V27.5732H30.1659V21.1812Z" fill="#C2A490"/>
<path d="M26.9673 33.9651H23.7688V40.3571H26.9673V33.9651Z" fill="#C2A490"/>
<path d="M58.9527 30.7666H62.1512V27.5681H58.9527V30.7666Z" fill="#C2A490"/>
<path d="M62.1513 33.9651H65.3499V30.7665H62.1513V33.9651Z" fill="#C2A490"/>
<path d="M55.7592 27.5731H58.9578V24.3746H55.7592V27.5731Z" fill="#C2A490"/>
<path d="M58.9527 40.3572H62.1512V33.9652H58.9527V40.3572Z" fill="#C2A490"/>
<path d="M62.1563 11.5906H58.9578V14.7891H62.1563V11.5906Z" fill="#302E2B"/>
<path d="M62.1563 8.39709H58.9578V11.5956H62.1563V8.39709Z" fill="#302E2B"/>
<path d="M65.3498 14.7891H62.1512V24.3796H65.3498V14.7891Z" fill="#302E2B"/>
<path d="M58.9477 5.19861H49.3622V8.39714H58.9477V5.19861Z" fill="#302E2B"/>
<path d="M30.1659 5.19861H26.9674V8.39714H30.1659V5.19861Z" fill="#302E2B"/>
<path d="M26.9673 8.39709H23.7688V11.5956H26.9673V8.39709Z" fill="#302E2B"/>
<path d="M23.7891 11.5906H20.5906V14.7891H23.7891V11.5906Z" fill="#302E2B"/>
<path d="M17.397 24.3695H14.1985V56.3296H17.397V24.3695Z" fill="#302E2B"/>
<path d="M68.5484 24.3695H65.3499V53.1361H68.5484V24.3695Z" fill="#302E2B"/>
<path d="M20.5905 14.7891H17.392V24.3695H20.5905V14.7891Z" fill="#302E2B"/>
<path d="M49.3521 2H30.1812V5.19854H49.3521V2Z" fill="#302E2B"/>
<path d="M33.3594 17.9826V21.171H39.7666V17.9826H42.9651V21.171H49.352V17.9826H52.5607V14.5867H35.3635" fill="#3D3A37"/>
<path d="M68.5382 53.1412H49.3521V56.3397H68.5382V53.1412Z" fill="#C2A490"/>
<path d="M17.392 59.5433H14.1985V75.5157H71.7317V59.5331H68.5432V62.7367H65.3498V65.9353H20.5905V62.7367H17.4021L17.392 59.5433Z" fill="#6FB87A"/>
<path d="M17.2592 68.8151H14.0568V85H71.7519V68.8049H68.5545V72.0511H65.352V75.2921H20.4668V72.0511H17.2694L17.2592 68.8151Z" fill="#6FB87A"/>
<path d="M17.3919 64.837H68.5432V59.5382L17.3919 59.5382V64.837Z" fill="#6FB87A"/>
<path d="M38.147 27.573H34.9485V30.7715H38.147V27.573Z" fill="#383532"/>
<path d="M50.9411 27.573H47.7426V30.7715H50.9411V27.573Z" fill="#383532"/>
<path d="M50.8601 35.7009H47.697V39.2284H50.8601V35.7009Z" fill="#C30045"/>
<path d="M47.697 35.7009H44.5339V39.2284H47.697V35.7009Z" fill="#C30045"/>
<path d="M44.529 35.7009H41.3658V39.2284H44.529V35.7009Z" fill="#C30045"/>
<path d="M41.3659 35.7009H38.2028V39.2284H41.3659V35.7009Z" fill="#C30045"/>
<path d="M38.1977 35.7009H35.0345V39.2284H38.1977V35.7009Z" fill="#C30045"/>
<path d="M47.6161 39.2284H44.453V42.7559H47.6161V39.2284Z" fill="#C30045"/>
<path d="M44.453 39.2284H41.2899V42.7559H44.453V39.2284Z" fill="#C30045"/>
<path d="M41.2848 39.2284H38.1217V42.7559H41.2848V39.2284Z" fill="#C30045"/>
<path d="M44.5543 27.5326H41.3557V33.9246H44.5543V27.5326Z" fill="#C2A490"/>
<path d="M57.2725 36.2324V33.0338H50.8754V36.2324H57.2725Z" fill="#FF92A0"/>
<path d="M34.8676 36.2375V33.0389H28.4705V36.2375H34.8676Z" fill="#FF92A0"/>
<path d="M56.3463 13.1898H52.5607V21.1811H56.3463V13.1898Z" fill="#3D3A37"/>
<path d="M60.638 72.5196C58.0316 72.5196 55.906 70.389 55.906 67.7674C55.906 65.1458 58.0266 63.0151 60.638 63.0151C61.7413 63.0151 62.8041 63.3998 63.6392 64.0931C63.8517 64.2703 63.9934 64.5587 63.9934 64.8067C63.9934 65.0547 63.9023 65.2673 63.7353 65.4393C63.5683 65.6064 63.3456 65.7025 63.1078 65.7025C62.9053 65.7025 62.7029 65.6266 62.5359 65.495C62.0095 65.0648 61.2808 64.8017 60.638 64.8017C59.0084 64.8017 57.6824 66.1327 57.6824 67.7674C57.6824 69.4021 59.0084 70.7331 60.638 70.7331C62.1462 70.7331 63.0774 69.6501 63.0774 68.6581H60.6886V66.9222H64.0086C64.4692 66.9222 64.8538 67.2714 64.8943 67.732C64.9095 67.8939 64.9145 68.0204 64.9145 68.1368C64.9145 69.2958 64.6008 70.394 63.7859 71.2139C62.9559 72.054 61.964 72.5146 60.638 72.5146" fill="white"/>
<path d="M61.554 67.7977C61.554 68.2785 61.1694 68.6632 60.6886 68.6632C60.2078 68.6632 59.8231 68.2735 59.8231 67.7977C59.8231 67.322 60.2078 66.9323 60.6886 66.9323C61.1694 66.9323 61.554 67.322 61.554 67.7977Z" fill="#00C01E"/>
<path d="M58.9578 14.5867H55.7593V17.7852H58.9578V14.5867Z" fill="#299BBA"/>
<path d="M62.1563 17.775H58.9578V20.9736H62.1563V17.775Z" fill="#299BBA"/>
<path d="M23.7689 17.775H20.5703V20.9736H23.7689V17.775Z" fill="#299BBA"/>
<path d="M55.7592 11.3932H52.5607V14.5917H55.7592V11.3932Z" fill="#299BBA"/>
<path d="M52.5608 8.19458H30.1609V11.3931H52.5608V8.19458Z" fill="#299BBA"/>
</svg>
