<svg width="85" height="85" viewBox="0 0 85 85" fill="none" xmlns="http://www.w3.org/2000/svg">
<path d="M55.992 18.0587H59.2068V8.41938H55.992V18.0587Z" fill="#8F6C56"/>
<path d="M65.6212 21.2736H59.1102V27.6981H62.2029V30.9129H65.6212V21.5025" fill="#8F6C56"/>
<path d="M30.2991 21.2736H23.7881V27.6981H26.8859V30.9129H30.2991V21.5025" fill="#59544F"/>
<path d="M27.1096 18.0587H20.5986V24.4832H23.6914V27.698H27.1096V18.2876" fill="#99755D"/>
<path d="M40.6454 21.2736H34.1344V27.6981H37.2322V30.9129H40.6454V21.5025" fill="#59544F"/>
<path d="M30.2634 14.849V27.698H27.0537V30.9129H23.8236V34.1277H27.0537V40.5522H30.2634V43.7619H33.4782V46.9767H52.7721V43.7619H55.9869V40.5522H59.1967V34.1277H62.4115V30.9129H59.1967V27.698H55.9869V14.849H30.2634Z" fill="#EDCFB9"/>
<path d="M30.2584 40.5522H27.0436V43.7671H30.2584V40.5522Z" fill="#C2A490"/>
<path d="M27.0487 27.6981H23.8339V30.9129H27.0487V27.6981Z" fill="#C2A490"/>
<path d="M14.2149 59.8156H17.4297V56.6008H14.2149V59.8156Z" fill="#5C9965"/>
<path d="M11 75.8795H14.2148L14.2148 59.8157H11L11 75.8795Z" fill="#5C9965"/>
<path d="M11 85H14.2148L14.2148 68.9361H11L11 85Z" fill="#5C9965"/>
<path d="M17.4246 56.6008H27.1046V53.386H17.4246V56.6008Z" fill="#5C9965"/>
<path d="M72.0457 56.6008H68.8309V59.8156H72.0457V56.6008Z" fill="#5C9965"/>
<path d="M75.2656 59.8156H72.0508V75.8795H75.2656V59.8156Z" fill="#5C9965"/>
<path d="M75.2656 68.9362H72.0508V85H75.2656V68.9362Z" fill="#5C9965"/>
<path d="M68.8258 53.3911H49.5421V56.6059H68.8258V53.3911Z" fill="#5C9965"/>
<path d="M23.8338 30.913H20.619V34.1278H23.8338V30.913Z" fill="#C2A490"/>
<path d="M33.4731 43.762H30.2583V46.9768H33.4731V43.762Z" fill="#C2A490"/>
<path d="M46.3324 53.4013H39.913V56.6161H46.3324V53.4013Z" fill="#C2A490"/>
<path d="M39.9129 50.1865H36.6981V56.611H39.9129V50.1865Z" fill="#C2A490"/>
<path d="M46.3324 50.1865H39.913V53.4013H46.3324V50.1865Z" fill="#EDCFB9"/>
<path d="M49.5522 50.1865H46.3374V56.611H49.5522V50.1865Z" fill="#C2A490"/>
<path d="M55.9818 43.762H59.1967V40.5472H55.9818V43.762Z" fill="#C2A490"/>
<path d="M52.7721 46.9768H55.9869V43.762H52.7721V46.9768Z" fill="#C2A490"/>
<path d="M52.7619 46.9768H33.468V50.1916H52.7619V46.9768Z" fill="#C2A490"/>
<path d="M30.2584 21.2736H27.0436V27.6981H30.2584V21.2736Z" fill="#C2A490"/>
<path d="M27.0487 34.1277H23.8339V40.5522H27.0487V34.1277Z" fill="#C2A490"/>
<path d="M59.1967 30.913H62.4115V27.6982H59.1967V30.913Z" fill="#C2A490"/>
<path d="M62.4064 34.1227H65.6212V30.9079H62.4064V34.1227Z" fill="#C2A490"/>
<path d="M62.4064 37.6833H65.6212V34.4685H62.4064V37.6833Z" fill="#C2A490"/>
<path d="M55.9818 27.6981H59.1967V21.2736H55.9818V27.6981Z" fill="#C2A490"/>
<path d="M59.1967 40.5471H62.4115V34.1226H59.1967V40.5471Z" fill="#C2A490"/>
<path d="M62.4166 30.913H65.6313V21.2736H62.4166V30.913Z" fill="#8F6C56"/>
<path d="M20.6191 30.913H23.8339V24.4834H20.6191V30.913Z" fill="#8F6C56"/>
<path d="M17.4245 24.4884H20.6393V14.8491H17.4245V24.4884Z" fill="#8F6C56"/>
<path d="M20.5478 14.844H23.7626V11.6292H20.5478V14.844Z" fill="#8F6C56"/>
<path d="M27.0639 21.2787H30.2787V18.0639H27.0639V21.2787Z" fill="#99755D"/>
<path d="M55.9818 21.2787H59.1967V18.0639H55.9818V21.2787Z" fill="#8F6C56"/>
<path d="M20.619 18.0587H30.2991V14.8439L20.619 14.8439V18.0587Z" fill="#99755D"/>
<path d="M23.8134 14.844L59.1967 14.844V11.6292L23.8134 11.6292V14.844Z" fill="#99755D"/>
<path d="M23.8134 11.6393L59.1967 11.6393V8.42448L23.8134 8.42448V11.6393Z" fill="#99755D"/>
<path d="M27.1046 8.42456L59.1917 8.42456V5.20975L27.1046 5.20975V8.42456Z" fill="#99755D"/>
<path d="M23.7575 11.6343H26.9723V8.41947H23.7575V11.6343Z" fill="#8F6C56"/>
<path d="M62.4064 21.2736H65.6212V14.8439H62.4064V21.2736Z" fill="#8F6C56"/>
<path d="M26.9723 8.41943H30.1871V5.20463H26.9723V8.41943Z" fill="#8F6C56"/>
<path d="M59.2171 14.8541H62.4319V8.42451H59.2171V14.8541Z" fill="#8F6C56"/>
<path d="M55.9818 8.41943H59.1967V5.20463H55.9818V8.41943Z" fill="#8F6C56"/>
<path d="M30.182 5.21484L56.0684 5.21484V2.00004L30.182 2.00004V5.21484Z" fill="#8F6C56"/>
<path d="M30.2532 24.4884H33.468V14.8491H30.2532V24.4884Z" fill="#8F6C56"/>
<path d="M36.7033 24.4884H39.9181V14.8491H36.7033V24.4884Z" fill="#8F6C56"/>
<path d="M43.1481 24.4884H46.3629V14.8491H43.1481V24.4884Z" fill="#8F6C56"/>
<path d="M33.4782 24.4884H36.693V14.8491H33.4782V24.4884Z" fill="#99755D"/>
<path d="M39.9231 24.4884H43.1379V14.8491H39.9231V24.4884Z" fill="#99755D"/>
<path d="M46.368 24.4884H49.5828V14.8491H46.368V24.4884Z" fill="#99755D"/>
<path d="M52.7671 24.4884H55.9921V14.8491H52.7671V24.4884Z" fill="#99755D"/>
<path d="M59.1967 24.4884H62.4115V14.8491H59.1967V24.4884Z" fill="#8F6C56"/>
<path d="M43.1176 56.6008H17.4297V59.8156H14.2148V75.8795H43.1176" fill="#6FB87A"/>
<path d="M43.1176 65.7213H17.4297V68.9361H14.2148V85H43.1176" fill="#6FB87A"/>
<path d="M43.1176 56.6008H68.8411V59.8156H72.0559V75.8795H43.1176" fill="#6FB87A"/>
<path d="M43.1176 65.7213H68.8411V68.9361H72.0559V85H43.1176" fill="#6FB87A"/>
<path d="M49.5624 24.4884H52.7772V14.8491H49.5624V24.4884Z" fill="#8F6C56"/>
<path d="M27.069 56.6008H36.7032V53.386H27.069V56.6008Z" fill="#5C9965"/>
<path d="M33.4833 56.6161H36.6981V53.4013H33.4833V56.6161Z" fill="white"/>
<path d="M49.5523 56.6161H52.7671V53.4013H49.5523V56.6161Z" fill="white"/>
<path d="M36.6524 59.8258H49.5625V56.611H36.6524V59.8258Z" fill="white"/>
<path d="M39.913 63.0355H46.368V59.8207H39.913V63.0355Z" fill="white"/>
<path d="M68.7953 34.1277H62.4216V37.3425H68.7953V34.1277Z" fill="#8F6C56"/>
<path d="M68.8411 43.762H62.4216V46.9768H68.8411V43.762Z" fill="#8F6C56"/>
<path d="M62.4166 37.3374H59.2018V43.7568H62.4166V37.3374Z" fill="#8F6C56"/>
<path d="M72.0406 37.3374H68.8258V43.7568H72.0406V37.3374Z" fill="#8F6C56"/>
<path d="M68.8411 37.3323H62.4216V43.7517H68.8411V37.3323Z" fill="#99755D"/>
<path d="M38.2242 28.0439H35.0094V31.2588H38.2242V28.0439Z" fill="#383532"/>
<path d="M51.0833 28.0439H47.8685V31.2588H51.0833V28.0439Z" fill="#383532"/>
<path d="M44.5621 28.0439H41.444V34.4685H44.5621V28.0439Z" fill="#C2A490"/>
<path d="M51.0021 36.3353H47.8229V39.8808H51.0021V36.3353Z" fill="#C30045"/>
<path d="M47.8229 36.3353H44.6437V39.8808H47.8229V36.3353Z" fill="#C30045"/>
<path d="M44.6385 36.3353H41.4594V39.8808H44.6385V36.3353Z" fill="#C30045"/>
<path d="M41.4594 36.3353H38.2802V39.8808H41.4594V36.3353Z" fill="#C30045"/>
<path d="M38.2802 36.3353H35.101V39.8808H38.2802V36.3353Z" fill="#C30045"/>
<path d="M47.7415 39.8757H44.5623V43.4212H47.7415V39.8757Z" fill="#C30045"/>
<path d="M44.5623 39.8757H41.3831V43.4212H44.5623V39.8757Z" fill="#C30045"/>
<path d="M41.3779 39.8757H38.1987V43.4212H41.3779V39.8757Z" fill="#C30045"/>
<path d="M57.63 36.0709V32.8561H51.2004V36.0709H57.63Z" fill="#FF92A0"/>
<path d="M35.106 36.0759V32.8611H28.6763V36.0759H35.106Z" fill="#FF92A0"/>
<path d="M61.0533 72.624C58.4337 72.624 56.2972 70.4825 56.2972 67.8476C56.2972 65.2127 58.4286 63.0712 61.0533 63.0712C62.1622 63.0712 63.2305 63.4578 64.0698 64.1546C64.2834 64.3327 64.4258 64.6226 64.4258 64.8719C64.4258 65.1211 64.3343 65.3348 64.1664 65.5077C63.9985 65.6756 63.7747 65.7722 63.5356 65.7722C63.3322 65.7722 63.1287 65.6959 62.9608 65.5637C62.4318 65.1313 61.6993 64.8668 61.0533 64.8668C59.4154 64.8668 58.0827 66.2046 58.0827 67.8476C58.0827 69.4906 59.4154 70.8284 61.0533 70.8284C62.5692 70.8284 63.5051 69.7399 63.5051 68.7429H61.1042V66.9981H64.4411C64.904 66.9981 65.2906 67.3491 65.3313 67.812C65.3465 67.9748 65.3516 68.1019 65.3516 68.2189C65.3516 69.3838 65.0362 70.4876 64.2173 71.3117C63.383 72.156 62.386 72.6189 61.0533 72.6189" fill="white"/>
<path d="M61.974 67.873C61.974 68.3562 61.5875 68.7428 61.1042 68.7428C60.621 68.7428 60.2344 68.3511 60.2344 67.873C60.2344 67.3948 60.621 67.0032 61.1042 67.0032C61.5875 67.0032 61.974 67.3948 61.974 67.873Z" fill="#00C01E"/>
</svg>
