<svg width="85" height="85" viewBox="0 0 85 85" fill="none" xmlns="http://www.w3.org/2000/svg">
<path d="M42.9961 6.23975H33.6489V9.35715H30.5117V12.4795H27.4091V15.6018H24.6672L24.9438 24.376L24.4646 28.0814H61.9427V15.6018L58.7956 12.4795L52.378 9.35715L49.2458 6.23975H42.9961Z" fill="#3D3A37"/>
<path d="M30.7142 15.6019V28.0814H27.5919V31.2038H24.4547V34.3212H27.5919V40.561H30.7142V43.6833H33.8316V46.8057H52.5707V43.6833H55.693V40.561H58.8104V34.3212H61.9328V31.2038H58.8104V28.0814H55.693V15.6019H30.7142Z" fill="#EDCFB9"/>
<path d="M30.7044 40.5609H27.582V43.6832H30.7044V40.5609Z" fill="#C2A490"/>
<path d="M27.587 28.0813H24.4646V31.2036H27.587V28.0813Z" fill="#EDCFB9"/>
<path d="M49.4384 15.6019H43.2036V18.7243H49.4384V15.6019Z" fill="#C2A490"/>
<path d="M43.2036 15.6019H40.0813V18.7243H43.2036V15.6019Z" fill="#C2A490"/>
<path d="M15.1223 59.2901H18.2446V56.1677H15.1223V59.2901Z" fill="#22829C"/>
<path d="M12 74.8868H15.1223L15.1223 59.285H12L12 74.8868Z" fill="#22829C"/>
<path d="M12 85H15.1223L15.1223 69.3981H12L12 85Z" fill="#22829C"/>
<path d="M18.2398 56.1627H36.9591V53.0404H18.2398V56.1627Z" fill="#22829C"/>
<path d="M71.2901 56.1627H68.1677V59.2851H71.2901V56.1627Z" fill="#22829C"/>
<path d="M74.4173 59.2852H71.2949V74.887H74.4173V59.2852Z" fill="#22829C"/>
<path d="M74.4173 69.3981H71.2949V84.9999H74.4173V69.3981Z" fill="#22829C"/>
<path d="M68.1677 53.0452H49.4386V56.1676H68.1677V53.0452Z" fill="#22829C"/>
<path d="M24.4646 31.2036H21.3423V34.326H24.4646V31.2036Z" fill="#C2A490"/>
<path d="M33.8269 43.6832H30.7046V46.8056H33.8269V43.6832Z" fill="#C2A490"/>
<path d="M40.0862 49.923H36.9639V56.1627H40.0862V49.923Z" fill="#C2A490"/>
<path d="M49.4434 49.923H46.321V56.1627H49.4434V49.923Z" fill="#C2A490"/>
<path d="M55.6882 43.6882H58.8105V40.5659H55.6882V43.6882Z" fill="#C2A490"/>
<path d="M52.5708 46.8055H55.6931V43.6832H52.5708V46.8055Z" fill="#C2A490"/>
<path d="M52.5658 46.8055H33.8268V49.9279H52.5658V46.8055Z" fill="#C2A490"/>
<path d="M30.7044 18.7194H27.582V28.0815H30.7044V18.7194Z" fill="#C2A490"/>
<path d="M27.587 34.3209H24.4646V40.5607H27.587V34.3209Z" fill="#C2A490"/>
<path d="M58.8105 31.2036H61.9329V28.0813H58.8105V31.2036Z" fill="#EDCFB9"/>
<path d="M61.9328 34.3209H65.0552V31.1986H61.9328V34.3209Z" fill="#C2A490"/>
<path d="M55.6882 28.0813H58.8105V21.7773H55.6882V28.0813Z" fill="#C2A490"/>
<path d="M58.8105 40.5658H61.9329V34.326H58.8105V40.5658Z" fill="#C2A490"/>
<path d="M40.0815 15.6019H30.7194V18.7243H40.0815V15.6019Z" fill="#C2A490"/>
<path d="M55.6834 15.6019H49.4436V18.7243H55.6834V15.6019Z" fill="#C2A490"/>
<path d="M27.597 12.4796H24.4746V15.602H27.597V12.4796Z" fill="#302E2B"/>
<path d="M30.7244 9.35706H27.6021V12.4794H30.7244V9.35706Z" fill="#302E2B"/>
<path d="M33.8269 6.23975H30.7046V9.3621H33.8269V6.23975Z" fill="#302E2B"/>
<path d="M55.6784 3.11255H52.556V6.2349H55.6784V3.11255Z" fill="#302E2B"/>
<path d="M46.3559 3.11743H43.2335V6.23978H46.3559V3.11743Z" fill="#302E2B"/>
<path d="M52.5807 0H49.4584V6.23975H52.5807V0Z" fill="#302E2B"/>
<path d="M61.9428 12.4796H58.8204V15.602H61.9428V12.4796Z" fill="#302E2B"/>
<path d="M61.928 12.8698H58.8156V28.4716H61.928V12.8698Z" fill="#302E2B"/>
<path d="M49.4336 6.23975H33.8417V9.3621H49.4336V6.23975Z" fill="#302E2B"/>
<path d="M27.5922 12.3857H24.4797V27.9876H27.5922V12.3857Z" fill="#302E2B"/>
<path d="M55.7032 6.23975H49.4338V12.5091H55.7032V6.23975Z" fill="#3D3A37"/>
<path d="M30.7045 18.6254H27.5822V21.7477H30.7045V18.6254Z" fill="#3D3A37"/>
<path d="M58.7958 12.4796H55.6735V21.7775H58.7958V12.4796Z" fill="#3D3A37"/>
<path d="M55.708 18.655H52.5857V21.7774H55.708V18.655Z" fill="#C2A490"/>
<path d="M55.708 12.7167H52.5857V18.7193H55.708V12.7167Z" fill="#3D3A37"/>
<path d="M58.8057 6.23975H55.6833V9.3621H58.8057V6.23975Z" fill="#302E2B"/>
<path d="M58.7958 9.35706H55.6735V12.4794H58.7958V9.35706Z" fill="#302E2B"/>
<path d="M43.1938 56.1627H18.2447V59.2851H15.1223V74.8869H43.1938" fill="#299BBA"/>
<path d="M43.1938 66.2757H18.2447V69.398H15.1223V84.9999H43.1938" fill="#299BBA"/>
<path d="M43.1938 56.1627H68.1825V59.2851H71.2999V74.8869H43.1938" fill="#299BBA"/>
<path d="M43.1938 66.2757H68.1825V69.398H71.2999V84.9999H43.1938" fill="#299BBA"/>
<path d="M46.3161 49.923H40.0813V59.2851H46.3161V49.923Z" fill="#EDCFB9"/>
<path d="M43.2036 56.1627H40.0813V59.2851H43.2036V56.1627Z" fill="#C2A490"/>
<path d="M36.9641 53.0452H30.7046V56.1676H36.9641V53.0452Z" fill="#22829C"/>
<path d="M33.8269 56.1627H30.7046V59.2851H33.8269V56.1627Z" fill="#22829C"/>
<path d="M49.4386 56.1627H55.6981V53.0404H49.4386V56.1627Z" fill="#22829C"/>
<path d="M52.551 59.2901H55.6733V56.1677H52.551V59.2901Z" fill="#22829C"/>
<path d="M40.0862 68.6472H36.9639V71.7695H40.0862V68.6472Z" fill="#22829C"/>
<path d="M46.326 68.6472H43.2036V71.7695H46.326V68.6472Z" fill="#22829C"/>
<path d="M36.9739 59.2852H33.8516V68.6472H36.9739V59.2852Z" fill="#22829C"/>
<path d="M49.4434 59.2852H46.321V68.6472H49.4434V59.2852Z" fill="#22829C"/>
<path d="M40.0813 56.1627H33.8416V59.2851H40.0813V56.1627Z" fill="white"/>
<path d="M52.5659 56.1627H46.3262V59.2851H52.5659V56.1627Z" fill="white"/>
<path d="M40.0862 59.2852H36.9639V62.4075H40.0862V59.2852Z" fill="white"/>
<path d="M49.4485 59.2852H46.3262V62.4075H49.4485V59.2852Z" fill="white"/>
<path d="M46.326 62.4075H43.2036V65.5298H46.326V62.4075Z" fill="white"/>
<path d="M40.0862 62.4075H36.9639V65.5298H40.0862V62.4075Z" fill="white"/>
<path d="M46.326 65.5248H43.2036V68.6472H46.326V65.5248Z" fill="white"/>
<path d="M40.0862 65.5248H36.9639V68.6472H40.0862V65.5248Z" fill="white"/>
<path d="M46.326 59.2752H40.0813V62.3976H46.326V59.2752Z" fill="#6FB87A"/>
<path d="M43.2036 62.3927H40.0813V74.8722H43.2036V62.3927Z" fill="#6FB87A"/>
<path d="M46.326 56.1627H43.2036V59.2851H46.326V56.1627Z" fill="#C2A490"/>
<path d="M50.9254 36.0552H47.8376V39.4987H50.9254V36.0552Z" fill="#C30045"/>
<path d="M47.8376 36.0552H44.7499V39.4987H47.8376V36.0552Z" fill="#C30045"/>
<path d="M44.75 36.0552H41.6622V39.4987H44.75V36.0552Z" fill="#C30045"/>
<path d="M41.6573 36.0552H38.5696V39.4987H41.6573V36.0552Z" fill="#C30045"/>
<path d="M38.5696 36.0552H35.4818V39.4987H38.5696V36.0552Z" fill="#C30045"/>
<path d="M47.7588 39.4988H44.671V42.9423H47.7588V39.4988Z" fill="#C30045"/>
<path d="M44.6709 39.4988H41.5831V42.9423H44.6709V39.4988Z" fill="#C30045"/>
<path d="M41.5831 39.4988H38.4954V42.9423H41.5831V39.4988Z" fill="#C30045"/>
<path d="M38.5202 28.0813H35.3978V31.2036H38.5202V28.0813Z" fill="#383532"/>
<path d="M51.0097 28.0813H47.8873V31.2036H51.0097V28.0813Z" fill="#383532"/>
<path d="M44.7698 28.0813H41.6475V34.3211H44.7698V28.0813Z" fill="#C2A490"/>
<path d="M57.2739 35.8822V32.7599H51.0292V35.8822H57.2739Z" fill="#FF92A0"/>
<path d="M35.3978 35.8772V32.7549H29.1531V35.8772H35.3978Z" fill="#FF92A0"/>
<path d="M60.7967 71.8684C58.2523 71.8684 56.1774 69.7885 56.1774 67.2294C56.1774 64.6702 58.2474 62.5903 60.7967 62.5903C61.8737 62.5903 62.9112 62.9658 63.7263 63.6426C63.9338 63.8156 64.0722 64.0972 64.0722 64.3392C64.0722 64.5813 63.9832 64.7888 63.8202 64.9568C63.6572 65.1198 63.4398 65.2137 63.2076 65.2137C63.01 65.2137 62.8123 65.1396 62.6493 65.0111C62.1355 64.5912 61.4241 64.3343 60.7967 64.3343C59.2058 64.3343 57.9114 65.6336 57.9114 67.2294C57.9114 68.8251 59.2058 70.1245 60.7967 70.1245C62.2689 70.1245 63.1779 69.0672 63.1779 68.0989H60.8461V66.4043H64.087C64.5366 66.4043 64.912 66.7452 64.9515 67.1948C64.9664 67.3529 64.9713 67.4764 64.9713 67.59C64.9713 68.7214 64.665 69.7935 63.8696 70.5938C63.0594 71.4139 62.091 71.8635 60.7967 71.8635" fill="white"/>
<path d="M61.6917 67.2543C61.6917 67.7239 61.316 68.0995 60.8465 68.0995C60.3769 68.0995 60.0012 67.7189 60.0012 67.2543C60.0012 66.7897 60.3769 66.4091 60.8465 66.4091C61.316 66.4091 61.6917 66.7897 61.6917 67.2543Z" fill="#00C01E"/>
<path d="M33.8417 18.6846H30.7194V21.7476H33.8417V18.6846Z" fill="#C2A490"/>
<path d="M33.8317 13.3146H29.9485V18.7194H33.8317V13.3146Z" fill="#3D3A37"/>
<path d="M33.6441 26.7771H35.6844V24.7367H33.6441V26.7771Z" fill="#302E2B"/>
<path d="M35.5806 26.7771H37.621V24.7367H35.5806V26.7771Z" fill="#302E2B"/>
<path d="M37.5172 26.7771H39.5576V24.7367H37.5172V26.7771Z" fill="#302E2B"/>
<path d="M39.454 26.7771H41.4944V24.7367H39.454V26.7771Z" fill="#302E2B"/>
<path d="M39.454 28.7136H41.4944V26.6732H39.454V28.7136Z" fill="#302E2B"/>
<path d="M39.454 30.6504H41.4944V28.61H39.454V30.6504Z" fill="#302E2B"/>
<path d="M39.454 32.587H41.4944V30.5466H39.454V32.587Z" fill="#302E2B"/>
<path d="M29.568 26.7771H31.6084V24.7367H29.568V26.7771Z" fill="#302E2B"/>
<path d="M29.568 28.7136H31.6084V26.6732H29.568V28.7136Z" fill="#302E2B"/>
<path d="M29.568 30.6504H31.6084V28.61H29.568V30.6504Z" fill="#302E2B"/>
<path d="M29.568 32.587H31.6084V30.5466H29.568V32.587Z" fill="#302E2B"/>
<path d="M31.6035 26.7771H33.6439V24.7367H31.6035V26.7771Z" fill="#302E2B"/>
<path d="M33.6441 34.5435H35.6844V32.5031H33.6441V34.5435Z" fill="#302E2B"/>
<path d="M35.5806 34.5435H37.621V32.5031H35.5806V34.5435Z" fill="#302E2B"/>
<path d="M37.5172 34.5435H39.5576V32.5031H37.5172V34.5435Z" fill="#302E2B"/>
<path d="M31.6035 34.5435H33.6439V32.5031H31.6035V34.5435Z" fill="#302E2B"/>
<path d="M41.3756 30.6652H43.416V28.6248H41.3756V30.6652Z" fill="#302E2B"/>
<path d="M43.3124 30.6652H45.3528V28.6248H43.3124V30.6652Z" fill="#302E2B"/>
<path d="M49.1669 26.7771H51.2073V24.7367H49.1669V26.7771Z" fill="#302E2B"/>
<path d="M51.1033 26.7771H53.1437V24.7367H51.1033V26.7771Z" fill="#302E2B"/>
<path d="M53.0401 26.7771H55.0804V24.7367H53.0401V26.7771Z" fill="#302E2B"/>
<path d="M54.9768 26.7771H57.0172V24.7367H54.9768V26.7771Z" fill="#302E2B"/>
<path d="M54.9768 28.7136H57.0172V26.6732H54.9768V28.7136Z" fill="#302E2B"/>
<path d="M54.9768 30.6504H57.0172V28.61H54.9768V30.6504Z" fill="#302E2B"/>
<path d="M54.9768 32.587H57.0172V30.5466H54.9768V32.587Z" fill="#302E2B"/>
<path d="M45.0908 26.7771H47.1312V24.7367H45.0908V26.7771Z" fill="#302E2B"/>
<path d="M45.0908 28.7136H47.1312V26.6732H45.0908V28.7136Z" fill="#302E2B"/>
<path d="M45.0908 30.6504H47.1312V28.61H45.0908V30.6504Z" fill="#302E2B"/>
<path d="M45.0908 32.587H47.1312V30.5466H45.0908V32.587Z" fill="#302E2B"/>
<path d="M47.1314 26.7771H49.1718V24.7367H47.1314V26.7771Z" fill="#302E2B"/>
<path d="M49.1669 34.5435H51.2073V32.5031H49.1669V34.5435Z" fill="#302E2B"/>
<path d="M51.1033 34.5435H53.1437V32.5031H51.1033V34.5435Z" fill="#302E2B"/>
<path d="M53.0401 34.5435H55.0804V32.5031H53.0401V34.5435Z" fill="#302E2B"/>
<path d="M47.1314 34.5435H49.1718V32.5031H47.1314V34.5435Z" fill="#302E2B"/>
<path d="M58.8105 30.6404H61.9329V27.518H58.8105V30.6404Z" fill="#302E2B"/>
<path d="M56.0142 30.6404H59.1366V27.518H56.0142V30.6404Z" fill="#302E2B"/>
<path d="M27.1176 30.6404H30.24V27.518H27.1176V30.6404Z" fill="#302E2B"/>
<path d="M24.4747 30.6404H27.597V27.518H24.4747V30.6404Z" fill="#302E2B"/>
</svg>
