<svg width="85" height="85" viewBox="0 0 85 85" fill="none" xmlns="http://www.w3.org/2000/svg">
<path d="M19.8342 30.4941H23.0491V27.2792H19.8342V30.4941Z" fill="#C2A490"/>
<path d="M61.6076 30.4941H64.8225V27.2792H61.6076V30.4941Z" fill="#C2A490"/>
<path d="M26.2538 17.6398H29.4688V14.4249H26.2538V17.6398Z" fill="#C2A490"/>
<path d="M29.4688 14.4248H32.6837V11.2099H29.4688V14.4248Z" fill="#C2A490"/>
<path d="M23.044 27.2844H26.2589V17.6448H23.044V27.2844Z" fill="#C2A490"/>
<path d="M29.4789 11.2252H32.6938V8.01032H29.4789V11.2252Z" fill="#C2A490"/>
<path d="M23.044 17.6448H26.2589V14.4299H23.044V17.6448Z" fill="#C2A490"/>
<path d="M26.2538 14.4248H29.4688V11.2099H26.2538V14.4248Z" fill="#C2A490"/>
<path d="M58.3979 14.4298H55.183V17.6447H58.3979V14.4298Z" fill="#C2A490"/>
<path d="M55.188 11.215H51.9731V14.4299H55.188V11.215Z" fill="#C2A490"/>
<path d="M61.6127 17.6398H58.3978V27.2794H61.6127V17.6398Z" fill="#C2A490"/>
<path d="M55.1778 8.01025H51.9629V11.2252H55.1778V8.01025Z" fill="#C2A490"/>
<path d="M61.6127 14.4349H58.3978V17.6498H61.6127V14.4349Z" fill="#C2A490"/>
<path d="M58.3979 11.215H55.183V14.4299H58.3979V11.215Z" fill="#C2A490"/>
<path d="M29.4738 14.4349V27.2844H26.2589V30.4993H23.0287V33.7091H26.2589V40.1338H29.4738V43.3487H32.6836V46.5636H51.9781V43.3487H55.193V40.1338H58.4079V33.7091H61.6177V30.4993H58.4079V27.2844H55.193V14.4349H29.4738Z" fill="#EDCFB9"/>
<path d="M29.4687 40.1338H26.2538V43.3487H29.4687V40.1338Z" fill="#C2A490"/>
<path d="M26.2538 27.2843H23.0389V30.4992H26.2538V27.2843Z" fill="#EDCFB9"/>
<path d="M23.0389 30.4993H19.824V33.7142H23.0389V30.4993Z" fill="#C2A490"/>
<path d="M32.6785 43.3488H29.4636V46.5637H32.6785V43.3488Z" fill="#C2A490"/>
<path d="M55.1931 43.3488H58.408V40.1339H55.1931V43.3488Z" fill="#C2A490"/>
<path d="M51.9782 46.5585H55.1931V43.3436H51.9782V46.5585Z" fill="#C2A490"/>
<path d="M39.1237 46.5636H32.6786V49.7785H39.1237V46.5636Z" fill="#C2A490"/>
<path d="M51.9833 46.5636H45.5382V49.7785H51.9833V46.5636Z" fill="#C2A490"/>
<path d="M29.4687 17.6447H26.2538V27.2843H29.4687V17.6447Z" fill="#EDCFB9"/>
<path d="M32.6785 14.4298H29.4636V17.6447H32.6785V14.4298Z" fill="#EDCFB9"/>
<path d="M55.1931 14.4298H51.9781V17.6447H55.1931V14.4298Z" fill="#EDCFB9"/>
<path d="M51.968 11.2148H32.7091V14.4297H51.968V11.2148Z" fill="#EDCFB9"/>
<path d="M26.2538 33.7091H23.0389V40.1338H26.2538V33.7091Z" fill="#C2A490"/>
<path d="M58.4029 30.4941H61.6178V27.2792H58.4029V30.4941Z" fill="#EDCFB9"/>
<path d="M61.6177 33.7091H64.8326V30.4942H61.6177V33.7091Z" fill="#C2A490"/>
<path d="M55.1931 27.2843H58.408V17.6447H55.1931V27.2843Z" fill="#EDCFB9"/>
<path d="M58.4029 40.1338H61.6178V33.7091H58.4029V40.1338Z" fill="#C2A490"/>
<path d="M45.5433 46.5636H39.1185V49.7785H45.5433V46.5636Z" fill="#705E52"/>
<path d="M51.9679 46.5636H39.093V49.7785H51.9679V46.5636Z" fill="#C2A490"/>
<path d="M32.709 11.2148L48.7632 11.2148V7.99994L32.709 7.99994V11.2148Z" fill="#C2A490"/>
<path d="M29.5043 11.2148H32.7192V7.99994H29.5043V11.2148Z" fill="#C2A490"/>
<path d="M51.9731 11.2148H55.188V7.99994H51.9731V11.2148Z" fill="#C2A490"/>
<path d="M43.4373 11.2148L52.1359 11.2148V7.99994L43.4373 7.99994V11.2148Z" fill="#C2A490"/>
<path d="M37.4092 27.2843H34.1943V30.4992H37.4092V27.2843Z" fill="#383532"/>
<path d="M50.274 27.2843H47.0591V30.4992H50.274V27.2843Z" fill="#383532"/>
<path d="M43.8084 27.3402H40.6902V33.7649H43.8084V27.3402Z" fill="#C2A490"/>
<path d="M50.1977 35.2961H47.0184V38.8417H50.1977V35.2961Z" fill="#C30045"/>
<path d="M47.0184 35.2961H43.8391V38.8417H47.0184V35.2961Z" fill="#C30045"/>
<path d="M43.8341 35.2961H40.6548V38.8417H43.8341V35.2961Z" fill="#C30045"/>
<path d="M40.6548 35.2961H37.4755V38.8417H40.6548V35.2961Z" fill="#C30045"/>
<path d="M37.4754 35.2961H34.2961V38.8417H37.4754V35.2961Z" fill="#C30045"/>
<path d="M46.937 38.8418H43.7577V42.3873H46.937V38.8418Z" fill="#C30045"/>
<path d="M43.7577 38.8418H40.5784V42.3873H43.7577V38.8418Z" fill="#C30045"/>
<path d="M40.5733 38.8418H37.394V42.3873H40.5733V38.8418Z" fill="#C30045"/>
<path d="M56.7241 34.7315V31.5166H50.2943V34.7315H56.7241Z" fill="#FF92A0"/>
<path d="M34.1993 34.7315V31.5166H27.7695V34.7315H34.1993Z" fill="#FF92A0"/>
<path d="M10.2098 59.4181H13.4247V56.2032H10.2098V59.4181Z" fill="#5C9965"/>
<path d="M10.2098 58.9094H13.4247V55.6945H10.2098V58.9094Z" fill="#5C9965"/>
<path d="M26.2487 52.9883H35.9087V49.7734H26.2487V52.9883Z" fill="#6FB87A"/>
<path d="M26.2487 49.7734H32.7192V46.5585H26.2487V49.7734Z" fill="#6FB87A"/>
<path d="M48.7632 52.9883H65.5194V49.7734H48.7632V52.9883Z" fill="#6FB87A"/>
<path d="M51.9782 49.7683H64.9192V46.5534H51.9782V49.7683Z" fill="#6FB87A"/>
<path d="M23.0593 49.7734H26.2742V46.5585H23.0593V49.7734Z" fill="#5C9965"/>
<path d="M64.8377 52.9883H68.0526V49.7734H64.8377V52.9883Z" fill="#5C9965"/>
<path d="M64.8377 49.7734H68.0526V46.5585H64.8377V49.7734Z" fill="#5C9965"/>
<path d="M26.2486 46.5585H29.4635V43.3436H26.2486V46.5585Z" fill="#5C9965"/>
<path d="M55.1828 46.5585H58.3977V43.3436H55.1828V46.5585Z" fill="#5C9965"/>
<path d="M58.3926 46.5585H61.6075V43.3436H58.3926V46.5585Z" fill="#5C9965"/>
<path d="M61.6076 46.5585H64.8225V43.3436H61.6076V46.5585Z" fill="#5C9965"/>
<path d="M6.99994 75.4774H10.2148L10.2148 59.4131H6.99994L6.99994 75.4774Z" fill="#5C9965"/>
<path d="M6.99994 84.9949H10.2148L10.2148 68.9306H6.99994L6.99994 84.9949Z" fill="#5C9965"/>
<path d="M13.4247 59.4181H16.6396V56.2032H13.4247V59.4181Z" fill="#6FB87A"/>
<path d="M10.2098 75.4774H13.4247L13.4247 59.4131H10.2098L10.2098 75.4774Z" fill="#6FB87A"/>
<path d="M10.2098 84.9949H13.4247L13.4247 68.9306H10.2098L10.2098 84.9949Z" fill="#6FB87A"/>
<path d="M13.4298 56.2032H35.9138V52.9883H13.4298V56.2032Z" fill="#5C9965"/>
<path d="M71.2574 56.2032H68.0425V59.4181H71.2574V56.2032Z" fill="#6FB87A"/>
<path d="M74.4774 59.4181H71.2625V75.4824H74.4774V59.4181Z" fill="#6FB87A"/>
<path d="M74.4774 68.9356H71.2625V85H74.4774V68.9356Z" fill="#6FB87A"/>
<path d="M74.4774 56.2032H71.2625V59.4181H74.4774V56.2032Z" fill="#5C9965"/>
<path d="M77.6973 59.4181H74.4824V75.4824H77.6973V59.4181Z" fill="#5C9965"/>
<path d="M77.6973 68.9356H74.4824V85H77.6973V68.9356Z" fill="#5C9965"/>
<path d="M71.2574 52.9883H48.7582V56.2032H71.2574V52.9883Z" fill="#5C9965"/>
<path d="M45.5433 52.9883H39.1237V56.2032H45.5433V52.9883Z" fill="#C2A490"/>
<path d="M39.1287 49.7786H35.9138V56.2033H39.1287V49.7786Z" fill="#C2A490"/>
<path d="M45.5433 49.7786H39.1237V52.9935H45.5433V49.7786Z" fill="#EDCFB9"/>
<path d="M48.7632 49.7786H45.5483V56.2033H48.7632V49.7786Z" fill="#C2A490"/>
<path d="M42.3283 56.2032H16.6396V59.4181H13.4247V75.4824H42.3283" fill="#6FB87A"/>
<path d="M42.3283 65.7208H16.6396V68.9357H13.4247V85H42.3283" fill="#6FB87A"/>
<path d="M42.3284 56.2032H68.0578V59.4181H71.2676V75.4824H42.3284" fill="#6FB87A"/>
<path d="M42.3284 65.7208H68.0578V68.9357H71.2676V85H42.3284" fill="#6FB87A"/>
<path d="M60.3207 72.2217C57.7009 72.2217 55.5645 70.0802 55.5645 67.4452C55.5645 64.8102 57.6959 62.6686 60.3207 62.6686C61.4296 62.6686 62.4979 63.0552 63.3372 63.7521C63.5508 63.9301 63.6933 64.2201 63.6933 64.4693C63.6933 64.7186 63.6017 64.9322 63.4338 65.1052C63.266 65.2731 63.0422 65.3697 62.8031 65.3697C62.5996 65.3697 62.3961 65.2934 62.2283 65.1611C61.6992 64.7288 60.9667 64.4642 60.3207 64.4642C58.6827 64.4642 57.3499 65.8021 57.3499 67.4452C57.3499 69.0882 58.6827 70.4261 60.3207 70.4261C61.8366 70.4261 62.7726 69.3375 62.7726 68.3404H60.3715V66.5956H63.7085C64.1714 66.5956 64.558 66.9466 64.5987 67.4095C64.614 67.5723 64.6191 67.6995 64.6191 67.8165C64.6191 68.9814 64.3037 70.0852 63.4847 70.9093C62.6505 71.7537 61.6534 72.2166 60.3207 72.2166" fill="white"/>
<path d="M61.2414 67.4706C61.2414 67.9539 60.8548 68.3405 60.3716 68.3405C59.8883 68.3405 59.5017 67.9488 59.5017 67.4706C59.5017 66.9925 59.8883 66.6008 60.3716 66.6008C60.8548 66.6008 61.2414 66.9925 61.2414 67.4706Z" fill="#00C01E"/>
<path d="M35.8985 58.3651H38.0604V56.2032H35.8985V58.3651Z" fill="#5C9965"/>
<path d="M35.8985 60.527H38.0604V58.3651H35.8985V60.527Z" fill="#5C9965"/>
<path d="M35.8985 62.689H38.0604V60.5271H35.8985V62.689Z" fill="#5C9965"/>
<path d="M35.1407 65.7666H38.8083V62.099H35.1407V65.7666Z" fill="#5C9965"/>
<path d="M46.6013 58.3651H48.7632V56.2032H46.6013V58.3651Z" fill="#5C9965"/>
<path d="M46.6013 60.527H48.7632V58.3651H46.6013V60.527Z" fill="#5C9965"/>
<path d="M46.6013 62.689H48.7632V60.5271H46.6013V62.689Z" fill="#5C9965"/>
<path d="M45.8484 65.7666H49.516V62.099H45.8484V65.7666Z" fill="#5C9965"/>
<path d="M23.0593 52.9883H26.2742V49.7734H23.0593V52.9883Z" fill="#5C9965"/>
<path d="M32.6734 52.9883H35.8883V49.7734H32.6734V52.9883Z" fill="#5C9965"/>
<path d="M29.4636 49.7734H32.6785V46.5585H29.4636V49.7734Z" fill="#5C9965"/>
<path d="M48.7531 52.9883H51.968V49.7734H48.7531V52.9883Z" fill="#5C9965"/>
<path d="M45.5483 56.2032H48.7632V52.9883H45.5483V56.2032Z" fill="#5C9965"/>
<path d="M35.9088 56.2032H39.1237V52.9883H35.9088V56.2032Z" fill="#5C9965"/>
<path d="M51.9782 49.7734H55.1931V46.5585H51.9782V49.7734Z" fill="#5C9965"/>
<path d="M37.5161 59.4181H40.731V56.2032H37.5161V59.4181Z" fill="#5C9965"/>
<path d="M40.731 59.4181H43.9459V56.2032H40.731V59.4181Z" fill="#5C9965"/>
<path d="M43.9409 59.4181H47.1558V56.2032H43.9409V59.4181Z" fill="#5C9965"/>
</svg>
