<svg width="85" height="86" viewBox="0 0 85 86" fill="none" xmlns="http://www.w3.org/2000/svg">
<path d="M69.8292 46.6798V27.6212H66.6291V24.4211H63.434V14.8106H60.2289V11.6105L60.239 8.40531H53.8337H50.6285V5.2052H31.3924V8.40531H28.172V11.6105H24.9871V14.8106H21.7819V24.416H18.5818V46.8421" fill="#3D3A37"/>
<path d="M37.7979 18.0157H31.3926V27.6211H28.1925V30.8263H24.972V34.0315H28.1925V40.4368H31.3926V43.6369H34.5978V46.8421H53.8339V43.6369H57.034V40.4368H60.2392V34.0315H63.4393V30.8263H60.2392V27.6211H57.034V18.0157H53.8238V14.8105H37.7979V18.0157Z" fill="#EDCFB9"/>
<path d="M31.3873 40.4368H28.1821V43.642H31.3873V40.4368Z" fill="#C2A490"/>
<path d="M28.1822 27.6212H24.9771V30.8264H28.1822V27.6212Z" fill="#C2A490"/>
<path d="M57.039 18.0157H53.8339V21.2209H57.039V18.0157Z" fill="#C2A490"/>
<path d="M34.5925 18.0157H31.3873V21.2209H34.5925V18.0157Z" fill="#C2A490"/>
<path d="M44.2182 18.0157H41.0131V21.2209H44.2182V18.0157Z" fill="#C2A490"/>
<path d="M53.8338 18.0157H50.6287V21.2209H53.8338V18.0157Z" fill="#C2A490"/>
<path d="M41.0132 21.2108H34.618V24.416H41.0132V21.2108Z" fill="#C2A490"/>
<path d="M50.6134 21.2108H44.2183V24.416H50.6134V21.2108Z" fill="#C2A490"/>
<path d="M24.9822 30.8263H21.777V34.0315H24.9822V30.8263Z" fill="#C2A490"/>
<path d="M34.5925 43.637H31.3873V46.8421H34.5925V43.637Z" fill="#C2A490"/>
<path d="M57.034 43.637H60.2391V40.4318H57.034V43.637Z" fill="#C2A490"/>
<path d="M53.8288 46.842H57.0339V43.6369H53.8288V46.842Z" fill="#C2A490"/>
<path d="M53.8237 46.842H34.5875V50.0472H53.8237V46.842Z" fill="#C2A490"/>
<path d="M31.3873 21.2159H28.1821V27.6212H31.3873V21.2159Z" fill="#C2A490"/>
<path d="M28.1822 34.0315H24.9771V40.4368H28.1822V34.0315Z" fill="#C2A490"/>
<path d="M60.234 30.8263H63.4392V27.6211H60.234V30.8263Z" fill="#C2A490"/>
<path d="M63.4444 34.0265H66.6495V30.8213H63.4444V34.0265Z" fill="#C2A490"/>
<path d="M57.034 27.6262H60.2391V21.2209H57.034V27.6262Z" fill="#C2A490"/>
<path d="M60.234 40.4318H63.4392V34.0265H60.234V40.4318Z" fill="#C2A490"/>
<path d="M39.4866 27.6212H36.2814V30.8264H39.4866V27.6212Z" fill="#383532"/>
<path d="M63.4444 11.6105H60.2393V14.8157H63.4444V11.6105Z" fill="#302E2B"/>
<path d="M63.4444 8.40527H60.2393V11.6105H63.4444V8.40527Z" fill="#302E2B"/>
<path d="M66.6444 14.8105H63.4392V24.421H66.6444V14.8105Z" fill="#302E2B"/>
<path d="M60.2289 5.2052H50.6235V8.41039H60.2289V5.2052Z" fill="#302E2B"/>
<path d="M31.3873 5.2052H28.1821V8.41039H31.3873V5.2052Z" fill="#302E2B"/>
<path d="M28.1822 8.40527H24.9771V11.6105H28.1822V8.40527Z" fill="#302E2B"/>
<path d="M24.9973 11.6105H21.7921V14.8157H24.9973V11.6105Z" fill="#302E2B"/>
<path d="M18.5971 24.416H15.392V46.8421H18.5971V24.416Z" fill="#302E2B"/>
<path d="M69.8494 24.416H66.6443V46.8421H69.8494V24.416Z" fill="#302E2B"/>
<path d="M21.7921 14.8105H18.5869V24.4109H21.7921V14.8105Z" fill="#302E2B"/>
<path d="M50.6134 2H31.4026V5.20518H50.6134V2Z" fill="#302E2B"/>
<path d="M52.3074 27.6212H49.1022V30.8264H52.3074V27.6212Z" fill="#383532"/>
<path d="M34.5875 18.0157V21.2107H41.0131V18.0157H44.2132V21.2107H50.6134V18.0157H53.8338V14.6077H36.5958" fill="#3D3A37"/>
<path d="M52.2262 35.771H49.0565V39.3058H52.2262V35.771Z" fill="#C30045"/>
<path d="M49.0564 35.771H45.8867V39.3058H49.0564V35.771Z" fill="#C30045"/>
<path d="M45.8817 35.771H42.712V39.3058H45.8817V35.771Z" fill="#C30045"/>
<path d="M42.7122 35.771H39.5425V39.3058H42.7122V35.771Z" fill="#C30045"/>
<path d="M39.5424 35.771H36.3727V39.3058H39.5424V35.771Z" fill="#C30045"/>
<path d="M48.9753 39.3059H45.8057V42.8407H48.9753V39.3059Z" fill="#C30045"/>
<path d="M45.8057 39.3059H42.636V42.8407H45.8057V39.3059Z" fill="#C30045"/>
<path d="M42.6309 39.3059H39.4612V42.8407H42.6309V39.3059Z" fill="#C30045"/>
<path d="M45.9071 27.5857H42.7019V33.991H45.9071V27.5857Z" fill="#C2A490"/>
<path d="M58.6517 36.3035V33.0983H52.2414V36.3035H58.6517Z" fill="#FF92A0"/>
<path d="M36.1952 36.3086V33.1034H29.7848V36.3086H36.1952Z" fill="#FF92A0"/>
<path d="M66.6443 43.637H57.0389V46.8421H66.6443V43.637Z" fill="#302E2B"/>
<path d="M31.3925 43.647H15.392V46.8522H31.3925V43.647Z" fill="#302E2B"/>
<path d="M46.2265 53.2931H39.8263V56.4983H46.2265V53.2931Z" fill="#C2A490"/>
<path d="M39.8264 50.0879H36.6212V56.4932H39.8264V50.0879Z" fill="#C2A490"/>
<path d="M46.2265 50.0879H39.8263V53.2931H46.2265V50.0879Z" fill="#EDCFB9"/>
<path d="M49.4367 50.0879H46.2316V56.4932H49.4367V50.0879Z" fill="#C2A490"/>
<path d="M17.4153 56.3715H23.7699V53.1663H17.4153V56.3715Z" fill="#CFC8C3"/>
<path d="M68.6376 53.1663H62.2627V56.3715H68.6376V53.1663Z" fill="#CFC8C3"/>
<path d="M62.2069 53.1663H55.832V56.3715H62.2069V53.1663Z" fill="#6FB87A"/>
<path d="M30.2107 56.3715H33.4159V53.1663H30.2107V56.3715Z" fill="white"/>
<path d="M49.4266 56.3715H55.8522V53.1663H49.4266V56.3715Z" fill="#C2A490"/>
<path d="M55.8522 53.1663H52.647V56.3715H55.8522V53.1663Z" fill="white"/>
<path d="M39.8161 53.1663H36.611V56.3715H39.8161V53.1663Z" fill="#EDCFB9"/>
<path d="M49.4266 53.1663H46.2214V56.3715H49.4266V53.1663Z" fill="#EDCFB9"/>
<path d="M46.2165 49.9662H39.8163V56.3664H46.2165V49.9662Z" fill="#EDCFB9"/>
<path d="M68.6424 58.4863V56.3715H43.0314V75.5925H68.6424V59.5767V58.4863Z" fill="#6FB87A"/>
<path d="M71.8476 59.5767H68.6425V75.5924H71.8476V59.5767Z" fill="white"/>
<path d="M68.6424 67.8939V65.7791H43.0314V85.0001H68.6424V68.9843V67.8939Z" fill="#6FB87A"/>
<path d="M71.8476 68.9843H68.6425V85.0001H71.8476V68.9843Z" fill="white"/>
<path d="M11.0051 75.5924H14.2103L14.2103 65.9769H11.0051L11.0051 75.5924Z" fill="#CFC8C3"/>
<path d="M11.0051 85.0001H14.2103L14.2103 75.3845H11.0051L11.0051 85.0001Z" fill="#CFC8C3"/>
<path d="M43.0214 56.3715H17.4104V59.5767H14.2052V75.5925H43.0214" fill="#6FB87A"/>
<path d="M43.0214 65.7791H17.4104V68.9843H14.2052V85.0001H43.0214" fill="#6FB87A"/>
<path d="M33.4059 53.1714H30.2007V59.5716H33.4059V53.1714Z" fill="white"/>
<path d="M27.0005 53.1714H23.7953V59.5716H27.0005V53.1714Z" fill="white"/>
<path d="M23.7954 59.5767H20.5902V62.7818H23.7954V59.5767Z" fill="white"/>
<path d="M36.6161 59.5767H33.4109V62.7818H36.6161V59.5767Z" fill="white"/>
<path d="M52.6167 59.5767H36.6313V62.7818H52.6167V59.5767Z" fill="white"/>
<path d="M17.4053 56.3715H14.2001V59.5767H17.4053V56.3715Z" fill="#CFC8C3"/>
<path d="M14.2052 59.5767H11V65.9769H14.2052V59.5767Z" fill="#CFC8C3"/>
<path d="M20.6053 62.7717H17.4001V75.5925H20.6053V62.7717Z" fill="white"/>
<path d="M20.6053 72.1793H17.4001V85H20.6053V72.1793Z" fill="white"/>
<path d="M23.7903 56.3715H17.39V59.5767H23.7903V56.3715Z" fill="white"/>
<path d="M30.2209 56.3715H27.0157V59.5767H30.2209V56.3715Z" fill="#6FB87A"/>
<path d="M30.2209 53.1663H27.0157V56.3715H30.2209V53.1663Z" fill="#6FB87A"/>
<path d="M20.5902 59.5767H14.1899V62.7818H20.5902V59.5767Z" fill="white"/>
<path d="M75.053 65.9769H71.8478V75.5925H75.053V65.9769Z" fill="#CFC8C3"/>
<path d="M75.053 75.3845H71.8478V85.0001H75.053V75.3845Z" fill="#CFC8C3"/>
<path d="M52.6522 59.5715H55.832V53.1713H52.6522V59.5715Z" fill="white"/>
<path d="M59.0524 59.5715H62.2576V53.1713H59.0524V59.5715Z" fill="white"/>
<path d="M62.2575 62.7818H65.4626V59.5766H62.2575V62.7818Z" fill="white"/>
<path d="M68.6527 59.5767H71.8579V56.3715H68.6527V59.5767Z" fill="#CFC8C3"/>
<path d="M71.8478 65.9769H75.053V59.5767H71.8478V65.9769Z" fill="#CFC8C3"/>
<path d="M65.4474 75.5924H68.6526V62.7717H65.4474V75.5924Z" fill="white"/>
<path d="M65.4474 85.0001H68.6526V72.1793H65.4474V85.0001Z" fill="white"/>
<path d="M68.6527 75.5924H71.8579V62.7717H68.6527V75.5924Z" stroke="#7A7672" stroke-width="0.02" stroke-miterlimit="10"/>
<path d="M68.6527 85.0001H71.8579V72.1793H68.6527V85.0001Z" stroke="#7A7672" stroke-width="0.02" stroke-miterlimit="10"/>
<path d="M62.2626 59.5767H68.6628V56.3715H62.2626V59.5767Z" fill="white"/>
<path d="M55.8319 59.5767H59.0371V56.3715H55.8319V59.5767Z" fill="#6FB87A"/>
<path d="M65.4678 62.7818H71.868V59.5766H65.4678V62.7818Z" fill="white"/>
<path d="M52.647 56.3715H33.421V59.5767H52.647V56.3715Z" fill="#EDCFB9"/>
<path d="M14.195 75.5924H17.4001V62.7818H14.195L14.195 75.5924Z" fill="white"/>
<path d="M14.195 85.0001H17.4001V72.1895H14.195L14.195 85.0001Z" fill="white"/>
<path d="M33.3956 59.5665H36.6008V53.1663H33.3956V59.5665Z" fill="#C2A490"/>
<path d="M49.4215 59.5665H52.6267V53.1663H49.4215V59.5665Z" fill="#C2A490"/>
<path d="M43.4778 73.0922C41.5659 73.0922 40.014 71.5302 40.014 69.6132C40.014 67.6962 41.571 66.1342 43.4778 66.1342C44.2842 66.1342 45.0652 66.4131 45.6789 66.9253C45.8361 67.0572 45.9375 67.2651 45.9375 67.4477C45.9375 67.6302 45.8716 67.7875 45.7448 67.9092C45.6231 68.0309 45.4608 68.1019 45.2833 68.1019C45.1362 68.1019 44.9841 68.0461 44.8675 67.9497C44.482 67.6353 43.9495 67.4426 43.4778 67.4426C42.286 67.4426 41.3123 68.4163 41.3123 69.6183C41.3123 70.8202 42.281 71.7939 43.4778 71.7939C44.5834 71.7939 45.2681 70.9977 45.2681 70.2725H43.5184V68.9995H45.9527C46.2925 68.9995 46.5715 69.2531 46.6019 69.5929C46.612 69.7146 46.6171 69.8059 46.6171 69.8871C46.6171 70.7391 46.3889 71.5404 45.7904 72.1439C45.1819 72.7575 44.4566 73.0973 43.4829 73.0973" fill="white"/>
<path d="M44.1523 69.6284C44.1523 69.9783 43.8683 70.2623 43.5183 70.2623C43.1684 70.2623 42.8844 69.9783 42.8844 69.6284C42.8844 69.2784 43.1684 68.9944 43.5183 68.9944C43.8683 68.9944 44.1523 69.2784 44.1523 69.6284Z" fill="#00C01E"/>
<path d="M58.9003 14.8105H49.5332V18.0157H58.9003V14.8105Z" fill="#3D3A37"/>
</svg>
