<svg width="100" height="106" viewBox="0 0 100 106" fill="none" xmlns="http://www.w3.org/2000/svg">
<mask id="path-1-outside-1_115_2291" maskUnits="userSpaceOnUse" x="4.23535" y="0.352966" width="92" height="106" fill="black">
<rect fill="white" x="4.23535" y="0.352966" width="92" height="106"/>
<path fill-rule="evenodd" clip-rule="evenodd" d="M57.3159 8.13023H49.7673V4.35296H57.3159V8.13023ZM42.2128 4.3589H49.7613V8.13617H42.2128V4.3589ZM49.7614 15.6848V8.13617H57.3159V11.9075H57.3218V8.13025H64.8703V11.9075L64.8704 11.9075L72.413 11.9075V15.6788H72.4189V19.4561L72.419 19.456V19.4561H76.1782V23.2333L76.1903 23.2332H79.9675V35.3182H81.1209V37.5833H79.9675V38.3304H76.6145L79.9674 38.3304H81.1209V33.053H83.3801V30.7878H85.6452V42.1017H87.5161V45.879L91.2932 45.8789V49.6562L87.5161 49.6562V53.4335H83.7388V49.6562H83.7448L83.7447 49.6562H79.9674V45.8789L76.2022 45.879V42.1017L76.1962 42.0958V42.1077L72.4249 42.1077L72.4249 49.6562L68.6537 49.6562V53.4335H64.8764V49.6562H64.8704V53.4335H64.8704V57.2048L61.0991 57.2048L61.087 57.2048V60.982H57.3158V64.6039H64.8762V64.6099H64.8763L68.6475 64.6099L72.3651 64.6099L72.4247 64.6099V68.3871L72.4308 68.3871V64.6099H79.9435V68.3871L79.9495 68.3871L79.9555 68.3872H79.9734H83.7328V72.1584H87.498V79.701H83.7328V79.707H87.504V90.6682V91.0388V102L83.7328 102L83.7267 102L79.9614 102H79.9555H76.1841L49.7672 102V91.0388V88.0584L49.7553 88.0569V91.0388V102L23.3382 102L19.561 102H15.7837V101.994H12.0185V91.0328V90.6622L12.0185 79.707V72.1644H15.7718L15.7838 72.1644V68.3871H19.5491H19.5611H19.573H27.0916H27.0917V64.6159H30.869V68.3871L30.8928 68.3871V64.6099H34.6581V64.6039H38.4353V64.6099H42.1888V68.3871H42.2007V64.6099H42.2128V60.982H38.4175V57.2107H34.6462V53.4335H34.6523V49.6562H34.6463V53.4335H30.869V49.6562H30.881V42.1077L30.8689 42.1077V49.6562H27.0917V42.1077L27.0858 42.1077V42.1076L25.0715 42.1076L23.3205 42.1076L23.3205 42.1076L23.3265 42.1076V45.8849H19.5492L19.5492 45.8849H19.5611V49.6622H15.7898V53.4334H12.0126V49.6562L12.0126 45.8849H15.7839L12.0126 45.8849V42.1076H15.7898H19.5492L19.5611 42.1076L19.5611 38.3304V37.5773H18.306V38.3304H19.5611V42.1076H15.7838V42.1017H13.7816V30.7818H16.0468V33.0529H18.306V35.3122H19.5611V23.2333H23.3205L23.3205 23.2333V19.4561H27.0977V23.2333H27.1097V19.462H27.1097V15.6848V15.6847V11.9075H34.6582L34.6582 8.13619H42.2068L42.2068 11.9075V8.13617H49.7613V15.6848H49.7614ZM68.5277 34.5591H64.8764V30.0766H64.8704V34.5591H68.5277L68.5277 34.5591ZM83.7448 45.8789V45.8849H87.516V45.8789H83.7448ZM34.6523 30.8524L34.6463 30.8586V34.5591H30.9954L30.9954 34.5591H34.6523V30.8524ZM30.8689 34.6835L30.881 34.6717V38.3304H30.8689V34.6835ZM34.6582 11.9135H34.6582V15.6847H34.6582L34.6582 11.9135ZM49.7553 84.4812V86.5053L49.7672 86.5078V84.4955L49.7553 84.4812ZM49.7553 83.5392L49.7672 83.5249V81.4891L49.7553 81.4916V83.5392ZM49.7672 79.9263V79.3483V75.9417H49.7553V79.3483V79.9279L49.7672 79.9263ZM61.0991 68.3871V68.3812H61.0751V68.3871H61.099L61.0991 68.3871ZM45.99 68.3871H45.9901V68.3752H45.99V68.3871ZM53.5386 64.6099H53.5327V60.982H53.5386V64.6099ZM68.6477 38.3303H72.0902V38.3304L68.6477 38.3304L68.6477 38.3303ZM38.4296 57.2048L38.4235 57.2048V53.4335H38.4296V57.2048ZM8.23529 45.8849H12.0126V49.6622H8.23529V45.8849ZM27.0677 68.3812H19.5789V64.6039H27.0677V68.3812Z"/>
</mask>
<path fill-rule="evenodd" clip-rule="evenodd" d="M57.3159 8.13023H49.7673V4.35296H57.3159V8.13023ZM42.2128 4.3589H49.7613V8.13617H42.2128V4.3589ZM49.7614 15.6848V8.13617H57.3159V11.9075H57.3218V8.13025H64.8703V11.9075L64.8704 11.9075L72.413 11.9075V15.6788H72.4189V19.4561L72.419 19.456V19.4561H76.1782V23.2333L76.1903 23.2332H79.9675V35.3182H81.1209V37.5833H79.9675V38.3304H76.6145L79.9674 38.3304H81.1209V33.053H83.3801V30.7878H85.6452V42.1017H87.5161V45.879L91.2932 45.8789V49.6562L87.5161 49.6562V53.4335H83.7388V49.6562H83.7448L83.7447 49.6562H79.9674V45.8789L76.2022 45.879V42.1017L76.1962 42.0958V42.1077L72.4249 42.1077L72.4249 49.6562L68.6537 49.6562V53.4335H64.8764V49.6562H64.8704V53.4335H64.8704V57.2048L61.0991 57.2048L61.087 57.2048V60.982H57.3158V64.6039H64.8762V64.6099H64.8763L68.6475 64.6099L72.3651 64.6099L72.4247 64.6099V68.3871L72.4308 68.3871V64.6099H79.9435V68.3871L79.9495 68.3871L79.9555 68.3872H79.9734H83.7328V72.1584H87.498V79.701H83.7328V79.707H87.504V90.6682V91.0388V102L83.7328 102L83.7267 102L79.9614 102H79.9555H76.1841L49.7672 102V91.0388V88.0584L49.7553 88.0569V91.0388V102L23.3382 102L19.561 102H15.7837V101.994H12.0185V91.0328V90.6622L12.0185 79.707V72.1644H15.7718L15.7838 72.1644V68.3871H19.5491H19.5611H19.573H27.0916H27.0917V64.6159H30.869V68.3871L30.8928 68.3871V64.6099H34.6581V64.6039H38.4353V64.6099H42.1888V68.3871H42.2007V64.6099H42.2128V60.982H38.4175V57.2107H34.6462V53.4335H34.6523V49.6562H34.6463V53.4335H30.869V49.6562H30.881V42.1077L30.8689 42.1077V49.6562H27.0917V42.1077L27.0858 42.1077V42.1076L25.0715 42.1076L23.3205 42.1076L23.3205 42.1076L23.3265 42.1076V45.8849H19.5492L19.5492 45.8849H19.5611V49.6622H15.7898V53.4334H12.0126V49.6562L12.0126 45.8849H15.7839L12.0126 45.8849V42.1076H15.7898H19.5492L19.5611 42.1076L19.5611 38.3304V37.5773H18.306V38.3304H19.5611V42.1076H15.7838V42.1017H13.7816V30.7818H16.0468V33.0529H18.306V35.3122H19.5611V23.2333H23.3205L23.3205 23.2333V19.4561H27.0977V23.2333H27.1097V19.462H27.1097V15.6848V15.6847V11.9075H34.6582L34.6582 8.13619H42.2068L42.2068 11.9075V8.13617H49.7613V15.6848H49.7614ZM68.5277 34.5591H64.8764V30.0766H64.8704V34.5591H68.5277L68.5277 34.5591ZM83.7448 45.8789V45.8849H87.516V45.8789H83.7448ZM34.6523 30.8524L34.6463 30.8586V34.5591H30.9954L30.9954 34.5591H34.6523V30.8524ZM30.8689 34.6835L30.881 34.6717V38.3304H30.8689V34.6835ZM34.6582 11.9135H34.6582V15.6847H34.6582L34.6582 11.9135ZM49.7553 84.4812V86.5053L49.7672 86.5078V84.4955L49.7553 84.4812ZM49.7553 83.5392L49.7672 83.5249V81.4891L49.7553 81.4916V83.5392ZM49.7672 79.9263V79.3483V75.9417H49.7553V79.3483V79.9279L49.7672 79.9263ZM61.0991 68.3871V68.3812H61.0751V68.3871H61.099L61.0991 68.3871ZM45.99 68.3871H45.9901V68.3752H45.99V68.3871ZM53.5386 64.6099H53.5327V60.982H53.5386V64.6099ZM68.6477 38.3303H72.0902V38.3304L68.6477 38.3304L68.6477 38.3303ZM38.4296 57.2048L38.4235 57.2048V53.4335H38.4296V57.2048ZM8.23529 45.8849H12.0126V49.6622H8.23529V45.8849ZM27.0677 68.3812H19.5789V64.6039H27.0677V68.3812Z" fill="#00C01E"/>
<path d="M49.7673 8.13023H45.7673V12.1302H49.7673V8.13023ZM57.3159 8.13023V12.1302H61.3159V8.13023H57.3159ZM49.7673 4.35296V0.352963H45.7673V4.35296H49.7673ZM57.3159 4.35296H61.3159V0.352963H57.3159V4.35296ZM49.7613 4.3589H53.7613V0.358901H49.7613V4.3589ZM42.2128 4.3589V0.358901H38.2128V4.3589H42.2128ZM49.7613 8.13617V12.1362H53.7613V8.13617H49.7613ZM42.2128 8.13617H38.2128V12.1362H42.2128V8.13617ZM49.7614 15.6848V19.6848H53.7614V15.6848H49.7614ZM49.7614 8.13617V4.13617H45.7614V8.13617H49.7614ZM57.3159 8.13617H61.3159V4.13617H57.3159V8.13617ZM57.3159 11.9075H53.3159V15.9075H57.3159V11.9075ZM57.3218 11.9075V15.9075H61.3218V11.9075H57.3218ZM57.3218 8.13025V4.13025H53.3218V8.13025H57.3218ZM64.8703 8.13025H68.8703V4.13025H64.8703V8.13025ZM64.8703 11.9075H60.8703V16.2098L65.1612 15.8969L64.8703 11.9075ZM64.8704 11.9075L64.8704 7.90746L64.7248 7.90746L64.5795 7.91805L64.8704 11.9075ZM72.413 11.9075H76.413V7.90747L72.413 7.90746V11.9075ZM72.413 15.6788H68.413V19.6788H72.413V15.6788ZM72.4189 15.6788H76.4189V11.6788H72.4189V15.6788ZM72.4189 19.4561H68.4189V25.5991L74.0369 23.1142L72.4189 19.4561ZM72.419 19.456H76.419V13.313L70.8009 15.7979L72.419 19.456ZM72.419 19.4561H68.419V23.4561H72.419V19.4561ZM76.1782 19.4561H80.1782V15.4561H76.1782V19.4561ZM76.1782 23.2333H72.1782V27.2415L76.1864 27.2333L76.1782 23.2333ZM76.1903 23.2332V19.2332L76.1821 19.2333L76.1903 23.2332ZM79.9675 23.2332H83.9675V19.2332H79.9675V23.2332ZM79.9675 35.3182H75.9675V39.3182H79.9675V35.3182ZM81.1209 35.3182H85.1209V31.3182H81.1209V35.3182ZM81.1209 37.5833V41.5833H85.1209V37.5833H81.1209ZM79.9675 37.5833V33.5833H75.9675V37.5833H79.9675ZM79.9675 38.3304V42.3304H83.9675V38.3304H79.9675ZM79.9674 38.3304L79.9674 42.3304H79.9674V38.3304ZM81.1209 38.3304V42.3304H85.1209V38.3304H81.1209ZM81.1209 33.053V29.053H77.1209V33.053H81.1209ZM83.3801 33.053V37.053H87.3801V33.053H83.3801ZM83.3801 30.7878V26.7878H79.3801V30.7878H83.3801ZM85.6452 30.7878H89.6452V26.7878H85.6452V30.7878ZM85.6452 42.1017H81.6452V46.1017H85.6452V42.1017ZM87.5161 42.1017H91.5161V38.1017H87.5161V42.1017ZM87.5161 45.879H83.5161V49.879L87.5161 49.879L87.5161 45.879ZM91.2932 45.8789H95.2932V41.8789L91.2932 41.8789L91.2932 45.8789ZM91.2932 49.6562L91.2933 53.6562L95.2932 53.6562V49.6562H91.2932ZM87.5161 49.6562L87.5161 45.6562L83.5161 45.6562V49.6562H87.5161ZM87.5161 53.4335V57.4335H91.5161V53.4335H87.5161ZM83.7388 53.4335H79.7388V57.4335H83.7388V53.4335ZM83.7388 49.6562V45.6562H79.7388V49.6562H83.7388ZM83.7448 49.6562V53.6562L84.7972 45.7971L83.7448 49.6562ZM83.7447 49.6562L84.7972 45.7971L84.2804 45.6562H83.7447V49.6562ZM79.9674 49.6562H75.9674V53.6562H79.9674V49.6562ZM79.9674 45.8789H83.9674V41.8789L79.9674 41.8789L79.9674 45.8789ZM76.2022 45.879H72.2022V49.879L76.2022 49.879L76.2022 45.879ZM76.2022 42.1017H80.2022V40.4117L78.9904 39.2336L76.2022 42.1017ZM76.1962 42.0958L78.9844 39.2278L72.1962 32.6286V42.0958H76.1962ZM76.1962 42.1077L76.1962 46.1077L80.1962 46.1076V42.1077H76.1962ZM72.4249 42.1077L72.4249 38.1077L68.425 38.1077L68.4249 42.1077L72.4249 42.1077ZM72.4249 49.6562L72.4249 53.6562L76.4249 53.6562L76.4249 49.6562L72.4249 49.6562ZM68.6537 49.6562L68.6537 45.6562L64.6537 45.6562V49.6562H68.6537ZM68.6537 53.4335V57.4335H72.6537V53.4335H68.6537ZM64.8764 53.4335H60.8764V57.4335H64.8764V53.4335ZM64.8764 49.6562H68.8764V45.6562H64.8764V49.6562ZM64.8704 49.6562V45.6562H60.8704V49.6562H64.8704ZM64.8704 53.4335V57.4335H68.8704V53.4335H64.8704ZM64.8704 53.4335V49.4335H60.8704V53.4335H64.8704ZM64.8704 57.2048L64.8704 61.2048L68.8704 61.2048V57.2048H64.8704ZM61.0991 57.2048L61.0928 61.2048H61.0991L61.0991 57.2048ZM61.087 57.2048L61.0934 53.2048L57.087 53.1985V57.2048H61.087ZM61.087 60.982V64.982H65.087V60.982H61.087ZM57.3158 60.982V56.982H53.3158V60.982H57.3158ZM57.3158 64.6039H53.3158V68.6039H57.3158V64.6039ZM64.8762 64.6039H68.8762V60.6039H64.8762V64.6039ZM64.8762 64.6099H60.8762V68.6099H64.8762V64.6099ZM64.8763 64.6099L64.8763 60.6099H64.8763V64.6099ZM68.6475 64.6099L68.6475 68.6099L68.6475 68.6099L68.6475 64.6099ZM72.3651 64.6099L72.3653 60.6099H72.3651L72.3651 64.6099ZM72.4247 64.6099H76.4247V60.6101L72.425 60.6099L72.4247 64.6099ZM72.4247 68.3871H68.4247V72.3922L72.4298 72.3871L72.4247 68.3871ZM72.4308 68.3871L72.4358 72.3871L76.4308 72.3821V68.3871H72.4308ZM72.4308 64.6099V60.6099H68.4308V64.6099H72.4308ZM79.9435 64.6099H83.9435V60.6099H79.9435V64.6099ZM79.9435 68.3871H75.9435V72.377L79.9333 72.3871L79.9435 68.3871ZM79.9495 68.3871L79.9646 64.3872L79.9597 64.3872L79.9495 68.3871ZM79.9555 68.3872L79.9403 72.3871L79.9479 72.3872H79.9555V68.3872ZM83.7328 68.3872H87.7328V64.3872H83.7328V68.3872ZM83.7328 72.1584H79.7328V76.1584H83.7328V72.1584ZM87.498 72.1584H91.498V68.1584H87.498V72.1584ZM87.498 79.701V83.701H91.498V79.701H87.498ZM83.7328 79.701V75.701H79.7328V79.701H83.7328ZM83.7328 79.707H79.7328V83.707H83.7328V79.707ZM87.504 79.707H91.504V75.707H87.504V79.707ZM87.504 102L87.504 106L91.504 106V102H87.504ZM83.7328 102L83.7328 98H83.7277L83.7328 102ZM83.7267 102L83.7267 106H83.7318L83.7267 102ZM79.9614 102L79.9614 98H79.9614V102ZM76.1841 102V106V102ZM49.7672 102H45.7672V106H49.7672L49.7672 102ZM49.7672 88.0584H53.7672V84.5487L50.2872 84.0924L49.7672 88.0584ZM49.7553 88.0569L50.2753 84.0908L45.7553 83.4982V88.0569H49.7553ZM49.7553 102V106H53.7553V102H49.7553ZM23.3382 102L23.3382 98H23.3382L23.3382 102ZM19.561 102V106H19.561L19.561 102ZM15.7837 102H11.7837V106H15.7837V102ZM15.7837 101.994H19.7837V97.994H15.7837V101.994ZM12.0185 101.994H8.01849V105.994H12.0185V101.994ZM12.0185 90.6622H16.0185V90.6622L12.0185 90.6622ZM12.0185 79.707H8.01847V79.707L12.0185 79.707ZM12.0185 72.1644V68.1644H8.01847V72.1644H12.0185ZM15.7718 72.1644V76.1644L15.7794 76.1644L15.7718 72.1644ZM15.7838 72.1644L15.7914 76.1644L19.7838 76.1568V72.1644H15.7838ZM15.7838 68.3871V64.3871H11.7838V68.3871H15.7838ZM27.0917 68.3871V72.3871H31.0917V68.3871H27.0917ZM27.0917 64.6159V60.6159H23.0917V64.6159H27.0917ZM30.869 64.6159H34.869V60.6159H30.869V64.6159ZM30.869 68.3871H26.869V72.3859L30.8677 72.3871L30.869 68.3871ZM30.8928 68.3871L30.8916 72.3871L34.8928 72.3884V68.3871H30.8928ZM30.8928 64.6099V60.6099H26.8928V64.6099H30.8928ZM34.6581 64.6099V68.6099H38.6581V64.6099H34.6581ZM34.6581 64.6039V60.6039H30.6581V64.6039H34.6581ZM38.4353 64.6039H42.4353V60.6039H38.4353V64.6039ZM38.4353 64.6099H34.4353V68.6099H38.4353V64.6099ZM42.1888 64.6099H46.1888V60.6099H42.1888V64.6099ZM42.1888 68.3871H38.1888V72.3871H42.1888V68.3871ZM42.2007 68.3871V72.3871H46.2007V68.3871H42.2007ZM42.2007 64.6099V60.6099H38.2007V64.6099H42.2007ZM42.2128 64.6099V68.6099H46.2128V64.6099H42.2128ZM42.2128 60.982H46.2128V56.982H42.2128V60.982ZM38.4175 60.982H34.4175V64.982H38.4175V60.982ZM38.4175 57.2107H42.4175V53.2107H38.4175V57.2107ZM34.6462 57.2107H30.6462V61.2107H34.6462V57.2107ZM34.6462 53.4335V49.4335H30.6462V53.4335H34.6462ZM34.6523 53.4335V57.4335H38.6523V53.4335H34.6523ZM34.6523 49.6562H38.6523V45.6562H34.6523V49.6562ZM34.6463 49.6562V45.6562H30.6463V49.6562H34.6463ZM34.6463 53.4335V57.4335H38.6463V53.4335H34.6463ZM30.869 53.4335H26.869V57.4335H30.869V53.4335ZM30.869 49.6562V45.6562H26.869V49.6562H30.869ZM30.881 49.6562V53.6562H34.881V49.6562H30.881ZM30.881 42.1077H34.881V38.1153L30.8886 38.1077L30.881 42.1077ZM30.8689 42.1077L30.8765 38.1077L26.8689 38.1001V42.1077H30.8689ZM30.8689 49.6562V53.6562H34.8689V49.6562H30.8689ZM27.0917 49.6562H23.0917V53.6562H27.0917V49.6562ZM27.0917 42.1077H31.0917V38.092L27.076 38.1077L27.0917 42.1077ZM27.0858 42.1077H23.0858V46.1233L27.1014 46.1077L27.0858 42.1077ZM27.0858 42.1076H31.0858V38.1075L27.0858 38.1076L27.0858 42.1076ZM25.0715 42.1076L25.0715 46.1076H25.0716L25.0715 42.1076ZM23.3205 42.1076L23.3206 38.1076L21.6818 38.1076L20.5141 39.2573L23.3205 42.1076ZM23.3205 42.1076L20.514 39.2574L13.5378 46.1263L23.3281 46.1076L23.3205 42.1076ZM23.3265 42.1076H27.3265V38.1L23.3188 38.1076L23.3265 42.1076ZM23.3265 45.8849V49.8849H27.3265V45.8849H23.3265ZM19.5492 45.8849V41.8849H18.5373L17.6471 42.3661L19.5492 45.8849ZM19.5492 45.8849L17.6471 42.3661L19.5492 49.8849V45.8849ZM19.5611 45.8849H23.5611V41.8849H19.5611V45.8849ZM19.5611 49.6622V53.6622H23.5611V49.6622H19.5611ZM15.7898 49.6622V45.6622H11.7898V49.6622H15.7898ZM15.7898 53.4334V57.4334H19.7898V53.4334H15.7898ZM12.0126 53.4334H8.01258V57.4334H12.0126V53.4334ZM12.0126 49.6562H16.0126V49.6562L12.0126 49.6562ZM12.0126 45.8849V41.8849H8.01257L8.01257 45.8849L12.0126 45.8849ZM12.0126 45.8849H8.01258V49.8849L12.0126 49.8849L12.0126 45.8849ZM12.0126 42.1076V38.1076H8.01258V42.1076H12.0126ZM19.5492 42.1076L19.553 38.1076H19.5492V42.1076ZM19.5611 42.1076L19.5573 46.1076L23.5611 46.1115L23.5611 42.1076L19.5611 42.1076ZM19.5611 38.3304H15.5611V38.3304L19.5611 38.3304ZM19.5611 37.5773H23.5611V33.5773H19.5611V37.5773ZM18.306 37.5773V33.5773H14.306V37.5773H18.306ZM18.306 38.3304H14.306V42.3304H18.306V38.3304ZM19.5611 38.3304H23.5611V34.3304H19.5611V38.3304ZM19.5611 42.1076V46.1076H23.5611V42.1076H19.5611ZM15.7838 42.1076H11.7838V46.1076H15.7838V42.1076ZM15.7838 42.1017H19.7838V38.1017H15.7838V42.1017ZM13.7816 42.1017H9.78162V46.1017H13.7816V42.1017ZM13.7816 30.7818V26.7818H9.78162V30.7818H13.7816ZM16.0468 30.7818H20.0468V26.7818H16.0468V30.7818ZM16.0468 33.0529H12.0468V37.0529H16.0468V33.0529ZM18.306 33.0529H22.306V29.0529H18.306V33.0529ZM18.306 35.3122H14.306V39.3122H18.306V35.3122ZM19.5611 35.3122V39.3122H23.5611V35.3122H19.5611ZM19.5611 23.2333V19.2333H15.5611V23.2333H19.5611ZM23.3205 23.2333V27.2333H28.0423L27.266 22.5757L23.3205 23.2333ZM23.3205 23.2333H19.3205V23.5644L19.3749 23.8909L23.3205 23.2333ZM23.3205 19.4561V15.4561H19.3205V19.4561H23.3205ZM27.0977 19.4561H31.0977V15.4561H27.0977V19.4561ZM27.0977 23.2333H23.0977V27.2333H27.0977V23.2333ZM27.1097 23.2333V27.2333H31.1097V23.2333H27.1097ZM27.1097 19.462H31.1097V15.462H27.1097V19.462ZM27.1097 19.462H23.1097V23.462H27.1097V19.462ZM27.1097 11.9075V7.90751H23.1097V11.9075H27.1097ZM34.6582 11.9075V15.9075H38.6582L38.6582 11.9075L34.6582 11.9075ZM34.6582 8.13619V4.13619H30.6582L30.6582 8.1362L34.6582 8.13619ZM42.2068 8.13619L46.2068 8.13616L46.2067 4.13619H42.2068V8.13619ZM42.2068 11.9075L38.2068 11.9075L46.2068 11.9075H42.2068ZM42.2068 8.13617V4.13617H38.2068V8.13617H42.2068ZM49.7613 8.13617H53.7613V4.13617H49.7613V8.13617ZM49.7613 15.6848H45.7613V19.6848H49.7613V15.6848ZM64.8764 34.5591H60.8764V38.5591H64.8764V34.5591ZM68.5277 34.5591L71.3078 31.6831L70.145 30.5591H68.5277V34.5591ZM64.8764 30.0766H68.8764V26.0766H64.8764V30.0766ZM64.8704 30.0766V26.0766H60.8704V30.0766H64.8704ZM64.8704 34.5591H60.8704V38.5591H64.8704V34.5591ZM68.5277 34.5591V38.5591H78.4209L71.3078 31.6832L68.5277 34.5591ZM83.7448 45.8789V41.8789H79.7448V45.8789H83.7448ZM83.7448 45.8849H79.7448V49.8849H83.7448V45.8849ZM87.516 45.8849V49.8849H91.516V45.8849H87.516ZM87.516 45.8789H91.516V41.8789H87.516V45.8789ZM34.6463 30.8586L31.7896 28.0587L30.6463 29.2252V30.8586H34.6463ZM34.6523 30.8524H38.6523V21.0567L31.7956 28.0526L34.6523 30.8524ZM34.6463 34.5591V38.5591H38.6463V34.5591H34.6463ZM30.9954 34.5591V30.5591H29.3386L28.167 31.7307L30.9954 34.5591ZM30.9954 34.5591L28.167 31.7307L21.3386 38.5591H30.9954V34.5591ZM34.6523 34.5591V38.5591H38.6523V34.5591H34.6523ZM30.881 34.6717H34.881V25.1268L28.0761 31.8199L30.881 34.6717ZM30.8689 34.6835L28.064 31.8318L26.8689 33.0072V34.6835H30.8689ZM30.881 38.3304V42.3304H34.881V38.3304H30.881ZM30.8689 38.3304H26.8689V42.3304H30.8689V38.3304ZM34.6582 11.9135H38.6582V7.91345H34.6582V11.9135ZM34.6582 11.9135V7.91345H30.6582L30.6582 11.9135L34.6582 11.9135ZM34.6582 15.6847V19.6847H38.6582V15.6847H34.6582ZM34.6582 15.6847L30.6582 15.6847L30.6582 19.6847H34.6582V15.6847ZM49.7553 86.5053H45.7553V89.743L48.922 90.4175L49.7553 86.5053ZM49.7553 84.4812L52.8274 81.9195L45.7553 73.4384V84.4812H49.7553ZM49.7672 86.5078L48.934 90.4201L53.7672 91.4495V86.5078H49.7672ZM49.7672 84.4955H53.7672V83.0466L52.8393 81.9338L49.7672 84.4955ZM49.7672 83.5249L52.8393 86.0866L53.7672 84.9738V83.5249H49.7672ZM49.7553 83.5392H45.7553V94.582L52.8274 86.1009L49.7553 83.5392ZM49.7672 81.4891H53.7672V76.5412L48.9292 77.5779L49.7672 81.4891ZM49.7553 81.4916L48.9172 77.5804L45.7553 78.2579V81.4916H49.7553ZM49.7672 79.9263L50.2897 83.892L53.7672 83.4338V79.9263H49.7672ZM49.7672 75.9417H53.7672V71.9417H49.7672V75.9417ZM49.7553 75.9417V71.9417H45.7553V75.9417H49.7553ZM49.7553 79.9279H45.7553V84.4894L50.2778 83.8936L49.7553 79.9279ZM61.0991 68.3812H65.0991V64.3812H61.0991V68.3812ZM61.0991 68.3871L61.9231 72.3013L65.0991 71.6327V68.3871H61.0991ZM61.0751 68.3812V64.3812H57.0751V68.3812H61.0751ZM61.0751 68.3871H57.0751V72.3871H61.0751V68.3871ZM61.099 68.3871V72.3871H61.5155L61.923 72.3013L61.099 68.3871ZM45.9901 68.3871V72.3871H49.9901V68.3871H45.9901ZM45.99 68.3871H41.99V72.3871H45.99V68.3871ZM45.9901 68.3752H49.9901V64.3752H45.9901V68.3752ZM45.99 68.3752V64.3752H41.99V68.3752H45.99ZM53.5327 64.6099H49.5327V68.6099H53.5327V64.6099ZM53.5386 64.6099V68.6099H57.5386V64.6099H53.5386ZM53.5327 60.982V56.982H49.5327V60.982H53.5327ZM53.5386 60.982H57.5386V56.982H53.5386V60.982ZM72.0902 38.3303H76.0902V34.3303H72.0902V38.3303ZM68.6477 38.3303V34.3303H64.0114L64.6908 38.9165L68.6477 38.3303ZM72.0902 38.3304L72.0902 42.3304L76.0902 42.3304V38.3304H72.0902ZM68.6477 38.3304L64.6909 38.9166L65.1966 42.3304L68.6477 42.3304L68.6477 38.3304ZM38.4235 57.2048H34.4235V61.1922L38.4109 61.2048L38.4235 57.2048ZM38.4296 57.2048L38.417 61.2048L42.4296 61.2174V57.2048H38.4296ZM38.4235 53.4335V49.4335H34.4235V53.4335H38.4235ZM38.4296 53.4335H42.4296V49.4335H38.4296V53.4335ZM12.0126 45.8849H16.0126V41.8849H12.0126V45.8849ZM8.23529 45.8849V41.8849H4.23529V45.8849H8.23529ZM12.0126 49.6622V53.6622H16.0126V49.6622H12.0126ZM8.23529 49.6622H4.23529V53.6622H8.23529V49.6622ZM19.5789 68.3812H15.5789V72.3812H19.5789V68.3812ZM27.0677 68.3812V72.3812H31.0677V68.3812H27.0677ZM19.5789 64.6039V60.6039H15.5789V64.6039H19.5789ZM27.0677 64.6039H31.0677V60.6039H27.0677V64.6039ZM49.7673 12.1302H57.3159V4.13023H49.7673V12.1302ZM45.7673 4.35296V8.13023H53.7673V4.35296H45.7673ZM57.3159 0.352963H49.7673V8.35296H57.3159V0.352963ZM61.3159 8.13023V4.35296H53.3159V8.13023H61.3159ZM49.7613 0.358901H42.2128V8.3589H49.7613V0.358901ZM53.7613 8.13617V4.3589H45.7613V8.13617H53.7613ZM42.2128 12.1362H49.7613V4.13617H42.2128V12.1362ZM38.2128 4.3589V8.13617H46.2128V4.3589H38.2128ZM53.7614 15.6848V8.13617H45.7614V15.6848H53.7614ZM49.7614 12.1362H57.3159V4.13617H49.7614V12.1362ZM53.3159 8.13617V11.9075H61.3159V8.13617H53.3159ZM57.3159 15.9075H57.3218V7.90746H57.3159V15.9075ZM61.3218 11.9075V8.13025H53.3218V11.9075H61.3218ZM57.3218 12.1302H64.8703V4.13025H57.3218V12.1302ZM60.8703 8.13025V11.9075H68.8703V8.13025H60.8703ZM65.1612 15.8969L65.1613 15.8969L64.5795 7.91805L64.5794 7.91806L65.1612 15.8969ZM64.8704 15.9075L72.413 15.9075V7.90746L64.8704 7.90746L64.8704 15.9075ZM68.413 11.9075V15.6788H76.413V11.9075H68.413ZM72.413 19.6788H72.4189V11.6788H72.413V19.6788ZM68.4189 15.6788V19.4561H76.4189V15.6788H68.4189ZM74.0369 23.1142L74.037 23.1142L70.8009 15.7979L70.8008 15.7979L74.0369 23.1142ZM68.419 19.456V19.4561H76.419V19.456H68.419ZM72.419 23.4561H76.1782V15.4561H72.419V23.4561ZM72.1782 19.4561V23.2333H80.1782V19.4561H72.1782ZM76.1864 27.2333L76.1985 27.2332L76.1821 19.2333L76.17 19.2333L76.1864 27.2333ZM76.1903 27.2332H79.9675V19.2332H76.1903V27.2332ZM75.9675 23.2332V35.3182H83.9675V23.2332H75.9675ZM79.9675 39.3182H81.1209V31.3182H79.9675V39.3182ZM77.1209 35.3182V37.5833H85.1209V35.3182H77.1209ZM81.1209 33.5833H79.9675V41.5833H81.1209V33.5833ZM75.9675 37.5833V38.3304H83.9675V37.5833H75.9675ZM79.9675 34.3304H76.6145V42.3304H79.9675V34.3304ZM76.6145 42.3304L79.9674 42.3304L79.9675 34.3304L76.6145 34.3304L76.6145 42.3304ZM79.9674 42.3304H81.1209V34.3304H79.9674V42.3304ZM85.1209 38.3304V33.053H77.1209V38.3304H85.1209ZM81.1209 37.053H83.3801V29.053H81.1209V37.053ZM87.3801 33.053V30.7878H79.3801V33.053H87.3801ZM83.3801 34.7878H85.6452V26.7878H83.3801V34.7878ZM81.6452 30.7878V42.1017H89.6452V30.7878H81.6452ZM85.6452 46.1017H87.5161V38.1017H85.6452V46.1017ZM83.5161 42.1017V45.879H91.5161V42.1017H83.5161ZM87.5161 49.879L91.2933 49.8789L91.2932 41.8789L87.516 41.879L87.5161 49.879ZM87.2932 45.8789V49.6562H95.2932V45.8789H87.2932ZM91.2932 45.6562L87.5161 45.6562L87.5161 53.6562L91.2933 53.6562L91.2932 45.6562ZM83.5161 49.6562V53.4335H91.5161V49.6562H83.5161ZM87.5161 49.4335H83.7388V57.4335H87.5161V49.4335ZM87.7388 53.4335V49.6562H79.7388V53.4335H87.7388ZM83.7388 53.6562H83.7448V45.6562H83.7388V53.6562ZM84.7972 45.7971L84.7972 45.7971L82.6922 53.5152L82.6923 53.5153L84.7972 45.7971ZM83.7447 45.6562H79.9674V53.6562H83.7447V45.6562ZM83.9674 49.6562V45.8789H75.9674V49.6562H83.9674ZM79.9674 41.8789L76.2021 41.879L76.2022 49.879L79.9675 49.8789L79.9674 41.8789ZM80.2022 45.879V42.1017H72.2022V45.879H80.2022ZM78.9904 39.2336L78.9844 39.2278L73.408 44.9639L73.414 44.9698L78.9904 39.2336ZM72.1962 42.0958V42.1077H80.1962V42.0958H72.1962ZM76.1961 38.1077L72.4249 38.1077L72.425 46.1077L76.1962 46.1077L76.1961 38.1077ZM68.4249 42.1077L68.4249 49.6562L76.4249 49.6562L76.4249 42.1077L68.4249 42.1077ZM72.4249 45.6562L68.6537 45.6562L68.6537 53.6562L72.4249 53.6562L72.4249 45.6562ZM64.6537 49.6562V53.4335H72.6537V49.6562H64.6537ZM68.6537 49.4335H64.8764V57.4335H68.6537V49.4335ZM68.8764 53.4335V49.6562H60.8764V53.4335H68.8764ZM64.8764 45.6562H64.8704V53.6562H64.8764V45.6562ZM60.8704 49.6562V53.4335H68.8704V49.6562H60.8704ZM64.8704 49.4335H64.8704V57.4335H64.8704V49.4335ZM60.8704 53.4335V57.2048H68.8704V53.4335H60.8704ZM64.8703 53.2048L61.0991 53.2048L61.0991 61.2048L64.8704 61.2048L64.8703 53.2048ZM61.1054 53.2048L61.0934 53.2048L61.0807 61.2048L61.0928 61.2048L61.1054 53.2048ZM57.087 57.2048V60.982H65.087V57.2048H57.087ZM61.087 56.982H57.3158V64.982H61.087V56.982ZM53.3158 60.982V64.6039H61.3158V60.982H53.3158ZM57.3158 68.6039H64.8762V60.6039H57.3158V68.6039ZM60.8762 64.6039V64.6099H68.8762V64.6039H60.8762ZM64.8762 68.6099H64.8763V60.6099H64.8762V68.6099ZM64.8763 68.6099H68.6475L68.6475 60.6099L64.8763 60.6099L64.8763 68.6099ZM68.6475 68.6099H72.3651L72.3651 60.6099L68.6475 60.6099L68.6475 68.6099ZM72.3648 68.6099H72.4245L72.425 60.6099L72.3653 60.6099L72.3648 68.6099ZM68.4247 64.6099V68.3871H76.4247V64.6099H68.4247ZM72.4298 72.3871L72.4358 72.3871L72.4257 64.3871L72.4197 64.3871L72.4298 72.3871ZM76.4308 68.3871V64.6099H68.4308V68.3871H76.4308ZM72.4308 68.6099H79.9435V60.6099H72.4308V68.6099ZM75.9435 64.6099V68.3871H83.9435V64.6099H75.9435ZM79.9333 72.3871L79.9393 72.3871L79.9597 64.3872L79.9537 64.3871L79.9333 72.3871ZM79.9343 72.3871L79.9403 72.3871L79.9707 64.3872L79.9646 64.3872L79.9343 72.3871ZM79.9555 72.3872H79.9734V64.3872H79.9555V72.3872ZM79.9734 72.3872H83.7328V64.3872H79.9734V72.3872ZM79.7328 68.3872V72.1584H87.7328V68.3872H79.7328ZM83.7328 76.1584H87.498V68.1584H83.7328V76.1584ZM83.498 72.1584V79.701H91.498V72.1584H83.498ZM87.498 75.701H83.7328V83.701H87.498V75.701ZM79.7328 79.701V79.707H87.7328V79.701H79.7328ZM83.7328 83.707H87.504V75.707H83.7328V83.707ZM83.504 79.707V90.6682H91.504V79.707H83.504ZM83.504 90.6682V91.0388H91.504V90.6682H83.504ZM83.504 91.0388V102H91.504V91.0388H83.504ZM87.504 98L83.7328 98L83.7328 106L87.504 106L87.504 98ZM83.7277 98L83.7217 98L83.7318 106L83.7378 106L83.7277 98ZM83.7267 98L79.9614 98L79.9614 106L83.7267 106L83.7267 98ZM79.9614 98H79.9555V106H79.9614V98ZM79.9555 98H76.1841V106H79.9555V98ZM76.1841 98L49.7672 98L49.7672 106L76.1841 106V98ZM53.7672 102V91.0388H45.7672V102H53.7672ZM53.7672 91.0388V88.0584H45.7672V91.0388H53.7672ZM50.2872 84.0924L50.2753 84.0908L49.2353 92.0229L49.2472 92.0245L50.2872 84.0924ZM45.7553 88.0569V91.0388H53.7553V88.0569H45.7553ZM45.7553 91.0388V102H53.7553V91.0388H45.7553ZM49.7553 98L23.3382 98L23.3382 106L49.7553 106V98ZM23.3382 98L19.561 98L19.561 106L23.3383 106L23.3382 98ZM19.561 98H15.7837V106H19.561V98ZM19.7837 102V101.994H11.7837V102H19.7837ZM15.7837 97.994H12.0185V105.994H15.7837V97.994ZM16.0185 101.994V91.0328H8.01849V101.994H16.0185ZM16.0185 91.0328V90.6622H8.01849V91.0328H16.0185ZM16.0185 90.6622L16.0185 79.707L8.01847 79.707L8.01849 90.6623L16.0185 90.6622ZM16.0185 79.707V72.1644H8.01847V79.707H16.0185ZM12.0185 76.1644H15.7718V68.1644H12.0185V76.1644ZM15.7794 76.1644L15.7914 76.1644L15.7762 68.1644L15.7642 68.1644L15.7794 76.1644ZM19.7838 72.1644V68.3871H11.7838V72.1644H19.7838ZM15.7838 72.3871H19.5491V64.3871H15.7838V72.3871ZM19.5491 72.3871H19.5611V64.3871H19.5491V72.3871ZM19.5611 72.3871H19.573V64.3871H19.5611V72.3871ZM19.573 72.3871H27.0916V64.3871H19.573V72.3871ZM27.0916 72.3871H27.0917V64.3871H27.0916V72.3871ZM31.0917 68.3871V64.6159H23.0917V68.3871H31.0917ZM27.0917 68.6159H30.869V60.6159H27.0917V68.6159ZM26.869 64.6159V68.3871H34.869V64.6159H26.869ZM30.8677 72.3871L30.8916 72.3871L30.8941 64.3871L30.8703 64.3871L30.8677 72.3871ZM34.8928 68.3871V64.6099H26.8928V68.3871H34.8928ZM30.8928 68.6099H34.6581V60.6099H30.8928V68.6099ZM38.6581 64.6099V64.6039H30.6581V64.6099H38.6581ZM34.6581 68.6039H38.4353V60.6039H34.6581V68.6039ZM34.4353 64.6039V64.6099H42.4353V64.6039H34.4353ZM38.4353 68.6099H42.1888V60.6099H38.4353V68.6099ZM38.1888 64.6099V68.3871H46.1888V64.6099H38.1888ZM42.1888 72.3871H42.2007V64.3871H42.1888V72.3871ZM46.2007 68.3871V64.6099H38.2007V68.3871H46.2007ZM42.2007 68.6099H42.2128V60.6099H42.2007V68.6099ZM46.2128 64.6099V60.982H38.2128V64.6099H46.2128ZM42.2128 56.982H38.4175V64.982H42.2128V56.982ZM42.4175 60.982V57.2107H34.4175V60.982H42.4175ZM38.4175 53.2107H34.6462V61.2107H38.4175V53.2107ZM38.6462 57.2107V53.4335H30.6462V57.2107H38.6462ZM34.6462 57.4335H34.6523V49.4335H34.6462V57.4335ZM38.6523 53.4335V49.6562H30.6523V53.4335H38.6523ZM34.6523 45.6562H34.6463V53.6562H34.6523V45.6562ZM30.6463 49.6562V53.4335H38.6463V49.6562H30.6463ZM34.6463 49.4335H30.869V57.4335H34.6463V49.4335ZM34.869 53.4335V49.6562H26.869V53.4335H34.869ZM30.869 53.6562H30.881V45.6562H30.869V53.6562ZM34.881 49.6562V42.1077H26.881V49.6562H34.881ZM30.8886 38.1077L30.8765 38.1077L30.8614 46.1077L30.8734 46.1077L30.8886 38.1077ZM26.8689 42.1077V49.6562H34.8689V42.1077H26.8689ZM30.8689 45.6562H27.0917V53.6562H30.8689V45.6562ZM31.0917 49.6562V42.1077H23.0917V49.6562H31.0917ZM27.076 38.1077L27.0702 38.1077L27.1014 46.1077L27.1073 46.1076L27.076 38.1077ZM31.0858 42.1077V42.1076H23.0858V42.1077H31.0858ZM27.0858 38.1076L25.0715 38.1076L25.0716 46.1076L27.0859 46.1076L27.0858 38.1076ZM25.0716 38.1076L23.3206 38.1076L23.3205 46.1076L25.0715 46.1076L25.0716 38.1076ZM20.5141 39.2573L20.514 39.2574L26.1269 44.9579L26.1269 44.9579L20.5141 39.2573ZM23.3281 46.1076L23.3341 46.1076L23.3188 38.1076L23.3128 38.1077L23.3281 46.1076ZM19.3265 42.1076V45.8849H27.3265V42.1076H19.3265ZM23.3265 41.8849H19.5492V49.8849H23.3265V41.8849ZM17.6471 42.3661L17.6471 42.3661L21.4512 49.4037L21.4513 49.4037L17.6471 42.3661ZM19.5492 49.8849H19.5611V41.8849H19.5492V49.8849ZM15.5611 45.8849V49.6622H23.5611V45.8849H15.5611ZM19.5611 45.6622H15.7898V53.6622H19.5611V45.6622ZM11.7898 49.6622V53.4334H19.7898V49.6622H11.7898ZM15.7898 49.4334H12.0126V57.4334H15.7898V49.4334ZM16.0126 53.4334V49.6562H8.01258V53.4334H16.0126ZM16.0126 49.6562L16.0126 45.8849L8.01257 45.8849L8.01258 49.6562L16.0126 49.6562ZM12.0126 49.8849H15.7839V41.8849H12.0126V49.8849ZM15.7839 41.8849L12.0126 41.8849L12.0126 49.8849L15.7839 49.8849L15.7839 41.8849ZM16.0126 45.8849V42.1076H8.01258V45.8849H16.0126ZM12.0126 46.1076H15.7898V38.1076H12.0126V46.1076ZM15.7898 46.1076H19.5492V38.1076H15.7898V46.1076ZM19.5454 46.1076L19.5573 46.1076L19.565 38.1076L19.553 38.1076L19.5454 46.1076ZM23.5611 42.1076L23.5611 38.3304L15.5611 38.3304L15.5611 42.1077L23.5611 42.1076ZM23.5611 38.3304V37.5773H15.5611V38.3304H23.5611ZM19.5611 33.5773H18.306V41.5773H19.5611V33.5773ZM14.306 37.5773V38.3304H22.306V37.5773H14.306ZM18.306 42.3304H19.5611V34.3304H18.306V42.3304ZM15.5611 38.3304V42.1076H23.5611V38.3304H15.5611ZM19.5611 38.1076H15.7838V46.1076H19.5611V38.1076ZM19.7838 42.1076V42.1017H11.7838V42.1076H19.7838ZM15.7838 38.1017H13.7816V46.1017H15.7838V38.1017ZM17.7816 42.1017V30.7818H9.78162V42.1017H17.7816ZM13.7816 34.7818H16.0468V26.7818H13.7816V34.7818ZM12.0468 30.7818V33.0529H20.0468V30.7818H12.0468ZM16.0468 37.0529H18.306V29.0529H16.0468V37.0529ZM14.306 33.0529V35.3122H22.306V33.0529H14.306ZM18.306 39.3122H19.5611V31.3122H18.306V39.3122ZM23.5611 35.3122V23.2333H15.5611V35.3122H23.5611ZM19.5611 27.2333H23.3205V19.2333H19.5611V27.2333ZM27.266 22.5757L27.266 22.5757L19.3749 23.8909L19.3749 23.8909L27.266 22.5757ZM27.3205 23.2333V19.4561H19.3205V23.2333H27.3205ZM23.3205 23.4561H27.0977V15.4561H23.3205V23.4561ZM23.0977 19.4561V23.2333H31.0977V19.4561H23.0977ZM27.0977 27.2333H27.1097V19.2333H27.0977V27.2333ZM31.1097 23.2333V19.462H23.1097V23.2333H31.1097ZM27.1097 15.462H27.1097V23.462H27.1097V15.462ZM31.1097 19.462V15.6848H23.1097V19.462H31.1097ZM31.1097 15.6848V15.6847H23.1097V15.6848H31.1097ZM31.1097 15.6847V11.9075H23.1097V15.6847H31.1097ZM27.1097 15.9075H34.6582V7.90751H27.1097V15.9075ZM38.6582 11.9075L38.6582 8.13617L30.6582 8.1362L30.6582 11.9075L38.6582 11.9075ZM34.6582 12.1362H42.2068V4.13619H34.6582V12.1362ZM38.2068 8.13622L38.2068 11.9075L46.2068 11.9074L46.2068 8.13616L38.2068 8.13622ZM46.2068 11.9075V8.13617H38.2068V11.9075H46.2068ZM42.2068 12.1362H49.7613V4.13617H42.2068V12.1362ZM45.7613 8.13617V15.6848H53.7613V8.13617H45.7613ZM49.7613 19.6848H49.7614V11.6848H49.7613V19.6848ZM64.8764 38.5591H68.5277V30.5591H64.8764V38.5591ZM60.8764 30.0766V34.5591H68.8764V30.0766H60.8764ZM64.8704 34.0766H64.8764V26.0766H64.8704V34.0766ZM68.8704 34.5591V30.0766H60.8704V34.5591H68.8704ZM68.5277 30.5591H64.8704V38.5591H68.5277V30.5591ZM71.3078 31.6832L71.3078 31.6831L65.7476 37.435L65.7476 37.4351L71.3078 31.6832ZM79.7448 45.8789V45.8849H87.7448V45.8789H79.7448ZM83.7448 49.8849H87.516V41.8849H83.7448V49.8849ZM91.516 45.8849V45.8789H83.516V45.8849H91.516ZM87.516 41.8789H83.7448V49.8789H87.516V41.8789ZM37.503 33.6585L37.509 33.6523L31.7956 28.0526L31.7896 28.0587L37.503 33.6585ZM38.6463 34.5591V30.8586H30.6463V34.5591H38.6463ZM30.9954 38.5591H34.6463V30.5591H30.9954V38.5591ZM33.8238 37.3876L33.8239 37.3875L28.167 31.7307L28.167 31.7307L33.8238 37.3876ZM34.6523 30.5591H30.9954V38.5591H34.6523V30.5591ZM30.6523 30.8524V34.5591H38.6523V30.8524H30.6523ZM28.0761 31.8199L28.064 31.8318L33.6738 37.5353L33.6859 37.5234L28.0761 31.8199ZM34.881 38.3304V34.6717H26.881V38.3304H34.881ZM30.8689 42.3304H30.881V34.3304H30.8689V42.3304ZM26.8689 34.6835V38.3304H34.8689V34.6835H26.8689ZM34.6582 7.91345H34.6582V15.9135H34.6582V7.91345ZM38.6582 15.6847V11.9135H30.6582V15.6847H38.6582ZM34.6582 19.6847H34.6582V11.6847H34.6582V19.6847ZM30.6582 11.9135L30.6582 15.6847L38.6582 15.6847L38.6582 11.9134L30.6582 11.9135ZM53.7553 86.5053V84.4812H45.7553V86.5053H53.7553ZM50.6004 82.5956L50.5885 82.593L48.922 90.4175L48.934 90.4201L50.6004 82.5956ZM45.7672 84.4955V86.5078H53.7672V84.4955H45.7672ZM46.6832 87.0429L46.6951 87.0572L52.8393 81.9338L52.8274 81.9195L46.6832 87.0429ZM46.6951 80.9632L46.6832 80.9775L52.8274 86.1009L52.8393 86.0866L46.6951 80.9632ZM45.7672 81.4891V83.5249H53.7672V81.4891H45.7672ZM50.5933 85.4029L50.6052 85.4003L48.9292 77.5779L48.9172 77.5804L50.5933 85.4029ZM53.7553 83.5392V81.4916H45.7553V83.5392H53.7553ZM45.7672 79.3483V79.9263H53.7672V79.3483H45.7672ZM45.7672 75.9417V79.3483H53.7672V75.9417H45.7672ZM49.7553 79.9417H49.7672V71.9417H49.7553V79.9417ZM53.7553 79.3483V75.9417H45.7553V79.3483H53.7553ZM53.7553 79.9279V79.3483H45.7553V79.9279H53.7553ZM49.2447 75.9606L49.2328 75.9621L50.2778 83.8936L50.2897 83.892L49.2447 75.9606ZM57.0991 68.3812V68.3871H65.0991V68.3812H57.0991ZM61.0751 72.3812H61.0991V64.3812H61.0751V72.3812ZM65.0751 68.3871V68.3812H57.0751V68.3871H65.0751ZM61.099 64.3871H61.0751V72.3871H61.099V64.3871ZM60.275 64.4729L60.2749 64.4729L61.923 72.3013L61.9231 72.3013L60.275 64.4729ZM45.9901 64.3871H45.99V72.3871H45.9901V64.3871ZM41.9901 68.3752V68.3871H49.9901V68.3752H41.9901ZM45.99 72.3752H45.9901V64.3752H45.99V72.3752ZM49.99 68.3871V68.3752H41.99V68.3871H49.99ZM53.5327 68.6099H53.5386V60.6099H53.5327V68.6099ZM49.5327 60.982V64.6099H57.5327V60.982H49.5327ZM53.5386 56.982H53.5327V64.982H53.5386V56.982ZM57.5386 64.6099V60.982H49.5386V64.6099H57.5386ZM72.0902 34.3303H68.6477V42.3303H72.0902V34.3303ZM76.0902 38.3304V38.3303H68.0902V38.3304H76.0902ZM68.6477 42.3304L72.0902 42.3304L72.0901 34.3304L68.6477 34.3304L68.6477 42.3304ZM64.6908 38.9165L64.6909 38.9166L72.6045 37.7442L72.6045 37.7441L64.6908 38.9165ZM38.4109 61.2048L38.417 61.2048L38.4422 53.2048L38.4361 53.2048L38.4109 61.2048ZM34.4235 53.4335V57.2048H42.4235V53.4335H34.4235ZM38.4296 49.4335H38.4235V57.4335H38.4296V49.4335ZM42.4296 57.2048V53.4335H34.4296V57.2048H42.4296ZM12.0126 41.8849H8.23529V49.8849H12.0126V41.8849ZM16.0126 49.6622V45.8849H8.01256V49.6622H16.0126ZM8.23529 53.6622H12.0126V45.6622H8.23529V53.6622ZM4.23529 45.8849V49.6622H12.2353V45.8849H4.23529ZM19.5789 72.3812H27.0677V64.3812H19.5789V72.3812ZM15.5789 64.6039V68.3812H23.5789V64.6039H15.5789ZM27.0677 60.6039H19.5789V68.6039H27.0677V60.6039ZM31.0677 68.3812V64.6039H23.0677V68.3812H31.0677Z" fill="white" mask="url(#path-1-outside-1_115_2291)"/>
<path d="M49.7613 8.13617H42.2068V11.9075H34.6582V15.6847H30.8869V19.456H27.1097V23.2333H23.3205V38.3304H19.5611V42.1076H15.7839V45.8849H12.0126V49.6562H15.7839L23.3205 42.1076L31.6639 33.9017L38.4176 27.0105L45.99 19.456H49.7613" fill="#3D3A37"/>
<path d="M49.7614 8.13617H57.3159V11.9075H64.8704V15.6847H68.6417V19.456H72.419V23.2333H76.2082V38.3304H79.9675V42.1076H83.7448V45.8849H87.5161V49.6562H83.7448L76.2082 42.1076L67.8588 33.9017L64.8644 23.2333L53.5386 19.456H49.7614" fill="#3D3A37"/>
<path d="M34.6523 23.2333V34.5591H30.881V38.3304H27.0858V42.1077H30.881V49.6562H34.6523V53.4335H38.4296V57.2048H61.0991V53.4335H64.8704V49.6562H68.6477V42.1077H72.4249V38.3304H68.6477V34.5591H64.8704V19.4561H38.4176V23.2333H34.6523Z" fill="#EDCFB9"/>
<path d="M34.6463 49.6562H30.869V53.4335H34.6463V49.6562Z" fill="#C2A490"/>
<path d="M30.8689 34.5591H27.0917V38.3363H30.8689V34.5591Z" fill="#C2A490"/>
<path d="M38.4235 23.2333H34.6462V27.0106H38.4235V23.2333Z" fill="#C2A490"/>
<path d="M53.5386 15.6848H49.7614V19.462H53.5386V15.6848Z" fill="#3D3A37"/>
<path d="M49.7674 15.6848H45.9901V19.462H49.7674V15.6848Z" fill="#3D3A37"/>
<path d="M27.0977 38.3303H23.3204V42.1076H27.0977V38.3303Z" fill="#C2A490"/>
<path d="M38.4235 53.4335H34.6462V57.2107H38.4235V53.4335Z" fill="#C2A490"/>
<path d="M53.5327 64.7593H45.9901V68.5365H53.5327V64.7593Z" fill="#C2A490"/>
<path d="M45.99 60.982H42.2128V68.5306H45.99V60.982Z" fill="#C2A490"/>
<path d="M53.5327 60.982H45.9901V64.7593H53.5327V60.982Z" fill="#EDCFB9"/>
<path d="M57.3158 60.982H53.5386V68.5306H57.3158V60.982Z" fill="#C2A490"/>
<path d="M64.8764 53.4335H68.6537V49.6562H64.8764V53.4335Z" fill="#C2A490"/>
<path d="M61.0931 57.2048H64.8704V53.4275H61.0931V57.2048Z" fill="#C2A490"/>
<path d="M61.087 57.2048H38.4175V60.982H61.087V57.2048Z" fill="#C2A490"/>
<path d="M34.6463 27.0106H30.869V34.5591H34.6463V27.0106Z" fill="#C2A490"/>
<path d="M30.8689 42.1077H27.0917V49.6562H30.8689V42.1077Z" fill="#C2A490"/>
<path d="M68.6477 38.3303H72.4249V34.5531H68.6477V38.3303Z" fill="#C2A490"/>
<path d="M72.4189 42.1077H76.1962V38.3304H72.4189V42.1077Z" fill="#C2A490"/>
<path d="M64.8764 34.5591H68.6537V23.2333H64.8764V34.5591Z" fill="#C2A490"/>
<path d="M68.6477 49.6562H72.4249V42.1076H68.6477V49.6562Z" fill="#C2A490"/>
<path d="M45.9899 19.4561H38.4175V23.2333H45.9899V19.4561Z" fill="#3D3A37"/>
<path d="M64.8644 19.4561H53.5386V23.2333H64.8644V19.4561Z" fill="#3D3A37"/>
<path d="M49.7613 4.35889H42.2128V8.13615H49.7613V4.35889Z" fill="#302E2B"/>
<path d="M42.2068 8.13617H34.6582V11.9134H42.2068V8.13617Z" fill="#302E2B"/>
<path d="M34.6582 11.9075H27.1096V15.6848H34.6582V11.9075Z" fill="#302E2B"/>
<path d="M27.0977 19.4561H23.3204V23.2333H27.0977V19.4561Z" fill="#302E2B"/>
<path d="M30.8869 15.6848H27.1096V19.462H30.8869V15.6848Z" fill="#302E2B"/>
<path d="M19.5611 38.3303H15.7838V42.1076H19.5611V38.3303Z" fill="#302E2B"/>
<path d="M15.7898 42.1077H12.0126V45.8849H15.7898V42.1077Z" fill="#302E2B"/>
<path d="M15.7898 49.6562H12.0126V53.4335H15.7898V49.6562Z" fill="#302E2B"/>
<path d="M19.5611 45.8849H15.7838V49.6622H19.5611V45.8849Z" fill="#302E2B"/>
<path d="M23.3265 42.1077H19.5492V45.8849H23.3265V42.1077Z" fill="#302E2B"/>
<path d="M12.0126 45.8849H8.23535V49.6622H12.0126V45.8849Z" fill="#302E2B"/>
<path d="M23.3384 23.2333H19.5612V38.3304H23.3384V23.2333Z" fill="#302E2B"/>
<path d="M49.7674 8.13025L57.3159 8.13025V4.35298L49.7674 4.35298V8.13025Z" fill="#302E2B"/>
<path d="M57.3218 11.9075L64.8704 11.9075V8.13027H57.3218V11.9075Z" fill="#302E2B"/>
<path d="M64.8644 15.6848L72.413 15.6848V11.9075H64.8644V15.6848Z" fill="#302E2B"/>
<path d="M72.401 23.2333H76.1782V19.4561H72.401V23.2333Z" fill="#302E2B"/>
<path d="M68.6416 19.4561H72.4188V15.6788H68.6416V19.4561Z" fill="#302E2B"/>
<path d="M79.9674 42.1077H83.7446V38.3304H79.9674V42.1077Z" fill="#302E2B"/>
<path d="M83.7388 45.879H87.5161V42.1017H83.7388V45.879Z" fill="#302E2B"/>
<path d="M83.7388 53.4335H87.5161V49.6562H83.7388V53.4335Z" fill="#302E2B"/>
<path d="M79.9674 49.6562H83.7446V45.8789H79.9674V49.6562Z" fill="#302E2B"/>
<path d="M76.2022 45.879H79.9795V42.1017H76.2022V45.879Z" fill="#302E2B"/>
<path d="M87.516 49.6562H91.2932V45.8789H87.516V49.6562Z" fill="#302E2B"/>
<path d="M76.1903 38.3303H79.9675V23.2332H76.1903V38.3303Z" fill="#302E2B"/>
<path d="M53.5386 19.4561H49.7614V23.2333H53.5386V19.4561Z" fill="#3D3A37"/>
<path d="M49.7674 19.4561H45.9901V23.2333H49.7674V19.4561Z" fill="#3D3A37"/>
<path d="M68.6476 17.8662H30.869V30.0766H68.6476V17.8662Z" fill="#3D3A37"/>
<path d="M18.282 37.5773H20.5471V35.3122H18.282V37.5773Z" fill="#299BBA"/>
<path d="M16.0407 39.8365H18.3059V33.053H16.0407V39.8365Z" fill="#299BBA"/>
<path d="M13.7816 42.1017H16.0468V30.7818H13.7816L13.7816 42.1017Z" fill="#299BBA"/>
<path d="M22.8123 35.3182H20.5471V37.5833H22.8123V35.3182Z" fill="#299BBA"/>
<path d="M25.0775 33.053H22.8124V39.8365H25.0775V33.053Z" fill="#299BBA"/>
<path d="M27.3367 30.7878H25.0715V42.1076H27.3367V30.7878Z" fill="#299BBA"/>
<path d="M76.5905 37.5773H78.8557V35.3122H76.5905V37.5773Z" fill="#299BBA"/>
<path d="M74.3493 39.8365H76.6145V33.053H74.3493V39.8365Z" fill="#299BBA"/>
<path d="M72.0902 42.1017H74.3553V30.7818H72.0902V42.1017Z" fill="#299BBA"/>
<path d="M81.1209 35.3182H78.8557V37.5833H81.1209V35.3182Z" fill="#299BBA"/>
<path d="M83.386 33.053H81.1208V39.8365H83.386V33.053Z" fill="#299BBA"/>
<path d="M85.6452 30.7878H83.38V42.1076H85.6452V30.7878Z" fill="#299BBA"/>
<path d="M43.9999 34.5591H40.2227V38.3363H43.9999V34.5591Z" fill="#383532"/>
<path d="M59.1088 34.5591H55.3315V38.3363H59.1088V34.5591Z" fill="#383532"/>
<path d="M51.4468 34.5591H47.7831V42.1076H51.4468V34.5591Z" fill="#C2A490"/>
<path d="M59.0131 44.295H55.2777V48.4608H59.0131V44.295Z" fill="#C30045"/>
<path d="M55.2718 44.295H51.5364V48.4608H55.2718V44.295Z" fill="#C30045"/>
<path d="M51.5365 44.295H47.801V48.4608H51.5365V44.295Z" fill="#C30045"/>
<path d="M47.801 44.295H44.0656V48.4608H47.801V44.295Z" fill="#C30045"/>
<path d="M44.0595 44.295H40.3241V48.4608H44.0595V44.295Z" fill="#C30045"/>
<path d="M55.1822 48.4608H51.4468V52.6266H55.1822V48.4608Z" fill="#C30045"/>
<path d="M51.4408 48.4608H47.7053V52.6266H51.4408V48.4608Z" fill="#C30045"/>
<path d="M47.7053 48.4608H43.9698V52.6266H47.7053V48.4608Z" fill="#C30045"/>
<path d="M66.7949 43.9903V40.213H59.2404V43.9903H66.7949Z" fill="#FF92A0"/>
<path d="M40.3302 43.9903V40.213H32.7757V43.9903H40.3302Z" fill="#FF92A0"/>
<path d="M19.579 68.3812H27.0677V64.6039H19.579V68.3812Z" fill="#CFC8C3"/>
<path d="M79.9435 64.6099H72.4308V68.3871H79.9435V64.6099Z" fill="#CFC8C3"/>
<path d="M72.3651 64.6099H64.8524V68.3871H72.3651V64.6099Z" fill="#6FB87A"/>
<path d="M34.658 68.3812H38.4353V64.6039H34.658V68.3812Z" fill="white"/>
<path d="M57.3038 68.3812H64.8762V64.6039H57.3038V68.3812Z" fill="#C2A490"/>
<path d="M64.8764 64.6099H61.0991V68.3871H64.8764V64.6099Z" fill="white"/>
<path d="M45.9779 64.6099H42.2007V68.3871H45.9779V64.6099Z" fill="#EDCFB9"/>
<path d="M57.3038 64.6099H53.5265V68.3871H57.3038V64.6099Z" fill="#EDCFB9"/>
<path d="M53.5145 60.8326H45.9719V68.3752H53.5145V60.8326Z" fill="#EDCFB9"/>
<path d="M79.9495 70.8794V68.3871H49.7672V91.0388H79.9495V72.1644V70.8794Z" fill="#6FB87A"/>
<path d="M83.7267 72.1644H79.9495V91.0388H83.7267V72.1644Z" fill="white"/>
<path d="M79.9495 81.8406V79.3483H49.7672V102H79.9495V83.1256V81.8406Z" fill="#6FB87A"/>
<path d="M83.7267 83.1256H79.9495V102H83.7267V83.1256Z" fill="white"/>
<path d="M12.0185 91.0328H15.7958L15.7958 79.701H12.0185L12.0185 91.0328Z" fill="#CFC8C3"/>
<path d="M12.0185 101.994H15.7958L15.7958 90.6622H12.0185L12.0185 101.994Z" fill="#CFC8C3"/>
<path d="M49.7553 68.3871H19.573V72.1644H15.7958V91.0388H49.7553" fill="#6FB87A"/>
<path d="M49.7553 79.3483H19.573V83.1256H15.7958V102H49.7553" fill="#6FB87A"/>
<path d="M38.4234 64.6159H34.6461V72.1585H38.4234V64.6159Z" fill="white"/>
<path d="M30.8689 64.6159H27.0917V72.1585H30.8689V64.6159Z" fill="white"/>
<path d="M27.0977 72.1644H23.3204V75.9417H27.0977V72.1644Z" fill="white"/>
<path d="M42.2067 72.1644H38.4294V75.9417H42.2067V72.1644Z" fill="white"/>
<path d="M61.0632 72.1644H42.2247V75.9417H61.0632V72.1644Z" fill="white"/>
<path d="M19.5611 68.3871H15.7838V72.1644H19.5611V68.3871Z" fill="#CFC8C3"/>
<path d="M15.7957 72.1644H12.0184V79.707H15.7957V72.1644Z" fill="#CFC8C3"/>
<path d="M23.3383 75.9297H19.561V91.0388H23.3383V75.9297Z" fill="white"/>
<path d="M23.3383 86.8909H19.561V102H23.3383V86.8909Z" fill="white"/>
<path d="M27.0916 68.3871H19.5491V72.1644H27.0916V68.3871Z" fill="white"/>
<path d="M34.6701 68.3871H30.8928V72.1644H34.6701V68.3871Z" fill="#6FB87A"/>
<path d="M34.6701 64.6099H30.8928V68.3871H34.6701V64.6099Z" fill="#6FB87A"/>
<path d="M23.3143 72.1644H15.7717V75.9417H23.3143V72.1644Z" fill="white"/>
<path d="M87.504 79.707H83.7267V91.0388H87.504V79.707Z" fill="#CFC8C3"/>
<path d="M87.504 90.6682H83.7267V102H87.504V90.6682Z" fill="#CFC8C3"/>
<path d="M61.105 72.1525H64.8524V64.6099H61.105V72.1525Z" fill="white"/>
<path d="M68.6475 72.1525H72.4248V64.6099H68.6475V72.1525Z" fill="white"/>
<path d="M72.4248 75.9357H76.202V72.1584H72.4248V75.9357Z" fill="white"/>
<path d="M79.9555 72.1644H83.7328V68.3872H79.9555V72.1644Z" fill="#CFC8C3"/>
<path d="M83.7208 79.701H87.498V72.1584H83.7208V79.701Z" fill="#CFC8C3"/>
<path d="M76.1842 91.0388H79.9614V75.9297H76.1842V91.0388Z" fill="white"/>
<path d="M76.1842 102H79.9614V86.8909H76.1842V102Z" fill="white"/>
<path d="M79.9555 91.0388H83.7328V75.9297H79.9555V91.0388Z" stroke="#7A7672" stroke-width="0.02" stroke-miterlimit="10"/>
<path d="M79.9555 102H83.7328V86.8909H79.9555V102Z" stroke="#7A7672" stroke-width="0.02" stroke-miterlimit="10"/>
<path d="M72.4308 72.1644H79.9734V68.3872H72.4308V72.1644Z" fill="white"/>
<path d="M64.8464 72.1644H68.6237V68.3872H64.8464V72.1644Z" fill="#6FB87A"/>
<path d="M76.2021 75.9357H83.7446V72.1584H76.2021V75.9357Z" fill="white"/>
<path d="M61.099 68.3871H38.4414V72.1644H61.099V68.3871Z" fill="#EDCFB9"/>
<path d="M15.7838 91.0388H19.561L19.561 75.9417H15.7838L15.7838 91.0388Z" fill="white"/>
<path d="M15.7838 102H19.561L19.561 86.9029H15.7838L15.7838 102Z" fill="white"/>
<path d="M38.4116 72.1525H42.1888V64.6099H38.4116V72.1525Z" fill="#C2A490"/>
<path d="M57.2978 72.1525H61.0751V64.6099H57.2978V72.1525Z" fill="#C2A490"/>
<path d="M50.2933 88.0923C48.04 88.0923 46.2112 86.2515 46.2112 83.9923C46.2112 81.7331 48.046 79.8923 50.2933 79.8923C51.2436 79.8923 52.164 80.221 52.8871 80.8246C53.0724 80.98 53.1919 81.2251 53.1919 81.4402C53.1919 81.6554 53.1143 81.8407 52.9648 81.9841C52.8214 82.1276 52.6301 82.2112 52.421 82.2112C52.2476 82.2112 52.0683 82.1455 51.9309 82.0319C51.4766 81.6614 50.8491 81.4343 50.2933 81.4343C48.8887 81.4343 47.7412 82.5818 47.7412 83.9983C47.7412 85.4147 48.8828 86.5623 50.2933 86.5623C51.5962 86.5623 52.403 85.6239 52.403 84.7692H50.3411V83.2691H53.2099C53.6103 83.2691 53.939 83.5679 53.9749 83.9684C53.9869 84.1118 53.9928 84.2194 53.9928 84.315C53.9928 85.3191 53.7239 86.2634 53.0186 86.9746C52.3014 87.6978 51.4468 88.0983 50.2992 88.0983" fill="white"/>
<path d="M51.0822 84.0102C51.0822 84.4226 50.7475 84.7573 50.3351 84.7573C49.9227 84.7573 49.588 84.4226 49.588 84.0102C49.588 83.5978 49.9227 83.2631 50.3351 83.2631C50.7475 83.2631 51.0822 83.5978 51.0822 84.0102Z" fill="#00C01E"/>
</svg>
