<svg width="100" height="106" viewBox="0 0 100 106" fill="none" xmlns="http://www.w3.org/2000/svg">
<path d="M63.873 23.2456V25.2456H65.873H69.6552H71.6552V23.2456V11.9052V9.90522H69.6552H65.873H63.873V11.9052V23.2456Z" stroke="white" stroke-width="4"/>
<mask id="path-2-outside-1_0_183395" maskUnits="userSpaceOnUse" x="65.5415" y="23.0277" width="16" height="20" fill="black">
<rect fill="white" x="65.5415" y="23.0277" width="16" height="20"/>
<path d="M77.2015 27.0277H69.5415V34.586H73.18V38.3681H77.2015V27.297"/>
</mask>
<path d="M69.5415 27.0277V23.0277H65.5415V27.0277H69.5415ZM69.5415 34.586H65.5415V38.586H69.5415V34.586ZM73.18 34.586H77.18V30.586H73.18V34.586ZM73.18 38.3681H69.18V42.3681H73.18V38.3681ZM77.2015 38.3681V42.3681H81.2015V38.3681H77.2015ZM77.2015 23.0277H69.5415V31.0277H77.2015V23.0277ZM65.5415 27.0277V34.586H73.5415V27.0277H65.5415ZM69.5415 38.586H73.18V30.586H69.5415V38.586ZM69.18 34.586V38.3681H77.18V34.586H69.18ZM73.18 42.3681H77.2015V34.3681H73.18V42.3681ZM81.2015 38.3681V27.297H73.2015V38.3681H81.2015Z" fill="white" mask="url(#path-2-outside-1_0_183395)"/>
<mask id="path-4-outside-2_0_183395" maskUnits="userSpaceOnUse" x="23.986" y="23.0277" width="16" height="20" fill="black">
<rect fill="white" x="23.986" y="23.0277" width="16" height="20"/>
<path d="M35.646 27.0277H27.986V34.586H31.6304V38.3681H35.646V27.297"/>
</mask>
<path d="M27.986 27.0277V23.0277H23.986V27.0277H27.986ZM27.986 34.586H23.986V38.586H27.986V34.586ZM31.6304 34.586H35.6304V30.586H31.6304V34.586ZM31.6304 38.3681H27.6304V42.3681H31.6304V38.3681ZM35.646 38.3681V42.3681H39.646V38.3681H35.646ZM35.646 23.0277H27.986V31.0277H35.646V23.0277ZM23.986 27.0277V34.586H31.986V27.0277H23.986ZM27.986 38.586H31.6304V30.586H27.986V38.586ZM27.6304 34.586V38.3681H35.6304V34.586H27.6304ZM31.6304 42.3681H35.646V34.3681H31.6304V42.3681ZM39.646 38.3681V27.297H31.646V38.3681H39.646Z" fill="white" mask="url(#path-4-outside-2_0_183395)"/>
<mask id="path-6-outside-3_0_183395" maskUnits="userSpaceOnUse" x="20.2338" y="19.2456" width="16" height="20" fill="black">
<rect fill="white" x="20.2338" y="19.2456" width="16" height="20"/>
<path d="M31.8938 23.2456H24.2338V30.8039H27.8723V34.586H31.8938V23.5149"/>
</mask>
<path d="M24.2338 23.2456V19.2456H20.2338V23.2456H24.2338ZM24.2338 30.8039H20.2338V34.8039H24.2338V30.8039ZM27.8723 30.8039H31.8723V26.8039H27.8723V30.8039ZM27.8723 34.586H23.8723V38.586H27.8723V34.586ZM31.8938 34.586V38.586H35.8938V34.586H31.8938ZM31.8938 19.2456H24.2338V27.2456H31.8938V19.2456ZM20.2338 23.2456V30.8039H28.2338V23.2456H20.2338ZM24.2338 34.8039H27.8723V26.8039H24.2338V34.8039ZM23.8723 30.8039V34.586H31.8723V30.8039H23.8723ZM27.8723 38.586H31.8938V30.586H27.8723V38.586ZM35.8938 34.586V23.5149H27.8938V34.586H35.8938Z" fill="white" mask="url(#path-6-outside-3_0_183395)"/>
<mask id="path-8-outside-4_0_183395" maskUnits="userSpaceOnUse" x="36.1581" y="23.0277" width="16" height="20" fill="black">
<rect fill="white" x="36.1581" y="23.0277" width="16" height="20"/>
<path d="M47.8181 27.0277H40.1581V34.586H43.8026V38.3681H47.8181V27.297"/>
</mask>
<path d="M40.1581 27.0277V23.0277H36.1581V27.0277H40.1581ZM40.1581 34.586H36.1581V38.586H40.1581V34.586ZM43.8026 34.586H47.8026V30.586H43.8026V34.586ZM43.8026 38.3681H39.8026V42.3681H43.8026V38.3681ZM47.8181 38.3681V42.3681H51.8181V38.3681H47.8181ZM47.8181 23.0277H40.1581V31.0277H47.8181V23.0277ZM36.1581 27.0277V34.586H44.1581V27.0277H36.1581ZM40.1581 38.586H43.8026V30.586H40.1581V38.586ZM39.8026 34.586V38.3681H47.8026V34.586H39.8026ZM43.8026 42.3681H47.8181V34.3681H43.8026V42.3681ZM51.8181 38.3681V27.297H43.8181V38.3681H51.8181Z" fill="white" mask="url(#path-8-outside-4_0_183395)"/>
<path d="M35.6041 17.4695H33.6041V19.4695V32.586H31.8279H29.8279V34.586V36.3681H28.0278H26.0278V38.3681V42.1503V44.1503H28.0278H29.8279V49.7085V51.7085H31.8279H33.6041V53.4847V55.4847H35.6041H37.3862V57.2668V59.2668H39.3862H62.0849H64.0849V57.2668V55.4847H65.867H67.867V53.4847V51.7085H69.6432H71.6432V49.7085V44.1503H73.4253H75.4253V42.1503V38.3681V36.3681H73.4253H71.6432V34.586V32.586H69.6432H67.867V19.4695V17.4695H65.867H35.6041Z" stroke="white" stroke-width="4"/>
<path d="M37.598 49.7085V47.7085H35.598H31.8159H29.8159V49.7085V53.4906V55.4906H31.8159H35.598H37.598V53.4906V49.7085Z" stroke="white" stroke-width="4"/>
<path d="M33.8219 34.586V32.586H31.8219H28.0398H26.0398V34.586V38.3681V40.3681H28.0398H31.8219H33.8219V38.3681V34.586Z" stroke="white" stroke-width="4"/>
<path d="M14.7234 72.3713V74.3713H16.7234H20.5055H22.5055V72.3713V68.5892V66.5892H20.5055H16.7234H14.7234V68.5892V72.3713Z" stroke="white" stroke-width="4"/>
<path d="M10.9412 91.27V93.27H12.9412H16.7233H18.7233V91.27L18.7233 72.3714V70.3714H16.7233H12.9412H10.9412V72.3714L10.9412 91.27Z" stroke="white" stroke-width="4"/>
<path d="M10.9412 102V104H12.9412H16.7233H18.7233V102L18.7233 83.1013V81.1013H16.7233H12.9412H10.9412V83.1013L10.9412 102Z" stroke="white" stroke-width="4"/>
<path d="M18.4996 68.5892V70.5892H20.4996H31.8878H33.8878V68.5892V64.8071V62.8071H31.8878H20.4996H18.4996V64.8071V68.5892Z" stroke="white" stroke-width="4"/>
<path d="M86.7597 68.5892V66.5892H84.7597H80.9775H78.9775V68.5892V72.3714V74.3714H80.9775H84.7597H86.7597V72.3714V68.5892Z" stroke="white" stroke-width="4"/>
<path d="M90.5478 72.3713V70.3713H88.5478H84.7657H82.7657V72.3713V91.27V93.27H84.7657H88.5478H90.5478V91.27V72.3713Z" stroke="white" stroke-width="4"/>
<path d="M90.5478 83.1014V81.1014H88.5478H84.7657H82.7657V83.1014V102V104H84.7657H88.5478H90.5478V102V83.1014Z" stroke="white" stroke-width="4"/>
<path d="M82.9715 64.813V62.813H80.9715H58.2848H56.2848V64.813V68.5952V70.5952H58.2848H80.9715H82.9715V68.5952V64.813Z" stroke="white" stroke-width="4"/>
<path d="M30.0398 38.3681V36.3681H28.0398H24.2577H22.2577V38.3681V42.1502V44.1502H24.2577H28.0398H30.0398V42.1502V38.3681Z" stroke="white" stroke-width="4"/>
<path d="M41.3802 53.4847V51.4847H39.3802H35.598H33.598V53.4847V57.2668V59.2668H35.598H39.3802H41.3802V57.2668V53.4847Z" stroke="white" stroke-width="4"/>
<path d="M56.5086 64.8251V62.8251H54.5086H46.9563H44.9563V64.8251V68.6072V70.6072H46.9563H54.5086H56.5086V68.6072V64.8251Z" stroke="white" stroke-width="4"/>
<path d="M48.9564 61.0429V59.0429H46.9564H43.1743H41.1743V61.0429V68.6012V70.6012H43.1743H46.9564H48.9564V68.6012V61.0429Z" stroke="white" stroke-width="4"/>
<path d="M56.5086 61.0429V59.0429H54.5086H46.9563H44.9563V61.0429V64.825V66.825H46.9563H54.5086H56.5086V64.825V61.0429Z" stroke="white" stroke-width="4"/>
<path d="M60.2968 61.0429V59.0429H58.2968H54.5146H52.5146V61.0429V68.6012V70.6012H54.5146H58.2968H60.2968V68.6012V61.0429Z" stroke="white" stroke-width="4"/>
<path d="M63.8609 53.4847V55.4847H65.8609H69.6431H71.6431V53.4847V49.7026V47.7026H69.6431H65.8609H63.8609V49.7026V53.4847Z" stroke="white" stroke-width="4"/>
<path d="M60.0848 57.2668V59.2668H62.0848H65.8669H67.8669V57.2668V53.4847V51.4847H65.8669H62.0848H60.0848V53.4847V57.2668Z" stroke="white" stroke-width="4"/>
<path d="M64.073 57.2668V55.2668H62.073H39.3743H37.3743V57.2668V61.0489V63.0489H39.3743H62.073H64.073V61.0489V57.2668Z" stroke="white" stroke-width="4"/>
<path d="M37.598 27.0277V25.0277H35.598H31.8159H29.8159V27.0277V34.586V36.586H31.8159H35.598H37.598V34.586V27.0277Z" stroke="white" stroke-width="4"/>
<path d="M33.8219 42.1502V40.1502H31.8219H28.0398H26.0398V42.1502V49.7085V51.7085H28.0398H31.8219H33.8219V49.7085V42.1502Z" stroke="white" stroke-width="4"/>
<path d="M67.6432 38.3681V40.3681H69.6432H73.4253H75.4253V38.3681V34.586V32.586H73.4253H69.6432H67.6432V34.586V38.3681Z" stroke="white" stroke-width="4"/>
<path d="M71.4193 42.1443V44.1443H73.4193H77.2014H79.2014V42.1443V38.3622V36.3622H77.2014H73.4193H71.4193V38.3622V42.1443Z" stroke="white" stroke-width="4"/>
<path d="M71.4193 46.3334V48.3334H73.4193H77.2014H79.2014V46.3334V42.5512V40.5512H77.2014H73.4193H71.4193V42.5512V46.3334Z" stroke="white" stroke-width="4"/>
<path d="M63.8609 34.586V36.586H65.8609H69.6431H71.6431V34.586V27.0277V25.0277H69.6431H65.8609H63.8609V27.0277V34.586Z" stroke="white" stroke-width="4"/>
<path d="M67.6432 49.7026V51.7026H69.6432H73.4253H75.4253V49.7026V42.1443V40.1443H73.4253H69.6432H67.6432V42.1443V49.7026Z" stroke="white" stroke-width="4"/>
<path d="M71.4313 38.3681V40.3681H73.4313H77.2134H79.2134V38.3681V27.0277V25.0277H77.2134H73.4313H71.4313V27.0277V38.3681Z" stroke="white" stroke-width="4"/>
<path d="M22.2577 38.3681V40.3681H24.2577H28.0398H30.0398V38.3681V30.8039V28.8039H28.0398H24.2577H22.2577V30.8039V38.3681Z" stroke="white" stroke-width="4"/>
<path d="M18.4995 30.8099V32.8099H20.4995H24.2816H26.2816V30.8099V19.4695V17.4695H24.2816H20.4995H18.4995V19.4695V30.8099Z" stroke="white" stroke-width="4"/>
<path d="M22.1738 19.4634V21.4634H24.1738H27.9559H29.9559V19.4634V15.6813V13.6813H27.9559H24.1738H22.1738V15.6813V19.4634Z" stroke="white" stroke-width="4"/>
<path d="M29.8398 27.0338V29.0338H31.8398H35.6219H37.6219V27.0338V23.2516V21.2516H35.6219H31.8398H29.8398V23.2516V27.0338Z" stroke="white" stroke-width="4"/>
<path d="M63.8609 27.0338V29.0338H65.8609H69.6431H71.6431V27.0338V23.2516V21.2516H69.6431H65.8609H63.8609V23.2516V27.0338Z" stroke="white" stroke-width="4"/>
<path d="M22.2576 23.2456V25.2456H24.2576H35.6459H37.6459V23.2456V19.4635V17.4635H35.6459H24.2576H22.2576V19.4635V23.2456Z" stroke="white" stroke-width="4"/>
<path d="M26.0158 19.4634V21.4634L28.0158 21.4634L69.6431 21.4634H71.6431V19.4634V15.6813V13.6813H69.6431L28.0158 13.6813H26.0158V15.6813V19.4634Z" stroke="white" stroke-width="4"/>
<path d="M26.0158 15.6934V17.6934L28.0158 17.6934L69.6431 17.6934H71.6431V15.6934V11.9112V9.91123H69.6431L28.0158 9.91123H26.0158V11.9112V15.6934Z" stroke="white" stroke-width="4"/>
<path d="M29.8878 11.9112V13.9112L31.8878 13.9112L69.6372 13.9112H71.6372V11.9112V8.12907V6.12907H69.6372L31.8878 6.12907H29.8878V8.12907V11.9112Z" stroke="white" stroke-width="4"/>
<path d="M25.95 15.6873V17.6873H27.95H31.7322H33.7322V15.6873V11.9052V9.90519H31.7322H27.95H25.95V11.9052V15.6873Z" stroke="white" stroke-width="4"/>
<path d="M71.4193 27.0277V29.0277H73.4193H77.2014H79.2014V27.0277V19.4635V17.4635H77.2014H73.4193H71.4193V19.4635V27.0277Z" stroke="white" stroke-width="4"/>
<path d="M29.7322 11.9052V13.9052H31.7322H35.5143H37.5143V11.9052V8.12309V6.12309H35.5143L31.7322 6.12309H29.7322V8.12309V11.9052Z" stroke="white" stroke-width="4"/>
<path d="M67.6671 19.4755V21.4755H69.6671H73.4492H75.4492V19.4755V11.9112V9.91121H73.4492H69.6671H67.6671V11.9112V19.4755Z" stroke="white" stroke-width="4"/>
<path d="M63.8609 11.9052V13.9052H65.8609H69.6431H71.6431V11.9052V8.12309V6.12309H69.6431L65.8609 6.12309H63.8609V8.12309V11.9052Z" stroke="white" stroke-width="4"/>
<path d="M33.5083 8.13501V10.135H35.5083L65.9628 10.135H67.9628V8.13501V4.35289V2.35289H65.9628L35.5083 2.35289H33.5083V4.35289V8.13501Z" stroke="white" stroke-width="4"/>
<path d="M33.5921 30.8099V32.8099H35.5921H39.3743H41.3743V30.8099V19.4695V17.4695H39.3743H35.5921H33.5921V19.4695V30.8099Z" stroke="white" stroke-width="4"/>
<path d="M41.1803 30.8099V32.8099H43.1803H46.9624H48.9624V30.8099V19.4695V17.4695H46.9624H43.1803H41.1803V19.4695V30.8099Z" stroke="white" stroke-width="4"/>
<path d="M48.7624 30.8099V32.8099H50.7624H54.5446H56.5446V30.8099V19.4695V17.4695H54.5446H50.7624H48.7624V19.4695V30.8099Z" stroke="white" stroke-width="4"/>
<path d="M37.3861 30.8099V32.8099H39.3861H43.1682H45.1682V30.8099V19.4695V17.4695H43.1682H39.3861H37.3861V19.4695V30.8099Z" stroke="white" stroke-width="4"/>
<path d="M44.9684 30.8099V32.8099H46.9684H50.7505H52.7505V30.8099V19.4695V17.4695H50.7505H46.9684H44.9684V19.4695V30.8099Z" stroke="white" stroke-width="4"/>
<path d="M52.5505 30.8099V32.8099H54.5505H58.3326H60.3326V30.8099V19.4695V17.4695H58.3326H54.5505H52.5505V19.4695V30.8099Z" stroke="white" stroke-width="4"/>
<path d="M60.0789 30.8099V32.8099H62.0789H65.873H67.873V30.8099V19.4695V17.4695H65.873H62.0789H60.0789V19.4695V30.8099Z" stroke="white" stroke-width="4"/>
<path d="M67.6432 30.8099V32.8099H69.6432H73.4253H75.4253V30.8099V19.4695V17.4695H73.4253H69.6432H67.6432V19.4695V30.8099Z" stroke="white" stroke-width="4"/>
<mask id="path-61-outside-5_0_183395" maskUnits="userSpaceOnUse" x="12.7233" y="64.5892" width="39" height="31" fill="black">
<rect fill="white" x="12.7233" y="64.5892" width="39" height="31"/>
<path d="M50.7265 68.5892H20.5054V72.3714H16.7233V91.27H50.7265"/>
</mask>
<path d="M20.5054 68.5892V64.5892H16.5054V68.5892H20.5054ZM20.5054 72.3714V76.3714H24.5054V72.3714H20.5054ZM16.7233 72.3714V68.3714H12.7233V72.3714H16.7233ZM16.7233 91.27H12.7233V95.27H16.7233V91.27ZM50.7265 64.5892H20.5054V72.5892H50.7265V64.5892ZM16.5054 68.5892V72.3714H24.5054V68.5892H16.5054ZM20.5054 68.3714H16.7233V76.3714H20.5054V68.3714ZM12.7233 72.3714V91.27H20.7233V72.3714H12.7233ZM16.7233 95.27H50.7265V87.27H16.7233V95.27Z" fill="white" mask="url(#path-61-outside-5_0_183395)"/>
<mask id="path-63-outside-6_0_183395" maskUnits="userSpaceOnUse" x="12.7233" y="75.3192" width="39" height="31" fill="black">
<rect fill="white" x="12.7233" y="75.3192" width="39" height="31"/>
<path d="M50.7265 79.3192H20.5054V83.1013H16.7233V102H50.7265"/>
</mask>
<path d="M20.5054 79.3192V75.3192H16.5054V79.3192H20.5054ZM20.5054 83.1013V87.1013H24.5054V83.1013H20.5054ZM16.7233 83.1013V79.1013H12.7233V83.1013H16.7233ZM16.7233 102H12.7233V106H16.7233V102ZM50.7265 75.3192H20.5054V83.3192H50.7265V75.3192ZM16.5054 79.3192V83.1013H24.5054V79.3192H16.5054ZM20.5054 79.1013H16.7233V87.1013H20.5054V79.1013ZM12.7233 83.1013V102H20.7233V83.1013H12.7233ZM16.7233 106H50.7265V98H16.7233V106Z" fill="white" mask="url(#path-63-outside-6_0_183395)"/>
<mask id="path-65-outside-7_0_183395" maskUnits="userSpaceOnUse" x="50.7266" y="64.5892" width="39" height="31" fill="black">
<rect fill="white" x="50.7266" y="64.5892" width="39" height="31"/>
<path d="M50.7266 68.5892H80.9895V72.3714H84.7716V91.27H50.7266"/>
</mask>
<path d="M80.9895 68.5892H84.9895V64.5892H80.9895V68.5892ZM80.9895 72.3714H76.9895V76.3714H80.9895V72.3714ZM84.7716 72.3714H88.7716V68.3714H84.7716V72.3714ZM84.7716 91.27V95.27H88.7716V91.27H84.7716ZM50.7266 72.5892H80.9895V64.5892H50.7266V72.5892ZM76.9895 68.5892V72.3714H84.9895V68.5892H76.9895ZM80.9895 76.3714H84.7716V68.3714H80.9895V76.3714ZM80.7716 72.3714V91.27H88.7716V72.3714H80.7716ZM84.7716 87.27H50.7266V95.27H84.7716V87.27Z" fill="white" mask="url(#path-65-outside-7_0_183395)"/>
<mask id="path-67-outside-8_0_183395" maskUnits="userSpaceOnUse" x="50.7266" y="75.3192" width="39" height="31" fill="black">
<rect fill="white" x="50.7266" y="75.3192" width="39" height="31"/>
<path d="M50.7266 79.3192H80.9895V83.1013H84.7716V102H50.7266"/>
</mask>
<path d="M80.9895 79.3192H84.9895V75.3192H80.9895V79.3192ZM80.9895 83.1013H76.9895V87.1013H80.9895V83.1013ZM84.7716 83.1013H88.7716V79.1013H84.7716V83.1013ZM84.7716 102V106H88.7716V102H84.7716ZM50.7266 83.3192H80.9895V75.3192H50.7266V83.3192ZM76.9895 79.3192V83.1013H84.9895V79.3192H76.9895ZM80.9895 87.1013H84.7716V79.1013H80.9895V87.1013ZM80.7716 83.1013V102H88.7716V83.1013H80.7716ZM84.7716 98H50.7266V106H84.7716V98Z" fill="white" mask="url(#path-67-outside-8_0_183395)"/>
<path d="M56.3087 30.8099V32.8099H58.3087H62.0908H64.0908V30.8099V19.4695V17.4695H62.0908H58.3087H56.3087V19.4695V30.8099Z" stroke="white" stroke-width="4"/>
<path d="M29.8458 68.5892V70.5892H31.8458H43.1802H45.1802V68.5892V64.8071V62.8071H43.1802H31.8458H29.8458V64.8071V68.5892Z" stroke="white" stroke-width="4"/>
<path d="M37.3922 68.6072V70.6072H39.3922H43.1743H45.1743V68.6072V64.8251V62.8251H43.1743H39.3922H37.3922V64.8251V68.6072Z" stroke="white" stroke-width="4"/>
<path d="M56.2969 68.6072V70.6072H58.2969H62.079H64.079V68.6072V64.8251V62.8251H62.079H58.2969H56.2969V64.8251V68.6072Z" stroke="white" stroke-width="4"/>
<path d="M41.1204 72.3833V74.3833H43.1204H58.3087H60.3087V72.3833V68.6012V66.6012H58.3087H43.1204H41.1204V68.6012V72.3833Z" stroke="white" stroke-width="4"/>
<path d="M44.9564 76.1594V78.1594H46.9564H54.5505H56.5505V76.1594V72.3773V70.3773H54.5505H46.9564H44.9564V72.3773V76.1594Z" stroke="white" stroke-width="4"/>
<path d="M82.9357 42.1502V40.1502H80.9357H73.4373H71.4373V42.1502V45.9323V47.9323H73.4373H80.9357H82.9357V45.9323V42.1502Z" stroke="white" stroke-width="4"/>
<path d="M82.9895 53.4847V51.4847H80.9895H73.4373H71.4373V53.4847V57.2668V59.2668H73.4373H80.9895H82.9895V57.2668V53.4847Z" stroke="white" stroke-width="4"/>
<path d="M75.4313 45.9263V43.9263H73.4313H69.6492H67.6492V45.9263V53.4786V55.4786H69.6492H73.4313H75.4313V53.4786V45.9263Z" stroke="white" stroke-width="4"/>
<path d="M86.7537 45.9263V43.9263H84.7537H80.9716H78.9716V45.9263V53.4786V55.4786H80.9716H84.7537H86.7537V53.4786V45.9263Z" stroke="white" stroke-width="4"/>
<path d="M82.9895 45.9204V43.9204H80.9895H73.4373H71.4373V45.9204V53.4727V55.4727H73.4373H80.9895H82.9895V53.4727V45.9204Z" stroke="white" stroke-width="4"/>
<path d="M46.9696 34.9929V32.9929H44.9696H41.1875H39.1875V34.9929V38.775V40.775H41.1875H44.9696H46.9696V38.775V34.9929Z" stroke="white" stroke-width="4"/>
<path d="M62.098 34.9929V32.9929H60.098H56.3159H54.3159V34.9929V38.775V40.775H56.3159H60.098H62.098V38.775V34.9929Z" stroke="white" stroke-width="4"/>
<path d="M54.4261 34.9929V32.9929H52.4261H48.7577H46.7577V34.9929V42.5512V44.5512H48.7577H52.4261H54.4261V42.5512V34.9929Z" stroke="white" stroke-width="4"/>
<path d="M62.0023 44.7474V42.7474H60.0023H56.2621H54.2621V44.7474V48.9185V50.9185H56.2621H60.0023H62.0023V48.9185V44.7474Z" stroke="white" stroke-width="4"/>
<path d="M58.2621 44.7474V42.7474H56.2621H52.5219H50.5219V44.7474V48.9185V50.9185H52.5219H56.2621H58.2621V48.9185V44.7474Z" stroke="white" stroke-width="4"/>
<path d="M54.5159 44.7474V42.7474H52.5159H48.7756H46.7756V44.7474V48.9185V50.9185H48.7756H52.5159H54.5159V48.9185V44.7474Z" stroke="white" stroke-width="4"/>
<path d="M50.7756 44.7474V42.7474H48.7756H45.0354H43.0354V44.7474V48.9185V50.9185H45.0354H48.7756H50.7756V48.9185V44.7474Z" stroke="white" stroke-width="4"/>
<path d="M47.0354 44.7474V42.7474H45.0354H41.2952H39.2952V44.7474V48.9185V50.9185H41.2952H45.0354H47.0354V48.9185V44.7474Z" stroke="white" stroke-width="4"/>
<path d="M58.1664 48.9126V46.9126H56.1664H52.4261H50.4261V48.9126V53.0837V55.0837H52.4261H56.1664H58.1664V53.0837V48.9126Z" stroke="white" stroke-width="4"/>
<path d="M54.4261 48.9126V46.9126H52.4261H48.6859H46.6859V48.9126V53.0837V55.0837H48.6859H52.4261H54.4261V53.0837V48.9126Z" stroke="white" stroke-width="4"/>
<path d="M50.6798 48.9126V46.9126H48.6798H44.9396H42.9396V48.9126V53.0837V55.0837H44.9396H48.6798H50.6798V53.0837V48.9126Z" stroke="white" stroke-width="4"/>
<path d="M67.7999 46.4364H69.7999V44.4364V40.6542V38.6542H67.7999H60.2357H58.2357V40.6542V44.4364V46.4364H60.2357H67.7999Z" stroke="white" stroke-width="4"/>
<path d="M41.3011 46.4422H43.3011V44.4422V40.6601V38.6601H41.3011H33.7369H31.7369V40.6601V44.4422V46.4422H33.7369H41.3011Z" stroke="white" stroke-width="4"/>
<mask id="path-93-outside-9_0_183395" maskUnits="userSpaceOnUse" x="62.2321" y="72.2014" width="19" height="20" fill="black">
<rect fill="white" x="62.2321" y="72.2014" width="19" height="20"/>
<path d="M71.8274 87.44C68.7455 87.44 66.2321 84.9206 66.2321 81.8207C66.2321 78.7208 68.7395 76.2014 71.8274 76.2014C73.132 76.2014 74.3888 76.6562 75.3762 77.476C75.6275 77.6855 75.7951 78.0266 75.7951 78.3198C75.7951 78.6131 75.6874 78.8644 75.4899 79.0679C75.2924 79.2654 75.0291 79.3791 74.7478 79.3791C74.5084 79.3791 74.2691 79.2893 74.0716 79.1337C73.4492 78.625 72.5874 78.3138 71.8274 78.3138C69.9005 78.3138 68.3326 79.8877 68.3326 81.8207C68.3326 83.7536 69.9005 85.3275 71.8274 85.3275C73.6108 85.3275 74.7119 84.0469 74.7119 82.8739H71.8873V80.8213H75.813C76.3576 80.8213 76.8124 81.2342 76.8603 81.7788C76.8783 81.9703 76.8842 82.1199 76.8842 82.2575C76.8842 83.628 76.5132 84.9266 75.5497 85.896C74.5683 86.8894 73.3953 87.434 71.8274 87.434"/>
</mask>
<path d="M75.3762 77.476L77.9369 74.4031L77.9314 74.3986L75.3762 77.476ZM75.4899 79.0679L78.3183 81.8963L78.3394 81.8752L78.3602 81.8538L75.4899 79.0679ZM74.0716 79.1337L71.5402 82.2309L71.568 82.2535L71.5961 82.2757L74.0716 79.1337ZM74.7119 82.8739H78.7119V78.8739H74.7119V82.8739ZM71.8873 82.8739H67.8873V86.8739H71.8873V82.8739ZM71.8873 80.8213V76.8213H67.8873V80.8213H71.8873ZM76.8603 81.7788L72.8757 82.1291L72.8767 82.1406L72.8778 82.1522L76.8603 81.7788ZM75.5497 85.896L72.7125 83.0764L72.7042 83.0848L75.5497 85.896ZM71.8274 83.44C70.9685 83.44 70.2321 82.7254 70.2321 81.8207H62.2321C62.2321 87.1158 66.5224 91.44 71.8274 91.44V83.44ZM70.2321 81.8207C70.2321 80.9132 70.9653 80.2014 71.8274 80.2014V72.2014C66.5137 72.2014 62.2321 76.5283 62.2321 81.8207H70.2321ZM71.8274 80.2014C72.2045 80.2014 72.556 80.3335 72.821 80.5535L77.9314 74.3986C76.2216 72.9789 74.0596 72.2014 71.8274 72.2014V80.2014ZM72.8155 80.5489C72.4739 80.2643 72.2452 79.9444 72.0949 79.6407C71.9498 79.3475 71.7951 78.9009 71.7951 78.3198H79.7951C79.7951 76.7156 79.0006 75.2895 77.9369 74.4031L72.8155 80.5489ZM71.7951 78.3198C71.7951 77.9663 71.8622 77.5813 72.0196 77.2003C72.1761 76.8215 72.3934 76.515 72.6196 76.282L78.3602 81.8538C79.2558 80.931 79.7951 79.6905 79.7951 78.3198H71.7951ZM72.6615 76.2394C73.1848 75.7161 73.9274 75.3791 74.7478 75.3791V83.3791C76.1307 83.3791 77.4 82.8146 78.3183 81.8963L72.6615 76.2394ZM74.7478 75.3791C75.5012 75.3791 76.1173 75.6531 76.5471 75.9917L71.5961 82.2757C72.4208 82.9255 73.5156 83.3791 74.7478 83.3791V75.3791ZM76.6029 76.0365C75.2955 74.968 73.5473 74.3138 71.8274 74.3138V82.3138C71.7474 82.3138 71.6957 82.306 71.6719 82.3015C71.6472 82.2969 71.6353 82.2926 71.6324 82.2916C71.6293 82.2904 71.6239 82.2883 71.6137 82.2827C71.604 82.2772 71.5784 82.262 71.5402 82.2309L76.6029 76.0365ZM71.8274 74.3138C67.678 74.3138 64.3326 77.692 64.3326 81.8207H72.3326C72.3326 82.0835 72.123 82.3138 71.8274 82.3138V74.3138ZM64.3326 81.8207C64.3326 85.9494 67.678 89.3275 71.8274 89.3275V81.3275C72.123 81.3275 72.3326 81.5579 72.3326 81.8207H64.3326ZM71.8274 89.3275C75.5705 89.3275 78.7119 86.4975 78.7119 82.8739H70.7119C70.7119 81.5963 71.6511 81.3275 71.8274 81.3275V89.3275ZM74.7119 78.8739H71.8873V86.8739H74.7119V78.8739ZM75.8873 82.8739V80.8213H67.8873V82.8739H75.8873ZM71.8873 84.8213H75.813V76.8213H71.8873V84.8213ZM75.813 84.8213C74.2984 84.8213 73.0106 83.664 72.8757 82.1291L80.8449 81.4285C80.6143 78.8044 78.4168 76.8213 75.813 76.8213V84.8213ZM72.8778 82.1522C72.8815 82.1919 72.8829 82.2159 72.8835 82.2285C72.8841 82.2402 72.8842 82.2485 72.8842 82.2575H80.8842C80.8842 81.991 80.872 81.7167 80.8428 81.4054L72.8778 82.1522ZM72.8842 82.2575C72.8842 82.5903 72.8383 82.8031 72.7975 82.9211C72.7622 83.0235 72.7311 83.0577 72.7126 83.0764L78.3869 88.7157C80.3162 86.7744 80.8842 84.3231 80.8842 82.2575H72.8842ZM72.7042 83.0848C72.5243 83.2669 72.4083 83.3289 72.3426 83.3568C72.2791 83.3838 72.1342 83.434 71.8274 83.434V91.434C74.5019 91.434 76.6889 90.4344 78.3952 88.7073L72.7042 83.0848Z" fill="white" mask="url(#path-93-outside-9_0_183395)"/>
<path d="M71.8874 84.8739C73.5605 84.8739 74.9107 83.5236 74.9107 81.8506C74.9107 80.1912 73.5681 78.8273 71.8874 78.8273C70.2067 78.8273 68.864 80.1911 68.864 81.8506C68.864 83.5101 70.2067 84.8739 71.8874 84.8739Z" stroke="white" stroke-width="4"/>
<path d="M65.873 23.2456H69.6552V11.9052H65.873V23.2456Z" fill="#8F6C56"/>
<path d="M77.2015 27.0277H69.5415V34.586H73.18V38.3681H77.2015V27.297" fill="#8F6C56"/>
<path d="M35.646 27.0277H27.986V34.586H31.6304V38.3681H35.646V27.297" fill="#59544F"/>
<path d="M31.8938 23.2456H24.2338V30.8039H27.8723V34.586H31.8938V23.5149" fill="#99755D"/>
<path d="M47.8181 27.0277H40.1581V34.586H43.8026V38.3681H47.8181V27.297" fill="#59544F"/>
<path d="M35.6041 19.4695V34.586H31.8279V38.3681H28.0278V42.1503H31.8279V49.7085H35.6041V53.4847H39.3862V57.2668H62.0849V53.4847H65.867V49.7085H69.6432V42.1503H73.4253V38.3681H69.6432V34.586H65.867V19.4695H35.6041Z" fill="#EDCFB9"/>
<path d="M35.598 49.7085H31.8159V53.4906H35.598V49.7085Z" fill="#C2A490"/>
<path d="M31.8219 34.586H28.0398V38.3681H31.8219V34.586Z" fill="#C2A490"/>
<path d="M16.7234 72.3713H20.5055V68.5892H16.7234V72.3713Z" fill="#5C9965"/>
<path d="M12.9412 91.27H16.7233L16.7233 72.3714H12.9412L12.9412 91.27Z" fill="#5C9965"/>
<path d="M12.9412 102H16.7233L16.7233 83.1013H12.9412L12.9412 102Z" fill="#5C9965"/>
<path d="M20.4996 68.5892H31.8878V64.8071H20.4996V68.5892Z" fill="#5C9965"/>
<path d="M84.7597 68.5892H80.9775V72.3714H84.7597V68.5892Z" fill="#5C9965"/>
<path d="M88.5478 72.3713H84.7657V91.27H88.5478V72.3713Z" fill="#5C9965"/>
<path d="M88.5478 83.1014H84.7657V102H88.5478V83.1014Z" fill="#5C9965"/>
<path d="M80.9715 64.813H58.2848V68.5952H80.9715V64.813Z" fill="#5C9965"/>
<path d="M28.0398 38.3681H24.2577V42.1502H28.0398V38.3681Z" fill="#C2A490"/>
<path d="M39.3802 53.4847H35.598V57.2668H39.3802V53.4847Z" fill="#C2A490"/>
<path d="M54.5086 64.8251H46.9563V68.6072H54.5086V64.8251Z" fill="#C2A490"/>
<path d="M46.9564 61.0429H43.1743V68.6012H46.9564V61.0429Z" fill="#C2A490"/>
<path d="M54.5086 61.0429H46.9563V64.825H54.5086V61.0429Z" fill="#EDCFB9"/>
<path d="M58.2968 61.0429H54.5146V68.6012H58.2968V61.0429Z" fill="#C2A490"/>
<path d="M65.8609 53.4847H69.6431V49.7026H65.8609V53.4847Z" fill="#C2A490"/>
<path d="M62.0848 57.2668H65.8669V53.4847H62.0848V57.2668Z" fill="#C2A490"/>
<path d="M62.073 57.2668H39.3743V61.0489H62.073V57.2668Z" fill="#C2A490"/>
<path d="M35.598 27.0277H31.8159V34.586H35.598V27.0277Z" fill="#C2A490"/>
<path d="M31.8219 42.1502H28.0398V49.7085H31.8219V42.1502Z" fill="#C2A490"/>
<path d="M69.6432 38.3681H73.4253V34.586H69.6432V38.3681Z" fill="#C2A490"/>
<path d="M73.4193 42.1443H77.2014V38.3622H73.4193V42.1443Z" fill="#C2A490"/>
<path d="M73.4193 46.3334H77.2014V42.5512H73.4193V46.3334Z" fill="#C2A490"/>
<path d="M65.8609 34.586H69.6431V27.0277H65.8609V34.586Z" fill="#C2A490"/>
<path d="M69.6432 49.7026H73.4253V42.1443H69.6432V49.7026Z" fill="#C2A490"/>
<path d="M73.4313 38.3681H77.2134V27.0277H73.4313V38.3681Z" fill="#8F6C56"/>
<path d="M24.2577 38.3681H28.0398V30.8039H24.2577V38.3681Z" fill="#8F6C56"/>
<path d="M20.4995 30.8099H24.2816V19.4695H20.4995V30.8099Z" fill="#8F6C56"/>
<path d="M24.1738 19.4634H27.9559V15.6813H24.1738V19.4634Z" fill="#8F6C56"/>
<path d="M31.8398 27.0338H35.6219V23.2516H31.8398V27.0338Z" fill="#99755D"/>
<path d="M65.8609 27.0338H69.6431V23.2516H65.8609V27.0338Z" fill="#8F6C56"/>
<path d="M24.2576 23.2456H35.6459V19.4635H24.2576V23.2456Z" fill="#99755D"/>
<path d="M28.0158 19.4634L69.6431 19.4634V15.6813L28.0158 15.6813V19.4634Z" fill="#99755D"/>
<path d="M28.0158 15.6934L69.6431 15.6934V11.9112L28.0158 11.9112V15.6934Z" fill="#99755D"/>
<path d="M31.8878 11.9112L69.6372 11.9112V8.12907L31.8878 8.12907V11.9112Z" fill="#99755D"/>
<path d="M27.95 15.6873H31.7322V11.9052H27.95V15.6873Z" fill="#8F6C56"/>
<path d="M73.4193 27.0277H77.2014V19.4635H73.4193V27.0277Z" fill="#8F6C56"/>
<path d="M31.7322 11.9052H35.5143V8.12309H31.7322V11.9052Z" fill="#8F6C56"/>
<path d="M69.6671 19.4755H73.4492V11.9112H69.6671V19.4755Z" fill="#8F6C56"/>
<path d="M65.8609 11.9052H69.6431V8.12309H65.8609V11.9052Z" fill="#8F6C56"/>
<path d="M35.5083 8.13501L65.9628 8.13501V4.35289L35.5083 4.35289V8.13501Z" fill="#8F6C56"/>
<path d="M35.5921 30.8099H39.3743V19.4695H35.5921V30.8099Z" fill="#8F6C56"/>
<path d="M43.1803 30.8099H46.9624V19.4695H43.1803V30.8099Z" fill="#8F6C56"/>
<path d="M50.7624 30.8099H54.5446V19.4695H50.7624V30.8099Z" fill="#8F6C56"/>
<path d="M39.3861 30.8099H43.1682V19.4695H39.3861V30.8099Z" fill="#99755D"/>
<path d="M46.9684 30.8099H50.7505V19.4695H46.9684V30.8099Z" fill="#99755D"/>
<path d="M54.5505 30.8099H58.3326V19.4695H54.5505V30.8099Z" fill="#99755D"/>
<path d="M62.0789 30.8099H65.873V19.4695H62.0789V30.8099Z" fill="#99755D"/>
<path d="M69.6432 30.8099H73.4253V19.4695H69.6432V30.8099Z" fill="#8F6C56"/>
<path d="M50.7265 68.5892H20.5054V72.3714H16.7233V91.27H50.7265" fill="#6FB87A"/>
<path d="M50.7265 79.3192H20.5054V83.1013H16.7233V102H50.7265" fill="#6FB87A"/>
<path d="M50.7266 68.5892H80.9895V72.3714H84.7716V91.27H50.7266" fill="#6FB87A"/>
<path d="M50.7266 79.3192H80.9895V83.1013H84.7716V102H50.7266" fill="#6FB87A"/>
<path d="M58.3087 30.8099H62.0908V19.4695H58.3087V30.8099Z" fill="#8F6C56"/>
<path d="M31.8458 68.5892H43.1802V64.8071H31.8458V68.5892Z" fill="#5C9965"/>
<path d="M39.3922 68.6072H43.1743V64.8251H39.3922V68.6072Z" fill="white"/>
<path d="M58.2969 68.6072H62.079V64.8251H58.2969V68.6072Z" fill="white"/>
<path d="M43.1204 72.3833H58.3087V68.6012H43.1204V72.3833Z" fill="white"/>
<path d="M46.9564 76.1594H54.5505V72.3773H46.9564V76.1594Z" fill="white"/>
<path d="M80.9357 42.1502H73.4373V45.9323H80.9357V42.1502Z" fill="#8F6C56"/>
<path d="M80.9895 53.4847H73.4373V57.2668H80.9895V53.4847Z" fill="#8F6C56"/>
<path d="M73.4313 45.9263H69.6492V53.4786H73.4313V45.9263Z" fill="#8F6C56"/>
<path d="M84.7537 45.9263H80.9716V53.4786H84.7537V45.9263Z" fill="#8F6C56"/>
<path d="M80.9895 45.9204H73.4373V53.4727H80.9895V45.9204Z" fill="#99755D"/>
<path d="M44.9696 34.9929H41.1875V38.775H44.9696V34.9929Z" fill="#383532"/>
<path d="M60.098 34.9929H56.3159V38.775H60.098V34.9929Z" fill="#383532"/>
<path d="M52.4261 34.9929H48.7577V42.5512H52.4261V34.9929Z" fill="#C2A490"/>
<path d="M60.0023 44.7474H56.2621V48.9185H60.0023V44.7474Z" fill="#C30045"/>
<path d="M56.2621 44.7474H52.5219V48.9185H56.2621V44.7474Z" fill="#C30045"/>
<path d="M52.5159 44.7474H48.7756V48.9185H52.5159V44.7474Z" fill="#C30045"/>
<path d="M48.7756 44.7474H45.0354V48.9185H48.7756V44.7474Z" fill="#C30045"/>
<path d="M45.0354 44.7474H41.2952V48.9185H45.0354V44.7474Z" fill="#C30045"/>
<path d="M56.1664 48.9126H52.4261V53.0837H56.1664V48.9126Z" fill="#C30045"/>
<path d="M52.4261 48.9126H48.6859V53.0837H52.4261V48.9126Z" fill="#C30045"/>
<path d="M48.6798 48.9126H44.9396V53.0837H48.6798V48.9126Z" fill="#C30045"/>
<path d="M67.7999 44.4364V40.6542H60.2357V44.4364H67.7999Z" fill="#FF92A0"/>
<path d="M41.3011 44.4422V40.6601H33.7369V44.4422H41.3011Z" fill="#FF92A0"/>
<path d="M71.8274 87.44C68.7455 87.44 66.2321 84.9206 66.2321 81.8207C66.2321 78.7208 68.7395 76.2014 71.8274 76.2014C73.132 76.2014 74.3888 76.6562 75.3762 77.476C75.6275 77.6855 75.7951 78.0266 75.7951 78.3198C75.7951 78.6131 75.6874 78.8644 75.4899 79.0679C75.2924 79.2654 75.0291 79.3791 74.7478 79.3791C74.5084 79.3791 74.2691 79.2893 74.0716 79.1337C73.4492 78.625 72.5874 78.3138 71.8274 78.3138C69.9005 78.3138 68.3326 79.8877 68.3326 81.8207C68.3326 83.7536 69.9005 85.3275 71.8274 85.3275C73.6108 85.3275 74.7119 84.0469 74.7119 82.8739H71.8873V80.8213H75.813C76.3576 80.8213 76.8124 81.2342 76.8603 81.7788C76.8783 81.9703 76.8842 82.1199 76.8842 82.2575C76.8842 83.628 76.5132 84.9266 75.5497 85.896C74.5683 86.8894 73.3953 87.434 71.8274 87.434" fill="white"/>
<path d="M72.9107 81.8506C72.9107 82.4191 72.4559 82.8739 71.8874 82.8739C71.3188 82.8739 70.864 82.4131 70.864 81.8506C70.864 81.2881 71.3188 80.8273 71.8874 80.8273C72.4559 80.8273 72.9107 81.2881 72.9107 81.8506Z" fill="#00C01E"/>
</svg>
