<svg width="100" height="106" viewBox="0 0 100 106" fill="none" xmlns="http://www.w3.org/2000/svg">
<path d="M86.3902 68.282V66.282H84.3902H16.7101H14.7101V68.282V75.7961V77.7961H16.7101H84.3902H86.3902V75.7961V68.282Z" stroke="white" stroke-width="4"/>
<mask id="path-2-outside-1_0_184283" maskUnits="userSpaceOnUse" x="16.4552" y="4.11597" width="69" height="61" fill="black">
<rect fill="white" x="16.4552" y="4.11597" width="69" height="61"/>
<path d="M80.6153 64.5131V34.439H76.8642V30.676H73.1072V19.399H69.3502V15.636L69.3621 11.8789H61.8361H58.0731L58.0791 8.11597H35.4952V11.8789H31.7144V15.636H27.9752V19.399H24.2122V30.67H20.4552V64.5131"/>
</mask>
<path d="M80.6153 34.439H84.6153V30.439H80.6153V34.439ZM76.8642 34.439H72.8642V38.439H76.8642V34.439ZM76.8642 30.676H80.8642V26.676H76.8642V30.676ZM73.1072 30.676H69.1072V34.676H73.1072V30.676ZM73.1072 19.399H77.1072V15.399H73.1072V19.399ZM69.3502 19.399H65.3502V23.399H69.3502V19.399ZM69.3502 15.636L65.3502 15.6233V15.636H69.3502ZM69.3621 11.8789L73.3621 11.8916L73.3748 7.87895H69.3621V11.8789ZM58.0731 11.8789L54.0732 11.8726L54.0668 15.8789H58.0731V11.8789ZM58.0791 8.11597L62.0791 8.12228L62.0854 4.11597H58.0791V8.11597ZM35.4952 8.11597V4.11597H31.4952V8.11597H35.4952ZM35.4952 11.8789V15.8789H39.4952V11.8789H35.4952ZM31.7144 11.8789V7.87895H27.7144V11.8789H31.7144ZM31.7144 15.636V19.636H35.7144V15.636H31.7144ZM27.9752 15.636V11.636H23.9752V15.636H27.9752ZM27.9752 19.399V23.399H31.9752V19.399H27.9752ZM24.2122 19.399V15.399H20.2122V19.399H24.2122ZM24.2122 30.67V34.67H28.2122V30.67H24.2122ZM20.4552 30.67V26.67H16.4552V30.67H20.4552ZM84.6153 64.5131V34.439H76.6153V64.5131H84.6153ZM80.6153 30.439H76.8642V38.439H80.6153V30.439ZM80.8642 34.439V30.676H72.8642V34.439H80.8642ZM76.8642 26.676H73.1072V34.676H76.8642V26.676ZM77.1072 30.676V19.399H69.1072V30.676H77.1072ZM73.1072 15.399H69.3502V23.399H73.1072V15.399ZM73.3502 19.399V15.636H65.3502V19.399H73.3502ZM73.3502 15.6486L73.3621 11.8916L65.3621 11.8663L65.3502 15.6233L73.3502 15.6486ZM69.3621 7.87895H61.8361V15.8789H69.3621V7.87895ZM61.8361 7.87895H58.0731V15.8789H61.8361V7.87895ZM62.0731 11.8853L62.0791 8.12228L54.0791 8.10965L54.0732 11.8726L62.0731 11.8853ZM58.0791 4.11597H35.4952V12.116H58.0791V4.11597ZM31.4952 8.11597V11.8789H39.4952V8.11597H31.4952ZM35.4952 7.87895H31.7144V15.8789H35.4952V7.87895ZM27.7144 11.8789V15.636H35.7144V11.8789H27.7144ZM31.7144 11.636H27.9752V19.636H31.7144V11.636ZM23.9752 15.636V19.399H31.9752V15.636H23.9752ZM27.9752 15.399H24.2122V23.399H27.9752V15.399ZM20.2122 19.399V30.67H28.2122V19.399H20.2122ZM24.2122 26.67H20.4552V34.67H24.2122V26.67ZM16.4552 30.67V64.5131H24.4552V30.67H16.4552Z" fill="white" mask="url(#path-2-outside-1_0_184283)"/>
<path d="M41.0153 19.399V21.156H35.4952H33.4952V23.156V32.439H31.7322H29.7322V34.439V36.196H27.9514H25.9514V38.196V41.959V43.959H27.9514H29.7322V49.479V51.479H31.7322H33.4952V53.242V55.242H35.4952H37.2582V56.9991V58.9991H39.2582H61.8361H63.8361V56.9991V55.242H65.5991H67.5991V53.242V51.479H69.3621H71.3621V49.479V43.959H73.1191H75.1191V41.959V38.196V36.196H73.1191H71.3621V34.439V32.439H69.3621H67.5991V23.156V21.156H65.5991H63.8302V19.399V17.399H61.8302H43.0153H41.0153V19.399Z" stroke="white" stroke-width="4"/>
<path d="M37.4893 49.479V47.479H35.4893H31.7263H29.7263V49.479V53.242V55.242H31.7263H35.4893H37.4893V53.242V49.479Z" stroke="white" stroke-width="4"/>
<path d="M33.7262 34.439V32.439H31.7262H27.9633H25.9633V34.439V38.202V40.202H27.9633H31.7262H33.7262V38.202V34.439Z" stroke="white" stroke-width="4"/>
<path d="M67.599 23.1559V21.1559H65.599H61.8361H59.8361V23.1559V26.9189V28.9189H61.8361H65.599H67.599V26.9189V23.1559Z" stroke="white" stroke-width="4"/>
<path d="M41.2464 23.1559V21.1559H39.2464H35.4834H33.4834V23.1559V26.9189V28.9189H35.4834H39.2464H41.2464V26.9189V23.1559Z" stroke="white" stroke-width="4"/>
<path d="M52.547 23.1559V21.1559H50.547H46.7841H44.7841V23.1559V26.9189V28.9189H46.7841H50.547H52.547V26.9189V23.1559Z" stroke="white" stroke-width="4"/>
<path d="M63.8421 23.1559V21.1559H61.8421H58.0791H56.0791V23.1559V26.9189V28.9189H58.0791H61.8421H63.8421V26.9189V23.1559Z" stroke="white" stroke-width="4"/>
<path d="M67.599 26.907V24.907H65.599H61.8361H59.8361V26.907V30.67V32.67H61.8361H65.599H67.599V30.67V26.907Z" stroke="white" stroke-width="4"/>
<path d="M48.7841 26.907V24.907H46.7841H39.276H37.276V26.907V30.67V32.67H39.276H46.7841H48.7841V30.67V26.907Z" stroke="white" stroke-width="4"/>
<path d="M60.0613 26.907V24.907H58.0613H50.5532H48.5532V26.907V30.67V32.67H50.5532H58.0613H60.0613V30.67V26.907Z" stroke="white" stroke-width="4"/>
<path d="M14.7042 72.039V74.039H16.7042H20.4672H22.4672V72.039V68.276V66.276H20.4672H16.7042H14.7042V68.276V72.039Z" stroke="white" stroke-width="4"/>
<path d="M18.4613 75.8079V77.8079H20.4613H24.2242H26.2242V75.8079V72.045V70.045H24.2242H20.4613H18.4613V72.045V75.8079Z" stroke="white" stroke-width="4"/>
<path d="M74.8702 75.8079V77.8079H76.8702H80.6332H82.6332V75.8079V72.045V70.045H80.6332H76.8702H74.8702V72.045V75.8079Z" stroke="white" stroke-width="4"/>
<path d="M22.2181 79.5709V81.5709H24.2181H76.8761H78.8761V79.5709V75.808V73.808H76.8761H24.2181H22.2181V75.808V79.5709Z" stroke="white" stroke-width="4"/>
<path d="M10.9411 75.802V77.802H12.9411H16.7041H18.7041V75.802V72.039V70.039H16.7041H12.9411H10.9411V72.039V75.802Z" stroke="white" stroke-width="4"/>
<path d="M10.9411 90.836V92.836H12.9411H16.7041H18.7041V90.836V75.8079L18.7041 73.8079H16.7041H12.9411H10.9411V75.8079L10.9411 90.836Z" stroke="white" stroke-width="4"/>
<path d="M10.9649 102V104H12.9649H16.5374H18.5374V102V86.5194L18.5374 84.5194H16.5374H12.9649H10.9649V86.5194L10.9649 102Z" stroke="white" stroke-width="4"/>
<path d="M82.4082 90.836V92.836H84.4082H88.1711H90.1711V90.836V75.8079V73.8079H88.1711H84.4082H82.4082V75.8079V90.836Z" stroke="white" stroke-width="4"/>
<path d="M82.4082 102V104H84.4082H88.1711H90.1711V102V87.1148V85.1148H88.1711H84.4082H82.4082V87.1148V102Z" stroke="white" stroke-width="4"/>
<path d="M18.4672 68.282V70.282H20.4672H43.0272H45.0272V68.282V64.5191V62.5191H43.0272H20.4672H18.4672V64.5191V68.282Z" stroke="white" stroke-width="4"/>
<path d="M86.402 68.282V66.282H84.402H80.639H78.639V68.282V72.045V74.045H80.639H84.402H86.402V72.045V68.282Z" stroke="white" stroke-width="4"/>
<path d="M90.1712 72.039V70.039H88.1712H84.4082H82.4082V72.039V75.802V77.802H84.4082H88.1712H90.1712V75.802V72.039Z" stroke="white" stroke-width="4"/>
<path d="M29.9633 38.1959V36.1959H27.9633H24.2003H22.2003V38.1959V41.9589V43.9589H24.2003H27.9633H29.9633V41.9589V38.1959Z" stroke="white" stroke-width="4"/>
<path d="M33.7262 19.1608V17.1608H31.7262H27.9633H25.9633V19.1608V22.9238V24.9238H27.9633H31.7262H33.7262V22.9238V19.1608Z" stroke="white" stroke-width="4"/>
<path d="M37.4893 15.4037V13.4037H35.4893H31.7263H29.7263V15.4037V19.1667V21.1667H31.7263H35.4893H37.4893V19.1667V15.4037Z" stroke="white" stroke-width="4"/>
<path d="M41.2464 53.2419V51.2419H39.2464H35.4834H33.4834V53.2419V57.0049V59.0049H35.4834H39.2464H41.2464V57.0049V53.2419Z" stroke="white" stroke-width="4"/>
<path d="M48.7902 60.7619V58.7619H46.7902H43.0272H41.0272V60.7619V64.5249V66.5249H43.0272H46.7902H48.7902V64.5249V60.7619Z" stroke="white" stroke-width="4"/>
<path d="M48.7902 64.519V62.519H46.7902H43.0272H41.0272V64.519V68.282V70.282H43.0272H46.7902H48.7902V68.282V64.519Z" stroke="white" stroke-width="4"/>
<path d="M60.0732 64.519V62.519H58.0732H54.3102H52.3102V64.519V68.282V70.282H54.3102H58.0732H60.0732V68.282V64.519Z" stroke="white" stroke-width="4"/>
<path d="M56.2981 60.7619V58.7619H54.2981H46.7841H44.7841V60.7619V68.276V70.276H46.7841H54.2981H56.2981V68.276V60.7619Z" stroke="white" stroke-width="4"/>
<path d="M60.0732 60.7619V58.7619H58.0732H54.3102H52.3102V60.7619V64.5249V66.5249H54.3102H58.0732H60.0732V64.5249V60.7619Z" stroke="white" stroke-width="4"/>
<path d="M63.5991 53.2419V55.2419H65.5991H69.3621H71.3621V53.2419V49.479V47.479H69.3621H65.5991H63.5991V49.479V53.2419Z" stroke="white" stroke-width="4"/>
<path d="M59.8361 56.999V58.999H61.8361H65.5991H67.5991V56.999V53.236V51.236H65.5991H61.8361H59.8361V53.236V56.999Z" stroke="white" stroke-width="4"/>
<path d="M63.8302 56.999V54.999H61.8302H39.2463H37.2463V56.999V60.762V62.762H39.2463H61.8302H63.8302V60.762V56.999Z" stroke="white" stroke-width="4"/>
<path d="M37.4893 26.9189V24.9189H35.4893H31.7263H29.7263V26.9189V34.439V36.439H31.7263H35.4893H37.4893V34.439V26.9189Z" stroke="white" stroke-width="4"/>
<path d="M33.7262 41.9589V39.9589H31.7262H27.9633H25.9633V41.9589V49.4789V51.4789H27.9633H31.7262H33.7262V49.4789V41.9589Z" stroke="white" stroke-width="4"/>
<path d="M67.3562 38.1959V40.1959H69.3562H73.1191H75.1191V38.1959V34.4329V32.4329H73.1191H69.3562H67.3562V34.4329V38.1959Z" stroke="white" stroke-width="4"/>
<path d="M71.1192 41.9589V43.9589H73.1192H76.8822H78.8822V41.9589V38.1959V36.1959H76.8822H73.1192H71.1192V38.1959V41.9589Z" stroke="white" stroke-width="4"/>
<path d="M63.5991 34.439V36.439H65.5991H69.3621H71.3621V34.439V30.676V28.676H69.3621H65.5991H63.5991V30.676V34.439Z" stroke="white" stroke-width="4"/>
<path d="M67.3562 49.479V51.479H69.3562H73.1191H75.1191V49.479V41.959V39.959H73.1191H69.3562H67.3562V41.959V49.479Z" stroke="white" stroke-width="4"/>
<path d="M75.125 15.636V13.636H73.125H69.3621H67.3621V15.636V19.399V21.399H69.3621H73.125H75.125V19.399V15.636Z" stroke="white" stroke-width="4"/>
<path d="M75.125 11.8788V9.87885H73.125H69.3621H67.3621V11.8788V15.6418V17.6418H69.3621H73.125H75.125V15.6418V11.8788Z" stroke="white" stroke-width="4"/>
<path d="M78.8821 19.399V17.399H76.8821H73.1191H71.1191V19.399V30.682V32.682H73.1191H76.8821H78.8821V30.682V19.399Z" stroke="white" stroke-width="4"/>
<path d="M71.3502 8.11597V6.11597H69.3502H58.0731H56.0731V8.11597V11.8789V13.8789H58.0731H69.3502H71.3502V11.8789V8.11597Z" stroke="white" stroke-width="4"/>
<path d="M37.4893 8.11597V6.11597H35.4893H31.7263H29.7263V8.11597V11.8789V13.8789H31.7263H35.4893H37.4893V11.8789V8.11597Z" stroke="white" stroke-width="4"/>
<path d="M33.7262 11.8788V9.87885H31.7262H27.9633H25.9633V11.8788V15.6418V17.6418H27.9633H31.7262H33.7262V15.6418V11.8788Z" stroke="white" stroke-width="4"/>
<path d="M29.9872 15.636V13.636H27.9872H24.2242H22.2242V15.636V19.399V21.399H24.2242H27.9872H29.9872V19.399V15.636Z" stroke="white" stroke-width="4"/>
<path d="M22.4671 30.6701V28.6701H20.4671H16.7041H14.7041V30.6701V68.2702V70.2702H16.7041H20.4671H22.4671V68.2702V30.6701Z" stroke="white" stroke-width="4"/>
<path d="M82.6452 30.6701V28.6701H80.6452H76.8822H74.8822V30.6701V64.5132V66.5132H76.8822H80.6452H82.6452V64.5132V30.6701Z" stroke="white" stroke-width="4"/>
<path d="M26.2242 19.399V17.399H24.2242H20.4612H18.4612V19.399V30.6701V32.6701H20.4612H24.2242H26.2242V30.6701V19.399Z" stroke="white" stroke-width="4"/>
<path d="M60.0613 4.35297V2.35297H58.0613H35.5072H33.5072V4.35297V8.11596V10.116H35.5072H58.0613H60.0613V8.11596V4.35297Z" stroke="white" stroke-width="4"/>
<mask id="path-55-outside-2_0_184283" maskUnits="userSpaceOnUse" x="35.2463" y="15.1608" width="31" height="16" fill="black">
<rect fill="white" x="35.2463" y="15.1608" width="31" height="16"/>
<path d="M39.2463 23.156V26.907H46.7842V23.156H50.5472V26.907H58.0612V23.156H61.8361V19.1608H41.6042"/>
</mask>
<path d="M39.2463 26.907H35.2463V30.907H39.2463V26.907ZM46.7842 26.907V30.907H50.7842V26.907H46.7842ZM46.7842 23.156V19.156H42.7842V23.156H46.7842ZM50.5472 23.156H54.5472V19.156H50.5472V23.156ZM50.5472 26.907H46.5472V30.907H50.5472V26.907ZM58.0612 26.907V30.907H62.0612V26.907H58.0612ZM58.0612 23.156V19.156H54.0612V23.156H58.0612ZM61.8361 23.156V27.156H65.8361V23.156H61.8361ZM61.8361 19.1608H65.8361V15.1608H61.8361V19.1608ZM35.2463 23.156V26.907H43.2463V23.156H35.2463ZM39.2463 30.907H46.7842V22.907H39.2463V30.907ZM50.7842 26.907V23.156H42.7842V26.907H50.7842ZM46.7842 27.156H50.5472V19.156H46.7842V27.156ZM46.5472 23.156V26.907H54.5472V23.156H46.5472ZM50.5472 30.907H58.0612V22.907H50.5472V30.907ZM62.0612 26.907V23.156H54.0612V26.907H62.0612ZM58.0612 27.156H61.8361V19.156H58.0612V27.156ZM65.8361 23.156V19.1608H57.8361V23.156H65.8361ZM61.8361 15.1608H41.6042V23.1608H61.8361V15.1608Z" fill="white" mask="url(#path-55-outside-2_0_184283)"/>
<path d="M82.6332 64.519V62.519H80.6332H58.0613H56.0613V64.519V68.282V70.282H58.0613H80.6332H82.6332V68.282V64.519Z" stroke="white" stroke-width="4"/>
<path d="M22.4611 72.0446L22.4548 70.0509H20.4611H16.7041H14.7041V72.0509V90.842V92.842H16.7041H84.3902H86.3902V90.842V72.039V70.039H84.3902H80.6391H78.6391V72.039V73.8079H76.8821H74.8821V75.8079V77.5709H26.2241V75.8079V73.8079H24.2241H22.4667L22.4611 72.0446Z" stroke="white" stroke-width="4"/>
<path d="M22.3049 82.9527L22.2987 80.959H20.305H16.5374H14.5374V82.959V102V104H16.5374H84.414H86.414V102V82.9469V80.9469H84.414H80.6523H78.6523V82.9469V84.766H76.8847H74.8847V86.766V88.579H26.0785V86.766V84.766H24.0785H22.3106L22.3049 82.9527Z" stroke="white" stroke-width="4"/>
<path d="M18.4611 78.2789V80.2789H20.4611L80.639 80.2789H82.639V78.2789V72.0449V70.0449H80.639H20.4611H18.4611V72.0449V78.2789Z" stroke="white" stroke-width="4"/>
<path d="M46.8788 34.439V32.439H44.8788H41.1158H39.1158V34.439V38.202V40.202H41.1158H44.8788H46.8788V38.202V34.439Z" stroke="white" stroke-width="4"/>
<path d="M61.9307 34.439V32.439H59.9307H56.1677H54.1677V34.439V38.202V40.202H56.1677H59.9307H61.9307V38.202V34.439Z" stroke="white" stroke-width="4"/>
<path d="M61.8354 44.0012V42.0012H59.8354H56.1141H54.1141V44.0012V48.1512V50.1512H56.1141H59.8354H61.8354V48.1512V44.0012Z" stroke="white" stroke-width="4"/>
<path d="M58.1141 44.0012V42.0012H56.1141H52.3928H50.3928V44.0012V48.1512V50.1512H52.3928H56.1141H58.1141V48.1512V44.0012Z" stroke="white" stroke-width="4"/>
<path d="M54.387 44.0012V42.0012H52.387H48.6656H46.6656V44.0012V48.1512V50.1512H48.6656H52.387H54.387V48.1512V44.0012Z" stroke="white" stroke-width="4"/>
<path d="M50.6658 44.0012V42.0012H48.6658H44.9445H42.9445V44.0012V48.1512V50.1512H44.9445H48.6658H50.6658V48.1512V44.0012Z" stroke="white" stroke-width="4"/>
<path d="M46.9385 44.0012V42.0012H44.9385H41.2172H39.2172V44.0012V48.1512V50.1512H41.2172H44.9385H46.9385V48.1512V44.0012Z" stroke="white" stroke-width="4"/>
<path d="M58.0189 48.1512V46.1512H56.0189H52.2976H50.2976V48.1512V52.3012V54.3012H52.2976H56.0189H58.0189V52.3012V48.1512Z" stroke="white" stroke-width="4"/>
<path d="M54.2977 48.1512V46.1512H52.2977H48.5764H46.5764V48.1512V52.3012V54.3012H48.5764H52.2977H54.2977V52.3012V48.1512Z" stroke="white" stroke-width="4"/>
<path d="M50.5704 48.1512V46.1512H48.5704H44.8491H42.8491V48.1512V52.3012V54.3012H44.8491H48.5704H50.5704V52.3012V48.1512Z" stroke="white" stroke-width="4"/>
<path d="M54.4168 34.3914V32.3914H52.4168H48.6538H46.6538V34.3914V41.9114V43.9114H48.6538H52.4168H54.4168V41.9114V34.3914Z" stroke="white" stroke-width="4"/>
<path d="M67.3794 46.6265H69.3794V44.6265V40.8635V38.8635H67.3794H59.8534H57.8534V40.8635V44.6265V46.6265H59.8534H67.3794Z" stroke="white" stroke-width="4"/>
<path d="M41.0206 46.6324H43.0206V44.6324V40.8694V38.8694H41.0206H33.4947H31.4947V40.8694V44.6324V46.6324H33.4947H41.0206Z" stroke="white" stroke-width="4"/>
<path d="M68.2897 17.5175V15.5175H66.2897H61.8361H59.8361V17.5175V26.919V28.919H61.8361H66.2897H68.2897V26.919V17.5175Z" stroke="white" stroke-width="4"/>
<mask id="path-75-outside-3_0_184283" maskUnits="userSpaceOnUse" x="61.7717" y="72.1354" width="19" height="20" fill="black">
<rect fill="white" x="61.7717" y="72.1354" width="19" height="20"/>
<path d="M71.3388 87.3172C68.2724 87.3172 65.7717 84.8106 65.7717 81.7263C65.7717 78.6421 68.2665 76.1354 71.3388 76.1354C72.6368 76.1354 73.8872 76.588 74.8696 77.4037C75.1196 77.6121 75.2864 77.9514 75.2864 78.2432C75.2864 78.5349 75.1792 78.785 74.9827 78.9875C74.7862 79.1839 74.5242 79.2971 74.2444 79.2971C74.0062 79.2971 73.7681 79.2077 73.5716 79.0529C72.9524 78.5468 72.095 78.2372 71.3388 78.2372C69.4216 78.2372 67.8616 79.8032 67.8616 81.7263C67.8616 83.6495 69.4216 85.2154 71.3388 85.2154C73.1131 85.2154 74.2087 83.9412 74.2087 82.7742H71.3983V80.732H75.3042C75.8461 80.732 76.2986 81.1428 76.3462 81.6847C76.3641 81.8752 76.37 82.024 76.37 82.161C76.37 83.5245 76.0009 84.8165 75.0422 85.7811C74.0658 86.7694 72.8988 87.3113 71.3388 87.3113"/>
</mask>
<path d="M74.8696 77.4037L77.4303 74.3308L77.4248 74.3262L74.8696 77.4037ZM74.9827 78.9875L77.8111 81.8159L77.8322 81.7948L77.853 81.7734L74.9827 78.9875ZM73.5716 79.0529L71.0403 82.1501L71.068 82.1727L71.0961 82.1949L73.5716 79.0529ZM74.2087 82.7742H78.2087V78.7742H74.2087V82.7742ZM71.3983 82.7742H67.3983V86.7742H71.3983V82.7742ZM71.3983 80.732V76.732H67.3983V80.732H71.3983ZM76.3462 81.6847L72.3616 82.0349L72.3626 82.0465L72.3637 82.058L76.3462 81.6847ZM75.0422 85.7811L72.2051 82.9614L72.1967 82.9698L75.0422 85.7811ZM71.3388 83.3172C70.4955 83.3172 69.7717 82.6153 69.7717 81.7263H61.7717C61.7717 87.0058 66.0494 91.3172 71.3388 91.3172V83.3172ZM69.7717 81.7263C69.7717 80.8346 70.4923 80.1354 71.3388 80.1354V72.1354C66.0407 72.1354 61.7717 76.4497 61.7717 81.7263H69.7717ZM71.3388 80.1354C71.7092 80.1354 72.0543 80.2652 72.3143 80.4811L77.4248 74.3262C75.72 72.9107 73.5644 72.1354 71.3388 72.1354V80.1354ZM72.3088 80.4765C71.9667 80.1915 71.7375 79.871 71.5868 79.5666C71.4414 79.2727 71.2864 78.8252 71.2864 78.2432H79.2864C79.2864 76.6402 78.4925 75.2159 77.4303 74.3308L72.3088 80.4765ZM71.2864 78.2432C71.2864 77.8888 71.3537 77.503 71.5114 77.1213C71.6681 76.7419 71.8858 76.4349 72.1124 76.2015L77.853 81.7734C78.7474 80.8519 79.2864 79.6127 79.2864 78.2432H71.2864ZM72.1543 76.159C72.6785 75.6348 73.4225 75.2971 74.2444 75.2971V83.2971C75.626 83.2971 76.8939 82.7331 77.8111 81.8159L72.1543 76.159ZM74.2444 75.2971C74.9991 75.2971 75.6164 75.5716 76.0471 75.911L71.0961 82.1949C71.9198 82.8439 73.0134 83.2971 74.2444 83.2971V75.2971ZM76.1029 75.9558C74.7986 74.8898 73.0548 74.2372 71.3388 74.2372V82.2372C71.2579 82.2372 71.2051 82.2293 71.1803 82.2246C71.1547 82.2198 71.1418 82.2153 71.1378 82.2138C71.1337 82.2123 71.1274 82.2098 71.1163 82.2036C71.1056 82.1977 71.0792 82.1819 71.0403 82.1501L76.1029 75.9558ZM71.3388 74.2372C67.1991 74.2372 63.8616 77.6074 63.8616 81.7263H71.8616C71.8616 81.9989 71.6441 82.2372 71.3388 82.2372V74.2372ZM63.8616 81.7263C63.8616 85.8453 67.1991 89.2154 71.3388 89.2154V81.2154C71.6441 81.2154 71.8616 81.4537 71.8616 81.7263H63.8616ZM71.3388 89.2154C75.0729 89.2154 78.2087 86.3918 78.2087 82.7742H70.2087C70.2087 81.4907 71.1534 81.2154 71.3388 81.2154V89.2154ZM74.2087 78.7742H71.3983V86.7742H74.2087V78.7742ZM75.3983 82.7742V80.732H67.3983V82.7742H75.3983ZM71.3983 84.732H75.3042V76.732H71.3983V84.732ZM75.3042 84.732C73.7868 84.732 72.4967 83.5726 72.3616 82.0349L80.3308 81.3344C80.1004 78.7131 77.9053 76.732 75.3042 76.732V84.732ZM72.3637 82.058C72.3673 82.0973 72.3687 82.1209 72.3693 82.133C72.3699 82.1443 72.37 82.1523 72.37 82.161H80.37C80.37 81.8951 80.3578 81.6216 80.3287 81.3113L72.3637 82.058ZM72.37 82.161C72.37 82.4903 72.3245 82.6997 72.2848 82.8146C72.2505 82.9138 72.2212 82.9452 72.2051 82.9614L77.8794 88.6007C79.8038 86.6643 80.37 84.2196 80.37 82.161H72.37ZM72.1967 82.9698C72.0193 83.1494 71.906 83.2094 71.8435 83.236C71.783 83.2618 71.6416 83.3113 71.3388 83.3113V91.3113C74.0053 91.3113 76.1864 90.3144 77.8878 88.5923L72.1967 82.9698Z" fill="white" mask="url(#path-75-outside-3_0_184283)"/>
<path d="M71.3983 84.7802C73.0685 84.7802 74.4164 83.4323 74.4164 81.7621C74.4164 80.1055 73.0762 78.7439 71.3983 78.7439C69.7205 78.7439 68.3801 80.1054 68.3801 81.7621C68.3801 83.4187 69.7205 84.7802 71.3983 84.7802Z" stroke="white" stroke-width="4"/>
<path d="M71.3621 19.1608V17.1608H69.3621H65.5991H63.5991V19.1608V22.9238V24.9238H65.5991H69.3621H71.3621V22.9238V19.1608Z" stroke="white" stroke-width="4"/>
<path d="M75.125 22.9118V20.9118H73.125H69.3621H67.3621V22.9118V26.6748V28.6748H69.3621H73.125H75.125V26.6748V22.9118Z" stroke="white" stroke-width="4"/>
<path d="M29.9633 22.9118V20.9118H27.9633H24.2003H22.2003V22.9118V26.6748V28.6748H24.2003H27.9633H29.9633V26.6748V22.9118Z" stroke="white" stroke-width="4"/>
<path d="M67.599 15.4037V13.4037H65.599H61.8361H59.8361V15.4037V19.1667V21.1667H61.8361H65.599H67.599V19.1667V15.4037Z" stroke="white" stroke-width="4"/>
<path d="M63.8362 11.6407V9.64069H61.8362H35.4834H33.4834V11.6407V15.4037V17.4037H35.4834H61.8362H63.8362V15.4037V11.6407Z" stroke="white" stroke-width="4"/>
<path d="M84.3902 68.282H16.7101V75.7961H84.3902V68.282Z" fill="#EDCFB9"/>
<path d="M80.6153 64.5131V34.439H76.8642V30.676H73.1072V19.399H69.3502V15.636L69.3621 11.8789H61.8361H58.0731L58.0791 8.11597H35.4952V11.8789H31.7144V15.636H27.9752V19.399H24.2122V30.67H20.4552V64.5131" fill="#3D3A37"/>
<path d="M43.0153 23.156H35.4952V34.439H31.7322V38.196H27.9514V41.959H31.7322V49.479H35.4952V53.242H39.2582V56.9991H61.8361V53.242H65.5991V49.479H69.3621V41.959H73.1191V38.196H69.3621V34.439H65.5991V23.156H61.8302V19.399H43.0153V23.156Z" fill="#EDCFB9"/>
<path d="M35.4893 49.479H31.7263V53.242H35.4893V49.479Z" fill="#C2A490"/>
<path d="M31.7262 34.439H27.9633V38.202H31.7262V34.439Z" fill="#C2A490"/>
<path d="M65.599 23.1559H61.8361V26.9189H65.599V23.1559Z" fill="#C2A490"/>
<path d="M39.2464 23.1559H35.4834V26.9189H39.2464V23.1559Z" fill="#C2A490"/>
<path d="M50.547 23.1559H46.7841V26.9189H50.547V23.1559Z" fill="#C2A490"/>
<path d="M61.8421 23.1559H58.0791V26.9189H61.8421V23.1559Z" fill="#C2A490"/>
<path d="M65.599 26.907H61.8361V30.67H65.599V26.907Z" fill="#C2A490"/>
<path d="M46.7841 26.907H39.276V30.67H46.7841V26.907Z" fill="#C2A490"/>
<path d="M58.0613 26.907H50.5532V30.67H58.0613V26.907Z" fill="#C2A490"/>
<path d="M16.7042 72.039H20.4672V68.276H16.7042V72.039Z" fill="#C2A490"/>
<path d="M20.4613 75.8079H24.2242V72.045H20.4613V75.8079Z" fill="#C2A490"/>
<path d="M76.8702 75.8079H80.6332V72.045H76.8702V75.8079Z" fill="#C2A490"/>
<path d="M24.2181 79.5709H76.8761V75.808H24.2181V79.5709Z" fill="#6FB87A"/>
<path d="M12.9411 75.802H16.7041V72.039H12.9411V75.802Z" fill="#5C9965"/>
<path d="M12.9411 90.836H16.7041L16.7041 75.8079H12.9411L12.9411 90.836Z" fill="#5C9965"/>
<path d="M12.9649 102H16.5374L16.5374 86.5194H12.9649L12.9649 102Z" fill="#5C9965"/>
<path d="M84.4082 90.836H88.1711V75.8079H84.4082V90.836Z" fill="#5C9965"/>
<path d="M84.4082 102H88.1711V87.1148H84.4082V102Z" fill="#5C9965"/>
<path d="M20.4672 68.282H43.0272V64.5191H20.4672V68.282Z" fill="#C2A490"/>
<path d="M84.402 68.282H80.639V72.045H84.402V68.282Z" fill="#C2A490"/>
<path d="M88.1712 72.039H84.4082V75.802H88.1712V72.039Z" fill="#5C9965"/>
<path d="M27.9633 38.1959H24.2003V41.9589H27.9633V38.1959Z" fill="#C2A490"/>
<path d="M31.7262 19.1608H27.9633V22.9238H31.7262V19.1608Z" fill="#299BBA"/>
<path d="M35.4893 15.4037H31.7263V19.1667H35.4893V15.4037Z" fill="#299BBA"/>
<path d="M39.2464 53.2419H35.4834V57.0049H39.2464V53.2419Z" fill="#C2A490"/>
<path d="M46.7902 60.7619H43.0272V64.5249H46.7902V60.7619Z" fill="#C2A490"/>
<path d="M46.7902 64.519H43.0272V68.282H46.7902V64.519Z" fill="#EDCFB9"/>
<path d="M58.0732 64.519H54.3102V68.282H58.0732V64.519Z" fill="#EDCFB9"/>
<path d="M54.2981 60.7619H46.7841V68.276H54.2981V60.7619Z" fill="#EDCFB9"/>
<path d="M58.0732 60.7619H54.3102V64.5249H58.0732V60.7619Z" fill="#C2A490"/>
<path d="M65.5991 53.2419H69.3621V49.479H65.5991V53.2419Z" fill="#C2A490"/>
<path d="M61.8361 56.999H65.5991V53.236H61.8361V56.999Z" fill="#C2A490"/>
<path d="M61.8302 56.999H39.2463V60.762H61.8302V56.999Z" fill="#C2A490"/>
<path d="M35.4893 26.9189H31.7263V34.439H35.4893V26.9189Z" fill="#C2A490"/>
<path d="M31.7262 41.9589H27.9633V49.4789H31.7262V41.9589Z" fill="#C2A490"/>
<path d="M69.3562 38.1959H73.1191V34.4329H69.3562V38.1959Z" fill="#C2A490"/>
<path d="M73.1192 41.9589H76.8822V38.1959H73.1192V41.9589Z" fill="#C2A490"/>
<path d="M65.5991 34.439H69.3621V30.676H65.5991V34.439Z" fill="#C2A490"/>
<path d="M69.3562 49.479H73.1191V41.959H69.3562V49.479Z" fill="#C2A490"/>
<path d="M73.125 15.636H69.3621V19.399H73.125V15.636Z" fill="#302E2B"/>
<path d="M73.125 11.8788H69.3621V15.6418H73.125V11.8788Z" fill="#302E2B"/>
<path d="M76.8821 19.399H73.1191V30.682H76.8821V19.399Z" fill="#302E2B"/>
<path d="M69.3502 8.11597H58.0731V11.8789H69.3502V8.11597Z" fill="#302E2B"/>
<path d="M35.4893 8.11597H31.7263V11.8789H35.4893V8.11597Z" fill="#302E2B"/>
<path d="M31.7262 11.8788H27.9633V15.6418H31.7262V11.8788Z" fill="#302E2B"/>
<path d="M27.9872 15.636H24.2242V19.399H27.9872V15.636Z" fill="#302E2B"/>
<path d="M20.4671 30.6701H16.7041V68.2702H20.4671V30.6701Z" fill="#302E2B"/>
<path d="M80.6452 30.6701H76.8822V64.5132H80.6452V30.6701Z" fill="#302E2B"/>
<path d="M24.2242 19.399H20.4612V30.6701H24.2242V19.399Z" fill="#302E2B"/>
<path d="M58.0613 4.35297H35.5072V8.11596H58.0613V4.35297Z" fill="#302E2B"/>
<path d="M39.2463 23.156V26.907H46.7842V23.156H50.5472V26.907H58.0612V23.156H61.8361V19.1608H41.6042" fill="#3D3A37"/>
<path d="M80.6332 64.519H58.0613V68.282H80.6332V64.519Z" fill="#C2A490"/>
<path d="M20.4611 72.0509H16.7041V90.842H84.3902V72.039H80.6391V75.8079H76.8821V79.5709H24.2241V75.8079H20.473L20.4611 72.0509Z" fill="#6FB87A"/>
<path d="M20.305 82.959H16.5374V102H84.414V82.9469H80.6523V86.766H76.8847V90.579H24.0785V86.766H20.3169L20.305 82.959Z" fill="#6FB87A"/>
<path d="M20.4611 78.2789L80.639 78.2789V72.0449H20.4611V78.2789Z" fill="#6FB87A"/>
<path d="M44.8788 34.439H41.1158V38.202H44.8788V34.439Z" fill="#383532"/>
<path d="M59.9307 34.439H56.1677V38.202H59.9307V34.439Z" fill="#383532"/>
<path d="M59.8354 44.0012H56.1141V48.1512H59.8354V44.0012Z" fill="#C30045"/>
<path d="M56.1141 44.0012H52.3928V48.1512H56.1141V44.0012Z" fill="#C30045"/>
<path d="M52.387 44.0012H48.6656V48.1512H52.387V44.0012Z" fill="#C30045"/>
<path d="M48.6658 44.0012H44.9445V48.1512H48.6658V44.0012Z" fill="#C30045"/>
<path d="M44.9385 44.0012H41.2172V48.1512H44.9385V44.0012Z" fill="#C30045"/>
<path d="M56.0189 48.1512H52.2976V52.3012H56.0189V48.1512Z" fill="#C30045"/>
<path d="M52.2977 48.1512H48.5764V52.3012H52.2977V48.1512Z" fill="#C30045"/>
<path d="M48.5704 48.1512H44.8491V52.3012H48.5704V48.1512Z" fill="#C30045"/>
<path d="M52.4168 34.3914H48.6538V41.9114H52.4168V34.3914Z" fill="#C2A490"/>
<path d="M67.3794 44.6265V40.8635H59.8534V44.6265H67.3794Z" fill="#FF92A0"/>
<path d="M41.0206 44.6324V40.8694H33.4947V44.6324H41.0206Z" fill="#FF92A0"/>
<path d="M66.2897 17.5175H61.8361V26.919H66.2897V17.5175Z" fill="#3D3A37"/>
<path d="M71.3388 87.3172C68.2724 87.3172 65.7717 84.8106 65.7717 81.7263C65.7717 78.6421 68.2665 76.1354 71.3388 76.1354C72.6368 76.1354 73.8872 76.588 74.8696 77.4037C75.1196 77.6121 75.2864 77.9514 75.2864 78.2432C75.2864 78.5349 75.1792 78.785 74.9827 78.9875C74.7862 79.1839 74.5242 79.2971 74.2444 79.2971C74.0062 79.2971 73.7681 79.2077 73.5716 79.0529C72.9524 78.5468 72.095 78.2372 71.3388 78.2372C69.4216 78.2372 67.8616 79.8032 67.8616 81.7263C67.8616 83.6495 69.4216 85.2154 71.3388 85.2154C73.1131 85.2154 74.2087 83.9412 74.2087 82.7742H71.3983V80.732H75.3042C75.8461 80.732 76.2986 81.1428 76.3462 81.6847C76.3641 81.8752 76.37 82.024 76.37 82.161C76.37 83.5245 76.0009 84.8165 75.0422 85.7811C74.0658 86.7694 72.8988 87.3113 71.3388 87.3113" fill="white"/>
<path d="M72.4164 81.7621C72.4164 82.3277 71.9639 82.7802 71.3983 82.7802C70.8327 82.7802 70.3801 82.3217 70.3801 81.7621C70.3801 81.2024 70.8327 80.7439 71.3983 80.7439C71.9639 80.7439 72.4164 81.2024 72.4164 81.7621Z" fill="#00C01E"/>
<path d="M69.3621 19.1608H65.5991V22.9238H69.3621V19.1608Z" fill="#299BBA"/>
<path d="M73.125 22.9118H69.3621V26.6748H73.125V22.9118Z" fill="#299BBA"/>
<path d="M27.9633 22.9118H24.2003V26.6748H27.9633V22.9118Z" fill="#299BBA"/>
<path d="M65.599 15.4037H61.8361V19.1667H65.599V15.4037Z" fill="#299BBA"/>
<path d="M61.8362 11.6407H35.4834V15.4037H61.8362V11.6407Z" fill="#299BBA"/>
</svg>
