<svg width="100" height="106" viewBox="0 0 100 106" fill="none" xmlns="http://www.w3.org/2000/svg">
<path d="M55.2124 64.8251V62.8251H53.2124H45.6602H43.6602V64.8251V68.6072V70.6072H45.6602H53.2124H55.2124V68.6072V64.8251Z" stroke="white" stroke-width="4"/>
<path d="M47.6602 61.0429V59.0429H45.6602H41.8781H39.8781V61.0429V68.6012V70.6012H41.8781H45.6602H47.6602V68.6012V61.0429Z" stroke="white" stroke-width="4"/>
<path d="M59.0005 61.0429V59.0429H57.0005H53.2184H51.2184V61.0429V68.6012V70.6012H53.2184H57.0005H59.0005V68.6012V61.0429Z" stroke="white" stroke-width="4"/>
<path d="M62.3554 24.5322V26.5322H64.3554H68.4547H70.4547V24.5322V11.9052V9.9052H68.4547H64.3554H62.3554V11.9052V24.5322Z" stroke="white" stroke-width="4"/>
<mask id="path-5-outside-1_0_183577" maskUnits="userSpaceOnUse" x="64.335" y="23.0338" width="16" height="20" fill="black">
<rect fill="white" x="64.335" y="23.0338" width="16" height="20"/>
<path d="M75.995 27.0338H68.335V34.592H71.9794V38.3682H75.995V27.303"/>
</mask>
<path d="M68.335 27.0338V23.0338H64.335V27.0338H68.335ZM68.335 34.592H64.335V38.592H68.335V34.592ZM71.9794 34.592H75.9794V30.592H71.9794V34.592ZM71.9794 38.3682H67.9794V42.3682H71.9794V38.3682ZM75.995 38.3682V42.3682H79.995V38.3682H75.995ZM75.995 23.0338H68.335V31.0338H75.995V23.0338ZM64.335 27.0338V34.592H72.335V27.0338H64.335ZM68.335 38.592H71.9794V30.592H68.335V38.592ZM67.9794 34.592V38.3682H75.9794V34.592H67.9794ZM71.9794 42.3682H75.995V34.3682H71.9794V42.3682ZM79.995 38.3682V27.303H71.995V38.3682H79.995Z" fill="white" mask="url(#path-5-outside-1_0_183577)"/>
<mask id="path-7-outside-2_0_183577" maskUnits="userSpaceOnUse" x="22.7855" y="23.0338" width="16" height="20" fill="black">
<rect fill="white" x="22.7855" y="23.0338" width="16" height="20"/>
<path d="M34.4455 27.0338H26.7855V34.592H30.43V38.3682H34.4455V27.303"/>
</mask>
<path d="M26.7855 27.0338V23.0338H22.7855V27.0338H26.7855ZM26.7855 34.592H22.7855V38.592H26.7855V34.592ZM30.43 34.592H34.43V30.592H30.43V34.592ZM30.43 38.3682H26.43V42.3682H30.43V38.3682ZM34.4455 38.3682V42.3682H38.4455V38.3682H34.4455ZM34.4455 23.0338H26.7855V31.0338H34.4455V23.0338ZM22.7855 27.0338V34.592H30.7855V27.0338H22.7855ZM26.7855 38.592H30.43V30.592H26.7855V38.592ZM26.43 34.592V38.3682H34.43V34.592H26.43ZM30.43 42.3682H34.4455V34.3682H30.43V42.3682ZM38.4455 38.3682V27.303H30.4455V38.3682H38.4455Z" fill="white" mask="url(#path-7-outside-2_0_183577)"/>
<mask id="path-9-outside-3_0_183577" maskUnits="userSpaceOnUse" x="19.0272" y="19.2456" width="16" height="20" fill="black">
<rect fill="white" x="19.0272" y="19.2456" width="16" height="20"/>
<path d="M30.6872 23.2456H23.0272V30.8099H26.6717V34.586H30.6872V23.5149"/>
</mask>
<path d="M23.0272 23.2456V19.2456H19.0272V23.2456H23.0272ZM23.0272 30.8099H19.0272V34.8099H23.0272V30.8099ZM26.6717 30.8099H30.6717V26.8099H26.6717V30.8099ZM26.6717 34.586H22.6717V38.586H26.6717V34.586ZM30.6872 34.586V38.586H34.6872V34.586H30.6872ZM30.6872 19.2456H23.0272V27.2456H30.6872V19.2456ZM19.0272 23.2456V30.8099H27.0272V23.2456H19.0272ZM23.0272 34.8099H26.6717V26.8099H23.0272V34.8099ZM22.6717 30.8099V34.586H30.6717V30.8099H22.6717ZM26.6717 38.586H30.6872V30.586H26.6717V38.586ZM34.6872 34.586V23.5149H26.6872V34.586H34.6872Z" fill="white" mask="url(#path-9-outside-3_0_183577)"/>
<mask id="path-11-outside-4_0_183577" maskUnits="userSpaceOnUse" x="34.9576" y="23.0338" width="16" height="20" fill="black">
<rect fill="white" x="34.9576" y="23.0338" width="16" height="20"/>
<path d="M46.6176 27.0338H38.9576V34.592H42.6021V38.3682H46.6176V27.303"/>
</mask>
<path d="M38.9576 27.0338V23.0338H34.9576V27.0338H38.9576ZM38.9576 34.592H34.9576V38.592H38.9576V34.592ZM42.6021 34.592H46.6021V30.592H42.6021V34.592ZM42.6021 38.3682H38.6021V42.3682H42.6021V38.3682ZM46.6176 38.3682V42.3682H50.6176V38.3682H46.6176ZM46.6176 23.0338H38.9576V31.0338H46.6176V23.0338ZM34.9576 27.0338V34.592H42.9576V27.0338H34.9576ZM38.9576 38.592H42.6021V30.592H38.9576V38.592ZM38.6021 34.592V38.3682H46.6021V34.592H38.6021ZM42.6021 42.3682H46.6176V34.3682H42.6021V42.3682ZM50.6176 38.3682V27.303H42.6176V38.3682H50.6176Z" fill="white" mask="url(#path-11-outside-4_0_183577)"/>
<path d="M34.4036 17.4695H32.4036V19.4695V32.592H30.6275H28.6275V34.592V36.3681H26.8274H24.8274V38.3681V42.1503V44.1503H26.8274H28.6275V49.7085V51.7085H30.6275H32.4036V53.4907V55.4907H34.4036H36.1857V57.2668V59.2668H38.1857H60.8845H62.8845V57.2668V55.4907H64.6606H66.6606V53.4907V51.7085H68.4427H70.4427V49.7085V44.1503H72.2249H74.2249V42.1503V38.3681V36.3681H72.2249H70.4427V34.592V32.592H68.4427H66.6606V19.4695V17.4695H64.6606H34.4036Z" stroke="white" stroke-width="4"/>
<path d="M36.3976 49.7085V47.7085H34.3976H30.6155H28.6155V49.7085V53.4906V55.4906H30.6155H34.3976H36.3976V53.4906V49.7085Z" stroke="white" stroke-width="4"/>
<path d="M32.6154 34.592V32.592H30.6154H26.8333H24.8333V34.592V38.3741V40.3741H26.8333H30.6154H32.6154V38.3741V34.592Z" stroke="white" stroke-width="4"/>
<path d="M28.8393 38.3681V36.3681H26.8393H23.0571H21.0571V38.3681V42.1502V44.1502H23.0571H26.8393H28.8393V42.1502V38.3681Z" stroke="white" stroke-width="4"/>
<path d="M40.1797 53.4906V51.4906H38.1797H34.3976H32.3976V53.4906V57.2727V59.2727H34.3976H38.1797H40.1797V57.2727V53.4906Z" stroke="white" stroke-width="4"/>
<path d="M55.3082 64.8311V62.8311H53.3082H45.7559H43.7559V64.8311V68.6132V70.6132H45.7559H53.3082H55.3082V68.6132V64.8311Z" stroke="white" stroke-width="4"/>
<path d="M47.756 61.049V59.049H45.756H41.9739H39.9739V61.049V68.6072V70.6072H41.9739H45.756H47.756V68.6072V61.049Z" stroke="white" stroke-width="4"/>
<path d="M55.3082 61.049V59.049H53.3082H45.7559H43.7559V61.049V64.8311V66.8311H45.7559H53.3082H55.3082V64.8311V61.049Z" stroke="white" stroke-width="4"/>
<path d="M59.0963 61.049V59.049H57.0963H53.3142H51.3142V61.049V68.6072V70.6072H53.3142H57.0963H59.0963V68.6072V61.049Z" stroke="white" stroke-width="4"/>
<path d="M62.6605 53.4906V55.4906H64.6605H68.4426H70.4426V53.4906V49.7085V47.7085H68.4426H64.6605H62.6605V49.7085V53.4906Z" stroke="white" stroke-width="4"/>
<path d="M58.8785 57.2668V59.2668H60.8785H64.6606H66.6606V57.2668V53.4847V51.4847H64.6606H60.8785H58.8785V53.4847V57.2668Z" stroke="white" stroke-width="4"/>
<path d="M62.8724 57.2668V55.2668H60.8724H38.1737H36.1737V57.2668V61.0489V63.0489H38.1737H60.8724H62.8724V61.0489V57.2668Z" stroke="white" stroke-width="4"/>
<path d="M36.3976 30.8099V28.8099H34.3976H30.6155H28.6155V30.8099V34.592V36.592H30.6155H34.3976H36.3976V34.592V30.8099Z" stroke="white" stroke-width="4"/>
<path d="M32.6154 42.1502V40.1502H30.6154H26.8333H24.8333V42.1502V49.7085V51.7085H26.8333H30.6154H32.6154V49.7085V42.1502Z" stroke="white" stroke-width="4"/>
<path d="M66.4367 38.3681V40.3681H68.4367H72.2189H74.2189V38.3681V34.586V32.586H72.2189H68.4367H66.4367V34.586V38.3681Z" stroke="white" stroke-width="4"/>
<path d="M70.2188 42.1502V44.1502H72.2188H76.001H78.001V42.1502V38.3681V36.3681H76.001H72.2188H70.2188V38.3681V42.1502Z" stroke="white" stroke-width="4"/>
<path d="M66.4367 49.7085V51.7085H68.4367H72.2189H74.2189V49.7085V42.1502V40.1502H72.2189H68.4367H66.4367V42.1502V49.7085Z" stroke="white" stroke-width="4"/>
<path d="M70.2308 38.3681V40.3681H72.2308H76.0129H78.0129V38.3681V27.0277V25.0277H76.0129H72.2308H70.2308V27.0277V38.3681Z" stroke="white" stroke-width="4"/>
<path d="M21.0512 38.3681V40.3681H23.0512H26.8334H28.8334V38.3681V30.8039V28.8039H26.8334H23.0512H21.0512V30.8039V38.3681Z" stroke="white" stroke-width="4"/>
<path d="M28.6394 27.0397V29.0397H30.6394H34.4215H36.4215V27.0397V23.2576V21.2576H34.4215H30.6394H28.6394V23.2576V27.0397Z" stroke="white" stroke-width="4"/>
<path d="M62.6605 27.0397V29.0397H64.6605H68.4426H70.4426V27.0397V23.2576V21.2576H68.4426H64.6605H62.6605V23.2576V27.0397Z" stroke="white" stroke-width="4"/>
<path d="M28.6394 30.8099V32.8099H30.6394H34.4215H36.4215V30.8099V27.0278V25.0278H34.4215H30.6394H28.6394V27.0278V30.8099Z" stroke="white" stroke-width="4"/>
<path d="M62.6605 30.8099V32.8099H64.6605H68.4426H70.4426V30.8099V27.0278V25.0278H68.4426H64.6605H62.6605V27.0278V30.8099Z" stroke="white" stroke-width="4"/>
<path d="M21.0572 23.2516V25.2516H23.0572H34.4454H36.4454V23.2516V19.4695V17.4695H34.4454H23.0572H21.0572V19.4695V23.2516Z" stroke="white" stroke-width="4"/>
<path d="M24.8095 19.4635V21.4635L26.8095 21.4635L68.4368 21.4635H70.4368V19.4635V15.6814V13.6814H68.4368L26.8095 13.6814H24.8095V15.6814V19.4635Z" stroke="white" stroke-width="4"/>
<path d="M24.8095 15.6934V17.6934L26.8095 17.6934L68.4368 17.6934H70.4368V15.6934V11.9112V9.91123H68.4368L26.8095 9.91123H24.8095V11.9112V15.6934Z" stroke="white" stroke-width="4"/>
<path d="M28.6873 11.9112V13.9112L30.6873 13.9112L68.4368 13.9112H70.4368V11.9112V8.12907V6.12907H68.4368L30.6873 6.12907H28.6873V8.12907V11.9112Z" stroke="white" stroke-width="4"/>
<path d="M70.2188 27.0338V29.0338H72.2188H76.001H78.001V27.0338V19.4695V17.4695H76.001H72.2188H70.2188V19.4695V27.0338Z" stroke="white" stroke-width="4"/>
<path d="M28.5317 11.9112V13.9112H30.5317H34.3138H36.3138V11.9112V8.12907V6.12907H34.3138L30.5317 6.12907H28.5317V8.12907V11.9112Z" stroke="white" stroke-width="4"/>
<path d="M66.4367 19.4755V21.4755H68.4367H72.2189H74.2189V19.4755V11.9112V9.91121H72.2189H68.4367H66.4367V11.9112V19.4755Z" stroke="white" stroke-width="4"/>
<path d="M24.8333 19.4755V21.4755H26.8333H30.6155H32.6155V19.4755V11.9112V9.91121H30.6155H26.8333H24.8333V11.9112V19.4755Z" stroke="white" stroke-width="4"/>
<path d="M62.6605 11.9112V13.9112H64.6605H68.4426H70.4426V11.9112V8.12907V6.12907H68.4426L64.6605 6.12907H62.6605V8.12907V11.9112Z" stroke="white" stroke-width="4"/>
<path d="M62.6605 23.2516V25.2516H64.6605H68.4426H70.4426V23.2516V19.4695V17.4695H68.4426H64.6605H62.6605V19.4695V23.2516Z" stroke="white" stroke-width="4"/>
<path d="M32.3078 8.13501V10.135H34.3078L64.7623 10.135H66.7623V8.13501V4.35288V2.35288H64.7623L34.3078 2.35288H32.3078V4.35288V8.13501Z" stroke="white" stroke-width="4"/>
<path d="M32.4215 30.8099V32.8099H34.4215H38.2036H40.2036V30.8099V19.4695V17.4695H38.2036H34.4215H32.4215V19.4695V30.8099Z" stroke="white" stroke-width="4"/>
<path d="M40.0098 30.8099V32.8099H42.0098H45.7919H47.7919V30.8099V19.4695V17.4695H45.7919H42.0098H40.0098V19.4695V30.8099Z" stroke="white" stroke-width="4"/>
<path d="M47.5919 30.8099V32.8099H49.5919H53.374H55.374V30.8099V19.4695V17.4695H53.374H49.5919H47.5919V19.4695V30.8099Z" stroke="white" stroke-width="4"/>
<path d="M36.2215 30.8099V32.8099H38.2215H42.0037H44.0037V30.8099V19.4695V17.4695H42.0037H38.2215H36.2215V19.4695V30.8099Z" stroke="white" stroke-width="4"/>
<path d="M43.7978 30.8099V32.8099H45.7978H49.58H51.58V30.8099V19.4695V17.4695H49.58H45.7978H43.7978V19.4695V30.8099Z" stroke="white" stroke-width="4"/>
<path d="M51.38 30.8099V32.8099H53.38H57.1621H59.1621V30.8099V19.4695V17.4695H57.1621H53.38H51.38V19.4695V30.8099Z" stroke="white" stroke-width="4"/>
<path d="M58.9083 30.8099V32.8099H60.9083H64.7024H66.7024V30.8099V19.4695V17.4695H64.7024H60.9083H58.9083V19.4695V30.8099Z" stroke="white" stroke-width="4"/>
<path d="M66.4367 34.592V36.592H68.4367H72.2189H74.2189V34.592V19.4754V17.4754H72.2189H68.4367H66.4367V19.4754V34.592Z" stroke="white" stroke-width="4"/>
<path d="M55.1383 30.8099V32.8099H57.1383H60.9204H62.9204V30.8099V19.4695V17.4695H60.9204H57.1383H55.1383V19.4695V30.8099Z" stroke="white" stroke-width="4"/>
<path d="M21.0512 30.8159V32.8159H23.0512H26.8334H28.8334V30.8159V19.4755V17.4755H26.8334H23.0512H21.0512V19.4755V30.8159Z" stroke="white" stroke-width="4"/>
<path d="M62.6605 34.586V36.586H64.6605H68.4426H70.4426V34.586V27.0277V25.0277H68.4426H64.6605H62.6605V27.0277V34.586Z" stroke="white" stroke-width="4"/>
<path d="M45.6195 35.1545V33.1545H43.6195H39.8374H37.8374V35.1545V38.9367V40.9367H39.8374H43.6195H45.6195V38.9367V35.1545Z" stroke="white" stroke-width="4"/>
<path d="M60.7481 35.1545V33.1545H58.7481H54.9659H52.9659V35.1545V38.9367V40.9367H54.9659H58.7481H60.7481V38.9367V35.1545Z" stroke="white" stroke-width="4"/>
<path d="M53.2256 34.9929V32.9929H51.2256H47.5571H45.5571V34.9929V42.5512V44.5512H47.5571H51.2256H53.2256V42.5512V34.9929Z" stroke="white" stroke-width="4"/>
<path d="M60.8019 44.7474V42.7474H58.8019H55.0616H53.0616V44.7474V48.9185V50.9185H55.0616H58.8019H60.8019V48.9185V44.7474Z" stroke="white" stroke-width="4"/>
<path d="M57.0557 44.7474V42.7474H55.0557H51.3154H49.3154V44.7474V48.9185V50.9185H51.3154H55.0557H57.0557V48.9185V44.7474Z" stroke="white" stroke-width="4"/>
<path d="M53.3154 44.7474V42.7474H51.3154H47.5752H45.5752V44.7474V48.9185V50.9185H47.5752H51.3154H53.3154V48.9185V44.7474Z" stroke="white" stroke-width="4"/>
<path d="M49.5752 44.7474V42.7474H47.5752H43.835H41.835V44.7474V48.9185V50.9185H43.835H47.5752H49.5752V48.9185V44.7474Z" stroke="white" stroke-width="4"/>
<path d="M45.829 44.7474V42.7474H43.829H40.0887H38.0887V44.7474V48.9185V50.9185H40.0887H43.829H45.829V48.9185V44.7474Z" stroke="white" stroke-width="4"/>
<path d="M56.9659 48.9126V46.9126H54.9659H51.2257H49.2257V48.9126V53.0837V55.0837H51.2257H54.9659H56.9659V53.0837V48.9126Z" stroke="white" stroke-width="4"/>
<path d="M53.2197 48.9126V46.9126H51.2197H47.4795H45.4795V48.9126V53.0837V55.0837H47.4795H51.2197H53.2197V53.0837V48.9126Z" stroke="white" stroke-width="4"/>
<path d="M49.4795 48.9126V46.9126H47.4795H43.7393H41.7393V48.9126V53.0837V55.0837H43.7393H47.4795H49.4795V53.0837V48.9126Z" stroke="white" stroke-width="4"/>
<path d="M66.5935 46.4362H68.5935V44.4362V40.6541V38.6541H66.5935H59.0293H57.0293V40.6541V44.4362V46.4362H59.0293H66.5935Z" stroke="white" stroke-width="4"/>
<path d="M40.1007 46.4362H42.1007V44.4362V40.6541V38.6541H40.1007H32.5365H30.5365V40.6541V44.4362V46.4362H32.5365H40.1007Z" stroke="white" stroke-width="4"/>
<path d="M13.5407 72.3714V74.3714H15.5407H19.3229H21.3229V72.3714V68.5893V66.5893H19.3229H15.5407H13.5407V68.5893V72.3714Z" stroke="white" stroke-width="4"/>
<path d="M9.76462 91.27V93.27H11.7646H15.5468H17.5468V91.27L17.5468 72.3714V70.3714H15.5468H11.7646H9.76462V72.3714L9.76462 91.27Z" stroke="white" stroke-width="4"/>
<path d="M9.76462 102V104H11.7646H15.5468H17.5468V102L17.5468 83.1013V81.1013H15.5468H11.7646H9.76462V83.1013L9.76462 102Z" stroke="white" stroke-width="4"/>
<path d="M17.3229 68.5892V70.5892H19.3229H41.9977H43.9977V68.5892V64.8071V62.8071H41.9977H19.3229H17.3229V64.8071V68.5892Z" stroke="white" stroke-width="4"/>
<path d="M85.5832 68.5892V66.5892H83.5832H79.801H77.801V68.5892V72.3714V74.3714H79.801H83.5832H85.5832V72.3714V68.5892Z" stroke="white" stroke-width="4"/>
<path d="M89.3653 72.3714V70.3714H87.3653H83.5831H81.5831V72.3714V91.2701V93.2701H83.5831H87.3653H89.3653V91.2701V72.3714Z" stroke="white" stroke-width="4"/>
<path d="M89.3653 83.1014V81.1014H87.3653H83.5831H81.5831V83.1014V102V104H83.5831H87.3653H89.3653V102V83.1014Z" stroke="white" stroke-width="4"/>
<path d="M81.801 64.813V62.813H79.801H57.1262H55.1262V64.813V68.5952V70.5952H57.1262H79.801H81.801V68.5952V64.813Z" stroke="white" stroke-width="4"/>
<mask id="path-79-outside-5_0_183577" maskUnits="userSpaceOnUse" x="11.5468" y="64.5892" width="39" height="31" fill="black">
<rect fill="white" x="11.5468" y="64.5892" width="39" height="31"/>
<path d="M49.55 68.5892H19.3229V72.3714H15.5468V91.27H49.55"/>
</mask>
<path d="M19.3229 68.5892V64.5892H15.3229V68.5892H19.3229ZM19.3229 72.3714V76.3714H23.3229V72.3714H19.3229ZM15.5468 72.3714V68.3714H11.5468V72.3714H15.5468ZM15.5468 91.27H11.5468V95.27H15.5468V91.27ZM49.55 64.5892H19.3229V72.5892H49.55V64.5892ZM15.3229 68.5892V72.3714H23.3229V68.5892H15.3229ZM19.3229 68.3714H15.5468V76.3714H19.3229V68.3714ZM11.5468 72.3714V91.27H19.5468V72.3714H11.5468ZM15.5468 95.27H49.55V87.27H15.5468V95.27Z" fill="white" mask="url(#path-79-outside-5_0_183577)"/>
<mask id="path-81-outside-6_0_183577" maskUnits="userSpaceOnUse" x="11.5468" y="75.3192" width="39" height="31" fill="black">
<rect fill="white" x="11.5468" y="75.3192" width="39" height="31"/>
<path d="M49.55 79.3192H19.3229V83.1013H15.5468V102H49.55"/>
</mask>
<path d="M19.3229 79.3192V75.3192H15.3229V79.3192H19.3229ZM19.3229 83.1013V87.1013H23.3229V83.1013H19.3229ZM15.5468 83.1013V79.1013H11.5468V83.1013H15.5468ZM15.5468 102H11.5468V106H15.5468V102ZM49.55 75.3192H19.3229V83.3192H49.55V75.3192ZM15.3229 79.3192V83.1013H23.3229V79.3192H15.3229ZM19.3229 79.1013H15.5468V87.1013H19.3229V79.1013ZM11.5468 83.1013V102H19.5468V83.1013H11.5468ZM15.5468 106H49.55V98H15.5468V106Z" fill="white" mask="url(#path-81-outside-6_0_183577)"/>
<mask id="path-83-outside-7_0_183577" maskUnits="userSpaceOnUse" x="49.55" y="64.5892" width="39" height="31" fill="black">
<rect fill="white" x="49.55" y="64.5892" width="39" height="31"/>
<path d="M49.55 68.5892H79.813V72.3714H83.5952V91.27H49.55"/>
</mask>
<path d="M79.813 68.5892H83.813V64.5892H79.813V68.5892ZM79.813 72.3714H75.813V76.3714H79.813V72.3714ZM83.5952 72.3714H87.5952V68.3714H83.5952V72.3714ZM83.5952 91.27V95.27H87.5952V91.27H83.5952ZM49.55 72.5892H79.813V64.5892H49.55V72.5892ZM75.813 68.5892V72.3714H83.813V68.5892H75.813ZM79.813 76.3714H83.5952V68.3714H79.813V76.3714ZM79.5952 72.3714V91.27H87.5952V72.3714H79.5952ZM83.5952 87.27H49.55V95.27H83.5952V87.27Z" fill="white" mask="url(#path-83-outside-7_0_183577)"/>
<mask id="path-85-outside-8_0_183577" maskUnits="userSpaceOnUse" x="49.55" y="75.3192" width="39" height="31" fill="black">
<rect fill="white" x="49.55" y="75.3192" width="39" height="31"/>
<path d="M49.55 79.3192H79.813V83.1013H83.5952V102H49.55"/>
</mask>
<path d="M79.813 79.3192H83.813V75.3192H79.813V79.3192ZM79.813 83.1013H75.813V87.1013H79.813V83.1013ZM83.5952 83.1013H87.5952V79.1013H83.5952V83.1013ZM83.5952 102V106H87.5952V102H83.5952ZM49.55 83.3192H79.813V75.3192H49.55V83.3192ZM75.813 79.3192V83.1013H83.813V79.3192H75.813ZM79.813 87.1013H83.5952V79.1013H79.813V87.1013ZM79.5952 83.1013V102H87.5952V83.1013H79.5952ZM83.5952 98H49.55V106H83.5952V98Z" fill="white" mask="url(#path-85-outside-8_0_183577)"/>
<path d="M47.7798 68.5892V66.5892H45.7798H41.9977H39.9977V68.5892V76.1475V78.1475H41.9977H45.7798H47.7798V76.1475V68.5892Z" stroke="white" stroke-width="4"/>
<path d="M55.3442 68.5892V66.5892H53.3442H45.7859H43.7859V68.5892V76.1475V78.1475H45.7859H53.3442H55.3442V76.1475V68.5892Z" stroke="white" stroke-width="4"/>
<path d="M59.1203 68.5892V66.5892H57.1203H53.3381H51.3381V68.5892V76.1475V78.1475H53.3381H57.1203H59.1203V76.1475V68.5892Z" stroke="white" stroke-width="4"/>
<path d="M51.568 76.1535V74.1535H49.568H45.7859H43.7859V76.1535V91.27V93.27H45.7859H49.568H51.568V91.27V76.1535Z" stroke="white" stroke-width="4"/>
<path d="M55.3322 76.1535V74.1535H53.3322H49.55H47.55V76.1535V91.27V93.27H49.55H53.3322H55.3322V91.27V76.1535Z" stroke="white" stroke-width="4"/>
<path d="M55.3322 86.8835V84.8835H53.3322H49.55H47.55V86.8835V102V104H49.55H53.3322H55.3322V102V86.8835Z" stroke="white" stroke-width="4"/>
<path d="M36.1976 72.3714V74.3714H38.1976H41.9797H43.9797V72.3714V68.5893V66.5893H41.9797H38.1976H36.1976V68.5893V72.3714Z" stroke="white" stroke-width="4"/>
<path d="M36.1976 76.1535V78.1535H38.1976H41.9797H43.9797V76.1535V72.3714V70.3714H41.9797H38.1976H36.1976V72.3714V76.1535Z" stroke="white" stroke-width="4"/>
<path d="M39.9977 91.264V93.264H41.9977H45.7798H47.7798V91.264V76.1475V74.1475H45.7798H41.9977H39.9977V76.1475V91.264Z" stroke="white" stroke-width="4"/>
<path d="M39.9977 101.994V103.994H41.9977H45.7798H47.7798V101.994V86.8775V84.8775H45.7798H41.9977H39.9977V86.8775V101.994Z" stroke="white" stroke-width="4"/>
<path d="M62.9203 68.5892V66.5892H60.9203H57.1382H55.1382V68.5892V72.3714V74.3714H57.1382H60.9203H62.9203V72.3714V68.5892Z" stroke="white" stroke-width="4"/>
<path d="M62.9203 72.3714V70.3714H60.9203H57.1382H55.1382V72.3714V76.1535V78.1535H57.1382H60.9203H62.9203V76.1535V72.3714Z" stroke="white" stroke-width="4"/>
<path d="M59.1203 76.1535V74.1535H57.1203H53.3381H51.3381V76.1535V91.27V93.27H53.3381H57.1203H59.1203V91.27V76.1535Z" stroke="white" stroke-width="4"/>
<path d="M59.1203 86.8835V84.8835H57.1203H53.3381H51.3381V86.8835V102V104H53.3381H57.1203H59.1203V102V86.8835Z" stroke="white" stroke-width="4"/>
<mask id="path-101-outside-9_0_183577" maskUnits="userSpaceOnUse" x="62.9764" y="72.8596" width="19" height="20" fill="black">
<rect fill="white" x="62.9764" y="72.8596" width="19" height="20"/>
<path d="M72.5718 88.0983C69.4899 88.0983 66.9764 85.5789 66.9764 82.4789C66.9764 79.379 69.4839 76.8596 72.5718 76.8596C73.8764 76.8596 75.1332 77.3144 76.1206 78.1343C76.3719 78.3437 76.5395 78.6849 76.5395 78.9781C76.5395 79.2713 76.4318 79.5227 76.2343 79.7261C76.0368 79.9236 75.7735 80.0373 75.4922 80.0373C75.2528 80.0373 75.0134 79.9476 74.816 79.792C74.1936 79.2833 73.3318 78.9721 72.5718 78.9721C70.6448 78.9721 69.077 80.546 69.077 82.4789C69.077 84.4119 70.6448 85.9858 72.5718 85.9858C74.3552 85.9858 75.4563 84.7051 75.4563 83.5322H72.6317V81.4796H76.5574C77.102 81.4796 77.5568 81.8925 77.6047 82.4371C77.6227 82.6286 77.6286 82.7782 77.6286 82.9158C77.6286 84.2862 77.2576 85.5848 76.2941 86.5543C75.3127 87.5477 74.1397 88.0923 72.5718 88.0923"/>
</mask>
<path d="M76.1206 78.1343L78.6813 75.0614L78.6758 75.0568L76.1206 78.1343ZM76.2343 79.7261L79.0627 82.5546L79.0838 82.5335L79.1046 82.512L76.2343 79.7261ZM74.816 79.792L72.2846 82.8891L72.3123 82.9118L72.3405 82.9339L74.816 79.792ZM75.4563 83.5322H79.4563V79.5322H75.4563V83.5322ZM72.6317 83.5322H68.6317V87.5322H72.6317V83.5322ZM72.6317 81.4796V77.4796H68.6317V81.4796H72.6317ZM77.6047 82.4371L73.6201 82.7874L73.6211 82.7989L73.6222 82.8104L77.6047 82.4371ZM76.2941 86.5543L73.4569 83.7346L73.4486 83.7431L76.2941 86.5543ZM72.5718 84.0983C71.7129 84.0983 70.9764 83.3836 70.9764 82.4789H62.9764C62.9764 87.7741 67.2668 92.0983 72.5718 92.0983V84.0983ZM70.9764 82.4789C70.9764 81.5715 71.7097 80.8596 72.5718 80.8596V72.8596C67.2581 72.8596 62.9764 77.1866 62.9764 82.4789H70.9764ZM72.5718 80.8596C72.9489 80.8596 73.3004 80.9917 73.5654 81.2118L78.6758 75.0568C76.9659 73.6371 74.804 72.8596 72.5718 72.8596V80.8596ZM73.5598 81.2072C73.2183 80.9225 72.9896 80.6027 72.8393 80.299C72.6942 80.0058 72.5395 79.5592 72.5395 78.9781H80.5395C80.5395 77.3739 79.745 75.9478 78.6813 75.0614L73.5598 81.2072ZM72.5395 78.9781C72.5395 78.6246 72.6066 78.2395 72.764 77.8585C72.9205 77.4797 73.1378 77.1732 73.364 76.9402L79.1046 82.512C80.0002 81.5893 80.5395 80.3487 80.5395 78.9781H72.5395ZM73.4059 76.8977C73.9292 76.3744 74.6718 76.0373 75.4922 76.0373V84.0373C76.8751 84.0373 78.1444 83.4728 79.0627 82.5546L73.4059 76.8977ZM75.4922 76.0373C76.2456 76.0373 76.8617 76.3114 77.2914 76.65L72.3405 82.9339C73.1652 83.5837 74.26 84.0373 75.4922 84.0373V76.0373ZM77.3473 76.6948C76.0399 75.6262 74.2917 74.9721 72.5718 74.9721V82.9721C72.4918 82.9721 72.4401 82.9642 72.4163 82.9598C72.3916 82.9551 72.3797 82.9509 72.3768 82.9498C72.3737 82.9487 72.3683 82.9466 72.3581 82.9409C72.3483 82.9355 72.3228 82.9203 72.2846 82.8891L77.3473 76.6948ZM72.5718 74.9721C68.4223 74.9721 65.077 78.3502 65.077 82.4789H73.077C73.077 82.7417 72.8674 82.9721 72.5718 82.9721V74.9721ZM65.077 82.4789C65.077 86.6076 68.4223 89.9858 72.5718 89.9858V81.9858C72.8674 81.9858 73.077 82.2162 73.077 82.4789H65.077ZM72.5718 89.9858C76.3149 89.9858 79.4563 87.1557 79.4563 83.5322H71.4563C71.4563 82.2545 72.3955 81.9858 72.5718 81.9858V89.9858ZM75.4563 79.5322H72.6317V87.5322H75.4563V79.5322ZM76.6317 83.5322V81.4796H68.6317V83.5322H76.6317ZM72.6317 85.4796H76.5574V77.4796H72.6317V85.4796ZM76.5574 85.4796C75.0428 85.4796 73.755 84.3223 73.6201 82.7874L81.5893 82.0868C81.3586 79.4627 79.1612 77.4796 76.5574 77.4796V85.4796ZM73.6222 82.8104C73.6259 82.8502 73.6273 82.8742 73.6279 82.8867C73.6285 82.8984 73.6286 82.9067 73.6286 82.9158H81.6286C81.6286 82.6492 81.6164 82.375 81.5872 82.0637L73.6222 82.8104ZM73.6286 82.9158C73.6286 83.2486 73.5827 83.4614 73.5419 83.5793C73.5065 83.6817 73.4755 83.716 73.4569 83.7346L79.1313 89.374C81.0606 87.4327 81.6286 84.9813 81.6286 82.9158H73.6286ZM73.4486 83.7431C73.2687 83.9252 73.1527 83.9871 73.087 84.0151C73.0234 84.0421 72.8786 84.0923 72.5718 84.0923V92.0923C75.2463 92.0923 77.4333 91.0927 79.1396 89.3655L73.4486 83.7431Z" fill="white" mask="url(#path-101-outside-9_0_183577)"/>
<path d="M72.6316 85.5323C74.3047 85.5323 75.655 84.1821 75.655 82.5089C75.655 80.8494 74.3123 79.4856 72.6316 79.4856C70.9509 79.4856 69.6083 80.8494 69.6083 82.5089C69.6083 84.1684 70.951 85.5323 72.6316 85.5323Z" stroke="white" stroke-width="4"/>
<path d="M32.3916 83.7117V85.7117H34.3916H38.1737H40.1737V83.7117V79.9296V77.9296H38.1737H34.3916H32.3916V79.9296V83.7117Z" stroke="white" stroke-width="4"/>
<path d="M32.3916 91.27V93.27H34.3916H38.1737H40.1737V91.27V87.4879V85.4879H38.1737H34.3916H32.3916V87.4879V91.27Z" stroke="white" stroke-width="4"/>
<path d="M53.2124 64.8251H45.6602V68.6072H53.2124V64.8251Z" fill="#C2A490"/>
<path d="M45.6602 61.0429H41.8781V68.6012H45.6602V61.0429Z" fill="#C2A490"/>
<path d="M57.0005 61.0429H53.2184V68.6012H57.0005V61.0429Z" fill="#C2A490"/>
<path d="M64.3554 24.5322H68.4547V11.9052H64.3554V24.5322Z" fill="#302E2B"/>
<path d="M75.995 27.0338H68.335V34.592H71.9794V38.3682H75.995V27.303" fill="#302E2B"/>
<path d="M34.4455 27.0338H26.7855V34.592H30.43V38.3682H34.4455V27.303" fill="#59544F"/>
<path d="M30.6872 23.2456H23.0272V30.8099H26.6717V34.586H30.6872V23.5149" fill="#3D3A37"/>
<path d="M46.6176 27.0338H38.9576V34.592H42.6021V38.3682H46.6176V27.303" fill="#59544F"/>
<path d="M34.4036 19.4695V34.592H30.6275V38.3681H26.8274V42.1503H30.6275V49.7085H34.4036V53.4907H38.1857V57.2668H60.8845V53.4907H64.6606V49.7085H68.4427V42.1503H72.2249V38.3681H68.4427V34.592H64.6606V19.4695H34.4036Z" fill="#EDCFB9"/>
<path d="M34.3976 49.7085H30.6155V53.4906H34.3976V49.7085Z" fill="#C2A490"/>
<path d="M30.6154 34.592H26.8333V38.3741H30.6154V34.592Z" fill="#C2A490"/>
<path d="M26.8393 38.3681H23.0571V42.1502H26.8393V38.3681Z" fill="#C2A490"/>
<path d="M38.1797 53.4906H34.3976V57.2727H38.1797V53.4906Z" fill="#C2A490"/>
<path d="M53.3082 64.8311H45.7559V68.6132H53.3082V64.8311Z" fill="#C2A490"/>
<path d="M45.756 61.049H41.9739V68.6072H45.756V61.049Z" fill="#C2A490"/>
<path d="M53.3082 61.049H45.7559V64.8311H53.3082V61.049Z" fill="#EDCFB9"/>
<path d="M57.0963 61.049H53.3142V68.6072H57.0963V61.049Z" fill="#C2A490"/>
<path d="M64.6605 53.4906H68.4426V49.7085H64.6605V53.4906Z" fill="#C2A490"/>
<path d="M60.8785 57.2668H64.6606V53.4847H60.8785V57.2668Z" fill="#C2A490"/>
<path d="M60.8724 57.2668H38.1737V61.0489H60.8724V57.2668Z" fill="#C2A490"/>
<path d="M34.3976 30.8099H30.6155V34.592H34.3976V30.8099Z" fill="#C2A490"/>
<path d="M30.6154 42.1502H26.8333V49.7085H30.6154V42.1502Z" fill="#C2A490"/>
<path d="M68.4367 38.3681H72.2189V34.586H68.4367V38.3681Z" fill="#C2A490"/>
<path d="M72.2188 42.1502H76.001V38.3681H72.2188V42.1502Z" fill="#C2A490"/>
<path d="M68.4367 49.7085H72.2189V42.1502H68.4367V49.7085Z" fill="#C2A490"/>
<path d="M72.2308 38.3681H76.0129V27.0277H72.2308V38.3681Z" fill="#302E2B"/>
<path d="M23.0512 38.3681H26.8334V30.8039H23.0512V38.3681Z" fill="#302E2B"/>
<path d="M30.6394 27.0397H34.4215V23.2576H30.6394V27.0397Z" fill="#302E2B"/>
<path d="M64.6605 27.0397H68.4426V23.2576H64.6605V27.0397Z" fill="#302E2B"/>
<path d="M30.6394 30.8099H34.4215V27.0278H30.6394V30.8099Z" fill="#C2A490"/>
<path d="M64.6605 30.8099H68.4426V27.0278H64.6605V30.8099Z" fill="#302E2B"/>
<path d="M23.0572 23.2516H34.4454V19.4695H23.0572V23.2516Z" fill="#3D3A37"/>
<path d="M26.8095 19.4635L68.4368 19.4635V15.6814L26.8095 15.6814V19.4635Z" fill="#3D3A37"/>
<path d="M26.8095 15.6934L68.4368 15.6934V11.9112L26.8095 11.9112V15.6934Z" fill="#3D3A37"/>
<path d="M30.6873 11.9112L68.4368 11.9112V8.12907L30.6873 8.12907V11.9112Z" fill="#3D3A37"/>
<path d="M72.2188 27.0338H76.001V19.4695H72.2188V27.0338Z" fill="#302E2B"/>
<path d="M30.5317 11.9112H34.3138V8.12907H30.5317V11.9112Z" fill="#302E2B"/>
<path d="M68.4367 19.4755H72.2189V11.9112H68.4367V19.4755Z" fill="#302E2B"/>
<path d="M26.8333 19.4755H30.6155V11.9112H26.8333V19.4755Z" fill="#302E2B"/>
<path d="M64.6605 11.9112H68.4426V8.12907H64.6605V11.9112Z" fill="#302E2B"/>
<path d="M64.6605 23.2516H68.4426V19.4695H64.6605V23.2516Z" fill="#3D3A37"/>
<path d="M34.3078 8.13501L64.7623 8.13501V4.35288L34.3078 4.35288V8.13501Z" fill="#302E2B"/>
<path d="M34.4215 30.8099H38.2036V19.4695H34.4215V30.8099Z" fill="#302E2B"/>
<path d="M42.0098 30.8099H45.7919V19.4695H42.0098V30.8099Z" fill="#302E2B"/>
<path d="M49.5919 30.8099H53.374V19.4695H49.5919V30.8099Z" fill="#302E2B"/>
<path d="M38.2215 30.8099H42.0037V19.4695H38.2215V30.8099Z" fill="#3D3A37"/>
<path d="M45.7978 30.8099H49.58V19.4695H45.7978V30.8099Z" fill="#3D3A37"/>
<path d="M53.38 30.8099H57.1621V19.4695H53.38V30.8099Z" fill="#3D3A37"/>
<path d="M60.9083 30.8099H64.7024V19.4695H60.9083V30.8099Z" fill="#3D3A37"/>
<path d="M68.4367 34.592H72.2189V19.4754H68.4367V34.592Z" fill="#3D3A37"/>
<path d="M57.1383 30.8099H60.9204V19.4695H57.1383V30.8099Z" fill="#302E2B"/>
<path d="M23.0512 30.8159H26.8334V19.4755H23.0512V30.8159Z" fill="#302E2B"/>
<path d="M64.6605 34.586H68.4426V27.0277H64.6605V34.586Z" fill="#C2A490"/>
<path d="M43.6195 35.1545H39.8374V38.9367H43.6195V35.1545Z" fill="#383532"/>
<path d="M58.7481 35.1545H54.9659V38.9367H58.7481V35.1545Z" fill="#383532"/>
<path d="M51.2256 34.9929H47.5571V42.5512H51.2256V34.9929Z" fill="#C2A490"/>
<path d="M58.8019 44.7474H55.0616V48.9185H58.8019V44.7474Z" fill="#C30045"/>
<path d="M55.0557 44.7474H51.3154V48.9185H55.0557V44.7474Z" fill="#C30045"/>
<path d="M51.3154 44.7474H47.5752V48.9185H51.3154V44.7474Z" fill="#C30045"/>
<path d="M47.5752 44.7474H43.835V48.9185H47.5752V44.7474Z" fill="#C30045"/>
<path d="M43.829 44.7474H40.0887V48.9185H43.829V44.7474Z" fill="#C30045"/>
<path d="M54.9659 48.9126H51.2257V53.0837H54.9659V48.9126Z" fill="#C30045"/>
<path d="M51.2197 48.9126H47.4795V53.0837H51.2197V48.9126Z" fill="#C30045"/>
<path d="M47.4795 48.9126H43.7393V53.0837H47.4795V48.9126Z" fill="#C30045"/>
<path d="M66.5935 44.4362V40.6541H59.0293V44.4362H66.5935Z" fill="#FF92A0"/>
<path d="M40.1007 44.4362V40.6541H32.5365V44.4362H40.1007Z" fill="#FF92A0"/>
<path d="M15.5407 72.3714H19.3229V68.5893H15.5407V72.3714Z" fill="#22829C"/>
<path d="M11.7646 91.27H15.5468L15.5468 72.3714H11.7646L11.7646 91.27Z" fill="#22829C"/>
<path d="M11.7646 102H15.5468L15.5468 83.1013H11.7646L11.7646 102Z" fill="#22829C"/>
<path d="M19.3229 68.5892H41.9977V64.8071H19.3229V68.5892Z" fill="#22829C"/>
<path d="M83.5832 68.5892H79.801V72.3714H83.5832V68.5892Z" fill="#22829C"/>
<path d="M87.3653 72.3714H83.5831V91.2701H87.3653V72.3714Z" fill="#22829C"/>
<path d="M87.3653 83.1014H83.5831V102H87.3653V83.1014Z" fill="#22829C"/>
<path d="M79.801 64.813H57.1262V68.5952H79.801V64.813Z" fill="#22829C"/>
<path d="M49.55 68.5892H19.3229V72.3714H15.5468V91.27H49.55" fill="#299BBA"/>
<path d="M49.55 79.3192H19.3229V83.1013H15.5468V102H49.55" fill="#299BBA"/>
<path d="M49.55 68.5892H79.813V72.3714H83.5952V91.27H49.55" fill="#299BBA"/>
<path d="M49.55 79.3192H79.813V83.1013H83.5952V102H49.55" fill="#299BBA"/>
<path d="M45.7798 68.5892H41.9977V76.1475H45.7798V68.5892Z" fill="white"/>
<path d="M53.3442 68.5892H45.7859V76.1475H53.3442V68.5892Z" fill="white"/>
<path d="M57.1203 68.5892H53.3381V76.1475H57.1203V68.5892Z" fill="white"/>
<path d="M49.568 76.1535H45.7859V91.27H49.568V76.1535Z" fill="white"/>
<path d="M53.3322 76.1535H49.55V91.27H53.3322V76.1535Z" fill="white"/>
<path d="M53.3322 86.8835H49.55V102H53.3322V86.8835Z" fill="white"/>
<path d="M38.1976 72.3714H41.9797V68.5893H38.1976V72.3714Z" fill="#22829C"/>
<path d="M38.1976 76.1535H41.9797V72.3714H38.1976V76.1535Z" fill="#22829C"/>
<path d="M41.9977 91.264H45.7798V76.1475H41.9977V91.264Z" fill="#22829C"/>
<path d="M41.9977 101.994H45.7798V86.8775H41.9977V101.994Z" fill="#22829C"/>
<path d="M60.9203 68.5892H57.1382V72.3714H60.9203V68.5892Z" fill="#22829C"/>
<path d="M60.9203 72.3714H57.1382V76.1535H60.9203V72.3714Z" fill="#22829C"/>
<path d="M57.1203 76.1535H53.3381V91.27H57.1203V76.1535Z" fill="#22829C"/>
<path d="M57.1203 86.8835H53.3381V102H57.1203V86.8835Z" fill="#22829C"/>
<path d="M72.5718 88.0983C69.4899 88.0983 66.9764 85.5789 66.9764 82.4789C66.9764 79.379 69.4839 76.8596 72.5718 76.8596C73.8764 76.8596 75.1332 77.3144 76.1206 78.1343C76.3719 78.3437 76.5395 78.6849 76.5395 78.9781C76.5395 79.2713 76.4318 79.5227 76.2343 79.7261C76.0368 79.9236 75.7735 80.0373 75.4922 80.0373C75.2528 80.0373 75.0134 79.9476 74.816 79.792C74.1936 79.2833 73.3318 78.9721 72.5718 78.9721C70.6448 78.9721 69.077 80.546 69.077 82.4789C69.077 84.4119 70.6448 85.9858 72.5718 85.9858C74.3552 85.9858 75.4563 84.7051 75.4563 83.5322H72.6317V81.4796H76.5574C77.102 81.4796 77.5568 81.8925 77.6047 82.4371C77.6227 82.6286 77.6286 82.7782 77.6286 82.9158C77.6286 84.2862 77.2576 85.5848 76.2941 86.5543C75.3127 87.5477 74.1397 88.0923 72.5718 88.0923" fill="white"/>
<path d="M73.655 82.5089C73.655 83.0774 73.2001 83.5323 72.6316 83.5323C72.0631 83.5323 71.6083 83.0715 71.6083 82.5089C71.6083 81.9464 72.0631 81.4856 72.6316 81.4856C73.2001 81.4856 73.655 81.9464 73.655 82.5089Z" fill="#00C01E"/>
<path d="M34.3916 83.7117H38.1737V79.9296H34.3916V83.7117Z" fill="#6FB87A"/>
<path d="M34.3916 91.27H38.1737V87.4879H34.3916V91.27Z" fill="#6FB87A"/>
</svg>
