<svg width="85" height="85" viewBox="0 0 85 85" fill="none" xmlns="http://www.w3.org/2000/svg">
<path d="M66.6824 21.2343H60.1881V27.6423H63.278V30.8488H66.6824V21.4626" fill="#59544F"/>
<path d="M31.456 21.2343H24.9617V27.6423H28.0515V30.8488H31.456V21.4626" fill="#59544F"/>
<path d="M31.4206 14.8262V27.6422H28.2191V30.8488H24.9973V34.0503H28.2191V40.4583H31.4206V43.6649H34.6271V46.8663H53.8715V43.6649H57.073V40.4583H60.2795V34.0503H63.4861V30.8488H60.2795V27.6422H57.073V14.8262H31.4206Z" fill="#EDCFB9"/>
<path d="M31.4154 40.4584H28.2089V43.6649H31.4154V40.4584Z" fill="#C2A490"/>
<path d="M28.2089 27.6422H25.0023V30.8488H28.2089V27.6422Z" fill="#C2A490"/>
<path d="M15.408 59.6876H18.6145V56.481H15.408V59.6876Z" fill="#22829C"/>
<path d="M12.2065 75.7101H15.4131L15.4131 59.6875H12.2065L12.2065 75.7101Z" fill="#22829C"/>
<path d="M12.2065 84.9999H15.4131L15.4131 68.9773H12.2065L12.2065 84.9999Z" fill="#22829C"/>
<path d="M18.6145 56.481H37.8386V53.2744H18.6145V56.481Z" fill="#22829C"/>
<path d="M73.0956 56.481H69.889V59.6875H73.0956V56.481Z" fill="#22829C"/>
<path d="M76.3073 59.6876H73.1007V75.7102H76.3073V59.6876Z" fill="#22829C"/>
<path d="M76.3073 68.9774H73.1007V85H76.3073V68.9774Z" fill="#22829C"/>
<path d="M69.8839 53.2795H50.6497V56.486H69.8839V53.2795Z" fill="#22829C"/>
<path d="M25.0073 30.8488H21.8008V34.0553H25.0073V30.8488Z" fill="#C2A490"/>
<path d="M34.622 43.6648H31.4154V46.8713H34.622V43.6648Z" fill="#C2A490"/>
<path d="M47.4482 53.2795H41.0453V56.486H47.4482V53.2795Z" fill="#C2A490"/>
<path d="M41.0452 50.073H37.8386V56.481H41.0452V50.073Z" fill="#C2A490"/>
<path d="M47.4482 50.073H41.0453V53.2796H47.4482V50.073Z" fill="#EDCFB9"/>
<path d="M50.6598 50.073H47.4532V56.481H50.6598V50.073Z" fill="#C2A490"/>
<path d="M57.073 43.6648H60.2795V40.4582H57.073V43.6648Z" fill="#C2A490"/>
<path d="M53.8663 46.8663H57.0729V43.6598H53.8663V46.8663Z" fill="#C2A490"/>
<path d="M53.8613 46.8663H34.6169V50.0729H53.8613V46.8663Z" fill="#C2A490"/>
<path d="M31.4154 18.0277H28.2089V27.6423H31.4154V18.0277Z" fill="#C2A490"/>
<path d="M28.2089 34.0503H25.0023V40.4583H28.2089V34.0503Z" fill="#C2A490"/>
<path d="M60.2795 30.8438H63.4861V27.6372H60.2795V30.8438Z" fill="#C2A490"/>
<path d="M63.481 34.0503H66.6875V30.8437H63.481V34.0503Z" fill="#C2A490"/>
<path d="M57.073 27.6422H60.2795V18.0276H57.073V27.6422Z" fill="#C2A490"/>
<path d="M60.2795 40.4584H63.4861V34.0503H60.2795V40.4584Z" fill="#C2A490"/>
<path d="M39.1223 27.6422H35.9158V30.8488H39.1223V27.6422Z" fill="#383532"/>
<path d="M63.4911 30.8438H66.6976V21.2292H63.4911V30.8438Z" fill="#383532"/>
<path d="M21.7958 30.8438H25.0023V27.6372H21.7958V30.8438Z" fill="#383532"/>
<path d="M51.9485 27.6422H48.7419V30.8488H51.9485V27.6422Z" fill="#383532"/>
<path d="M45.5405 27.6422H42.334V34.0502H45.5405V27.6422Z" fill="#C2A490"/>
<path d="M44.2416 56.481H18.6196V59.6875H15.4131V75.7101H44.2416" fill="#299BBA"/>
<path d="M44.2416 65.7709H18.6196V68.9774H15.4131V85H44.2416" fill="#299BBA"/>
<path d="M44.2416 56.481H69.8991V59.6875H73.1056V75.7101H44.2416" fill="#299BBA"/>
<path d="M44.2416 65.7709H69.8991V68.9774H73.1056V85H44.2416" fill="#299BBA"/>
<path d="M51.9435 35.9124H48.7725V39.4487H51.9435V35.9124Z" fill="#C30045"/>
<path d="M48.7725 35.9124H45.6014V39.4487H48.7725V35.9124Z" fill="#C30045"/>
<path d="M45.6015 35.9124H42.4304V39.4487H45.6015V35.9124Z" fill="#C30045"/>
<path d="M42.4253 35.9124H39.2543V39.4487H42.4253V35.9124Z" fill="#C30045"/>
<path d="M39.2543 35.9124H36.0833V39.4487H39.2543V35.9124Z" fill="#C30045"/>
<path d="M48.6913 39.4436H45.5203V42.9799H48.6913V39.4436Z" fill="#C30045"/>
<path d="M45.5203 39.4436H42.3492V42.9799H45.5203V39.4436Z" fill="#C30045"/>
<path d="M42.3493 39.4436H39.1782V42.9799H42.3493V39.4436Z" fill="#C30045"/>
<path d="M58.7117 35.6486V32.442H52.2986V35.6486H58.7117Z" fill="#FF92A0"/>
<path d="M36.2456 35.6536V32.447H29.8325V35.6536H36.2456Z" fill="#FF92A0"/>
<path d="M31.4053 21.2343H28.1987V27.6423H31.4053V21.2343Z" fill="#C2A490"/>
<path d="M50.6497 14.8313H47.4431V18.0379H50.6497V14.8313Z" fill="#C2A490"/>
<path d="M53.8562 18.0327H50.6497V21.2393H53.8562V18.0327Z" fill="#C2A490"/>
<path d="M57.0679 21.2393H53.8613V24.4458H57.0679V21.2393Z" fill="#C2A490"/>
<path d="M34.6118 21.2393H31.4053V24.4458H34.6118V21.2393Z" fill="#C2A490"/>
<path d="M37.8235 21.2393H34.6169V24.4458H37.8235V21.2393Z" fill="#C2A490"/>
<path d="M47.438 18.0327H37.8184V21.2393H47.438V18.0327Z" fill="#C2A490"/>
<path d="M18.6146 27.6474V24.4408H9.00004V27.6474H18.6146Z" fill="#5C9965"/>
<path d="M31.4053 27.6474V24.4408H18.6298V27.6474H31.4053Z" fill="#5C9965"/>
<path d="M60.2998 21.2647V17.9567H31.3444V21.2647H60.2998Z" fill="#6FB87A"/>
<path d="M44.2365 5.20649C44.2365 5.20649 31.5219 5.29782 31.4306 5.20649C31.3393 5.11009 25.0226 11.7058 25.0226 11.7058V18.0226H63.4911V11.6145L60.2744 8.40797L57.0729 5.20649H44.2416H44.2365Z" fill="#6FB87A"/>
<path d="M28.2241 8.41309H31.4307V5.20653H28.2241V8.41309Z" fill="#5C9965"/>
<path d="M57.0678 8.41309H60.2693V5.21161H57.0678V8.41309Z" fill="#5C9965"/>
<path d="M25.0176 14.9023H28.2241V8.40806H25.0176V14.9023Z" fill="#5C9965"/>
<path d="M63.4861 24.4357H66.6926V14.8211H63.4861V24.4357Z" fill="#5C9965"/>
<path d="M60.2744 24.4459H63.481V14.8212H60.2744V24.4459Z" fill="#6FB87A"/>
<path d="M31.4256 5.20654L57.0679 5.20654V1.99999L31.4256 1.99999V5.20654Z" fill="#5C9965"/>
<path d="M21.816 24.522H25.0226V14.9074H21.816V24.522Z" fill="#5C9965"/>
<path d="M60.2744 14.9023H63.481V8.40806H60.2744V14.9023Z" fill="#5C9965"/>
<path d="M31.4052 18.0327H25.0226V24.4407H31.4052V18.0327Z" fill="#6FB87A"/>
<path d="M60.2541 18.0327H53.8715V24.4407H60.2541V18.0327Z" fill="#6FB87A"/>
<path d="M76.292 24.4509V21.2444H66.6774V24.4509H76.292Z" fill="#5C9965"/>
<path d="M66.6875 24.4509V21.2444L31.4053 21.2444V24.4509L66.6875 24.4509Z" fill="#5C9965"/>
<path d="M62.1821 72.463C59.5692 72.463 57.4382 70.327 57.4382 67.6989C57.4382 65.0707 59.5641 62.9347 62.1821 62.9347C63.2882 62.9347 64.3536 63.3203 65.1908 64.0154C65.4039 64.193 65.5459 64.4822 65.5459 64.7308C65.5459 64.9794 65.4546 65.1925 65.2872 65.365C65.1198 65.5324 64.8965 65.6288 64.6581 65.6288C64.4551 65.6288 64.2522 65.5527 64.0847 65.4208C63.5571 64.9895 62.8265 64.7257 62.1821 64.7257C60.5484 64.7257 59.2191 66.0601 59.2191 67.6989C59.2191 69.3376 60.5484 70.672 62.1821 70.672C63.6941 70.672 64.6276 69.5863 64.6276 68.5918H62.2328V66.8516H65.5612C66.0229 66.8516 66.4085 67.2016 66.4491 67.6633C66.4643 67.8257 66.4693 67.9525 66.4693 68.0692C66.4693 69.2311 66.1548 70.3321 65.3379 71.154C64.5058 71.9962 63.5114 72.4579 62.1821 72.4579" fill="white"/>
<path d="M63.1004 67.7242C63.1004 68.2062 62.7148 68.5918 62.2328 68.5918C61.7508 68.5918 61.3652 68.2011 61.3652 67.7242C61.3652 67.2472 61.7508 66.8566 62.2328 66.8566C62.7148 66.8566 63.1004 67.2472 63.1004 67.7242Z" fill="#00C01E"/>
<path d="M37.8235 62.9347H34.6169V66.1666H37.8235V62.9347Z" fill="#6FB87A"/>
<path d="M41.035 59.7027H37.8285V62.9346H41.035V59.7027Z" fill="#6FB87A"/>
<path d="M50.6447 66.1666H53.8512V62.9346H50.6447V66.1666Z" fill="#6FB87A"/>
<path d="M47.428 62.9347H50.6345V59.7028H47.428V62.9347Z" fill="#6FB87A"/>
<path d="M47.438 56.4759H41.035V59.7078H47.438V56.4759Z" fill="#6FB87A"/>
</svg>
