<svg width="85" height="85" viewBox="0 0 85 85" fill="none" xmlns="http://www.w3.org/2000/svg">
<path d="M65.2803 21.1565H58.8105V27.5403H61.8887V30.7348H65.2803V21.3839" fill="#59544F"/>
<path d="M30.1868 21.1565H23.717V27.5403H26.7952V30.7348H30.1868V21.3839" fill="#59544F"/>
<path d="M30.1514 14.7727V27.5404H26.9621V30.7348H23.7524V33.9242H26.9621V40.3081H30.1514V43.5025H33.3459V46.6969H52.5176V43.5025H55.707V40.3081H58.9015V33.9242H62.0959V30.7348H58.9015V27.5404H55.707V14.7727H30.1514Z" fill="#EDCFB9"/>
<path d="M30.1463 40.3081H26.9519V43.5025H30.1463V40.3081Z" fill="#C2A490"/>
<path d="M26.952 27.5404H23.7576V30.7349H26.952V27.5404Z" fill="#C2A490"/>
<path d="M14.1995 59.4647H17.3939V56.2702H14.1995V59.4647Z" fill="#22829C"/>
<path d="M11.01 75.4267H14.2045L14.2045 59.4646H11.01L11.01 75.4267Z" fill="#22829C"/>
<path d="M11.01 85H14.2045L14.2045 69.0379H11.01L11.01 85Z" fill="#22829C"/>
<path d="M17.3939 56.2701H36.5454V53.0757H17.3939V56.2701Z" fill="#22829C"/>
<path d="M71.6691 56.2701H68.4746V59.4646H71.6691V56.2701Z" fill="#22829C"/>
<path d="M74.8686 59.4647H71.6742V75.4268H74.8686V59.4647Z" fill="#22829C"/>
<path d="M74.8686 69.0378H71.6742V85H74.8686V69.0378Z" fill="#22829C"/>
<path d="M68.4697 53.0809H49.3081V56.2753H68.4697V53.0809Z" fill="#22829C"/>
<path d="M23.7626 30.7349H20.5681V33.9293H23.7626V30.7349Z" fill="#C2A490"/>
<path d="M33.3409 43.5026H30.1465V46.697H33.3409V43.5026Z" fill="#C2A490"/>
<path d="M46.1186 53.0809H39.7399V56.2753H46.1186V53.0809Z" fill="#C2A490"/>
<path d="M39.7399 49.8864H36.5454V56.2702H39.7399V49.8864Z" fill="#C2A490"/>
<path d="M46.1186 49.8864H39.7399V53.0808H46.1186V49.8864Z" fill="#EDCFB9"/>
<path d="M49.3182 49.8864H46.1238V56.2702H49.3182V49.8864Z" fill="#C2A490"/>
<path d="M55.707 43.5026H58.9015V40.3081H55.707V43.5026Z" fill="#C2A490"/>
<path d="M52.5126 46.697H55.707V43.5026H52.5126V46.697Z" fill="#C2A490"/>
<path d="M52.5075 46.697H33.3358V49.8915H52.5075V46.697Z" fill="#C2A490"/>
<path d="M30.1463 17.9622H26.9519V27.5404H30.1463V17.9622Z" fill="#C2A490"/>
<path d="M26.952 33.9242H23.7576V40.308H26.952V33.9242Z" fill="#C2A490"/>
<path d="M58.8964 30.7349H62.0908V27.5404H58.8964V30.7349Z" fill="#C2A490"/>
<path d="M62.0908 33.9242H65.2853V30.7298H62.0908V33.9242Z" fill="#C2A490"/>
<path d="M55.707 27.5404H58.9015V17.9621H55.707V27.5404Z" fill="#C2A490"/>
<path d="M58.8964 40.3131H62.0908V33.9293H58.8964V40.3131Z" fill="#C2A490"/>
<path d="M65.2702 17.9622H11V21.1566H65.2702V17.9622Z" fill="#5C9965"/>
<path d="M52.5076 8.38379H55.702V5.18934H52.5076V8.38379Z" fill="#5C9965"/>
<path d="M30.1414 8.38379H33.3358V5.18934H30.1414V8.38379Z" fill="#5C9965"/>
<path d="M23.7575 17.9622H26.9519V11.5783H23.7575V17.9622Z" fill="#5C9965"/>
<path d="M55.7071 11.5782H59.1947V8.3838H55.7071V11.5782Z" fill="#5C9965"/>
<path d="M26.9469 11.5782H30.1414V8.3838H26.9469V11.5782Z" fill="#5C9965"/>
<path d="M62.101 17.9622H65.2954V14.7677H62.101V17.9622Z" fill="#5C9965"/>
<path d="M33.3358 5.19446L52.5076 5.19446V2.00002L33.3358 2.00002V5.19446Z" fill="#5C9965"/>
<path d="M58.8964 14.7727H62.0908V11.5783H58.8964V14.7727Z" fill="#5C9965"/>
<path d="M62.101 30.7299H65.2954V21.1516H62.101V30.7299Z" fill="#383532"/>
<path d="M20.5631 30.7299H23.7576V21.1516H20.5631V30.7299Z" fill="#383532"/>
<path d="M42.9242 56.2701H17.3989V59.4646H14.2045V75.4267H42.9242" fill="#299BBA"/>
<path d="M42.9242 65.8434H17.3989V69.0379H14.2045V85H42.9242" fill="#299BBA"/>
<path d="M42.9242 56.2701H68.4848V59.4646H71.6793V75.4267H42.9242" fill="#299BBA"/>
<path d="M42.9242 65.8434H68.4848V69.0379H71.6793V85H42.9242" fill="#299BBA"/>
<path d="M33.3357 5.19446V8.38386H30.1463V11.5783H26.9519V17.9621H62.1009V14.7727H58.8964V11.5783H55.7019V8.38386H52.5125V5.19446H33.3357Z" fill="#6FB87A"/>
<path d="M23.7625 69.0429H62.101V65.8485H23.7625V69.0429Z" fill="#6FB87A"/>
<path d="M23.7625 75.4268H62.101V72.2323H23.7625V75.4268Z" fill="#6FB87A"/>
<path d="M42.8231 16.0465C40.5486 16.0465 38.6936 14.1864 38.6936 11.9018C38.6936 9.61714 40.5435 7.75708 42.8231 7.75708C43.7835 7.75708 44.7135 8.09068 45.4414 8.69722C45.6284 8.85391 45.7497 9.10157 45.7497 9.32397C45.7497 9.54637 45.6688 9.72834 45.5222 9.87492C45.3757 10.0215 45.1836 10.1024 44.9763 10.1024C44.7994 10.1024 44.6225 10.0367 44.481 9.92041C44.021 9.54637 43.3892 9.31387 42.8231 9.31387C41.4028 9.31387 40.2453 10.4764 40.2453 11.9018C40.2453 13.3271 41.4028 14.4897 42.8231 14.4897C44.1424 14.4897 44.9511 13.5445 44.9511 12.6802H42.8686V11.1638H45.7699C46.1743 11.1638 46.5079 11.4671 46.5432 11.8714C46.5533 12.013 46.5584 12.1242 46.5584 12.2253C46.5584 13.2362 46.2855 14.1915 45.5728 14.9143C44.85 15.6472 43.9857 16.0515 42.8282 16.0515" fill="white"/>
<path d="M43.6217 11.9221C43.6217 12.3416 43.2831 12.6803 42.8686 12.6803C42.4542 12.6803 42.1155 12.3416 42.1155 11.9221C42.1155 11.5026 42.4542 11.1639 42.8686 11.1639C43.2831 11.1639 43.6217 11.5026 43.6217 11.9221Z" fill="#00C01E"/>
<path d="M38.1274 28.0206H34.933V31.2151H38.1274V28.0206Z" fill="#383532"/>
<path d="M50.9053 28.0206H47.7108V31.2151H50.9053V28.0206Z" fill="#383532"/>
<path d="M44.481 28.0763H41.3826V34.4601H44.481V28.0763Z" fill="#C2A490"/>
<path d="M50.8295 35.9866H47.6704V39.5096H50.8295V35.9866Z" fill="#C30045"/>
<path d="M47.6704 35.9866H44.5114V39.5096H47.6704V35.9866Z" fill="#C30045"/>
<path d="M44.5114 35.9866H41.3523V39.5096H44.5114V35.9866Z" fill="#C30045"/>
<path d="M41.3472 35.9866H38.1881V39.5096H41.3472V35.9866Z" fill="#C30045"/>
<path d="M38.1881 35.9866H35.0291V39.5096H38.1881V35.9866Z" fill="#C30045"/>
<path d="M47.5945 39.5045H44.4354V43.0275H47.5945V39.5045Z" fill="#C30045"/>
<path d="M44.4304 39.5045H41.2714V43.0275H44.4304V39.5045Z" fill="#C30045"/>
<path d="M41.2714 39.5045H38.1123V43.0275H41.2714V39.5045Z" fill="#C30045"/>
<path d="M57.3193 35.4255V32.2311H50.9304V35.4255H57.3193Z" fill="#FF92A0"/>
<path d="M34.9381 35.4255V32.2311H28.5492V35.4255H34.9381Z" fill="#FF92A0"/>
</svg>
