<svg width="85" height="85" viewBox="0 0 85 85" fill="none" xmlns="http://www.w3.org/2000/svg">
<path d="M45.2306 53.4013H38.8112V56.6161H45.2306V53.4013Z" fill="#C2A490"/>
<path d="M38.8111 50.1865H35.5963V56.611H38.8111V50.1865Z" fill="#C2A490"/>
<path d="M48.4505 50.1865H45.2357V56.611H48.4505V50.1865Z" fill="#C2A490"/>
<path d="M54.7022 19.1523H58.1866V8.41937H54.7022V19.1523Z" fill="#302E2B"/>
<path d="M64.5958 21.2787H58.0848V27.7032H61.1826V30.9129H64.5958V21.5076" fill="#302E2B"/>
<path d="M29.2787 21.2787H22.7677V27.7032H25.8655V30.9129H29.2787V21.5076" fill="#59544F"/>
<path d="M26.0842 18.0587H19.5732V24.4883H22.6711V27.698H26.0842V18.2876" fill="#3D3A37"/>
<path d="M39.6251 21.2787H33.1141V27.7032H36.212V30.9129H39.6251V21.5076" fill="#59544F"/>
<path d="M29.2431 14.849V27.7031H26.0334V30.9129H22.8033V34.1277H26.0334V40.5522H29.2431V43.767H32.4579V46.9767H51.7518V43.767H54.9616V40.5522H58.1764V34.1277H61.3912V30.9129H58.1764V27.7031H54.9616V14.849H29.2431Z" fill="#EDCFB9"/>
<path d="M29.238 40.5522H26.0232V43.7671H29.238V40.5522Z" fill="#C2A490"/>
<path d="M26.0233 27.7032H22.8085V30.9181H26.0233V27.7032Z" fill="#C2A490"/>
<path d="M22.8136 30.913H19.5988V34.1278H22.8136V30.913Z" fill="#C2A490"/>
<path d="M32.4528 43.7671H29.238V46.9819H32.4528V43.7671Z" fill="#C2A490"/>
<path d="M45.312 53.4064H38.8926V56.6212H45.312V53.4064Z" fill="#C2A490"/>
<path d="M38.8926 50.1915H35.6779V56.6161H38.8926V50.1915Z" fill="#C2A490"/>
<path d="M45.312 50.1915H38.8926V53.4063H45.312V50.1915Z" fill="#EDCFB9"/>
<path d="M48.5319 50.1915H45.3171V56.6161H48.5319V50.1915Z" fill="#C2A490"/>
<path d="M54.9616 43.7671H58.1764V40.5523H54.9616V43.7671Z" fill="#C2A490"/>
<path d="M51.7467 46.9768H54.9615V43.762H51.7467V46.9768Z" fill="#C2A490"/>
<path d="M51.7417 46.9768H32.4478V50.1916H51.7417V46.9768Z" fill="#C2A490"/>
<path d="M29.238 24.4884H26.0232V27.7032H29.238V24.4884Z" fill="#C2A490"/>
<path d="M26.0233 34.1277H22.8085V40.5522H26.0233V34.1277Z" fill="#C2A490"/>
<path d="M58.1713 30.913H61.3861V27.6982H58.1713V30.913Z" fill="#C2A490"/>
<path d="M61.386 34.1277H64.6008V30.9129H61.386V34.1277Z" fill="#C2A490"/>
<path d="M58.1713 40.5522H61.3861V34.1277H58.1713V40.5522Z" fill="#C2A490"/>
<path d="M61.3963 30.913H64.6111V21.2736H61.3963V30.913Z" fill="#302E2B"/>
<path d="M19.5937 30.913H22.8085V24.4834H19.5937V30.913Z" fill="#302E2B"/>
<path d="M26.0436 21.2837H29.2584V18.0689H26.0436V21.2837Z" fill="#302E2B"/>
<path d="M54.9616 21.2837H58.1764V18.0689H54.9616V21.2837Z" fill="#302E2B"/>
<path d="M26.0436 24.4884H29.2584V21.2736H26.0436V24.4884Z" fill="#C2A490"/>
<path d="M54.9616 24.4884H58.1764V21.2736H54.9616V24.4884Z" fill="#302E2B"/>
<path d="M19.5986 18.0638H29.2787V14.849L19.5986 14.849V18.0638Z" fill="#3D3A37"/>
<path d="M22.7882 14.844L58.1714 14.844V11.6292L22.7882 11.6292V14.844Z" fill="#3D3A37"/>
<path d="M22.7882 11.6393L58.1714 11.6393V8.42448L22.7882 8.42448V11.6393Z" fill="#3D3A37"/>
<path d="M26.0844 8.42456L58.1714 8.42456V5.20975L26.0844 5.20975V8.42456Z" fill="#3D3A37"/>
<path d="M61.386 21.2787H64.6008V14.8491H61.386V21.2787Z" fill="#302E2B"/>
<path d="M25.9521 8.42456H29.1669V5.20975H25.9521V8.42456Z" fill="#302E2B"/>
<path d="M58.1713 14.8541H61.3861V8.42451H58.1713V14.8541Z" fill="#302E2B"/>
<path d="M22.8085 14.8541H26.0233V8.42451H22.8085V14.8541Z" fill="#302E2B"/>
<path d="M54.9616 8.42456H58.1764V5.20975H54.9616V8.42456Z" fill="#302E2B"/>
<path d="M54.9616 18.0638H58.1764V14.849H54.9616V18.0638Z" fill="#3D3A37"/>
<path d="M29.1618 5.21484L55.0481 5.21484V2.00004L29.1618 2.00004V5.21484Z" fill="#302E2B"/>
<path d="M29.2585 24.4884H32.4733V14.8491H29.2585V24.4884Z" fill="#302E2B"/>
<path d="M35.7083 24.4884H38.9231V14.8491H35.7083V24.4884Z" fill="#302E2B"/>
<path d="M42.1532 24.4884H45.368V14.8491H42.1532V24.4884Z" fill="#302E2B"/>
<path d="M32.4884 24.4884H35.7032V14.8491H32.4884V24.4884Z" fill="#3D3A37"/>
<path d="M38.9283 24.4884H42.1431V14.8491H38.9283V24.4884Z" fill="#3D3A37"/>
<path d="M45.3731 24.4884H48.5879V14.8491H45.3731V24.4884Z" fill="#3D3A37"/>
<path d="M51.7722 24.4884H54.9972V14.8491H51.7722V24.4884Z" fill="#3D3A37"/>
<path d="M58.1713 27.7032H61.3861V14.8542H58.1713V27.7032Z" fill="#3D3A37"/>
<path d="M48.5675 24.4884H51.7823V14.8491H48.5675V24.4884Z" fill="#302E2B"/>
<path d="M19.5937 24.4934H22.8085V14.8541H19.5937V24.4934Z" fill="#302E2B"/>
<path d="M54.9616 27.6981H58.1764V21.2736H54.9616V27.6981Z" fill="#C2A490"/>
<path d="M37.0766 28.1813H33.8618V31.3961H37.0766V28.1813Z" fill="#383532"/>
<path d="M49.9359 28.1813H46.7211V31.3961H49.9359V28.1813Z" fill="#383532"/>
<path d="M43.5419 28.0439H40.4237V34.4685H43.5419V28.0439Z" fill="#C2A490"/>
<path d="M49.9817 36.3353H46.8025V39.8808H49.9817V36.3353Z" fill="#C30045"/>
<path d="M46.7975 36.3353H43.6183V39.8808H46.7975V36.3353Z" fill="#C30045"/>
<path d="M43.6183 36.3353H40.4391V39.8808H43.6183V36.3353Z" fill="#C30045"/>
<path d="M40.4391 36.3353H37.2599V39.8808H40.4391V36.3353Z" fill="#C30045"/>
<path d="M37.2548 36.3353H34.0756V39.8808H37.2548V36.3353Z" fill="#C30045"/>
<path d="M46.7212 39.8757H43.542V43.4212H46.7212V39.8757Z" fill="#C30045"/>
<path d="M43.5369 39.8757H40.3577V43.4212H43.5369V39.8757Z" fill="#C30045"/>
<path d="M40.3577 39.8757H37.1785V43.4212H40.3577V39.8757Z" fill="#C30045"/>
<path d="M56.6046 36.0709V32.8561H50.175V36.0709H56.6046Z" fill="#FF92A0"/>
<path d="M34.0857 36.0709V32.8561H27.6561V36.0709H34.0857Z" fill="#FF92A0"/>
<path d="M13.2098 59.8157H16.4246V56.6009H13.2098V59.8157Z" fill="#22829C"/>
<path d="M10 75.8795H13.2148L13.2148 59.8157H10L10 75.8795Z" fill="#22829C"/>
<path d="M10 85H13.2148L13.2148 68.9361H10L10 85Z" fill="#22829C"/>
<path d="M16.4245 56.6008H35.6981V53.386H16.4245V56.6008Z" fill="#22829C"/>
<path d="M71.0457 56.6008H67.8309V59.8156H71.0457V56.6008Z" fill="#22829C"/>
<path d="M74.2606 59.8157H71.0458V75.8795H74.2606V59.8157Z" fill="#22829C"/>
<path d="M74.2606 68.9362H71.0458V85H74.2606V68.9362Z" fill="#22829C"/>
<path d="M67.8308 53.3911H48.5573V56.6059H67.8308V53.3911Z" fill="#22829C"/>
<path d="M42.1176 56.6008H16.4246V59.8156H13.2148V75.8795H42.1176" fill="#299BBA"/>
<path d="M42.1176 65.7213H16.4246V68.9361H13.2148V85H42.1176" fill="#299BBA"/>
<path d="M42.1176 56.6008H67.8411V59.8156H71.0559V75.8795H42.1176" fill="#299BBA"/>
<path d="M42.1176 65.7213H67.8411V68.9361H71.0559V85H42.1176" fill="#299BBA"/>
<path d="M38.9129 56.6008H35.6981V63.0254H38.9129V56.6008Z" fill="white"/>
<path d="M45.3425 56.6008H38.918V63.0254H45.3425V56.6008Z" fill="white"/>
<path d="M48.5523 56.6008H45.3375V63.0254H48.5523V56.6008Z" fill="white"/>
<path d="M42.1328 63.0305H38.918V75.8795H42.1328V63.0305Z" fill="white"/>
<path d="M45.3324 63.0305H42.1176V75.8795H45.3324V63.0305Z" fill="white"/>
<path d="M45.3324 72.1509H42.1176V85H45.3324V72.1509Z" fill="white"/>
<path d="M32.4681 59.8157H35.6829V56.6009H32.4681V59.8157Z" fill="#22829C"/>
<path d="M32.4681 63.0305H35.6829V59.8156H32.4681V63.0305Z" fill="#22829C"/>
<path d="M35.6982 75.8745H38.913V63.0254H35.6982V75.8745Z" fill="#22829C"/>
<path d="M35.6982 84.9949H38.913V72.1459H35.6982V84.9949Z" fill="#22829C"/>
<path d="M51.7823 56.6008H48.5675V59.8156H51.7823V56.6008Z" fill="#22829C"/>
<path d="M51.7823 59.8157H48.5675V63.0305H51.7823V59.8157Z" fill="#22829C"/>
<path d="M48.5523 63.0305H45.3375V75.8795H48.5523V63.0305Z" fill="#22829C"/>
<path d="M48.5523 72.1509H45.3375V85H48.5523V72.1509Z" fill="#22829C"/>
<path d="M61.6861 73.1835C59.0665 73.1835 56.9301 71.042 56.9301 68.4071C56.9301 65.7722 59.0614 63.6307 61.6861 63.6307C62.795 63.6307 63.8633 64.0173 64.7026 64.7141C64.9162 64.8922 65.0586 65.1821 65.0586 65.4314C65.0586 65.6806 64.9671 65.8943 64.7992 66.0672C64.6314 66.2351 64.4075 66.3317 64.1684 66.3317C63.965 66.3317 63.7615 66.2554 63.5936 66.1232C63.0646 65.6908 62.3321 65.4263 61.6861 65.4263C60.0482 65.4263 58.7155 66.7641 58.7155 68.4071C58.7155 70.0501 60.0482 71.3879 61.6861 71.3879C63.202 71.3879 64.1379 70.2994 64.1379 69.3024H61.737V67.5576H65.0739C65.5368 67.5576 65.9234 67.9086 65.9641 68.3715C65.9793 68.5343 65.9844 68.6614 65.9844 68.7784C65.9844 69.9433 65.669 71.0471 64.8501 71.8712C64.0159 72.7156 63.0188 73.1784 61.6861 73.1784" fill="white"/>
<path d="M62.6069 68.4326C62.6069 68.9158 62.2203 69.3024 61.737 69.3024C61.2538 69.3024 60.8672 68.9107 60.8672 68.4326C60.8672 67.9544 61.2538 67.5627 61.737 67.5627C62.2203 67.5627 62.6069 67.9544 62.6069 68.4326Z" fill="#00C01E"/>
<path d="M29.2329 69.455H32.4478V66.2401H29.2329V69.455Z" fill="#6FB87A"/>
<path d="M29.2329 75.8795H32.4478V72.6647H29.2329V75.8795Z" fill="#6FB87A"/>
</svg>
