<svg width="100" height="108" viewBox="0 0 100 108" fill="none" xmlns="http://www.w3.org/2000/svg">
<path d="M39.5869 9.34082H37.5869V11.3408V13.0084H35.8961H33.8961V15.0084V16.6817H32.246H30.246V18.6817V20.3551H29.0202H26.9561L27.0212 22.4181L27.3416 32.5803L26.7984 36.7803L26.5065 39.0368H28.7819H72.8737H74.8737V37.0368V22.3551V21.522L74.2823 20.9353L70.5799 17.2619L70.3445 17.0284L70.0463 16.8833L62.7958 13.3557L59.347 9.92326L58.7618 9.34082H57.9362H50.5837H39.5869Z" stroke="white" stroke-width="4"/>
<path d="M36.1344 20.3552H34.1344V22.3552V35.037H32.461H30.461V37.037V38.7104H28.7703H26.7703V40.7104V44.3779V46.3779H28.7703H30.461V51.7188V53.7188H32.461H34.1344V55.3921V57.3921H36.1344H37.8019V59.0655V61.0655H39.8019H61.8478H63.8478V59.0655V57.3921H65.5212H67.5212V55.3921V53.7188H69.1887H71.1887V51.7188V46.3779H72.8621H74.8621V44.3779V40.7104V38.7104H72.8621H71.1887V37.037V35.037H69.1887H67.5212V22.3552V20.3552H65.5212H36.1344Z" stroke="white" stroke-width="4"/>
<path d="M38.1228 51.7188V49.7188H36.1228H32.4495H30.4495V51.7188V55.3921V57.3921H32.4495H36.1228H38.1228V55.3921V51.7188Z" stroke="white" stroke-width="4"/>
<path d="M34.4552 37.0367V35.0367H32.4552H28.7819H26.7819V37.0367V40.7101V42.7101H28.7819H32.4552H34.4552V40.7101V37.0367Z" stroke="white" stroke-width="4"/>
<path d="M60.1628 22.3552V20.3552H58.1628H50.8278H48.8278V22.3552V26.0286V28.0286H50.8278H58.1628H60.1628V26.0286V22.3552Z" stroke="white" stroke-width="4"/>
<path d="M52.8278 22.3552V20.3552H50.8278H47.1544H45.1544V22.3552V26.0286V28.0286H47.1544H50.8278H52.8278V26.0286V22.3552Z" stroke="white" stroke-width="4"/>
<path d="M15.7909 73.7531V75.7531H17.7909H21.4642H23.4642V73.7531V70.0797V68.0797H21.4642H17.7909H15.7909V70.0797V73.7531Z" stroke="white" stroke-width="4"/>
<path d="M12.1177 92.1022V94.1022H14.1177H17.791H19.791V92.1022L19.791 73.7471V71.7471H17.791H14.1177H12.1177V73.7471L12.1177 92.1022Z" stroke="white" stroke-width="4"/>
<path d="M12.1177 104V106H14.1177H17.791H19.791V104L19.791 85.6449V83.6449H17.791H14.1177H12.1177V85.6449L12.1177 104Z" stroke="white" stroke-width="4"/>
<path d="M19.4585 70.0738V72.0738H21.4585H43.4812H45.4812V70.0738V66.4004V64.4004H43.4812H21.4585H19.4585V66.4004V70.0738Z" stroke="white" stroke-width="4"/>
<path d="M85.8706 70.0738V68.0738H83.8706H80.1973H78.1973V70.0738V73.7471V75.7471H80.1973H83.8706H85.8706V73.7471V70.0738Z" stroke="white" stroke-width="4"/>
<path d="M89.5498 73.7473V71.7473H87.5498H83.8765H81.8765V73.7473V92.1024V94.1024H83.8765H87.5498H89.5498V92.1024V73.7473Z" stroke="white" stroke-width="4"/>
<path d="M89.5498 85.6448V83.6448H87.5498H83.8765H81.8765V85.6448V104V106H83.8765H87.5498H89.5498V104V85.6448Z" stroke="white" stroke-width="4"/>
<path d="M82.1974 66.4061V64.4061H80.1974H58.1631H56.1631V66.4061V70.0795V72.0795H58.1631H80.1974H82.1974V70.0795V66.4061Z" stroke="white" stroke-width="4"/>
<path d="M30.7819 40.7101V38.7101H28.7819H25.1085H23.1085V40.7101V44.3834V46.3834H25.1085H28.7819H30.7819V44.3834V40.7101Z" stroke="white" stroke-width="4"/>
<path d="M41.7964 55.392V53.392H39.7964H36.123H34.123V55.392V59.0654V61.0654H36.123H39.7964H41.7964V59.0654V55.392Z" stroke="white" stroke-width="4"/>
<path d="M49.1603 62.7328V60.7328H47.1603H43.4869H41.4869V62.7328V70.0737V72.0737H43.4869H47.1603H49.1603V70.0737V62.7328Z" stroke="white" stroke-width="4"/>
<path d="M60.1687 62.7328V60.7328H58.1687H54.4954H52.4954V62.7328V70.0737V72.0737H54.4954H58.1687H60.1687V70.0737V62.7328Z" stroke="white" stroke-width="4"/>
<path d="M63.5155 55.3978V57.3978H65.5155H69.1888H71.1888V55.3978V51.7245V49.7245H69.1888H65.5155H63.5155V51.7245V55.3978Z" stroke="white" stroke-width="4"/>
<path d="M59.848 59.0654V61.0654H61.848H65.5214H67.5214V59.0654V55.392V53.392H65.5214H61.848H59.848V55.392V59.0654Z" stroke="white" stroke-width="4"/>
<path d="M63.8422 59.0654V57.0654H61.8422H39.7963H37.7963V59.0654V62.7387V64.7387H39.7963H61.8422H63.8422V62.7387V59.0654Z" stroke="white" stroke-width="4"/>
<path d="M38.1228 26.0228V24.0228H36.1228H32.4495H30.4495V26.0228V37.037V39.037H32.4495H36.1228H38.1228V37.037V26.0228Z" stroke="white" stroke-width="4"/>
<path d="M34.4552 44.3776V42.3776H32.4552H28.7819H26.7819V44.3776V51.7185V53.7185H28.7819H32.4552H34.4552V51.7185V44.3776Z" stroke="white" stroke-width="4"/>
<path d="M67.1887 40.7101V42.7101H69.1887H72.8621H74.8621V40.7101V37.0367V35.0367H72.8621H69.1887H67.1887V37.0367V40.7101Z" stroke="white" stroke-width="4"/>
<path d="M70.862 44.3776V46.3776H72.862H76.5354H78.5354V44.3776V40.7043V38.7043H76.5354H72.862H70.862V40.7043V44.3776Z" stroke="white" stroke-width="4"/>
<path d="M63.5155 37.0367V39.0367H65.5155H69.1888H71.1888V37.0367V29.6203V27.6203H69.1888H65.5155H63.5155V29.6203V37.0367Z" stroke="white" stroke-width="4"/>
<path d="M67.1887 51.7245V53.7245H69.1887H72.8621H74.8621V51.7245V44.3837V42.3837H72.8621H69.1887H67.1887V44.3837V51.7245Z" stroke="white" stroke-width="4"/>
<path d="M49.1546 22.3552V20.3552H47.1546H36.1404H34.1404V22.3552V26.0286V28.0286H36.1404H47.1546H49.1546V26.0286V22.3552Z" stroke="white" stroke-width="4"/>
<path d="M67.5098 22.3552V20.3552H65.5098H58.1689H56.1689V22.3552V26.0286V28.0286H58.1689H65.5098H67.5098V26.0286V22.3552Z" stroke="white" stroke-width="4"/>
<path d="M34.4668 18.6819V16.6819H32.4668H28.7935H26.7935V18.6819V22.3553V24.3553H28.7935H32.4668H34.4668V22.3553V18.6819Z" stroke="white" stroke-width="4"/>
<path d="M38.1463 15.0083V13.0083H36.1463H32.4729H30.4729V15.0083V18.6817V20.6817H32.4729H36.1463H38.1463V18.6817V15.0083Z" stroke="white" stroke-width="4"/>
<path d="M41.7964 11.3408V9.34082H39.7964H36.123H34.123V11.3408V15.0142V17.0142H36.123H39.7964H41.7964V15.0142V11.3408Z" stroke="white" stroke-width="4"/>
<path d="M67.5039 7.66174V5.66174H65.5039H61.8306H59.8306V7.66174V11.3351V13.3351H61.8306H65.5039H67.5039V11.3351V7.66174Z" stroke="white" stroke-width="4"/>
<path d="M56.5363 7.66748V5.66748H54.5363H50.8629H48.8629V7.66748V11.3408V13.3408H50.8629H54.5363H56.5363V11.3408V7.66748Z" stroke="white" stroke-width="4"/>
<path d="M63.8596 4V2H61.8596H58.1863H56.1863V4V11.3409V13.3409H58.1863H61.8596H63.8596V11.3409V4Z" stroke="white" stroke-width="4"/>
<path d="M74.8738 18.6819V16.6819H72.8738H69.2004H67.2004V18.6819V22.3553V24.3553H69.2004H72.8738H74.8738V22.3553V18.6819Z" stroke="white" stroke-width="4"/>
<path d="M74.8563 19.1408V17.1408H72.8563H69.1946H67.1946V19.1408V37.4959V39.4959H69.1946H72.8563H74.8563V37.4959V19.1408Z" stroke="white" stroke-width="4"/>
<path d="M60.1572 11.3408V9.34082H58.1572H39.8137H37.8137V11.3408V15.0142V17.0142H39.8137H58.1572H60.1572V15.0142V11.3408Z" stroke="white" stroke-width="4"/>
<path d="M34.4613 18.5715V16.5715H32.4613H28.7996H26.7996V18.5715V36.9266V38.9266H28.7996H32.4613H34.4613V36.9266V18.5715Z" stroke="white" stroke-width="4"/>
<path d="M67.5331 11.3408V9.34082H65.5331H58.1573H56.1573V11.3408V18.7166V20.7166H58.1573H65.5331H67.5331V18.7166V11.3408Z" stroke="white" stroke-width="4"/>
<path d="M38.1229 25.9123V23.9123H36.1229H32.4496H30.4496V25.9123V29.5856V31.5856H32.4496H36.1229H38.1229V29.5856V25.9123Z" stroke="white" stroke-width="4"/>
<path d="M71.1715 18.6819V16.6819H69.1715H65.4982H63.4982V18.6819V29.6206V31.6206H65.4982H69.1715H71.1715V29.6206V18.6819Z" stroke="white" stroke-width="4"/>
<path d="M67.5388 25.947V23.947H65.5388H61.8655H59.8655V25.947V29.6204V31.6204H61.8655H65.5388H67.5388V29.6204V25.947Z" stroke="white" stroke-width="4"/>
<path d="M67.5388 18.9608V16.9608H65.5388H61.8655H59.8655V18.9608V26.0227V28.0227H61.8655H65.5388H67.5388V26.0227V18.9608Z" stroke="white" stroke-width="4"/>
<path d="M71.1831 11.3408V9.34082H69.1831H65.5098H63.5098V11.3408V15.0142V17.0142H65.5098H69.1831H71.1831V15.0142V11.3408Z" stroke="white" stroke-width="4"/>
<path d="M71.1715 15.0083V13.0083H69.1715H65.4982H63.4982V15.0083V18.6817V20.6817H65.4982H69.1715H71.1715V18.6817V15.0083Z" stroke="white" stroke-width="4"/>
<mask id="path-47-outside-1_0_184013" maskUnits="userSpaceOnUse" x="13.791" y="66.0738" width="38" height="31" fill="black">
<rect fill="white" x="13.791" y="66.0738" width="38" height="31"/>
<path d="M50.8163 70.0738H21.4644V73.7471H17.791V92.1023H50.8163"/>
</mask>
<path d="M21.4644 70.0738V66.0738H17.4644V70.0738H21.4644ZM21.4644 73.7471V77.7471H25.4644V73.7471H21.4644ZM17.791 73.7471V69.7471H13.791V73.7471H17.791ZM17.791 92.1023H13.791V96.1023H17.791V92.1023ZM50.8163 66.0738H21.4644V74.0738H50.8163V66.0738ZM17.4644 70.0738V73.7471H25.4644V70.0738H17.4644ZM21.4644 69.7471H17.791V77.7471H21.4644V69.7471ZM13.791 73.7471V92.1023H21.791V73.7471H13.791ZM17.791 96.1023H50.8163V88.1023H17.791V96.1023Z" fill="white" mask="url(#path-47-outside-1_0_184013)"/>
<mask id="path-49-outside-2_0_184013" maskUnits="userSpaceOnUse" x="13.791" y="77.9714" width="38" height="31" fill="black">
<rect fill="white" x="13.791" y="77.9714" width="38" height="31"/>
<path d="M50.8163 81.9714H21.4644V85.6448H17.791V104H50.8163"/>
</mask>
<path d="M21.4644 81.9714V77.9714H17.4644V81.9714H21.4644ZM21.4644 85.6448V89.6448H25.4644V85.6448H21.4644ZM17.791 85.6448V81.6448H13.791V85.6448H17.791ZM17.791 104H13.791V108H17.791V104ZM50.8163 77.9714H21.4644V85.9714H50.8163V77.9714ZM17.4644 81.9714V85.6448H25.4644V81.9714H17.4644ZM21.4644 81.6448H17.791V89.6448H21.4644V81.6448ZM13.791 85.6448V104H21.791V85.6448H13.791ZM17.791 108H50.8163V99.9999H17.791V108Z" fill="white" mask="url(#path-49-outside-2_0_184013)"/>
<mask id="path-51-outside-3_0_184013" maskUnits="userSpaceOnUse" x="50.8162" y="66.0738" width="38" height="31" fill="black">
<rect fill="white" x="50.8162" y="66.0738" width="38" height="31"/>
<path d="M50.8162 70.0738H80.2146V73.7471H83.8821V92.1023H50.8162"/>
</mask>
<path d="M80.2146 70.0738H84.2146V66.0738H80.2146V70.0738ZM80.2146 73.7471H76.2146V77.7471H80.2146V73.7471ZM83.8821 73.7471H87.8821V69.7471H83.8821V73.7471ZM83.8821 92.1023V96.1023H87.8821V92.1023H83.8821ZM50.8162 74.0738H80.2146V66.0738H50.8162V74.0738ZM76.2146 70.0738V73.7471H84.2146V70.0738H76.2146ZM80.2146 77.7471H83.8821V69.7471H80.2146V77.7471ZM79.8821 73.7471V92.1023H87.8821V73.7471H79.8821ZM83.8821 88.1023H50.8162V96.1023H83.8821V88.1023Z" fill="white" mask="url(#path-51-outside-3_0_184013)"/>
<mask id="path-53-outside-4_0_184013" maskUnits="userSpaceOnUse" x="50.8162" y="77.9714" width="38" height="31" fill="black">
<rect fill="white" x="50.8162" y="77.9714" width="38" height="31"/>
<path d="M50.8162 81.9714H80.2146V85.6448H83.8821V104H50.8162"/>
</mask>
<path d="M80.2146 81.9714H84.2146V77.9714H80.2146V81.9714ZM80.2146 85.6448H76.2146V89.6448H80.2146V85.6448ZM83.8821 85.6448H87.8821V81.6448H83.8821V85.6448ZM83.8821 104V108H87.8821V104H83.8821ZM50.8162 85.9714H80.2146V77.9714H50.8162V85.9714ZM76.2146 81.9714V85.6448H84.2146V81.9714H76.2146ZM80.2146 89.6448H83.8821V81.6448H80.2146V89.6448ZM79.8821 85.6448V104H87.8821V85.6448H79.8821ZM83.8821 99.9999H50.8162V108H83.8821V99.9999Z" fill="white" mask="url(#path-53-outside-4_0_184013)"/>
<path d="M56.4895 62.7328V60.7328H54.4895H47.1544H45.1544V62.7328V73.7471V75.7471H47.1544H54.4895H56.4895V73.7471V62.7328Z" stroke="white" stroke-width="4"/>
<path d="M52.8278 70.0738V68.0738H50.8278H47.1544H45.1544V70.0738V73.7471V75.7471H47.1544H50.8278H52.8278V73.7471V70.0738Z" stroke="white" stroke-width="4"/>
<path d="M45.4872 66.4061V64.4061H43.4872H36.123H34.123V66.4061V70.0795V72.0795H36.123H43.4872H45.4872V70.0795V66.4061Z" stroke="white" stroke-width="4"/>
<path d="M41.7964 70.0738V68.0738H39.7964H36.123H34.123V70.0738V73.7471V75.7471H36.123H39.7964H41.7964V73.7471V70.0738Z" stroke="white" stroke-width="4"/>
<path d="M56.163 70.0738V72.0738H58.163H65.5271H67.5271V70.0738V66.4004V64.4004H65.5271H58.163H56.163V66.4004V70.0738Z" stroke="white" stroke-width="4"/>
<path d="M59.8248 73.7531V75.7531H61.8248H65.4982H67.4982V73.7531V70.0797V68.0797H65.4982H61.8248H59.8248V70.0797V73.7531Z" stroke="white" stroke-width="4"/>
<path d="M49.1603 84.7614V82.7614H47.1603H43.4869H41.4869V84.7614V88.4347V90.4347H43.4869H47.1603H49.1603V88.4347V84.7614Z" stroke="white" stroke-width="4"/>
<path d="M56.5011 84.7614V82.7614H54.5011H50.8278H48.8278V84.7614V88.4347V90.4347H50.8278H54.5011H56.5011V88.4347V84.7614Z" stroke="white" stroke-width="4"/>
<path d="M45.4987 73.7473V71.7473H43.4987H39.8253H37.8253V73.7473V84.7615V86.7615H39.8253H43.4987H45.4987V84.7615V73.7473Z" stroke="white" stroke-width="4"/>
<path d="M60.1687 73.7473V71.7473H58.1687H54.4954H52.4954V73.7473V84.7615V86.7615H54.4954H58.1687H60.1687V84.7615V73.7473Z" stroke="white" stroke-width="4"/>
<path d="M49.1546 70.0738V68.0738H47.1546H39.8137H37.8137V70.0738V73.7471V75.7471H39.8137H47.1546H49.1546V73.7471V70.0738Z" stroke="white" stroke-width="4"/>
<path d="M63.8422 70.0738V68.0738H61.8422H54.5013H52.5013V70.0738V73.7471V75.7471H54.5013H61.8422H63.8422V73.7471V70.0738Z" stroke="white" stroke-width="4"/>
<path d="M49.1603 73.7473V71.7473H47.1603H43.4869H41.4869V73.7473V77.4206V79.4206H43.4869H47.1603H49.1603V77.4206V73.7473Z" stroke="white" stroke-width="4"/>
<path d="M60.1747 73.7473V71.7473H58.1747H54.5013H52.5013V73.7473V77.4206V79.4206H54.5013H58.1747H60.1747V77.4206V73.7473Z" stroke="white" stroke-width="4"/>
<path d="M56.5011 77.4205V75.4205H54.5011H50.8278H48.8278V77.4205V81.0939V83.0939H50.8278H54.5011H56.5011V81.0939V77.4205Z" stroke="white" stroke-width="4"/>
<path d="M49.1603 77.4205V75.4205H47.1603H43.4869H41.4869V77.4205V81.0939V83.0939H43.4869H47.1603H49.1603V81.0939V77.4205Z" stroke="white" stroke-width="4"/>
<path d="M56.5011 81.0881V79.0881H54.5011H50.8278H48.8278V81.0881V84.7614V86.7614H50.8278H54.5011H56.5011V84.7614V81.0881Z" stroke="white" stroke-width="4"/>
<path d="M49.1603 81.0881V79.0881H47.1603H43.4869H41.4869V81.0881V84.7614V86.7614H43.4869H47.1603H49.1603V84.7614V81.0881Z" stroke="white" stroke-width="4"/>
<path d="M56.5011 73.7355V71.7355H54.5011H47.1544H45.1544V73.7355V77.4089V79.4089H47.1544H54.5011H56.5011V77.4089V73.7355Z" stroke="white" stroke-width="4"/>
<path d="M52.8278 77.4032V75.4032H50.8278H47.1544H45.1544V77.4032V92.085V94.085H47.1544H50.8278H52.8278V92.085V77.4032Z" stroke="white" stroke-width="4"/>
<path d="M56.5011 70.0738V68.0738H54.5011H50.8278H48.8278V70.0738V73.7471V75.7471H50.8278H54.5011H56.5011V73.7471V70.0738Z" stroke="white" stroke-width="4"/>
<path d="M61.9123 46.4178V44.4178H59.9123H56.2797H54.2797V46.4178V50.4689V52.4689H56.2797H59.9123H61.9123V50.4689V46.4178Z" stroke="white" stroke-width="4"/>
<path d="M58.2796 46.4178V44.4178H56.2796H52.647H50.647V46.4178V50.4689V52.4689H52.647H56.2796H58.2796V50.4689V46.4178Z" stroke="white" stroke-width="4"/>
<path d="M54.6472 46.4178V44.4178H52.6472H49.0145H47.0145V46.4178V50.4689V52.4689H49.0145H52.6472H54.6472V50.4689V46.4178Z" stroke="white" stroke-width="4"/>
<path d="M51.0088 46.4178V44.4178H49.0088H45.3761H43.3761V46.4178V50.4689V52.4689H45.3761H49.0088H51.0088V50.4689V46.4178Z" stroke="white" stroke-width="4"/>
<path d="M47.3761 46.4178V44.4178H45.3761H41.7434H39.7434V46.4178V50.4689V52.4689H41.7434H45.3761H47.3761V50.4689V46.4178Z" stroke="white" stroke-width="4"/>
<path d="M58.187 50.4692V48.4692H56.187H52.5543H50.5543V50.4692V54.5203V56.5203H52.5543H56.187H58.187V54.5203V50.4692Z" stroke="white" stroke-width="4"/>
<path d="M54.5542 50.4692V48.4692H52.5542H48.9215H46.9215V50.4692V54.5203V56.5203H48.9215H52.5542H54.5542V54.5203V50.4692Z" stroke="white" stroke-width="4"/>
<path d="M50.9215 50.4692V48.4692H48.9215H45.2888H43.2888V50.4692V54.5203V56.5203H45.2888H48.9215H50.9215V54.5203V50.4692Z" stroke="white" stroke-width="4"/>
<path d="M47.3179 37.0367V35.0367H45.3179H41.6445H39.6445V37.0367V40.7101V42.7101H41.6445H45.3179H47.3179V40.7101V37.0367Z" stroke="white" stroke-width="4"/>
<path d="M62.0114 37.0367V35.0367H60.0114H56.338H54.338V37.0367V40.7101V42.7101H56.338H60.0114H62.0114V40.7101V37.0367Z" stroke="white" stroke-width="4"/>
<path d="M54.6703 37.0367V35.0367H52.6703H48.9969H46.9969V37.0367V44.3776V46.3776H48.9969H52.6703H54.6703V44.3776V37.0367Z" stroke="white" stroke-width="4"/>
<path d="M67.3811 48.2143H69.3811V46.2143V42.541V40.541H67.3811H60.0344H58.0344V42.541V46.2143V48.2143H60.0344H67.3811Z" stroke="white" stroke-width="4"/>
<path d="M41.6445 48.2085H43.6445V46.2085V42.5352V40.5352H41.6445H34.2978H32.2978V42.5352V46.2085V48.2085H34.2978H41.6445Z" stroke="white" stroke-width="4"/>
<mask id="path-89-outside-5_0_184013" maskUnits="userSpaceOnUse" x="62.0911" y="73.6357" width="19" height="19" fill="black">
<rect fill="white" x="62.0911" y="73.6357" width="19" height="19"/>
<path d="M71.5255 88.5511C68.5322 88.5511 66.0911 86.1041 66.0911 83.0934C66.0911 80.0826 68.5264 77.6357 71.5255 77.6357C72.7926 77.6357 74.0132 78.0774 74.9722 78.8737C75.2163 79.0771 75.379 79.4084 75.379 79.6932C75.379 79.978 75.2744 80.2221 75.0826 80.4197C74.8908 80.6115 74.6351 80.722 74.3619 80.722C74.1294 80.722 73.8969 80.6348 73.7051 80.4837C73.1006 79.9896 72.2637 79.6874 71.5255 79.6874C69.654 79.6874 68.1312 81.216 68.1312 83.0934C68.1312 84.9707 69.654 86.4994 71.5255 86.4994C73.2576 86.4994 74.327 85.2556 74.327 84.1163H71.5836V82.1227H75.3965C75.9254 82.1227 76.3671 82.5238 76.4136 83.0527C76.4311 83.2387 76.4369 83.384 76.4369 83.5177C76.4369 84.8487 76.0765 86.1099 75.1407 87.0515C74.1875 88.0164 73.0483 88.5453 71.5255 88.5453"/>
</mask>
<path d="M74.9722 78.8737L77.5329 75.8008L77.5274 75.7962L74.9722 78.8737ZM75.0826 80.4197L77.9111 83.2482L77.9322 83.2271L77.953 83.2056L75.0826 80.4197ZM73.7051 80.4837L71.1738 83.5808L71.2015 83.6035L71.2296 83.6257L73.7051 80.4837ZM74.327 84.1163H78.327V80.1163H74.327V84.1163ZM71.5836 84.1163H67.5836V88.1163H71.5836V84.1163ZM71.5836 82.1227V78.1227H67.5836V82.1227H71.5836ZM76.4136 83.0527L72.429 83.403L72.43 83.4145L72.4311 83.4261L76.4136 83.0527ZM75.1407 87.0515L72.3036 84.2319L72.2952 84.2403L75.1407 87.0515ZM71.5255 84.5511C70.7552 84.5511 70.0911 83.9089 70.0911 83.0934H62.0911C62.0911 88.2994 66.3092 92.5511 71.5255 92.5511V84.5511ZM70.0911 83.0934C70.0911 82.2751 70.7522 81.6357 71.5255 81.6357V73.6357C66.3006 73.6357 62.0911 77.8902 62.0911 83.0934H70.0911ZM71.5255 81.6357C71.865 81.6357 72.1804 81.7547 72.417 81.9512L77.5274 75.7962C75.846 74.4001 73.7202 73.6357 71.5255 73.6357V81.6357ZM72.4115 81.9466C72.0664 81.659 71.8347 81.3353 71.6822 81.0273C71.535 80.7298 71.379 80.2786 71.379 79.6932H79.379C79.379 78.0972 78.5892 76.681 77.5329 75.8008L72.4115 81.9466ZM71.379 79.6932C71.379 79.3354 71.447 78.9464 71.6059 78.5618C71.7638 78.1794 71.9834 77.8697 72.2123 77.6338L77.953 83.2056C78.8428 82.2889 79.379 81.0556 79.379 79.6932H71.379ZM72.2542 77.5913C72.7831 77.0625 73.5332 76.722 74.3619 76.722V84.722C75.7369 84.722 76.9986 84.1606 77.9111 83.2482L72.2542 77.5913ZM74.3619 76.722C75.1223 76.722 75.7452 76.9987 76.1806 77.3417L71.2296 83.6257C72.0486 84.2709 73.1366 84.722 74.3619 84.722V76.722ZM76.2364 77.3865C74.9469 76.3326 73.2235 75.6874 71.5255 75.6874V83.6874C71.4401 83.6874 71.3827 83.679 71.3532 83.6734C71.3229 83.6677 71.3053 83.6619 71.2967 83.6588C71.288 83.6557 71.2772 83.6511 71.2619 83.6425C71.2469 83.6341 71.2164 83.6157 71.1738 83.5808L76.2364 77.3865ZM71.5255 75.6874C67.4315 75.6874 64.1312 79.0202 64.1312 83.0934H72.1312C72.1312 83.4118 71.8764 83.6874 71.5255 83.6874V75.6874ZM64.1312 83.0934C64.1312 87.1665 67.4315 90.4994 71.5255 90.4994V82.4994C71.8765 82.4994 72.1312 82.775 72.1312 83.0934H64.1312ZM71.5255 90.4994C75.2173 90.4994 78.327 87.7061 78.327 84.1163H70.327C70.327 82.805 71.2979 82.4994 71.5255 82.4994V90.4994ZM74.327 80.1163H71.5836V88.1163H74.327V80.1163ZM75.5836 84.1163V82.1227H67.5836V84.1163H75.5836ZM71.5836 86.1227H75.3965V78.1227H71.5836V86.1227ZM75.3965 86.1227C73.8663 86.1227 72.5653 84.9537 72.429 83.403L80.3983 82.7024C80.1689 80.0939 77.9845 78.1227 75.3965 78.1227V86.1227ZM72.4311 83.4261C72.4346 83.4632 72.4358 83.4848 72.4363 83.4951C72.4368 83.5046 72.4369 83.5108 72.4369 83.5177H80.4369C80.4369 83.2548 80.4248 82.9848 80.3962 82.6793L72.4311 83.4261ZM72.4369 83.5177C72.4369 83.8307 72.3936 84.0243 72.359 84.1245C72.3297 84.2092 72.3083 84.2271 72.3036 84.2319L77.9779 89.8712C79.8795 87.9578 80.4369 85.5439 80.4369 83.5177H72.4369ZM72.2952 84.2403C72.1294 84.4081 72.0289 84.459 71.9808 84.4795C71.9349 84.499 71.8098 84.5453 71.5255 84.5453V92.5453C74.1549 92.5453 76.3082 91.5613 77.9863 89.8628L72.2952 84.2403Z" fill="white" mask="url(#path-89-outside-5_0_184013)"/>
<path d="M70.5785 83.1227C70.5785 82.5705 71.032 82.1171 71.5841 82.1171C72.1438 82.1171 72.5897 82.5724 72.5897 83.1227C72.5897 83.673 72.1439 84.1283 71.5841 84.1283C71.0244 84.1283 70.5785 83.673 70.5785 83.1227ZM71.5841 86.1171C73.2411 86.1171 74.5785 84.7798 74.5785 83.1227C74.5785 81.4791 73.2487 80.1283 71.5841 80.1283C69.9194 80.1283 68.5897 81.4792 68.5897 83.1227C68.5897 84.7663 69.9195 86.1171 71.5841 86.1171ZM72.5785 83.1227C72.5785 83.6751 72.1366 84.1171 71.5841 84.1171C71.0317 84.1171 70.5897 83.6693 70.5897 83.1227C70.5897 82.5761 71.0317 82.1283 71.5841 82.1283C72.1366 82.1283 72.5785 82.5761 72.5785 83.1227Z" stroke="white" stroke-width="4"/>
<path d="M41.8137 25.9819V23.9819H39.8137H36.1404H34.1404V25.9819V29.5855V31.5855H36.1404H39.8137H41.8137V29.5855V25.9819Z" stroke="white" stroke-width="4"/>
<path d="M41.8018 19.6642V17.6642H39.8018H35.2334H33.2334V19.6642V26.0228V28.0228H35.2334H39.8018H41.8018V26.0228V19.6642Z" stroke="white" stroke-width="4"/>
<path d="M37.5812 35.5026V37.5026H39.5812H41.9817H43.9817V35.5026V33.1022V31.1022H41.9817H39.5812H37.5812V33.1022V35.5026Z" stroke="white" stroke-width="4"/>
<path d="M39.8594 35.5026V37.5026H41.8594H44.2599H46.2599V35.5026V33.1022V31.1022H44.2599H41.8594H39.8594V33.1022V35.5026Z" stroke="white" stroke-width="4"/>
<path d="M42.1379 35.5026V37.5026H44.1379H46.5383H48.5383V35.5026V33.1022V31.1022H46.5383H44.1379H42.1379V33.1022V35.5026Z" stroke="white" stroke-width="4"/>
<path d="M44.4164 35.5026V37.5026H46.4164H48.8169H50.8169V35.5026V33.1022V31.1022H48.8169H46.4164H44.4164V33.1022V35.5026Z" stroke="white" stroke-width="4"/>
<path d="M44.4164 37.7808V39.7808H46.4164H48.8169H50.8169V37.7808V35.3803V33.3803H48.8169H46.4164H44.4164V35.3803V37.7808Z" stroke="white" stroke-width="4"/>
<path d="M44.4164 40.0593V42.0593H46.4164H48.8169H50.8169V40.0593V37.6589V35.6589H48.8169H46.4164H44.4164V37.6589V40.0593Z" stroke="white" stroke-width="4"/>
<path d="M44.4164 42.3378V44.3378H46.4164H48.8169H50.8169V42.3378V39.9373V37.9373H48.8169H46.4164H44.4164V39.9373V42.3378Z" stroke="white" stroke-width="4"/>
<path d="M32.7859 35.5026V37.5026H34.7859H37.1864H39.1864V35.5026V33.1022V31.1022H37.1864H34.7859H32.7859V33.1022V35.5026Z" stroke="white" stroke-width="4"/>
<path d="M32.7859 37.7808V39.7808H34.7859H37.1864H39.1864V37.7808V35.3803V33.3803H37.1864H34.7859H32.7859V35.3803V37.7808Z" stroke="white" stroke-width="4"/>
<path d="M32.7859 40.0593V42.0593H34.7859H37.1864H39.1864V40.0593V37.6589V35.6589H37.1864H34.7859H32.7859V37.6589V40.0593Z" stroke="white" stroke-width="4"/>
<path d="M32.7859 42.3378V44.3378H34.7859H37.1864H39.1864V42.3378V39.9373V37.9373H37.1864H34.7859H32.7859V39.9373V42.3378Z" stroke="white" stroke-width="4"/>
<path d="M35.1806 35.5026V37.5026H37.1806H39.5811H41.5811V35.5026V33.1022V31.1022H39.5811H37.1806H35.1806V33.1022V35.5026Z" stroke="white" stroke-width="4"/>
<path d="M37.5812 44.6395V46.6395H39.5812H41.9817H43.9817V44.6395V42.2391V40.2391H41.9817H39.5812H37.5812V42.2391V44.6395Z" stroke="white" stroke-width="4"/>
<path d="M39.8594 44.6395V46.6395H41.8594H44.2599H46.2599V44.6395V42.2391V40.2391H44.2599H41.8594H39.8594V42.2391V44.6395Z" stroke="white" stroke-width="4"/>
<path d="M42.1379 44.6395V46.6395H44.1379H46.5383H48.5383V44.6395V42.2391V40.2391H46.5383H44.1379H42.1379V42.2391V44.6395Z" stroke="white" stroke-width="4"/>
<path d="M35.1806 44.6395V46.6395H37.1806H39.5811H41.5811V44.6395V42.2391V40.2391H39.5811H37.1806H35.1806V42.2391V44.6395Z" stroke="white" stroke-width="4"/>
<path d="M46.6772 40.0767V42.0767H48.6772H51.0776H53.0776V40.0767V37.6762V35.6762H51.0776H48.6772H46.6772V37.6762V40.0767Z" stroke="white" stroke-width="4"/>
<path d="M48.9557 40.0767V42.0767H50.9557H53.3562H55.3562V40.0767V37.6762V35.6762H53.3562H50.9557H48.9557V37.6762V40.0767Z" stroke="white" stroke-width="4"/>
<path d="M55.8433 35.5026V37.5026H57.8433H60.2438H62.2438V35.5026V33.1022V31.1022H60.2438H57.8433H55.8433V33.1022V35.5026Z" stroke="white" stroke-width="4"/>
<path d="M58.1214 35.5026V37.5026H60.1214H62.5219H64.5219V35.5026V33.1022V31.1022H62.5219H60.1214H58.1214V33.1022V35.5026Z" stroke="white" stroke-width="4"/>
<path d="M60.4 35.5026V37.5026H62.4H64.8004H66.8004V35.5026V33.1022V31.1022H64.8004H62.4H60.4V33.1022V35.5026Z" stroke="white" stroke-width="4"/>
<path d="M62.6785 35.5026V37.5026H64.6785H67.079H69.079V35.5026V33.1022V31.1022H67.079H64.6785H62.6785V33.1022V35.5026Z" stroke="white" stroke-width="4"/>
<path d="M62.6785 37.7808V39.7808H64.6785H67.079H69.079V37.7808V35.3803V33.3803H67.079H64.6785H62.6785V35.3803V37.7808Z" stroke="white" stroke-width="4"/>
<path d="M62.6785 40.0593V42.0593H64.6785H67.079H69.079V40.0593V37.6589V35.6589H67.079H64.6785H62.6785V37.6589V40.0593Z" stroke="white" stroke-width="4"/>
<path d="M62.6785 42.3378V44.3378H64.6785H67.079H69.079V42.3378V39.9373V37.9373H67.079H64.6785H62.6785V39.9373V42.3378Z" stroke="white" stroke-width="4"/>
<path d="M51.048 35.5026V37.5026H53.048H55.4485H57.4485V35.5026V33.1022V31.1022H55.4485H53.048H51.048V33.1022V35.5026Z" stroke="white" stroke-width="4"/>
<path d="M51.048 37.7808V39.7808H53.048H55.4485H57.4485V37.7808V35.3803V33.3803H55.4485H53.048H51.048V35.3803V37.7808Z" stroke="white" stroke-width="4"/>
<path d="M51.048 40.0593V42.0593H53.048H55.4485H57.4485V40.0593V37.6589V35.6589H55.4485H53.048H51.048V37.6589V40.0593Z" stroke="white" stroke-width="4"/>
<path d="M51.048 42.3378V44.3378H53.048H55.4485H57.4485V42.3378V39.9373V37.9373H55.4485H53.048H51.048V39.9373V42.3378Z" stroke="white" stroke-width="4"/>
<path d="M53.4485 35.5026V37.5026H55.4485H57.849H59.849V35.5026V33.1022V31.1022H57.849H55.4485H53.4485V33.1022V35.5026Z" stroke="white" stroke-width="4"/>
<path d="M55.8433 44.6395V46.6395H57.8433H60.2438H62.2438V44.6395V42.2391V40.2391H60.2438H57.8433H55.8433V42.2391V44.6395Z" stroke="white" stroke-width="4"/>
<path d="M58.1214 44.6395V46.6395H60.1214H62.5219H64.5219V44.6395V42.2391V40.2391H62.5219H60.1214H58.1214V42.2391V44.6395Z" stroke="white" stroke-width="4"/>
<path d="M60.4 44.6395V46.6395H62.4H64.8004H66.8004V44.6395V42.2391V40.2391H64.8004H62.4H60.4V42.2391V44.6395Z" stroke="white" stroke-width="4"/>
<path d="M53.4485 44.6395V46.6395H55.4485H57.849H59.849V44.6395V42.2391V40.2391H57.849H55.4485H53.4485V42.2391V44.6395Z" stroke="white" stroke-width="4"/>
<path d="M67.1887 40.0477V42.0477H69.1887H72.8621H74.8621V40.0477V36.3743V34.3743H72.8621H69.1887H67.1887V36.3743V40.0477Z" stroke="white" stroke-width="4"/>
<path d="M63.899 40.0477V42.0477H65.899H69.5724H71.5724V40.0477V36.3743V34.3743H69.5724H65.899H63.899V36.3743V40.0477Z" stroke="white" stroke-width="4"/>
<path d="M29.9031 40.0477V42.0477H31.9031H35.5764H37.5764V40.0477V36.3743V34.3743H35.5764H31.9031H29.9031V36.3743V40.0477Z" stroke="white" stroke-width="4"/>
<path d="M26.7938 40.0477V42.0477H28.7938H32.4672H34.4672V40.0477V36.3743V34.3743H32.4672H28.7938H26.7938V36.3743V40.0477Z" stroke="white" stroke-width="4"/>
<path d="M50.5837 11.3408H39.5869V15.0084H35.8961V18.6817H32.246V22.3551H29.0202L29.3457 32.6776L28.7819 37.0368H72.8737V22.3551L69.1713 18.6817L61.6211 15.0084L57.9362 11.3408H50.5837Z" fill="#3D3A37"/>
<path d="M36.1344 22.3552V37.037H32.461V40.7104H28.7703V44.3779H32.461V51.7188H36.1344V55.3921H39.8019V59.0655H61.8478V55.3921H65.5212V51.7188H69.1887V44.3779H72.8621V40.7104H69.1887V37.037H65.5212V22.3552H36.1344Z" fill="#EDCFB9"/>
<path d="M36.1228 51.7188H32.4495V55.3921H36.1228V51.7188Z" fill="#C2A490"/>
<path d="M32.4552 37.0367H28.7819V40.7101H32.4552V37.0367Z" fill="#EDCFB9"/>
<path d="M58.1628 22.3552H50.8278V26.0286H58.1628V22.3552Z" fill="#C2A490"/>
<path d="M50.8278 22.3552H47.1544V26.0286H50.8278V22.3552Z" fill="#C2A490"/>
<path d="M17.7909 73.7531H21.4642V70.0797H17.7909V73.7531Z" fill="#22829C"/>
<path d="M14.1177 92.1022H17.791L17.791 73.7471H14.1177L14.1177 92.1022Z" fill="#22829C"/>
<path d="M14.1177 104H17.791L17.791 85.6449H14.1177L14.1177 104Z" fill="#22829C"/>
<path d="M21.4585 70.0738H43.4812V66.4004H21.4585V70.0738Z" fill="#22829C"/>
<path d="M83.8706 70.0738H80.1973V73.7471H83.8706V70.0738Z" fill="#22829C"/>
<path d="M87.5498 73.7473H83.8765V92.1024H87.5498V73.7473Z" fill="#22829C"/>
<path d="M87.5498 85.6448H83.8765V104H87.5498V85.6448Z" fill="#22829C"/>
<path d="M80.1974 66.4061H58.1631V70.0795H80.1974V66.4061Z" fill="#22829C"/>
<path d="M28.7819 40.7101H25.1085V44.3834H28.7819V40.7101Z" fill="#C2A490"/>
<path d="M39.7964 55.392H36.123V59.0654H39.7964V55.392Z" fill="#C2A490"/>
<path d="M47.1603 62.7328H43.4869V70.0737H47.1603V62.7328Z" fill="#C2A490"/>
<path d="M58.1687 62.7328H54.4954V70.0737H58.1687V62.7328Z" fill="#C2A490"/>
<path d="M65.5155 55.3978H69.1888V51.7245H65.5155V55.3978Z" fill="#C2A490"/>
<path d="M61.848 59.0654H65.5214V55.392H61.848V59.0654Z" fill="#C2A490"/>
<path d="M61.8422 59.0654H39.7963V62.7387H61.8422V59.0654Z" fill="#C2A490"/>
<path d="M36.1228 26.0228H32.4495V37.037H36.1228V26.0228Z" fill="#C2A490"/>
<path d="M32.4552 44.3776H28.7819V51.7185H32.4552V44.3776Z" fill="#C2A490"/>
<path d="M69.1887 40.7101H72.8621V37.0367H69.1887V40.7101Z" fill="#EDCFB9"/>
<path d="M72.862 44.3776H76.5354V40.7043H72.862V44.3776Z" fill="#C2A490"/>
<path d="M65.5155 37.0367H69.1888V29.6203H65.5155V37.0367Z" fill="#C2A490"/>
<path d="M69.1887 51.7245H72.8621V44.3837H69.1887V51.7245Z" fill="#C2A490"/>
<path d="M47.1546 22.3552H36.1404V26.0286H47.1546V22.3552Z" fill="#C2A490"/>
<path d="M65.5098 22.3552H58.1689V26.0286H65.5098V22.3552Z" fill="#C2A490"/>
<path d="M32.4668 18.6819H28.7935V22.3553H32.4668V18.6819Z" fill="#302E2B"/>
<path d="M36.1463 15.0083H32.4729V18.6817H36.1463V15.0083Z" fill="#302E2B"/>
<path d="M39.7964 11.3408H36.123V15.0142H39.7964V11.3408Z" fill="#302E2B"/>
<path d="M65.5039 7.66174H61.8306V11.3351H65.5039V7.66174Z" fill="#302E2B"/>
<path d="M54.5363 7.66748H50.8629V11.3408H54.5363V7.66748Z" fill="#302E2B"/>
<path d="M61.8596 4H58.1863V11.3409H61.8596V4Z" fill="#302E2B"/>
<path d="M72.8738 18.6819H69.2004V22.3553H72.8738V18.6819Z" fill="#302E2B"/>
<path d="M72.8563 19.1408H69.1946V37.4959H72.8563V19.1408Z" fill="#302E2B"/>
<path d="M58.1572 11.3408H39.8137V15.0142H58.1572V11.3408Z" fill="#302E2B"/>
<path d="M32.4613 18.5715H28.7996V36.9266H32.4613V18.5715Z" fill="#302E2B"/>
<path d="M65.5331 11.3408H58.1573V18.7166H65.5331V11.3408Z" fill="#3D3A37"/>
<path d="M36.1229 25.9123H32.4496V29.5856H36.1229V25.9123Z" fill="#3D3A37"/>
<path d="M69.1715 18.6819H65.4982V29.6206H69.1715V18.6819Z" fill="#3D3A37"/>
<path d="M65.5388 25.947H61.8655V29.6204H65.5388V25.947Z" fill="#C2A490"/>
<path d="M65.5388 18.9608H61.8655V26.0227H65.5388V18.9608Z" fill="#3D3A37"/>
<path d="M69.1831 11.3408H65.5098V15.0142H69.1831V11.3408Z" fill="#302E2B"/>
<path d="M69.1715 15.0083H65.4982V18.6817H69.1715V15.0083Z" fill="#302E2B"/>
<path d="M50.8163 70.0738H21.4644V73.7471H17.791V92.1023H50.8163" fill="#299BBA"/>
<path d="M50.8163 81.9714H21.4644V85.6448H17.791V104H50.8163" fill="#299BBA"/>
<path d="M50.8162 70.0738H80.2146V73.7471H83.8821V92.1023H50.8162" fill="#299BBA"/>
<path d="M50.8162 81.9714H80.2146V85.6448H83.8821V104H50.8162" fill="#299BBA"/>
<path d="M54.4895 62.7328H47.1544V73.7471H54.4895V62.7328Z" fill="#EDCFB9"/>
<path d="M50.8278 70.0738H47.1544V73.7471H50.8278V70.0738Z" fill="#C2A490"/>
<path d="M43.4872 66.4061H36.123V70.0795H43.4872V66.4061Z" fill="#22829C"/>
<path d="M39.7964 70.0738H36.123V73.7471H39.7964V70.0738Z" fill="#22829C"/>
<path d="M58.163 70.0738H65.5271V66.4004H58.163V70.0738Z" fill="#22829C"/>
<path d="M61.8248 73.7531H65.4982V70.0797H61.8248V73.7531Z" fill="#22829C"/>
<path d="M47.1603 84.7614H43.4869V88.4347H47.1603V84.7614Z" fill="#22829C"/>
<path d="M54.5011 84.7614H50.8278V88.4347H54.5011V84.7614Z" fill="#22829C"/>
<path d="M43.4987 73.7473H39.8253V84.7615H43.4987V73.7473Z" fill="#22829C"/>
<path d="M58.1687 73.7473H54.4954V84.7615H58.1687V73.7473Z" fill="#22829C"/>
<path d="M47.1546 70.0738H39.8137V73.7471H47.1546V70.0738Z" fill="white"/>
<path d="M61.8422 70.0738H54.5013V73.7471H61.8422V70.0738Z" fill="white"/>
<path d="M47.1603 73.7473H43.4869V77.4206H47.1603V73.7473Z" fill="white"/>
<path d="M58.1747 73.7473H54.5013V77.4206H58.1747V73.7473Z" fill="white"/>
<path d="M54.5011 77.4205H50.8278V81.0939H54.5011V77.4205Z" fill="white"/>
<path d="M47.1603 77.4205H43.4869V81.0939H47.1603V77.4205Z" fill="white"/>
<path d="M54.5011 81.0881H50.8278V84.7614H54.5011V81.0881Z" fill="white"/>
<path d="M47.1603 81.0881H43.4869V84.7614H47.1603V81.0881Z" fill="white"/>
<path d="M54.5011 73.7355H47.1544V77.4089H54.5011V73.7355Z" fill="#6FB87A"/>
<path d="M50.8278 77.4032H47.1544V92.085H50.8278V77.4032Z" fill="#6FB87A"/>
<path d="M54.5011 70.0738H50.8278V73.7471H54.5011V70.0738Z" fill="#C2A490"/>
<path d="M59.9123 46.4178H56.2797V50.4689H59.9123V46.4178Z" fill="#C30045"/>
<path d="M56.2796 46.4178H52.647V50.4689H56.2796V46.4178Z" fill="#C30045"/>
<path d="M52.6472 46.4178H49.0145V50.4689H52.6472V46.4178Z" fill="#C30045"/>
<path d="M49.0088 46.4178H45.3761V50.4689H49.0088V46.4178Z" fill="#C30045"/>
<path d="M45.3761 46.4178H41.7434V50.4689H45.3761V46.4178Z" fill="#C30045"/>
<path d="M56.187 50.4692H52.5543V54.5203H56.187V50.4692Z" fill="#C30045"/>
<path d="M52.5542 50.4692H48.9215V54.5203H52.5542V50.4692Z" fill="#C30045"/>
<path d="M48.9215 50.4692H45.2888V54.5203H48.9215V50.4692Z" fill="#C30045"/>
<path d="M45.3179 37.0367H41.6445V40.7101H45.3179V37.0367Z" fill="#383532"/>
<path d="M60.0114 37.0367H56.338V40.7101H60.0114V37.0367Z" fill="#383532"/>
<path d="M52.6703 37.0367H48.9969V44.3776H52.6703V37.0367Z" fill="#C2A490"/>
<path d="M67.3811 46.2143V42.541H60.0344V46.2143H67.3811Z" fill="#FF92A0"/>
<path d="M41.6445 46.2085V42.5352H34.2978V46.2085H41.6445Z" fill="#FF92A0"/>
<path d="M71.5255 88.5511C68.5322 88.5511 66.0911 86.1041 66.0911 83.0934C66.0911 80.0826 68.5264 77.6357 71.5255 77.6357C72.7926 77.6357 74.0132 78.0774 74.9722 78.8737C75.2163 79.0771 75.379 79.4084 75.379 79.6932C75.379 79.978 75.2744 80.2221 75.0826 80.4197C74.8908 80.6115 74.6351 80.722 74.3619 80.722C74.1294 80.722 73.8969 80.6348 73.7051 80.4837C73.1006 79.9896 72.2637 79.6874 71.5255 79.6874C69.654 79.6874 68.1312 81.216 68.1312 83.0934C68.1312 84.9707 69.654 86.4994 71.5255 86.4994C73.2576 86.4994 74.327 85.2556 74.327 84.1163H71.5836V82.1227H75.3965C75.9254 82.1227 76.3671 82.5238 76.4136 83.0527C76.4311 83.2387 76.4369 83.384 76.4369 83.5177C76.4369 84.8487 76.0765 86.1099 75.1407 87.0515C74.1875 88.0164 73.0483 88.5453 71.5255 88.5453" fill="white"/>
<path d="M72.5785 83.1227C72.5785 83.6751 72.1366 84.1171 71.5841 84.1171C71.0317 84.1171 70.5897 83.6693 70.5897 83.1227C70.5897 82.5761 71.0317 82.1283 71.5841 82.1283C72.1366 82.1283 72.5785 82.5761 72.5785 83.1227Z" fill="#00C01E"/>
<path d="M39.8137 25.9819H36.1404V29.5855H39.8137V25.9819Z" fill="#C2A490"/>
<path d="M39.8018 19.6642H35.2334V26.0228H39.8018V19.6642Z" fill="#3D3A37"/>
<path d="M39.5812 35.5026H41.9817V33.1022H39.5812V35.5026Z" fill="#302E2B"/>
<path d="M41.8594 35.5026H44.2599V33.1022H41.8594V35.5026Z" fill="#302E2B"/>
<path d="M44.1379 35.5026H46.5383V33.1022H44.1379V35.5026Z" fill="#302E2B"/>
<path d="M46.4164 35.5026H48.8169V33.1022H46.4164V35.5026Z" fill="#302E2B"/>
<path d="M46.4164 37.7808H48.8169V35.3803H46.4164V37.7808Z" fill="#302E2B"/>
<path d="M46.4164 40.0593H48.8169V37.6589H46.4164V40.0593Z" fill="#302E2B"/>
<path d="M46.4164 42.3378H48.8169V39.9373H46.4164V42.3378Z" fill="#302E2B"/>
<path d="M34.7859 35.5026H37.1864V33.1022H34.7859V35.5026Z" fill="#302E2B"/>
<path d="M34.7859 37.7808H37.1864V35.3803H34.7859V37.7808Z" fill="#302E2B"/>
<path d="M34.7859 40.0593H37.1864V37.6589H34.7859V40.0593Z" fill="#302E2B"/>
<path d="M34.7859 42.3378H37.1864V39.9373H34.7859V42.3378Z" fill="#302E2B"/>
<path d="M37.1806 35.5026H39.5811V33.1022H37.1806V35.5026Z" fill="#302E2B"/>
<path d="M39.5812 44.6395H41.9817V42.2391H39.5812V44.6395Z" fill="#302E2B"/>
<path d="M41.8594 44.6395H44.2599V42.2391H41.8594V44.6395Z" fill="#302E2B"/>
<path d="M44.1379 44.6395H46.5383V42.2391H44.1379V44.6395Z" fill="#302E2B"/>
<path d="M37.1806 44.6395H39.5811V42.2391H37.1806V44.6395Z" fill="#302E2B"/>
<path d="M48.6772 40.0767H51.0776V37.6762H48.6772V40.0767Z" fill="#302E2B"/>
<path d="M50.9557 40.0767H53.3562V37.6762H50.9557V40.0767Z" fill="#302E2B"/>
<path d="M57.8433 35.5026H60.2438V33.1022H57.8433V35.5026Z" fill="#302E2B"/>
<path d="M60.1214 35.5026H62.5219V33.1022H60.1214V35.5026Z" fill="#302E2B"/>
<path d="M62.4 35.5026H64.8004V33.1022H62.4V35.5026Z" fill="#302E2B"/>
<path d="M64.6785 35.5026H67.079V33.1022H64.6785V35.5026Z" fill="#302E2B"/>
<path d="M64.6785 37.7808H67.079V35.3803H64.6785V37.7808Z" fill="#302E2B"/>
<path d="M64.6785 40.0593H67.079V37.6589H64.6785V40.0593Z" fill="#302E2B"/>
<path d="M64.6785 42.3378H67.079V39.9373H64.6785V42.3378Z" fill="#302E2B"/>
<path d="M53.048 35.5026H55.4485V33.1022H53.048V35.5026Z" fill="#302E2B"/>
<path d="M53.048 37.7808H55.4485V35.3803H53.048V37.7808Z" fill="#302E2B"/>
<path d="M53.048 40.0593H55.4485V37.6589H53.048V40.0593Z" fill="#302E2B"/>
<path d="M53.048 42.3378H55.4485V39.9373H53.048V42.3378Z" fill="#302E2B"/>
<path d="M55.4485 35.5026H57.849V33.1022H55.4485V35.5026Z" fill="#302E2B"/>
<path d="M57.8433 44.6395H60.2438V42.2391H57.8433V44.6395Z" fill="#302E2B"/>
<path d="M60.1214 44.6395H62.5219V42.2391H60.1214V44.6395Z" fill="#302E2B"/>
<path d="M62.4 44.6395H64.8004V42.2391H62.4V44.6395Z" fill="#302E2B"/>
<path d="M55.4485 44.6395H57.849V42.2391H55.4485V44.6395Z" fill="#302E2B"/>
<path d="M69.1887 40.0477H72.8621V36.3743H69.1887V40.0477Z" fill="#302E2B"/>
<path d="M65.899 40.0477H69.5724V36.3743H65.899V40.0477Z" fill="#302E2B"/>
<path d="M31.9031 40.0477H35.5764V36.3743H31.9031V40.0477Z" fill="#302E2B"/>
<path d="M28.7938 40.0477H32.4672V36.3743H28.7938V40.0477Z" fill="#302E2B"/>
</svg>
