<svg width="85" height="86" viewBox="0 0 85 86" fill="none" xmlns="http://www.w3.org/2000/svg">
<path d="M70.856 62.8255H13.2289V75.6293H70.856V62.8255Z" fill="#299BBA"/>
<path d="M70.856 72.4562H13.2289V85.26H70.856V72.4562Z" fill="#299BBA"/>
<path d="M70.8256 56.4287H13.2086V62.8255H70.8256V56.4287Z" fill="#299BBA"/>
<path d="M67.6119 50.0218V26.1224H64.4186V23.1318H61.2202V14.1651H58.0218V11.1796L58.0319 8.18901H51.625H48.4215L48.4265 5.20349H29.2006V8.18901H25.9819V11.1796H22.7937V14.1651H19.5953V23.1267H16.3969V50.0218" fill="#99755D"/>
<path d="M35.6025 18.0072H29.2006V27.6126H25.9971V30.811H22.7784V34.0144H25.9971V40.4163H29.2006V43.6198H32.399V46.8182H51.6249V43.6198H54.8284V40.4163H58.0319V34.0144H61.2303V30.811H58.0319V27.6126H54.8284V18.0072H51.6199V14.8037H35.6025V18.0072Z" fill="#EDCFB9"/>
<path d="M29.1955 40.4164H25.9921V43.6199H29.1955V40.4164Z" fill="#C2A490"/>
<path d="M25.992 27.6125H22.7886V30.816H25.992V27.6125Z" fill="#C2A490"/>
<path d="M54.8285 18.0073H51.625V21.2108H54.8285V18.0073Z" fill="#EDCFB9"/>
<path d="M51.63 18.0073H48.4265V21.2108H51.63V18.0073Z" fill="#C2A490"/>
<path d="M38.811 21.2006H29.2006V24.404H38.811V21.2006Z" fill="#C2A490"/>
<path d="M13.2035 59.6271H16.407V56.4236H13.2035V59.6271Z" fill="#22829C"/>
<path d="M10 62.8255H13.2035V59.622H10V62.8255Z" fill="#22829C"/>
<path d="M10 75.6242H13.2035L13.2035 62.8306H10L10 75.6242Z" fill="#22829C"/>
<path d="M10 85.2549H13.2035L13.2035 72.4613H10L10 85.2549Z" fill="#22829C"/>
<path d="M70.8407 75.6242H74.0442V62.8306H70.8407V75.6242Z" fill="#22829C"/>
<path d="M70.8407 85.2549H74.0442V72.4613H70.8407V85.2549Z" fill="#22829C"/>
<path d="M70.8357 56.4236H67.6322V59.6271H70.8357V56.4236Z" fill="#22829C"/>
<path d="M74.0392 59.6271H70.8357V62.8306H74.0392V59.6271Z" fill="#22829C"/>
<path d="M22.7886 30.811H19.5851V34.0145H22.7886V30.811Z" fill="#C2A490"/>
<path d="M32.3939 43.6199H29.1904V46.8234H32.3939V43.6199Z" fill="#C2A490"/>
<path d="M38.8162 50.0217H35.6127V53.2252H38.8162V50.0217Z" fill="#C2A490"/>
<path d="M38.8162 53.2252H35.6127V56.4287H38.8162V53.2252Z" fill="#EDCFB9"/>
<path d="M48.4215 53.2252H45.218V56.4287H48.4215V53.2252Z" fill="#EDCFB9"/>
<path d="M45.2079 50.0217H38.811V56.4185H45.2079V50.0217Z" fill="#EDCFB9"/>
<path d="M48.4215 50.0217H45.218V53.2252H48.4215V50.0217Z" fill="#C2A490"/>
<path d="M54.8284 43.6199H58.0319V40.4164H54.8284V43.6199Z" fill="#C2A490"/>
<path d="M51.6249 46.8182H54.8284V43.6148H51.6249V46.8182Z" fill="#C2A490"/>
<path d="M51.6199 46.8182H32.3939V50.0217H51.6199V46.8182Z" fill="#C2A490"/>
<path d="M29.1955 24.4092H25.9921V27.6127H29.1955V24.4092Z" fill="#C2A490"/>
<path d="M25.992 34.0145H22.7886V40.4164H25.992V34.0145Z" fill="#C2A490"/>
<path d="M58.0269 30.811H61.2303V27.6076H58.0269V30.811Z" fill="#C2A490"/>
<path d="M61.2304 34.0145H64.4338V30.811H61.2304V34.0145Z" fill="#C2A490"/>
<path d="M54.8284 27.6075H58.0319V21.2057H54.8284V27.6075Z" fill="#C2A490"/>
<path d="M58.0269 40.4164H61.2303V34.0145H58.0269V40.4164Z" fill="#C2A490"/>
<path d="M61.2353 11.6053H58.0319V14.8088H61.2353V11.6053Z" fill="#8F6C56"/>
<path d="M61.2353 8.40186H58.0319V11.6053H61.2353V8.40186Z" fill="#8F6C56"/>
<path d="M64.4338 14.8037H61.2303V24.4091H64.4338V14.8037Z" fill="#8F6C56"/>
<path d="M58.0218 5.20349H48.4215V8.40697H58.0218V5.20349Z" fill="#8F6C56"/>
<path d="M29.1955 5.20349H25.9921V8.40697H29.1955V5.20349Z" fill="#8F6C56"/>
<path d="M25.992 8.40186H22.7886V11.6053H25.992V8.40186Z" fill="#8F6C56"/>
<path d="M22.8088 11.6053H19.6053V14.8088H22.8088V11.6053Z" fill="#8F6C56"/>
<path d="M16.407 24.4041H13.2035V53.2201H16.407V24.4041Z" fill="#8F6C56"/>
<path d="M67.6373 21.2107H64.4338V50.0217H67.6373V21.2107Z" fill="#8F6C56"/>
<path d="M19.6053 14.8037H16.4019V24.404H19.6053V14.8037Z" fill="#8F6C56"/>
<path d="M48.4114 2H29.2108V5.20348H48.4114V2Z" fill="#8F6C56"/>
<path d="M29.1904 18.0072V21.2005H38.811V18.0072H42.0145V21.2005H48.4113V18.0072H51.6249V14.601H34.4011" fill="#99755D"/>
<path d="M67.6272 53.2252H48.4114V56.4287H67.6272V53.2252Z" fill="#22829C"/>
<path d="M48.4113 18.0022H38.811V21.2057H48.4113V18.0022Z" fill="#C2A490"/>
<path d="M16.3917 53.2252H19.5952V46.8233H16.3917V53.2252Z" fill="#99755D"/>
<path d="M32.3991 56.4186H35.6025V53.2151H32.3991V56.4186Z" fill="#FFE380"/>
<path d="M19.5952 66.0189H32.5206V50.0217H19.5952V66.0189Z" fill="#99755D"/>
<path d="M22.7835 69.2325H29.1956V66.029H22.7835V69.2325Z" fill="#8F6C56"/>
<path d="M38.8162 53.2252H35.6127V56.4287H38.8162V53.2252Z" fill="#C2A490"/>
<path d="M45.2231 56.4287H38.806V59.6322H45.2231V56.4287Z" fill="#C2A490"/>
<path d="M48.4215 53.2252H45.218V56.4287H48.4215V53.2252Z" fill="#C2A490"/>
<path d="M35.6025 50.0217H32.399V66.0188H35.6025V50.0217Z" fill="#8F6C56"/>
<path d="M25.987 72.4258H32.3889V69.2224H25.987V72.4258Z" fill="#8F6C56"/>
<path d="M19.5851 66.0189H22.7886V62.8154H19.5851V66.0189Z" fill="#8F6C56"/>
<path d="M29.1904 69.2325H32.3939V66.029H29.1904V69.2325Z" fill="#99755D"/>
<path d="M25.9869 69.2325H29.1904V66.029H25.9869V69.2325Z" fill="#99755D"/>
<path d="M29.1904 75.6293H32.3939V66.0239H29.1904V75.6293Z" fill="#8F6C56"/>
<path d="M48.4215 53.2202H64.4338V50.0217H48.4215V53.2202Z" fill="#99755D"/>
<path d="M64.4338 50.0167H61.2303V53.2202H64.4338V50.0167Z" fill="#8F6C56"/>
<path d="M19.5952 50.0217H16.3917V62.8356H19.5952V50.0217Z" fill="#8F6C56"/>
<path d="M61.2353 24.4041H58.0319V27.6075H61.2353V24.4041Z" fill="white"/>
<path d="M67.6372 18.0022H64.4337V21.2057H67.6372V18.0022Z" fill="white"/>
<path d="M64.4337 21.2006H61.2302V24.404H64.4337V21.2006Z" fill="white"/>
<path d="M37.1992 27.6887H33.9957V30.8922H37.1992V27.6887Z" fill="#383532"/>
<path d="M50.013 27.6887H46.8096V30.8922H50.013V27.6887Z" fill="#383532"/>
<path d="M43.5757 26.9537H40.4685V33.3556H43.5757V26.9537Z" fill="#C2A490"/>
<path d="M49.9472 34.8813H46.7792V38.4143H49.9472V34.8813Z" fill="#C30045"/>
<path d="M46.7741 34.8813H43.6061V38.4143H46.7741V34.8813Z" fill="#C30045"/>
<path d="M43.6061 34.8813H40.4381V38.4143H43.6061V34.8813Z" fill="#C30045"/>
<path d="M40.4381 34.8813H37.2701V38.4143H40.4381V34.8813Z" fill="#C30045"/>
<path d="M37.265 34.8813H34.097V38.4143H37.265V34.8813Z" fill="#C30045"/>
<path d="M46.698 38.4143H43.53V41.9473H46.698V38.4143Z" fill="#C30045"/>
<path d="M43.5249 38.4143H40.3569V41.9473H43.5249V38.4143Z" fill="#C30045"/>
<path d="M40.357 38.4143H37.189V41.9473H40.357V38.4143Z" fill="#C30045"/>
<path d="M56.4302 34.9574V31.7539H50.0232V34.9574H56.4302Z" fill="#FF92A0"/>
<path d="M33.9856 34.9574V31.7539H27.5786V34.9574H33.9856Z" fill="#FF92A0"/>
<path d="M60.1507 72.3346C57.5403 72.3346 55.4114 70.2006 55.4114 67.575C55.4114 64.9493 57.5352 62.8154 60.1507 62.8154C61.2557 62.8154 62.3201 63.2006 63.1565 63.895C63.3694 64.0724 63.5113 64.3613 63.5113 64.6097C63.5113 64.8581 63.4201 65.071 63.2528 65.2433C63.0855 65.4106 62.8625 65.5069 62.6243 65.5069C62.4215 65.5069 62.2188 65.4309 62.0515 65.2991C61.5243 64.8682 60.7944 64.6047 60.1507 64.6047C58.5186 64.6047 57.1905 65.9377 57.1905 67.575C57.1905 69.2122 58.5186 70.5453 60.1507 70.5453C61.6612 70.5453 62.5939 69.4606 62.5939 68.4671H60.2014V66.7285H63.5265C63.9878 66.7285 64.373 67.0782 64.4136 67.5395C64.4288 67.7017 64.4338 67.8284 64.4338 67.945C64.4338 69.1057 64.1196 70.2057 63.3035 71.0268C62.4722 71.8682 61.4787 72.3295 60.1507 72.3295" fill="white"/>
<path d="M61.0681 67.6003C61.0681 68.0818 60.6829 68.4671 60.2014 68.4671C59.7198 68.4671 59.3346 68.0768 59.3346 67.6003C59.3346 67.1238 59.7198 66.7335 60.2014 66.7335C60.6829 66.7335 61.0681 67.1238 61.0681 67.6003Z" fill="#00C01E"/>
</svg>
